<svg width="450" height="450" viewBox="0 0 450 450" fill="none" xmlns="http://www.w3.org/2000/svg">
<path opacity="0.1" d="M231.62 106.525C203.328 111.254 174.993 108.707 147.716 105.185C120.439 101.662 93.2249 97.1635 64.8738 98.0363C46.6467 98.6035 26.371 102.19 13.7587 113.194C1.62575 123.785 -0.10979 138.261 0.0051201 151.347C0.0922932 161.197 1.01553 171.396 7.67635 179.31C12.3005 184.808 19.3694 188.795 24.7147 193.877C43.3381 211.561 38.0562 238.957 26.264 262.159C20.7167 273.04 13.937 283.727 10.2163 294.882C6.49555 306.037 6.12705 318.068 13.1405 327.323C20.0906 336.479 33.3845 341.759 47.2173 344.583C75.3068 350.323 106.483 347.36 136.637 343.242C203.376 334.067 269.39 319.227 335.166 304.43C359.523 298.952 383.987 293.446 407.42 285.389C420.433 280.922 433.671 275.301 442.004 266.415C452.58 255.13 452.675 239.552 442.226 230.098C424.716 214.267 385.488 217.226 371.87 199.192C364.365 189.275 367.42 175.942 373.154 164.216C385.437 139.066 409.509 114.372 406.042 89.0988C403.664 71.7397 386.871 57.2089 364.563 53.1904C341.185 48.9776 311.304 56.0109 298.082 73.2669C284.447 91.0307 256.599 102.352 231.62 106.525Z" fill="#1DD595"/>
<path d="M357.206 87.2693V291.66C357.206 297.735 351.386 302.699 344.199 302.699H68.883C61.6965 302.699 55.876 297.755 55.876 291.66V87.2693C55.876 81.1819 61.6965 74.9724 68.883 74.9724L344.184 75.6466C351.37 75.6466 357.206 81.2016 357.206 87.2693Z" fill="white"/>
<path d="M357.206 87.4182V96.946H55.876V87.4182C55.876 85.7828 56.1938 84.1634 56.8112 82.6526C57.4286 81.1419 58.3335 79.7693 59.4743 78.6135C60.615 77.4576 61.9691 76.5411 63.4593 75.9164C64.9495 75.2916 66.5464 74.9708 68.1589 74.9724H344.939C348.193 74.9735 351.313 76.2852 353.614 78.6191C355.914 80.953 357.206 84.118 357.206 87.4182Z" fill="#3F3D56"/>
<path d="M70.344 90.9532C72.8238 90.9532 74.834 88.9409 74.834 86.4586C74.834 83.9763 72.8238 81.964 70.344 81.964C67.8643 81.964 65.854 83.9763 65.854 86.4586C65.854 88.9409 67.8643 90.9532 70.344 90.9532Z" fill="white"/>
<path opacity="0.8" d="M83.3152 90.9532C85.795 90.9532 87.8052 88.9409 87.8052 86.4586C87.8052 83.9763 85.795 81.964 83.3152 81.964C80.8354 81.964 78.8252 83.9763 78.8252 86.4586C78.8252 88.9409 80.8354 90.9532 83.3152 90.9532Z" fill="white"/>
<path opacity="0.6" d="M96.2864 90.9532C98.7662 90.9532 100.776 88.9409 100.776 86.4586C100.776 83.9763 98.7662 81.964 96.2864 81.964C93.8066 81.964 91.7964 83.9763 91.7964 86.4586C91.7964 88.9409 93.8066 90.9532 96.2864 90.9532Z" fill="white"/>
<path d="M218.743 126.91H183.592V163.839H218.743V126.91Z" fill="#F9A826"/>
<path d="M264.339 126.91H228.492V163.839H264.339V126.91Z" fill="#8881FF"/>
<path opacity="0.3" d="M309.889 126.91H274.39V163.839H309.889V126.91Z" fill="#DDDDDD"/>
<path opacity="0.2" d="M184.719 174.852H91.7959V266.129H184.719V174.852Z" fill="#1DD595"/>
<path d="M318.767 174.852H195.565V266.477H318.767V174.852Z" fill="white"/>
<path d="M213.757 243.77H208.537V260.84H213.757V243.77Z" fill="#333333"/>
<path d="M222.389 222.795H217.517V260.769H222.389V222.795Z" fill="#333333"/>
<path d="M232.019 203.818H227.495V260.952H232.019V203.818Z" fill="#DFE3EF"/>
<path d="M242.693 189.834H237.472V260.208H242.693V189.834Z" fill="#333333"/>
<path d="M232.019 189.834H227.495V260.208H232.019V189.834Z" fill="#F9A826"/>
<path d="M251.673 221.796H246.452V260.467H251.673V221.796Z" fill="#8881FF"/>
<path d="M261.651 211.808H256.43V260.582H261.651V211.808Z" fill="#333333"/>
<path d="M270.631 196.826H265.41V260.58H270.631V196.826Z" fill="#52C9FF"/>
<path d="M280.609 231.784H275.388V260.351H280.609V231.784Z" fill="#333333"/>
<path d="M290.238 218.8H285.366V260.257H290.238V218.8Z" fill="#1DD595"/>
<path d="M298.87 203.818H294.346V260.952H298.87V203.818Z" fill="#333333"/>
<path d="M309.544 203.818H304.324V260.952H309.544V203.818Z" fill="#333333"/>
<path opacity="0.1" d="M317.695 109.42L289.357 130.905L311.585 160.347L339.924 138.862L317.695 109.42Z" fill="#333333"/>
<path d="M343.237 161.653L348.149 158.872L350.452 160.262L396.486 383.398L393.729 383.927L387.976 378.898L343.237 161.653Z" fill="#65617D"/>
<path opacity="0.1" d="M348.226 158.872L393.843 383.927L396.602 383.398L350.531 160.262L348.226 158.872Z" fill="black"/>
<path d="M314.302 171.856L349.105 175.325V178.127L314.487 174.989L314.302 171.856Z" fill="#65617D"/>
<path d="M317.772 204.816H354.882V208.997H317.295L317.772 204.816Z" fill="#65617D"/>
<path d="M321.286 240.212L358.715 238.776L363.398 240.212V242.66L330.141 244.35H321.591L321.286 240.212Z" fill="#65617D"/>
<path opacity="0.1" d="M330.745 241.951L363.677 239.774V242.455L330.266 244.303L330.745 241.951Z" fill="black"/>
<path opacity="0.1" d="M321.286 239.774L330.683 241.951L330.203 244.303H321.593L321.286 239.774Z" fill="black"/>
<path d="M324.279 277.502L365.972 273.734L370.567 274.901V277.502L333.324 281.312L324.279 282.095V277.502Z" fill="#65617D"/>
<path opacity="0.1" d="M333.259 278.863L366.374 275.677L370.498 274.732V277.276L333.417 281.003L333.259 278.863Z" fill="black"/>
<path opacity="0.1" d="M324.279 280.175L333.863 279.726L334.024 281.779L324.846 282.514L324.279 280.175Z" fill="black"/>
<path d="M326.275 314.964L373.074 308.692L377.087 310.301V313.364L336.719 319.491H327.233L326.275 314.964Z" fill="#65617D"/>
<path opacity="0.1" d="M337.25 317.837L377.622 310.689V313.709L337.25 319.747V317.837Z" fill="black"/>
<path opacity="0.1" d="M327.273 317.738L337.018 317.681V319.771H327.665L327.273 317.738Z" fill="black"/>
<path d="M329.268 354.4L380.744 344.648L385.301 347.37V349.522L340.135 360.654L330.824 361.371L329.268 354.4Z" fill="#65617D"/>
<path opacity="0.1" d="M340.244 357.677L385.488 346.646V348.79L340.244 359.885V357.677Z" fill="black"/>
<path opacity="0.1" d="M330.266 358.17L339.663 357.633V360.001L330.784 360.768L330.266 358.17Z" fill="black"/>
<path d="M316.544 156.874L312.306 157.801L327.617 397.381L332.09 399H335.624L316.544 156.874Z" fill="#65617D"/>
<path opacity="0.1" d="M315.299 157.326L332.691 399H336.181L317.341 156.874L315.299 157.326Z" fill="black"/>
<path d="M321.687 108.421L293.348 129.906L315.576 159.349L343.915 137.863L321.687 108.421Z" fill="white"/>
<path d="M321.687 108.421L293.348 129.906L315.576 159.349L343.915 137.863L321.687 108.421Z" fill="#52C9FF"/>
<path d="M354.098 240.636C353.743 239.348 353.512 238.233 353.512 238.233C353.505 237.372 353.279 236.527 352.855 235.778V235.422L352.754 232.808C352.917 232.327 353.121 231.861 353.363 231.415C353.8 230.574 353.215 227.571 353.215 227.571C353.215 227.571 351.295 223.39 351.631 220.68C351.967 217.97 347.589 208.86 347.589 208.86C347.578 207.965 347.67 207.071 347.863 206.197C347.898 206.014 347.907 205.826 347.892 205.64C347.894 205.618 347.894 205.595 347.892 205.573C347.762 203.8 346.231 200.523 346.231 200.523L346.178 194.17C346.178 194.17 346.927 190.393 345.276 185.43C344.695 183.695 344.316 182.306 344.066 181.23C344.037 181.11 344.013 180.99 343.989 180.879C346.975 180.303 349.269 179.832 349.269 179.832C349.269 179.832 347.244 172.595 346.015 171.365C344.786 170.135 343.692 166.151 343.692 166.151C343.692 166.151 342.881 161.015 343.812 159.468C344.743 157.92 344.772 155.316 344.772 155.316C344.772 155.316 346.97 153.586 347.224 152.846C347.584 151.79 347.796 150.688 347.853 149.574C347.82 148.709 347.508 147.94 347.584 147.483C347.661 147.027 346.84 145.316 347.186 144.48C347.276 144.224 347.316 143.954 347.306 143.683C347.306 143.683 347.306 143.683 347.306 143.659C347.282 142.94 347.189 142.226 347.028 141.525C346.353 140.997 345.574 140.617 344.743 140.41L344.685 140.218L344.536 139.709C344.464 139.664 344.388 139.624 344.311 139.589V139.401L344.263 138.661L344.556 136.979C345.136 134.053 341.258 133.77 341.258 133.77C340.999 133.326 340.583 132.997 340.092 132.847C339.305 132.602 340.13 137.21 340.505 137.494C341.106 138.225 341.647 139.005 342.122 139.824L342.189 139.939C342.128 139.999 342.072 140.063 342.021 140.132L342.209 141.131L342.237 141.285C341.992 141.612 341.797 141.975 341.661 142.361C341.868 142.576 342.03 142.83 342.138 143.108C342.245 143.386 342.297 143.682 342.29 143.981C342.261 144.661 342.365 145.34 342.597 145.979C342.554 145.936 342.036 145.412 341.546 145.566C341.057 145.72 339.684 146.186 339.684 146.186C339.684 146.186 338.652 146.407 338.757 146.633C338.863 146.859 338.1 147.892 338.1 147.892L335.22 145.36C335.191 145.278 335.158 145.201 335.129 145.119C335.001 144.747 334.906 144.365 334.846 143.976C335.146 143.889 335.439 143.782 335.724 143.654C336.014 143.543 336.272 143.363 336.477 143.13C336.696 142.758 336.832 142.344 336.876 141.914C337.14 141.109 337.461 140.324 337.836 139.565C338.359 138.242 338.498 136.797 338.234 135.399C338.171 134.967 338.006 134.558 337.754 134.202C337.274 133.597 336.439 133.371 335.834 132.895C335.23 132.419 334.802 131.67 334.087 131.324C333.41 131.059 332.665 131.024 331.966 131.223C330.569 131.514 329.238 132.065 328.044 132.847C327.681 133.156 327.22 133.326 326.743 133.328C326.358 133.221 326.02 132.987 325.783 132.664C325.783 132.664 325.783 132.636 325.783 132.626L325.755 132.588C325.482 133.254 325.361 133.973 325.399 134.692C325.399 134.801 325.409 134.912 325.428 135.024C325.426 135.062 325.426 135.101 325.428 135.139C325.431 135.173 325.431 135.206 325.428 135.24C325.433 135.29 325.433 135.339 325.428 135.389C325.373 135.533 325.288 135.665 325.179 135.773C325.1 135.873 325.029 135.979 324.967 136.091C324.976 136.051 324.988 136.013 325.001 135.975C324.832 136.243 324.742 136.552 324.742 136.869C324.739 137.098 324.823 137.319 324.977 137.489C325.125 137.619 325.286 137.735 325.457 137.835C325.412 138.143 325.396 138.455 325.409 138.767C325.448 139.695 325.727 140.598 326.217 141.386C326.707 142.175 327.393 142.824 328.207 143.269C328.246 143.346 328.279 143.423 328.313 143.505C328.753 144.448 328.966 145.482 328.937 146.522C328.937 146.599 328.937 146.671 328.908 146.748L328.812 146.868C328.812 146.868 324.219 147.089 323.095 146.148C321.972 145.206 320.455 148.651 320.455 148.651C320.455 148.651 318.819 149.036 318.478 148.728C318.137 148.42 316.212 148.771 316.212 148.771C315.399 148.091 314.357 147.747 313.299 147.81C312.636 147.346 311.91 146.979 311.144 146.719H311.086C310.75 146.613 310.394 146.582 310.045 146.628C310.045 146.628 307.712 144.845 307.011 143.865C306.31 142.885 303.032 139.281 303.013 139.267V139.089L302.955 138.546C302.862 138.565 302.767 138.577 302.672 138.58L302.605 138.397C302.404 137.874 302.16 137.37 301.875 136.888C301.875 136.888 301.875 136.201 302.043 136.023C302.211 135.845 301.856 133.342 301.856 133.342C301.856 133.342 299.638 128.652 297.949 132.285C297.949 132.285 294.589 134.721 297.584 137.292C297.584 137.292 298.76 137.806 298.942 138.253C299.062 138.541 299.485 139.329 299.768 139.853L299.898 140.088L299.864 140.117L299.926 140.564V140.737C299.394 141.069 299.038 141.391 299.134 141.621C299.311 142.009 299.439 142.417 299.514 142.837C299.514 142.837 303.714 147.705 304.314 149.833C304.314 149.833 315.3 155.811 318.852 156.133L318.372 159.347C318.372 159.347 318.257 161.269 318.329 161.957C318.401 162.644 318.051 165.762 318.051 165.762C318.051 165.762 317.614 170.351 317.12 171.009C316.625 171.668 316.827 174.407 316.827 174.407C316.753 175.722 316.567 177.029 316.27 178.313C316.014 179.596 316.014 180.917 316.27 182.201C316.27 182.201 314.638 186.376 318.819 183.426C318.819 183.426 320.921 183.215 323.34 183.037C323.34 183.118 323.34 183.2 323.34 183.282C323.34 183.594 323.34 183.93 323.34 184.286C323.398 186.641 323.508 189.884 323.71 192.335C324.065 196.659 325.716 205.198 325.716 205.198L325.879 209.523C325.813 209.932 325.787 210.348 325.803 210.762C325.831 212.283 326.29 213.765 327.127 215.034L327.569 217.917C327.569 217.917 328.418 219.782 328.476 220.911C328.476 221.004 328.468 221.097 328.452 221.19C328.434 221.336 328.434 221.485 328.452 221.632C328.452 222.939 329.364 226.033 329.364 226.033C329.364 226.033 329.532 229.18 330.012 229.344C330.492 229.507 329.532 231.179 329.278 231.665C329.278 231.636 329.278 231.607 329.278 231.578L329.225 231.674C329.138 231.933 329.097 232.204 329.105 232.477C329.088 232.693 329.132 232.909 329.232 233.101C329.332 233.293 329.484 233.453 329.671 233.563C330.588 234.077 331.087 234.524 330.334 234.726C330.057 234.78 329.783 234.849 329.513 234.932C329.513 234.899 329.479 234.86 329.47 234.831C329.361 234.873 329.271 234.954 329.218 235.057C329.164 235.161 329.149 235.28 329.177 235.394C329.201 235.766 329.311 236.128 329.498 236.451C329.865 237.26 330.324 238.025 330.866 238.728L331.226 238.675C331.177 238.816 331.111 238.95 331.03 239.074C330.899 239.273 330.723 239.438 330.516 239.555C330.323 239.679 330.108 239.764 329.882 239.805C329.627 239.821 329.378 239.893 329.152 240.014C328.926 240.135 328.728 240.303 328.572 240.506C328.126 241.131 327.862 241.972 328.817 242.664L332.234 243.697C332.234 243.697 338.028 244.168 337.692 242.885C337.356 241.602 337.101 240.482 337.101 240.482C337.093 239.686 336.903 238.902 336.545 238.19C336.478 238.075 336.405 237.964 336.324 237.859L336.53 237.83C336.53 237.83 336.842 234.947 337.385 234.365C337.514 234.235 337.538 234.135 337.505 234.062C337.557 233.904 337.404 233.817 337.212 233.774C337.212 233.813 337.188 233.846 337.178 233.889C336.991 233.856 336.802 233.842 336.612 233.846C336.612 233.846 336.367 232.347 336.957 231.775C337.005 231.711 337.038 231.638 337.055 231.56C337.072 231.482 337.074 231.402 337.058 231.324C337.055 231.117 337.026 230.912 336.972 230.713C336.97 230.724 336.97 230.736 336.972 230.747C336.574 229.545 336.074 228.38 335.479 227.263C335.479 227.263 335.383 225.894 335.738 225.341C336.093 224.789 335.402 217.903 335.402 217.903C335.402 217.903 335.402 214.563 334.922 213.026C334.442 211.488 335.311 209.628 335.311 209.628V209.532C335.311 209.532 335.282 209.326 335.234 209.008V209.042C335.105 208.163 334.865 206.572 334.702 205.837C334.476 204.794 334.519 199.763 334.519 199.763L335.282 197.587L336.933 201.224L338.724 206.092C339.203 206.687 339.512 207.401 339.617 208.158C339.617 208.211 339.617 208.264 339.617 208.312C339.609 208.422 339.609 208.533 339.617 208.643C339.614 209.267 339.809 209.876 340.173 210.383C340.173 210.383 340.687 212.694 341.369 213.266C341.809 213.729 342.067 214.337 342.093 214.976C342.093 214.976 343.025 218.34 343.423 218.902C343.764 219.383 343.831 220.767 343.845 221.185C343.845 221.266 343.845 221.31 343.845 221.31C343.845 221.31 343.999 222.511 344.037 223.53V223.861C344.028 224.119 343.993 224.375 343.932 224.625C343.929 224.641 343.929 224.657 343.932 224.673C343.932 224.616 343.932 224.558 343.932 224.5C343.792 225.196 343.738 225.906 343.773 226.615C343.797 227.83 344.037 229.262 344.805 230.079C346.135 231.492 346.927 231.276 346.927 231.276C346.927 231.276 346.384 233.125 345.645 233.52C345.617 233.534 345.591 233.554 345.568 233.577C345.567 233.542 345.567 233.507 345.568 233.471C345.489 233.566 345.431 233.676 345.397 233.794C345.363 233.912 345.354 234.037 345.372 234.159C345.442 235.133 345.803 236.064 346.408 236.83C346.594 236.998 346.818 237.117 347.061 237.176L346.946 237.253C346.865 237.304 346.78 237.349 346.692 237.388C346.57 237.445 346.441 237.484 346.308 237.503C346.052 237.52 345.803 237.592 345.577 237.713C345.351 237.834 345.154 238.001 344.997 238.205C344.556 238.829 344.292 239.67 345.247 240.362L348.66 241.395C348.66 241.395 354.458 241.924 354.098 240.636Z" fill="url(#paint0_linear)"/>
<path d="M332.271 243.953L328.91 242.965C327.969 242.305 328.227 241.504 328.666 240.909C328.817 240.718 329.011 240.559 329.233 240.444C329.455 240.328 329.701 240.259 329.954 240.241C330.178 240.207 330.391 240.127 330.578 240.007C330.778 239.893 330.945 239.737 331.066 239.55C331.294 239.18 331.407 238.758 331.393 238.332C331.393 238.332 334.993 237.201 336.027 238.167C336.222 238.339 336.387 238.538 336.515 238.758C336.871 239.436 337.059 240.181 337.066 240.937C337.066 240.937 337.301 242.017 337.652 243.225C338.003 244.434 332.271 243.953 332.271 243.953Z" fill="#2D293D"/>
<path d="M348.238 241.304L344.875 240.262C343.934 239.563 344.192 238.718 344.627 238.096C344.776 237.893 344.969 237.724 345.192 237.603C345.414 237.481 345.661 237.409 345.915 237.392C346.046 237.375 346.173 237.336 346.291 237.276C346.377 237.238 346.46 237.195 346.54 237.146C347.447 236.605 347.379 235.365 347.379 235.365C347.379 235.365 350.976 234.174 352.015 235.192C352.155 235.329 352.277 235.481 352.381 235.645C352.802 236.403 353.026 237.251 353.035 238.115C353.035 238.115 353.265 239.254 353.616 240.527C353.967 241.801 348.238 241.304 348.238 241.304Z" fill="#2D293D"/>
<path opacity="0.1" d="M336.332 237.238C336.531 237.441 336.7 237.676 336.832 237.935L331.264 238.868C331.497 238.433 331.613 237.936 331.599 237.433C331.599 237.433 335.261 236.099 336.332 237.238Z" fill="black"/>
<path opacity="0.1" d="M352.455 235.592L352.495 236.539C351.682 237.87 347.477 237.73 346.23 237.123C346.318 237.087 346.403 237.047 346.485 237.001C347.413 236.493 347.343 235.33 347.343 235.33C347.343 235.33 351.019 234.211 352.081 235.167C352.223 235.295 352.349 235.438 352.455 235.592Z" fill="black"/>
<path d="M352.702 231.169C352.467 231.619 352.269 232.087 352.111 232.569L352.252 236.189C351.389 237.739 346.583 237.42 345.904 236.619C345.226 235.818 344.451 233.689 345.178 233.293C345.904 232.897 346.428 231.039 346.428 231.039C346.428 231.039 345.652 231.256 344.354 229.832C343.055 228.409 343.298 225.146 343.496 224.354C343.695 223.563 343.365 220.975 343.365 220.975C343.365 220.975 343.341 219.141 342.949 218.562C342.556 217.983 341.645 214.619 341.645 214.619C341.619 213.98 341.367 213.371 340.933 212.9C340.264 212.331 339.761 210.004 339.761 210.004C339.367 209.44 339.177 208.759 339.223 208.074C339.32 206.92 338.351 205.718 338.351 205.718L336.592 200.824L334.978 197.165L334.232 199.352C334.232 199.352 334.193 204.405 334.421 205.453C334.649 206.5 335.032 209.29 335.032 209.29C335.032 209.29 334.179 211.158 334.654 212.702C335.128 214.247 335.138 217.597 335.138 217.597C335.138 217.597 335.821 224.509 335.472 225.068C335.124 225.628 335.225 226.999 335.225 226.999C335.225 226.999 337.27 230.962 336.679 231.536C336.088 232.111 336.345 233.617 336.345 233.617C336.345 233.617 337.633 233.563 337.1 234.138C336.567 234.712 336.267 237.613 336.267 237.613L330.724 238.467C330.193 237.757 329.744 236.99 329.387 236.18C328.587 234.509 329.469 234.659 330.201 234.447C330.932 234.234 330.448 233.795 329.552 233.279C328.655 232.762 329.115 231.502 329.115 231.502C329.115 231.502 330.366 229.205 329.896 229.041C329.426 228.877 329.261 225.71 329.261 225.71C329.261 225.71 328.195 221.989 328.389 220.971C328.582 219.952 327.517 217.558 327.517 217.558L327.085 214.662C326.036 213.062 325.601 211.14 325.859 209.246L325.69 204.796C325.69 204.796 324.067 196.224 323.713 191.875C323.49 189.09 323.374 185.282 323.321 182.902C323.291 181.57 323.282 180.687 323.282 180.687L343.089 177.849C343.161 178.838 343.323 179.819 343.574 180.779C343.816 181.86 344.189 183.255 344.756 184.997C346.379 189.988 345.648 193.782 345.648 193.782L345.71 200.163C345.71 200.163 347.649 204.362 347.314 205.839C347.128 206.718 347.039 207.615 347.048 208.513C347.048 208.513 351.321 217.684 351.011 220.396C350.701 223.109 352.567 227.318 352.567 227.318C352.567 227.318 353.133 230.325 352.702 231.169Z" fill="#575988"/>
<path opacity="0.05" d="M340.244 207.914L346.161 206.814C346.161 206.814 342.924 210.664 340.244 207.914Z" fill="black"/>
<path opacity="0.1" d="M345.963 200.821C345.963 200.821 346.182 203.057 345.233 203.957C345.218 203.957 346.974 203.474 345.963 200.821Z" fill="black"/>
<path opacity="0.1" d="M345.557 193.83C345.557 193.83 340.449 198.279 338.52 197.997C336.592 197.716 345.557 193.83 345.557 193.83Z" fill="black"/>
<path opacity="0.1" d="M333.444 209.81C333.444 209.81 329.342 210.788 329.269 212.265C329.196 213.743 333.444 209.81 333.444 209.81Z" fill="black"/>
<path opacity="0.05" d="M335.467 229.786C335.467 229.786 329.951 230.945 331.557 231.543C332.929 231.992 334.337 232.336 335.769 232.573C335.769 232.573 337.563 232.596 335.467 229.786Z" fill="black"/>
<g opacity="0.05">
<path opacity="0.05" d="M330.957 232.549C330.818 232.47 330.698 232.359 330.608 232.227C330.517 232.094 330.457 231.943 330.434 231.784L330.381 231.885C330.381 231.885 329.929 233.136 330.818 233.651L331.106 233.829C331.264 233.791 331.437 233.762 331.586 233.714C332.326 233.502 331.845 233.069 330.957 232.549Z" fill="black"/>
<path opacity="0.05" d="M337.513 231.748C337.657 231.608 337.638 231.266 337.513 230.785C337.311 231.199 337.223 231.659 337.258 232.118C337.316 231.978 337.403 231.852 337.513 231.748Z" fill="black"/>
<path opacity="0.05" d="M335.557 208.812C335.379 209.361 335.277 209.933 335.255 210.51C335.344 210.108 335.469 209.715 335.629 209.336C335.629 209.336 335.601 209.134 335.557 208.812Z" fill="black"/>
<path opacity="0.05" d="M348.308 206.32C348.337 206.153 348.349 205.984 348.341 205.815C348.284 206.161 348.25 206.479 348.226 206.777C348.25 206.594 348.279 206.469 348.308 206.32Z" fill="black"/>
<path opacity="0.05" d="M336.374 224.814C336.463 224.482 336.495 224.137 336.47 223.794C336.318 224.206 336.244 224.644 336.254 225.083C336.283 224.989 336.323 224.899 336.374 224.814Z" fill="black"/>
<path opacity="0.05" d="M338.059 233.782C337.811 234.711 337.637 235.659 337.541 236.616L332.047 237.468C331.521 236.76 331.076 235.995 330.722 235.187C330.65 235.038 330.597 234.908 330.549 234.787C330.227 234.951 330.107 235.302 330.583 236.289C330.934 237.1 331.379 237.867 331.908 238.575L337.397 237.718C337.397 237.718 337.699 234.831 338.223 234.253C338.482 233.979 338.304 233.849 338.059 233.782Z" fill="black"/>
<path opacity="0.05" d="M330.205 225.762C330.205 225.762 330.373 228.914 330.839 229.078C331.05 228.544 331.185 228.043 330.978 227.971C330.498 227.803 330.349 224.651 330.349 224.651C330.349 224.651 329.293 220.94 329.48 219.925C329.667 218.91 328.62 216.523 328.62 216.523L328.188 213.635C327.148 212.039 326.718 210.12 326.978 208.231L326.805 203.799C326.805 203.799 325.196 195.253 324.851 190.917C324.625 188.14 324.515 184.344 324.462 181.971C324.462 181.543 324.462 181.163 324.438 180.845H324.279C324.279 180.845 324.279 181.726 324.318 183.059C324.371 185.426 324.486 189.223 324.707 192C325.057 196.331 326.666 204.882 326.666 204.882L326.834 209.319C326.574 211.224 327.015 213.158 328.073 214.762L328.5 217.649C328.5 217.649 329.552 220.055 329.365 221.051C329.177 222.047 330.205 225.762 330.205 225.762Z" fill="black"/>
<path opacity="0.05" d="M346.387 235.923C345.913 235.289 345.585 234.558 345.426 233.782C344.879 234.316 345.604 236.269 346.242 237.025C346.881 237.781 351.674 238.146 352.528 236.602L352.495 235.731C351.313 237.001 347.02 236.679 346.387 235.923Z" fill="black"/>
<path opacity="0.05" d="M353.801 229.825C353.565 230.272 353.369 230.739 353.215 231.22L353.239 231.861C353.364 231.542 353.505 231.231 353.661 230.927C353.791 230.561 353.843 230.173 353.815 229.786L353.801 229.825Z" fill="black"/>
<path opacity="0.05" d="M347.008 231.433C347.168 231.074 347.304 230.704 347.416 230.326C347.416 230.326 346.648 230.543 345.356 229.123C344.42 228.094 344.295 226.087 344.396 224.792C344.194 225.577 343.954 228.839 345.241 230.254C346.062 231.154 346.677 231.385 347.008 231.433Z" fill="black"/>
<path opacity="0.05" d="M344.167 220.658C344.283 221.555 344.349 222.458 344.364 223.363C344.364 223.184 344.417 223.04 344.441 222.934C344.643 222.15 344.312 219.566 344.312 219.566C344.312 219.566 344.283 217.737 343.899 217.16C343.514 216.582 342.602 213.228 342.602 213.228C342.577 212.591 342.326 211.984 341.896 211.515C341.238 210.947 340.739 208.628 340.739 208.628C340.345 208.067 340.156 207.387 340.206 206.703C340.297 205.553 339.337 204.354 339.337 204.354L337.598 199.475L335.994 195.827L335.255 197.969V198.666L335.855 196.895L337.459 200.543L339.197 205.418C339.197 205.418 340.158 206.616 340.067 207.766C340.017 208.45 340.204 209.129 340.595 209.691C340.595 209.691 341.075 212.006 341.757 212.578C342.187 213.046 342.437 213.651 342.463 214.287C342.463 214.287 343.37 217.655 343.754 218.223C344.139 218.791 344.167 220.658 344.167 220.658Z" fill="black"/>
</g>
<path d="M344.057 137.207L343.766 138.949L343.816 139.723L343.856 140.288L341.877 140.567L341.637 140.168C341.161 139.315 340.614 138.503 340.003 137.741C339.622 137.446 338.781 132.658 339.577 132.913C340.065 133.079 340.473 133.418 340.725 133.866C340.725 133.866 344.653 134.166 344.057 137.207Z" fill="#FFCDD3"/>
<path opacity="0.1" d="M344.675 139.662L342.503 139.941L342.239 139.542C342.519 139.228 342.911 139.012 343.348 138.931C343.784 138.85 344.238 138.909 344.631 139.098L344.675 139.662Z" fill="black"/>
<path d="M345.023 141.073L342.493 141.636L342.425 141.327L342.239 140.501C342.507 140.193 342.914 139.983 343.371 139.917C343.828 139.85 344.299 139.934 344.682 140.148L344.828 140.569L345.023 141.073Z" fill="#DCE6F2"/>
<path d="M303.256 138.772L300.759 140.312L300.508 139.832C300.247 139.309 299.854 138.518 299.744 138.235C299.575 137.799 298.491 137.276 298.491 137.276C295.72 134.706 298.82 132.279 298.82 132.279C300.375 128.658 302.428 133.339 302.428 133.339C302.428 133.339 302.78 135.837 302.602 136.015C302.424 136.192 302.446 136.878 302.446 136.878C302.71 137.359 302.935 137.863 303.119 138.384C303.21 138.638 303.256 138.772 303.256 138.772Z" fill="#FFCDD3"/>
<path opacity="0.1" d="M304.115 138.31L301.585 139.987L301.331 139.465C301.683 139.104 302.938 137.866 303.364 137.897C303.568 137.918 303.772 137.918 303.976 137.897C304.068 138.164 304.115 138.31 304.115 138.31Z" fill="black"/>
<path d="M304.463 139.028L301.476 140.684L301.394 140.002L301.331 139.538C301.331 139.538 303.043 137.892 303.563 137.932C303.829 137.962 304.098 137.95 304.361 137.897L304.419 138.467L304.463 139.028Z" fill="#DCE6F2"/>
<path d="M337.412 147.749C337.412 147.749 324.117 149.693 326.579 148.819C328.298 148.214 328.943 147.125 329.021 145.941C329.05 144.925 328.84 143.915 328.406 142.988C328.06 142.19 327.629 141.429 327.121 140.716C327.121 140.716 337.114 134.941 335.268 139.922C334.982 140.676 334.817 141.468 334.779 142.27C334.75 143.067 334.87 143.862 335.136 144.617C335.58 145.843 336.367 146.927 337.412 147.749Z" fill="#FFCDD3"/>
<path opacity="0.1" d="M335.399 139.877C335.114 140.614 334.949 141.388 334.911 142.171C333.986 142.965 332.929 142.952 331.579 143.002C330.542 143.039 329.402 143.319 328.554 142.874C328.209 142.094 327.78 141.349 327.273 140.652C327.273 140.652 337.24 135.007 335.399 139.877Z" fill="black"/>
<path d="M330.846 143.703C333.921 143.703 336.414 141.285 336.414 138.303C336.414 135.32 333.921 132.903 330.846 132.903C327.77 132.903 325.277 135.32 325.277 138.303C325.277 141.285 327.77 143.703 330.846 143.703Z" fill="#FFCDD3"/>
<path opacity="0.1" d="M337.412 148.223C337.412 148.223 324.117 150.014 326.579 149.21C328.298 148.652 328.943 147.648 329.021 146.558C329.661 145.9 330.975 145.394 331.824 145.118C332.597 144.859 333.442 144.818 334.242 145.001C334.556 145.074 334.857 145.186 335.136 145.334C335.579 146.464 336.367 147.464 337.412 148.223Z" fill="black"/>
<path opacity="0.1" d="M345.023 140.59L342.313 141.288L342.239 140.905C342.518 140.513 342.919 140.212 343.388 140.044C343.857 139.876 344.37 139.849 344.856 139.967L345.023 140.59Z" fill="black"/>
<path opacity="0.1" d="M304.463 139.324L301.415 140.638L301.331 140.097C302.321 139.635 303.353 139.234 304.418 138.896L304.463 139.324Z" fill="black"/>
<path opacity="0.1" d="M343.467 180.884C338.39 181.924 331.166 183.305 329.999 182.985C329.035 182.719 325.977 182.874 323.32 183.075C323.291 181.694 323.282 180.779 323.282 180.779L342.985 177.849C343.056 178.874 343.218 179.89 343.467 180.884Z" fill="black"/>
<path d="M349.056 179.605C349.056 179.605 332.376 183.132 330.551 182.651C328.726 182.17 319.475 183.132 319.475 183.132C315.421 186.081 317 181.9 317 181.9C316.75 180.615 316.75 179.293 317 178.008C317.292 176.718 317.476 175.407 317.549 174.087C317.549 174.087 317.352 171.349 317.829 170.69C318.305 170.03 318.724 165.436 318.724 165.436C318.724 165.436 319.061 162.308 318.994 161.625C318.926 160.942 319.028 159.012 319.028 159.012L319.509 155.793C316.061 155.466 305.386 149.466 305.386 149.466C304.798 147.34 300.715 142.461 300.715 142.461C300.644 142.04 300.521 141.629 300.349 141.239C300.045 140.517 304.105 138.896 304.105 138.896C304.105 138.896 307.317 142.528 307.996 143.51C308.675 144.491 310.943 146.276 310.943 146.276C311.283 146.229 311.629 146.262 311.954 146.373C311.971 146.37 311.989 146.37 312.007 146.373C312.755 146.634 313.46 147.004 314.101 147.47C315.133 147.41 316.147 147.756 316.928 148.432C316.928 148.432 318.796 148.085 319.129 148.393C319.461 148.701 321.055 148.321 321.055 148.321C321.055 148.321 322.524 144.876 323.617 145.819C324.71 146.762 329.169 146.546 329.169 146.546C329.732 145.733 331.158 145.102 332.058 144.78C332.82 144.493 333.653 144.447 334.442 144.65C334.784 144.734 335.11 144.875 335.405 145.069L338.212 147.614C338.212 147.614 338.954 146.579 338.853 146.353C338.751 146.127 339.753 145.911 339.753 145.911C339.753 145.911 341.063 145.43 341.559 145.29C342.055 145.15 342.522 145.66 342.585 145.704C342.354 145.064 342.25 144.386 342.276 143.707C342.295 143.106 342.075 142.521 341.665 142.081C343.109 138.087 346.856 141.239 346.856 141.239C346.856 141.239 347.337 143.375 347.015 144.212C346.692 145.049 347.496 146.757 347.405 147.215C347.313 147.672 347.636 148.442 347.67 149.312C347.615 150.425 347.41 151.526 347.063 152.584C346.817 153.33 344.684 155.057 344.684 155.057C344.684 155.057 344.65 157.67 343.721 159.214C342.792 160.759 343.61 165.902 343.61 165.902C343.61 165.902 344.684 169.891 345.873 171.127C347.063 172.364 349.056 179.605 349.056 179.605Z" fill="#656691"/>
<path opacity="0.1" d="M322.981 150.672C322.981 150.672 322.342 149.15 321.818 149.027C321.295 148.873 320.784 148.687 320.288 148.471L320.599 147.885C320.599 147.885 322.566 148.298 322.899 148.801C323.233 149.303 322.981 150.672 322.981 150.672Z" fill="black"/>
<path opacity="0.1" d="M314.487 147.971C314.409 148.441 310.311 148.976 310.311 148.976L312.311 146.886H312.365C313.123 147.146 313.838 147.511 314.487 147.971Z" fill="black"/>
<path d="M301.853 141.938C302.141 141.938 302.375 141.704 302.375 141.416C302.375 141.127 302.141 140.893 301.853 140.893C301.564 140.893 301.331 141.127 301.331 141.416C301.331 141.704 301.564 141.938 301.853 141.938Z" fill="#575988"/>
<path d="M302.85 142.588C303.138 142.588 303.372 142.432 303.372 142.24C303.372 142.048 303.138 141.892 302.85 141.892C302.562 141.892 302.328 142.048 302.328 142.24C302.328 142.432 302.562 142.588 302.85 142.588Z" fill="#575988"/>
<path d="M302.676 143.587C302.868 143.587 303.024 143.431 303.024 143.239C303.024 143.047 302.868 142.891 302.676 142.891C302.484 142.891 302.328 143.047 302.328 143.239C302.328 143.431 302.484 143.587 302.676 143.587Z" fill="#575988"/>
<path d="M303.5 143.587C303.596 143.587 303.674 143.431 303.674 143.239C303.674 143.047 303.596 142.891 303.5 142.891C303.404 142.891 303.326 143.047 303.326 143.239C303.326 143.431 303.404 143.587 303.5 143.587Z" fill="#575988"/>
<path d="M346.404 142.588C346.501 142.588 346.578 142.432 346.578 142.24C346.578 142.048 346.501 141.892 346.404 141.892C346.308 141.892 346.23 142.048 346.23 142.24C346.23 142.432 346.308 142.588 346.404 142.588Z" fill="#575988"/>
<path d="M346.753 143.239C347.041 143.239 347.275 143.161 347.275 143.065C347.275 142.969 347.041 142.891 346.753 142.891C346.464 142.891 346.23 142.969 346.23 143.065C346.23 143.161 346.464 143.239 346.753 143.239Z" fill="#575988"/>
<path d="M346.753 143.239C347.041 143.239 347.275 143.161 347.275 143.065C347.275 142.969 347.041 142.891 346.753 142.891C346.464 142.891 346.23 142.969 346.23 143.065C346.23 143.161 346.464 143.239 346.753 143.239Z" fill="#575988"/>
<path opacity="0.1" d="M324.279 162.867C324.231 162.811 335.023 176.063 342.725 167.84C342.725 167.84 330.165 170.155 324.279 162.867Z" fill="black"/>
<path opacity="0.1" d="M318.292 169.859C318.292 169.859 324.777 169.795 325.53 171.44L325.601 173.18C325.421 173.279 325.216 173.334 325.006 173.341C324.795 173.349 324.586 173.307 324.398 173.221C323.731 172.926 319.738 171.277 318.394 172.183L318.292 169.859Z" fill="black"/>
<path d="M318.292 169.859C318.292 169.859 324.159 169.792 324.838 171.442L324.905 173.182C324.742 173.28 324.556 173.335 324.365 173.342C324.174 173.348 323.985 173.306 323.815 173.22C323.212 172.93 319.598 171.28 318.383 172.184L318.292 169.859Z" fill="#656691"/>
<path opacity="0.1" d="M321.286 156.874C321.991 158.277 322.871 159.595 323.907 160.798C325.035 162.127 326.383 163.273 327.899 164.19C327.899 164.19 321.425 157.702 321.286 156.874Z" fill="black"/>
<path opacity="0.1" d="M318.292 148.884C318.292 148.884 319.577 153.373 322.469 154.806L318.292 148.884Z" fill="black"/>
<path opacity="0.1" d="M317.357 149.884C317.33 149.799 316.622 153.564 320.775 155.456C320.775 155.466 319.021 154.882 317.357 149.884Z" fill="black"/>
<path opacity="0.1" d="M344.236 145.895C344.17 145.895 346.405 147.327 347.019 147.977C347.038 148.003 345.521 145.739 344.236 145.895Z" fill="black"/>
<path d="M329.958 142.991C330.013 143.27 330.17 143.518 330.398 143.688C330.558 143.757 330.731 143.789 330.905 143.782C332.522 143.819 334.21 143.824 335.677 143.145C335.953 143.036 336.197 142.861 336.39 142.635C336.598 142.271 336.727 141.867 336.769 141.45C337.009 140.666 337.307 139.901 337.66 139.16C338.152 137.868 338.28 136.466 338.03 135.106C337.965 134.686 337.805 134.287 337.562 133.94C337.093 133.345 336.319 133.125 335.733 132.661C335.147 132.198 334.753 131.467 334.078 131.125C333.439 130.87 332.733 130.836 332.072 131.027C330.758 131.303 329.51 131.825 328.392 132.568C328.054 132.869 327.617 133.036 327.164 133.036C326.784 132.929 326.453 132.694 326.226 132.371C325.938 133.108 325.834 133.903 325.921 134.689C325.94 134.805 325.94 134.924 325.921 135.04C325.871 135.18 325.791 135.308 325.687 135.415C325.307 135.883 325.087 136.632 325.499 137.086C325.678 137.283 325.968 137.386 326.123 137.583C326.432 137.943 326.353 138.482 326.367 138.959C326.352 139.126 326.399 139.292 326.498 139.427C326.587 139.505 326.695 139.558 326.811 139.581C326.927 139.603 327.047 139.596 327.159 139.558C327.382 139.484 327.618 139.452 327.853 139.465C328.104 139.54 328.324 139.696 328.476 139.91C329.181 140.822 329.685 141.871 329.958 142.991Z" fill="#2D293D"/>
<g opacity="0.1">
<path opacity="0.1" d="M336.794 141.695C336.599 141.927 336.35 142.107 336.069 142.22C334.561 142.918 332.837 142.908 331.176 142.869C330.999 142.879 330.823 142.846 330.662 142.773C330.424 142.602 330.262 142.345 330.21 142.056C329.932 140.907 329.419 139.829 328.703 138.89C328.547 138.67 328.322 138.511 328.064 138.437C327.823 138.422 327.581 138.455 327.353 138.534C327.238 138.57 327.116 138.577 326.997 138.554C326.879 138.53 326.769 138.477 326.676 138.399C326.575 138.26 326.526 138.089 326.537 137.918C326.537 137.436 326.609 136.873 326.287 136.503C326.11 136.296 325.836 136.195 325.649 135.988C325.529 135.837 325.452 135.656 325.427 135.464C325.401 135.273 325.428 135.078 325.505 134.9C325.356 135.112 325.277 135.364 325.277 135.622C325.277 135.881 325.356 136.133 325.505 136.344C325.692 136.546 325.985 136.647 326.143 136.854C326.465 137.225 326.383 137.778 326.393 138.269C326.382 138.441 326.431 138.611 326.532 138.75C326.623 138.83 326.734 138.885 326.853 138.908C326.972 138.932 327.094 138.924 327.209 138.885C327.438 138.808 327.679 138.776 327.92 138.789C328.178 138.866 328.402 139.027 328.559 139.246C329.276 140.183 329.789 141.26 330.066 142.407C330.12 142.697 330.281 142.955 330.518 143.129C330.68 143.2 330.855 143.233 331.032 143.226C332.693 143.264 334.393 143.269 335.925 142.571C336.207 142.46 336.456 142.279 336.65 142.047C336.749 141.911 336.824 141.76 336.871 141.599L336.794 141.695Z" fill="black"/>
<path opacity="0.1" d="M326.318 134.556C326.39 134.473 326.442 134.376 326.472 134.272C326.494 134.154 326.494 134.033 326.472 133.916C326.401 133.251 326.461 132.579 326.65 131.938L326.621 131.904C326.325 132.661 326.216 133.478 326.304 134.286C326.318 134.375 326.323 134.465 326.318 134.556Z" fill="black"/>
</g>
<path opacity="0.1" d="M329.268 146.36C329.268 146.36 336.016 147.099 336.577 145.887L329.268 146.36Z" fill="black"/>
<path opacity="0.1" d="M342.239 142.896C342.239 142.896 345.623 142.734 346.416 144.284L342.239 142.896Z" fill="black"/>
<path opacity="0.1" d="M68.5917 260.749C68.5917 260.749 66.4615 262.282 66.9149 262.775C67.3682 263.269 68.5917 260.749 68.5917 260.749Z" fill="black"/>
<path opacity="0.1" d="M68.8472 267.09C68.8472 267.09 72.9241 266.307 73.3715 267.09H68.8472Z" fill="black"/>
<path d="M108.766 255.608C108.909 255.219 107.83 253.032 107.83 252.923C107.83 252.813 106.724 251.597 106.724 250.92C106.724 250.244 105.251 248.768 105.251 248.768C105.251 248.768 103.283 247.948 103.073 246.157C102.863 244.367 100.712 244.333 100.705 244.333C100.705 244.333 100.705 244.169 100.705 243.923C100.747 243.213 100.66 242.502 100.447 241.825C100.19 241.331 99.7517 240.958 99.2254 240.786C99.1306 240.136 98.8993 239.514 98.5469 238.962C98.3063 238.709 98.1338 238.399 98.0459 238.061C97.958 237.722 97.9576 237.366 98.0447 237.028C98.2619 236.344 97.7597 234.629 96.6876 234.376C95.6155 234.124 94.4687 233.734 94.4687 233.734L94.1837 233.782L94.0411 233.734C93.792 233.78 93.5405 233.812 93.2879 233.83C93.0669 233.835 92.8509 233.762 92.6772 233.625C92.3176 233.235 89.4201 232.483 88.884 232.483C88.1669 232.342 87.4696 232.112 86.8076 231.8L85.2672 230.618C84.7451 230.048 84.2897 229.42 83.9101 228.746C83.7812 228.439 83.6724 228.124 83.5844 227.803C84.1173 227.252 84.5739 226.631 84.9415 225.957L85.0433 225.746C85.1199 225.756 85.1974 225.756 85.274 225.746L85.369 225.705C85.5506 225.612 85.7116 225.483 85.8422 225.325C85.9728 225.168 86.0704 224.985 86.129 224.789C86.1578 224.713 86.1805 224.636 86.1969 224.557V224.475C86.2001 224.42 86.2001 224.365 86.1969 224.311C86.2001 224.281 86.2001 224.251 86.1969 224.222C86.2001 224.167 86.2001 224.112 86.1969 224.058C86.1969 224.058 86.1969 223.996 86.1969 223.969V223.764C86.2308 223.511 86.258 223.258 86.3122 223.005C86.6222 222.069 87.0269 221.166 87.5201 220.313C87.5834 220.185 87.6377 220.056 87.6829 219.923C87.7372 219.78 87.7847 219.63 87.8254 219.486C87.8285 219.441 87.8285 219.395 87.8254 219.349C87.8254 219.247 87.8797 219.138 87.9001 219.028C87.9204 218.919 87.9001 218.933 87.9001 218.885C87.9001 218.734 87.9408 218.584 87.9544 218.434C88.0301 217.578 87.9046 216.717 87.588 215.919C87.3233 215.236 86.9094 214.641 86.6515 213.971C86.2376 212.953 86.129 211.798 85.6269 210.828C85.2191 210.041 84.5473 209.425 83.731 209.09C82.9147 208.754 82.0068 208.721 81.1686 208.997C80.3883 209.29 79.7165 209.858 78.9226 210.111C77.864 210.452 76.7376 210.193 75.6383 210.042C74.539 209.892 73.3311 209.878 72.4558 210.596C71.4379 211.423 71.1597 212.981 70.2097 213.896C69.8093 214.279 69.314 214.518 68.8933 214.873C68.5903 215.11 68.3559 215.424 68.2147 215.782V215.857C68.2125 215.889 68.2125 215.921 68.2147 215.953C68.2114 215.99 68.2114 216.026 68.2147 216.063C68.2147 216.063 68.2147 216.11 68.2147 216.138C68.2113 216.201 68.2113 216.265 68.2147 216.329C68.2227 216.389 68.2341 216.448 68.2486 216.507C68.2486 216.507 68.2486 216.507 68.2486 216.555C68.2604 216.606 68.2763 216.656 68.2962 216.705L68.3572 216.869L68.3979 216.951C68.3941 216.973 68.3941 216.997 68.3979 217.019C68.5365 217.285 68.6479 217.564 68.7304 217.853C68.7844 218.031 68.7844 218.221 68.7304 218.4C68.6351 218.601 68.4987 218.781 68.3301 218.926C67.6206 219.673 67.0709 220.559 66.7151 221.529C66.6744 221.639 66.6404 221.755 66.5997 221.864H66.6472C66.7489 221.897 66.8534 221.92 66.9593 221.932H67.1426C67.3859 221.945 67.6299 221.927 67.8687 221.878L68.0518 221.837C68.3016 221.768 68.5446 221.677 68.7779 221.564C68.7779 221.639 68.7779 221.714 68.7779 221.789V221.912C68.7797 223.495 69.2202 225.047 70.0498 226.391C70.8793 227.736 72.0651 228.821 73.4736 229.525C73.4736 229.6 73.4736 229.682 73.4736 229.757C73.4769 229.821 73.4769 229.885 73.4736 229.948L73.3787 229.859C73.3787 229.859 72.7001 229.538 72.1233 230.468C71.6745 231.078 71.0661 231.551 70.3658 231.834C70.3658 231.834 63.8515 232.873 63.5801 233.734L60.54 233.912C60.54 233.912 59.4679 234.055 59.3593 236.31C59.2508 238.565 58.6808 238.777 58.6808 238.777C58.6808 238.777 57.4254 240.998 57.534 242.146C57.5477 242.495 57.4641 242.84 57.2925 243.144C57.121 243.447 56.8685 243.695 56.5636 243.861L56.4211 245.911C56.2433 245.891 56.0632 245.907 55.8914 245.958C55.7196 246.008 55.5594 246.092 55.42 246.205C55.2806 246.318 55.1648 246.458 55.0792 246.616C54.9937 246.775 54.9401 246.948 54.9215 247.128C54.7831 247.871 54.4767 248.573 54.0258 249.178C54.0258 249.178 52.0579 250.825 51.9493 252.219L50.7279 252.97C50.7279 252.97 47.9051 252.328 47.2604 251.18L47.0568 250.996C46.6924 250.613 46.2975 250.261 45.8761 249.943C45.9576 250.123 45.9767 250.325 45.9304 250.517L45.72 250.285L45.374 249.574C45.374 249.574 41.1668 244.709 38.4864 244.367C38.2008 244.44 37.9391 244.587 37.7272 244.793C37.5153 244.999 37.3607 245.257 37.2786 245.542C36.9393 246.704 36.6 248.631 37.4686 249.581L41.7097 254.132L41.8183 254.214L42.7411 255.403C42.585 255.779 42.4493 256.141 42.3408 256.476C42.3408 256.551 42.2932 256.619 42.2729 256.688V256.756L42.2118 256.954C42.2118 256.995 42.2118 257.036 42.1779 257.07V257.139C42.0761 257.501 42.015 257.774 41.9811 257.932L41.7436 257.856L41.9743 257.959C41.9713 257.984 41.9713 258.009 41.9743 258.034L42.1915 258.13C43.4468 258.683 49.7032 261.444 50.029 261.868C50.6885 262.441 51.4985 262.811 52.3616 262.932C53.2246 263.053 54.1041 262.921 54.8944 262.551C56.1088 261.968 57.047 260.927 57.5068 259.654C58.2801 258.618 58.9872 257.534 59.624 256.408C59.6918 255.984 61.3068 255.478 61.3068 255.478C61.3068 255.478 61.4493 260.262 60.6283 262.032C59.8072 263.802 58.2668 271.544 58.2668 271.544C58.3682 271.53 58.4709 271.53 58.5722 271.544L58.484 271.995C58.6096 271.972 58.7383 271.972 58.864 271.995C58.7486 272.883 58.0904 276.983 58.0904 276.983C58.003 277.84 57.8116 278.682 57.5204 279.491C57.1608 280.134 57.12 283.496 57.12 283.496L56.55 285.935C56.55 285.935 56.6247 286.099 56.7672 286.352C57.1522 287.18 57.7155 287.91 58.4161 288.491C58.37 288.874 58.2718 289.249 58.1243 289.605C57.903 290.15 57.8056 290.739 57.8393 291.327C57.5634 292.492 57.3841 293.678 57.3033 294.874C57.2664 295.796 57.1345 296.712 56.9097 297.607L56.2311 303.839C56.2311 303.839 55.8036 309.238 56.014 310.673C56.1204 311.831 56.0724 312.999 55.8715 314.144C55.8715 314.144 56.299 318.408 56.1972 318.873C56.0954 319.338 55.5186 321.347 55.8715 322.454C56.2243 323.561 56.014 326.608 56.014 326.608C56.014 326.608 56.2311 330.62 56.4822 331.904C56.6163 332.881 56.5911 333.874 56.4076 334.843C56.3403 335.76 56.2202 336.673 56.0479 337.576C55.9461 337.576 55.0097 339.476 56.9097 341.342C58.8097 343.207 57.629 342.913 57.629 342.913C57.629 342.913 56.1225 342.162 56.2718 343.699C56.4211 345.237 56.679 344.786 56.6993 344.745L56.3465 345.92L56.5975 345.954C56.5297 346.036 56.4618 346.125 56.3872 346.207C56.1713 346.48 55.9305 346.731 55.6679 346.959C55.3882 347.234 55.2211 347.604 55.1997 347.997C53.6741 349.654 51.9563 351.12 50.0833 352.364C49.0408 352.905 48.064 353.565 47.1722 354.332C46.7311 354.817 46.8058 355.214 47.7218 355.514C50.2432 356.305 52.9362 356.355 55.4847 355.658C56.9381 355.172 58.2454 354.323 59.2847 353.191C60.2291 352.733 61.2842 352.557 62.3247 352.685C63.8311 352.972 66.8372 351.004 66.8372 351.004L66.7829 350.498L66.6201 349.036C66.5192 348.912 66.4449 348.769 66.4017 348.615C66.3585 348.461 66.3473 348.299 66.369 348.141C66.3861 347.709 66.345 347.277 66.2469 346.856C66.2469 346.713 66.1926 346.569 66.1654 346.439L66.4436 346.385C66.4436 346.385 66.084 344.56 66.7286 344.205C67.3733 343.849 67.1901 339.155 67.1901 339.155C66.8407 338.675 66.4195 338.253 65.9415 337.904C65.514 337.72 65.9008 335.499 65.9415 335.219C65.9822 334.939 66.6201 329.376 66.6201 329.376C66.506 328.544 66.5312 327.699 66.6947 326.875C66.9797 326.123 66.3351 323.226 66.3351 323.226C66.2764 323.092 66.2619 322.943 66.2936 322.8C66.3254 322.658 66.4018 322.529 66.5115 322.433C66.9051 322.003 66.7626 318.176 66.7626 318.176C66.7626 318.176 66.7286 316.242 66.7286 315.736C66.8317 314.719 67.1096 313.727 67.5497 312.805C67.9433 312.197 67.699 310.297 67.699 310.297V310.153C67.699 310.099 67.699 310.03 67.699 309.948V309.757C67.8666 308.711 68.0932 307.675 68.3776 306.655C68.8458 305.151 69.3819 302.5 69.3819 302.5L72.7136 293.76V293.657C73.6072 295.366 74.1321 297.245 74.254 299.172C74.4352 300.513 74.5304 301.864 74.539 303.217C74.5638 304.855 74.6725 306.49 74.8647 308.117C74.8647 308.117 75.3262 313.919 75.3262 314.171C75.3262 314.424 75.9029 318.893 76.2626 319.577C76.6222 320.26 75.9029 322.31 75.6858 322.549C75.4686 322.789 75.7537 328.016 75.7537 328.016C75.7537 328.016 75.2176 332.171 75.109 333.032C75.0004 333.893 74.5729 337.187 74.9326 338.499C75.2922 339.811 75.1497 339.961 75.1497 339.961C75.1497 339.961 76.439 341.287 75.6858 341.396C75.4118 341.456 75.1537 341.575 74.9289 341.743C74.704 341.912 74.5176 342.127 74.382 342.374C74.2464 342.622 74.1648 342.895 74.1428 343.177C74.1207 343.458 74.1586 343.741 74.254 344.007C74.7009 345.316 75.2266 346.596 75.8283 347.84L76.4254 347.717V348.141L76.4662 350.273C76.585 351.103 76.6213 351.943 76.5747 352.781C76.4729 353.123 76.3237 354.728 76.2558 355.562C76.2558 355.87 76.2151 356.075 76.2151 356.075C76.2151 356.075 76.2151 357.974 80.1915 357.4C84.1679 356.826 84.8804 355.255 84.8804 355.255C84.8804 355.255 84.8804 355.179 84.8804 355.056C84.9415 354.694 85.0705 353.922 85.1722 353.498C85.3147 352.924 84.0322 350.348 84.0322 350.348C84.0322 350.348 83.8151 348.592 83.4554 348.196C83.3067 347.969 83.2094 347.712 83.1704 347.444C83.1704 347.3 83.1094 347.15 83.0822 347.007L83.3469 347.054C83.3469 347.054 83.1365 345.797 83.9576 345.407C84.2288 345.262 84.433 345.016 84.5268 344.721C84.6206 344.426 84.5965 344.106 84.4597 343.829C84.4881 343.032 84.5949 342.24 84.7787 341.465C84.7224 341.266 84.7191 341.056 84.7691 340.855C84.8192 340.655 84.9207 340.472 85.0636 340.323C85.5726 339.818 85.9594 336.312 85.9594 336.312L86.034 322.775C86.1671 321.657 86.1557 320.527 86.0001 319.413C85.7083 318.442 85.4233 316.584 85.8169 316.078C86.2104 315.572 85.8576 313.256 85.8576 313.256C85.8576 313.256 85.8576 308.349 86.3937 307.106C86.9297 305.862 86.7533 298.188 86.7533 298.188L86.8958 293.138C86.8958 293.138 88.0629 292.031 87.7847 286.215C89.0333 286.14 90.4379 286.092 90.6551 286.263C91.0486 286.585 93.5865 288.238 95.093 287.2C95.7118 286.764 96.3075 286.297 96.8776 285.799L96.2465 275.063C96.6401 275.665 96.8844 276.061 96.8844 276.061C96.8844 274.558 101.105 269.685 101.105 269.685C101.105 269.685 105.041 264.567 105.903 263.959C106.764 263.351 108.447 260.132 108.447 260.132C108.694 259.517 108.979 258.919 109.302 258.342C109.906 257.72 108.617 256.004 108.766 255.608ZM99.524 259.367C98.4519 259.476 96.199 261.95 96.1312 262.483C96.0561 262.839 95.8927 263.17 95.6562 263.446C95.6562 263.228 95.6562 263.009 95.6087 262.763C95.3508 259.599 95.0794 255.745 95.2015 255.376C95.3462 254.2 95.3938 253.013 95.344 251.829L95.3847 251.774C96.104 254.023 98.3501 256.667 98.3501 256.667C98.3501 256.667 98.7437 257.815 99.2051 257.85C99.6665 257.884 99.524 259.367 99.524 259.367Z" fill="url(#paint1_linear)"/>
<path d="M41.9067 258.796C41.9067 258.796 43.1877 251.795 47.2963 251.76L50.2963 258.213L48.3051 259.657C48.3051 259.657 43.9444 259.803 41.9067 258.796Z" fill="#65617D"/>
<path d="M86.0662 286.342C86.0662 286.342 90.5141 285.921 90.9041 286.24C91.2941 286.559 93.826 288.179 95.3177 287.155C96.8094 286.131 95.8172 282.571 95.8172 282.408C95.8172 282.245 95.6735 277.227 95.6735 277.227L93.0048 273.666L89.6587 267.42L82.8159 266.742L82.9938 276.65V281.723L86.0662 286.342Z" fill="#65617D"/>
<path opacity="0.1" d="M86.0662 286.342C86.0662 286.342 90.5141 285.921 90.9041 286.24C91.2941 286.559 93.826 288.179 95.3177 287.155C96.8094 286.131 95.8172 282.571 95.8172 282.408C95.8172 282.245 95.6735 277.227 95.6735 277.227L93.0048 273.666L89.6587 267.42L82.8159 266.742L82.9938 276.65V281.723L86.0662 286.342Z" fill="black"/>
<path d="M46.2946 251.266C46.2946 251.266 45.9718 255.569 43.4655 255.637C43.4655 255.637 42.7566 255.182 41.8073 254.415C39.6048 252.651 36.1111 249.265 37.0858 246.109C38.4656 241.596 45.1807 249.923 45.1807 249.923L45.6996 250.54L46.2946 251.266Z" fill="#FBBEBE"/>
<path opacity="0.1" d="M45.8442 251.465C45.8442 251.465 45.5055 255.636 42.8752 255.701C42.8752 255.701 42.1313 255.261 41.135 254.517L40.9092 254.234C41.3534 254.464 41.8432 254.594 42.3439 254.616C42.7409 254.637 43.1347 254.535 43.4712 254.326C43.8078 254.116 44.0706 253.808 44.2236 253.445C44.5024 252.908 44.7465 252.355 44.9542 251.787C45.077 251.455 45.166 251.111 45.2199 250.761L45.8442 251.465Z" fill="black"/>
<path d="M45.6119 259.653L45.0035 258.872L42.9526 256.254L41.9067 254.895C42.3664 255.133 42.8724 255.27 43.3902 255.296C43.7981 255.313 44.2016 255.206 44.5463 254.988C44.891 254.771 45.1603 254.453 45.3179 254.079C45.6035 253.526 45.8546 252.956 46.0699 252.372C46.4048 251.414 46.398 250.924 46.2818 250.761C46.6985 251.082 47.0894 251.434 47.4508 251.815L47.649 251.998L47.7174 252.141L48.7496 254.181C48.7496 254.181 48.7496 254.181 48.7496 254.269C48.8659 254.942 49.2145 259.069 45.6119 259.653Z" fill="#E7EFFD"/>
<path d="M66.6362 350.375C66.6362 350.375 63.6563 352.344 62.163 352.055C61.1313 351.922 60.0836 352.096 59.149 352.557C58.1243 353.689 56.8314 354.539 55.3917 355.028C52.9846 355.847 49.616 355.524 47.6999 354.883C46.793 354.581 46.718 354.195 47.1544 353.7C48.0376 352.933 49.0054 352.273 50.0388 351.731C51.8974 350.487 53.6008 349.022 55.1121 347.367C55.1297 346.975 55.2928 346.604 55.569 346.328C55.8188 346.1 56.047 345.848 56.2509 345.578C56.6327 345.123 56.9873 344.648 56.9873 344.648L65.7497 344.931C65.7497 344.931 65.8998 345.571 66.0157 346.225C66.1145 346.646 66.1557 347.079 66.1384 347.512C66.1163 347.67 66.1266 347.831 66.1689 347.985C66.2111 348.139 66.2843 348.282 66.3839 348.407L66.5408 349.866L66.6362 350.375Z" fill="#65617D"/>
<path d="M85.2077 353.371C85.1047 353.818 84.9887 354.605 84.9308 354.981C84.9308 355.102 84.9308 355.18 84.9308 355.18C84.9308 355.18 84.2868 356.804 80.545 357.393C76.8033 357.981 76.8291 356.031 76.8291 356.031C76.8291 356.031 76.8291 355.818 76.8677 355.506C76.921 354.555 77.0199 353.608 77.164 352.669C77.205 351.807 77.1705 350.942 77.0609 350.087L77.0223 347.888V346.356L83.1791 345.647C83.2205 346.154 83.2871 346.659 83.3787 347.158C83.4198 347.433 83.5119 347.696 83.6492 347.931C83.9841 348.335 84.1837 350.144 84.1837 350.144C84.1837 350.144 85.343 352.782 85.2077 353.371Z" fill="#65617D"/>
<path opacity="0.1" d="M65.9964 344.974C65.9964 344.974 66.1395 345.711 66.2501 346.465C65.3457 346.663 61.4024 347.496 60.3938 346.917C59.2582 346.404 58.0765 346.057 56.8735 345.886L56.9126 345.719C57.277 345.196 57.6153 344.648 57.6153 344.648L65.9964 344.974Z" fill="black"/>
<path opacity="0.1" d="M83.7382 346.998C82.0373 346.735 78.2981 347.361 76.8291 347.623V346.273L83.5484 345.647C83.5836 346.1 83.6469 346.551 83.7382 346.998Z" fill="black"/>
<path d="M86.4966 293.321L86.3616 298.348C86.3616 298.348 86.5371 306.016 86.0108 307.264C85.4845 308.513 85.4845 313.362 85.4845 313.362C85.4845 313.362 85.8353 315.68 85.444 316.181C85.0527 316.681 85.3428 318.533 85.6194 319.494C85.7742 320.605 85.7855 321.733 85.6532 322.847L85.5857 336.332C85.5857 336.332 85.2011 339.823 84.7085 340.324C84.5664 340.471 84.4657 340.654 84.417 340.854C84.3684 341.055 84.3735 341.265 84.4319 341.462C84.2486 342.236 84.1423 343.026 84.1147 343.822C84.2486 344.096 84.272 344.413 84.1801 344.705C84.0881 344.997 83.888 345.241 83.6222 345.385C82.8125 345.783 83.0217 347.031 83.0217 347.031C81.0987 346.565 75.5995 347.813 75.5995 347.813C75.006 346.574 74.4899 345.298 74.0544 343.993C73.9594 343.729 73.921 343.448 73.9419 343.168C73.9627 342.888 74.0423 342.615 74.1752 342.369C74.3082 342.123 74.4914 341.909 74.7126 341.74C74.9339 341.572 75.1879 341.454 75.4578 341.394C76.1933 341.284 74.9315 339.967 74.9315 339.967C74.9315 339.967 75.0732 339.789 74.7156 338.506C74.358 337.223 74.7899 333.938 74.8911 333.081L75.5253 328.094C75.5253 328.094 75.2419 322.848 75.4578 322.607C75.6737 322.367 76.3687 320.323 76.0179 319.651C75.667 318.979 75.107 314.514 75.107 314.26C75.107 314.007 74.6482 308.231 74.6482 308.231C74.6482 308.231 74.2298 304.205 74.331 303.348C74.324 302.001 74.2317 300.657 74.0544 299.322C73.934 297.406 73.4191 295.536 72.543 293.835L72.5092 293.938L69.2435 302.642C69.2435 302.642 68.7172 305.282 68.2651 306.757C67.9814 307.776 67.7561 308.811 67.5904 309.857V310.049C67.5904 310.125 67.5904 310.193 67.5904 310.248V310.392C67.5904 310.392 67.84 312.278 67.4554 312.889C67.0191 313.807 66.745 314.796 66.6457 315.81C66.6457 316.311 66.6795 318.238 66.6795 318.238C66.6795 318.238 66.8212 322.052 66.4366 322.477C66.3289 322.573 66.2539 322.701 66.2223 322.842C66.1908 322.984 66.2044 323.132 66.2612 323.266C66.2612 323.266 66.8886 326.153 66.612 326.901C66.45 327.723 66.4249 328.567 66.5378 329.398C66.5378 329.398 65.9778 334.926 65.9103 335.214C65.8428 335.502 65.4515 337.71 65.8766 337.889C66.3446 338.238 66.7566 338.659 67.0978 339.137C67.0978 339.137 67.28 343.808 66.6457 344.165C66.0115 344.521 66.3624 346.339 66.3624 346.339C66.3624 346.339 61.2748 347.34 60.121 346.764C58.9425 346.324 57.7174 346.024 56.4707 345.872L56.8215 344.699C56.8215 344.741 56.5651 345.125 56.4032 343.664C56.2413 342.203 57.6987 342.875 57.6987 342.875C57.6987 342.875 58.8593 343.163 57.024 341.311C55.1887 339.459 56.0793 337.566 56.1806 337.566C56.3505 336.66 56.4676 335.744 56.5314 334.823C56.7099 333.857 56.735 332.868 56.6056 331.894C56.356 330.612 56.1468 326.613 56.1468 326.613C56.1468 326.613 56.3222 323.588 56.0051 322.498C55.688 321.407 56.2143 319.398 56.3222 318.931C56.4302 318.465 56.0051 314.226 56.0051 314.226C56.1988 313.094 56.2464 311.941 56.1468 310.797C55.9376 309.329 56.356 303.938 56.356 303.938L56.9902 297.765C57.2118 296.867 57.3407 295.947 57.3748 295.021C57.4576 293.834 57.6336 292.655 57.9011 291.496C57.8675 290.911 57.9619 290.325 58.1778 289.781C58.4638 288.784 58.6292 287.754 58.6703 286.716L62.044 278.869L63.6904 271.949L85.9568 271.736C85.9568 271.736 86.0377 272.34 86.1727 273.43C86.3076 274.521 86.4966 276.132 86.7058 278.122C86.9014 279.932 87.1173 282.065 87.3198 284.432C87.9 291.99 86.4966 293.321 86.4966 293.321Z" fill="#3F3D56"/>
<path d="M84.6825 230.565L79.4948 236.155C79.4948 236.155 72.8384 233.435 73.539 232.551C73.8085 232.19 73.7681 231.068 73.6132 229.831C73.3639 227.873 72.8384 225.622 72.8384 225.622C72.8384 225.622 84.4669 223.711 83.49 225.69C83.176 226.435 83.1496 227.272 83.4159 228.036C83.6969 228.944 84.1249 229.798 84.6825 230.565Z" fill="#FBBEBE"/>
<path opacity="0.1" d="M83.6364 225.767C83.2744 226.549 83.0969 226.63 83.3222 227.472C81.7855 229.258 79.8253 231.214 77.3871 231.214C76.0811 231.219 74.7923 230.893 73.6238 230.262C73.3711 228.136 72.8384 225.693 72.8384 225.693C72.8384 225.693 84.6268 223.619 83.6364 225.767Z" fill="black"/>
<path d="M85.623 222.997C85.6549 224.115 85.4615 225.228 85.0544 226.271C84.6473 227.313 84.0347 228.264 83.2528 229.066C82.4709 229.868 81.5357 230.506 80.5023 230.941C79.469 231.376 78.3586 231.601 77.2368 231.601C76.115 231.601 75.0046 231.376 73.9712 230.941C72.9379 230.506 72.0026 229.868 71.2208 229.066C70.4389 228.264 69.8262 227.313 69.4191 226.271C69.012 225.228 68.8187 224.115 68.8506 222.997V222.882C68.9258 220.705 69.85 218.642 71.4267 217.134C73.0033 215.625 75.1079 214.79 77.2928 214.805C79.4778 214.82 81.5707 215.684 83.1263 217.214C84.682 218.744 85.5777 220.819 85.623 222.997Z" fill="#FBBEBE"/>
<path opacity="0.1" d="M87.5462 278.081C86.4364 278.081 82.7191 278.119 78.5661 278.176H78.5116H77.15H77.1023C72.18 278.245 67.3257 277.352 65.3785 277.542C61.2391 277.903 66.8627 273.981 66.8627 273.981C69.9494 274.679 73.1247 274.977 76.299 274.868L77.4904 274.811C81.2554 274.614 85.0407 274.285 87.0219 273.734C87.1513 274.76 87.3419 276.237 87.5462 278.081Z" fill="black"/>
<path d="M87.5462 278.039C86.4364 278.039 82.7191 278.086 78.5661 278.163H78.5116H77.15H77.1023C72.18 278.256 67.3257 277.164 65.3785 277.389C61.2391 277.83 66.8627 273.037 66.8627 273.037C69.9494 273.89 73.1247 274.254 76.299 274.121L77.4904 274.051C81.2554 273.811 85.0407 273.409 87.0219 272.735C87.1513 273.982 87.3419 275.794 87.5462 278.039Z" fill="#E3A79F"/>
<path opacity="0.1" d="M75.3202 233.059L68.8824 236.122L63.8579 275.257C63.8579 275.257 66.8131 273.886 68.4969 274.756C70.1807 275.627 75.3878 274.832 75.3878 274.832C75.3878 274.832 79.1882 274.613 79.7495 275.044C80.3108 275.476 86.9244 273.262 86.9244 273.262C86.9244 273.262 88.1146 270.521 87.2017 270.123C86.2887 269.726 87.4857 265.49 87.4857 265.49L86.9244 237.267L85.7951 233.634L82.7723 231.784L79.7022 234.265L78.2212 234.484L75.3202 233.059Z" fill="black"/>
<path d="M75.2864 233.051L68.8486 236.079L63.8579 274.763C63.8579 274.763 66.8131 273.408 68.4969 274.268C70.1807 275.129 75.3878 274.336 75.3878 274.336C75.3878 274.336 79.1882 274.126 79.7495 274.546C80.3108 274.966 86.9244 272.785 86.9244 272.785C86.9244 272.785 88.1146 270.075 87.2017 269.689C86.2887 269.302 87.4857 265.109 87.4857 265.109L86.9244 237.211L85.7951 233.613L82.7723 231.784L79.6684 234.25L78.1874 234.46L75.2864 233.051Z" fill="white"/>
<path opacity="0.1" d="M74.9262 235.319C74.9262 235.319 76.8138 237.555 76.7796 238.046C76.7454 238.537 76.6701 239.601 76.6701 239.601L75.2476 242.478C75.2476 242.478 74.468 246.057 74.468 246.801C74.468 247.544 73.2232 253.994 73.2232 253.994L71.7255 263.921L69.8447 276.936L71.7597 280.229L74.0371 278.313L77.06 255.132L77.7028 250.557C77.7028 250.557 78.3867 242.335 78.3867 241.483C78.3109 240.449 78.1785 239.42 77.9901 238.401C77.9901 238.401 78.4552 236.274 80.3769 235.776C82.2987 235.278 80.2333 235.667 80.2333 235.667L79.1322 234.78L78.1679 235.169C78.1679 235.169 75.4938 234.33 74.9262 235.319Z" fill="black"/>
<path d="M74.9269 235.306C74.9269 235.306 76.8122 237.518 76.7712 238.004C76.7302 238.49 76.6687 239.548 76.6687 239.548L75.248 242.388C75.248 242.388 74.4624 245.935 74.4624 246.67C74.4624 247.405 73.2192 253.785 73.2192 253.785L71.73 263.604L69.8447 276.471L71.7642 279.735L74.0389 277.84L77.0581 254.911L77.7002 250.386C77.7002 250.386 78.3833 242.253 78.3833 241.41C78.3088 240.385 78.1788 239.365 77.9939 238.355C77.9939 238.355 78.4585 236.251 80.3779 235.765C82.2974 235.279 80.2345 235.657 80.2345 235.657L79.1347 234.78L78.1715 235.165C78.1715 235.165 75.4938 234.329 74.9269 235.306Z" fill="#F9A826"/>
<path opacity="0.1" d="M73.2326 230.785C73.2326 230.785 72.9515 230.993 72.8845 232.34C72.6634 233.824 72.3141 235.286 71.8403 236.713C71.8403 236.713 75.4616 234.29 77.2689 234.562L73.2326 230.785Z" fill="black"/>
<path d="M73.2326 230.785C73.2326 230.785 72.9515 230.986 72.8845 232.334C72.6641 233.819 72.3148 235.284 71.8403 236.713C71.8403 236.713 75.4616 234.29 77.2689 234.556L73.2326 230.785Z" fill="white"/>
<path opacity="0.1" d="M83.7324 229.786L77.8271 235.254C77.8271 235.254 82.7978 238.364 83.4417 239.123C84.0855 239.882 84.7362 231.684 84.7362 231.684L83.7324 229.786Z" fill="black"/>
<path d="M83.7265 228.788L77.8271 234.248C77.8271 234.248 82.7928 237.365 83.436 238.124C84.0792 238.883 84.7362 230.686 84.7362 230.686L83.7265 228.788Z" fill="white"/>
<path opacity="0.1" d="M73.5467 230.836C73.5467 230.836 72.922 230.525 72.3241 231.439C71.8913 232.044 71.2974 232.513 70.6111 232.792C70.6111 232.792 64.2562 233.814 64.0144 234.661L61.0452 234.837C61.0452 234.837 59.9973 234.979 59.8898 237.192C59.7823 239.405 59.218 239.622 59.218 239.622C59.218 239.622 57.9954 241.801 58.1029 242.932C58.1174 243.273 58.0371 243.611 57.8709 243.909C57.7048 244.207 57.4594 244.452 57.1624 244.617L61.5289 256.055C61.5289 256.055 61.6633 260.793 60.8571 262.499C60.051 264.205 58.5529 271.86 58.5529 271.86C58.5529 271.86 59.1777 271.718 59.1441 272.137C59.1105 272.557 58.3783 277.173 58.3783 277.173C58.292 278.015 58.1024 278.842 57.814 279.637C57.4647 280.273 57.4311 283.576 57.4311 283.576L56.8735 285.972C56.8735 285.972 58.2171 288.964 60.2324 288.544C62.2477 288.124 65.929 280.131 65.929 280.131L68.2667 271.508L70.0805 262.993L70.6044 257.22L71.4441 244.441L72.6667 235.994C72.6667 235.994 74.0371 231.439 73.5467 230.836Z" fill="black"/>
<path d="M73.5384 230.839C73.5384 230.839 72.9075 230.521 72.3169 231.435C71.8853 232.04 71.2917 232.51 70.6054 232.788C70.6054 232.788 64.2563 233.811 64.0146 234.65L61.0481 234.826C61.0481 234.826 60.0011 234.968 59.8938 237.189C59.7864 239.409 59.2226 239.619 59.2226 239.619C59.2226 239.619 58.0011 241.799 58.1084 242.922C58.1213 243.265 58.0396 243.605 57.8726 243.904C57.7055 244.202 57.4596 244.449 57.1621 244.615L61.5247 256.055C61.5247 256.055 61.6656 260.794 60.8535 262.493C60.0414 264.193 58.5447 271.862 58.5447 271.862C58.5447 271.862 59.1756 271.72 59.1421 272.14C59.1085 272.56 58.3702 277.177 58.3702 277.177C58.287 278.018 58.0998 278.846 57.8131 279.641C57.4641 280.27 57.4306 283.581 57.4306 283.581L56.8735 285.977C56.8735 285.977 58.2159 288.969 60.2293 288.543C62.2428 288.116 65.9208 280.128 65.9208 280.128L68.2564 271.51L70.0685 262.988L70.592 257.213L71.431 244.439L72.6525 235.99C72.6525 235.99 74.0552 231.435 73.5384 230.839Z" fill="#65617D"/>
<path opacity="0.1" d="M50.2963 258.654L48.3483 260.148C46.6277 260.202 44.907 260.043 43.2184 259.674L42.1275 259.135L41.9067 259.035L42.134 259.114C43.0034 259.455 43.9471 259.49 44.8353 259.214C47.608 258.187 47.3029 253.124 47.1925 251.983C47.1925 251.868 47.1925 251.789 47.1925 251.76C47.2292 251.828 47.2704 251.893 47.3158 251.954L47.4392 252.098L48.4197 254.252C48.4197 254.252 48.4197 254.252 48.4197 254.345L50.2963 258.654Z" fill="black"/>
<path d="M57.9459 243.77L56.9296 244.062L56.7903 246.148C56.4251 246.111 56.06 246.22 55.7744 246.45C55.4889 246.681 55.3061 247.015 55.2658 247.379C55.1282 248.135 54.8186 248.849 54.3608 249.466C54.3608 249.466 52.3698 251.128 52.2723 252.533L51.0402 253.298C51.0402 253.298 48.179 252.644 47.5594 251.489C47.5594 251.489 48.8612 260.816 41.9067 258.542C41.9067 258.542 49.6896 261.935 50.0516 262.408C50.7167 262.988 51.5357 263.362 52.4093 263.485C53.2829 263.609 54.1736 263.476 54.9734 263.104C56.2025 262.508 57.1513 261.458 57.6187 260.176C57.6187 260.176 59.7072 257.241 59.7907 256.81C59.8742 256.379 61.4893 255.871 61.4893 255.871L64.608 248.346L57.9459 243.77Z" fill="#65617D"/>
<path opacity="0.1" d="M82.5357 233.495L83.5873 228.788C83.7775 229.469 84.0964 230.11 84.5275 230.675L86.0876 231.855C86.7529 232.167 87.4546 232.398 88.1769 232.541C88.7202 232.541 91.6592 233.289 92.0143 233.681C92.3695 234.072 93.8251 233.79 93.8251 233.79C93.8251 233.79 95.023 234.182 96.0747 234.429C97.1263 234.676 97.6277 236.391 97.4118 237.071C97.324 237.408 97.3246 237.762 97.4135 238.1C97.5025 238.437 97.6768 238.746 97.9203 238.999C98.2656 239.553 98.4887 240.173 98.5749 240.818C98.8388 240.902 99.0831 241.036 99.2935 241.214C99.504 241.392 99.6764 241.61 99.8007 241.854C100.034 242.665 100.121 243.511 100.058 244.352L94.6678 251.846C94.7155 253.024 94.6666 254.203 94.5216 255.373C94.3057 256.018 95.2807 266.937 95.2807 266.937L96.4089 285.706C95.8308 286.195 95.2263 286.653 94.5982 287.078C94.2709 287.223 93.9435 280.442 93.9435 280.216C93.9435 279.989 85.5861 267.863 85.5861 267.863C85.1325 267.181 84.7564 266.451 84.4649 265.688C84.4649 265.297 83.4132 261.694 83.4132 261.694L81.8184 254.735L82.5357 233.495Z" fill="black"/>
<path d="M100.572 243.993C100.572 244.24 100.572 244.405 100.572 244.405L95.313 251.867C95.3623 253.043 95.317 254.222 95.1775 255.392C95.0555 255.769 95.3198 259.603 95.5705 262.758C95.7467 265.035 95.9162 266.949 95.9162 266.949L96.377 274.904L97.0073 285.707C96.446 286.197 95.8577 286.655 95.2453 287.078C94.9267 287.222 94.6082 280.446 94.6082 280.22C94.6082 279.994 86.4756 267.874 86.4756 267.874C86.0341 267.192 85.6682 266.463 85.3845 265.7C85.3845 265.309 84.3611 261.709 84.3611 261.709L82.8159 254.754L83.4936 233.493L84.09 228.788C84.4697 229.466 84.9245 230.099 85.4455 230.674L86.9568 231.853C87.6044 232.165 88.2872 232.395 88.9899 232.539C89.5186 232.539 92.3785 233.287 92.7242 233.678C93.0698 234.069 94.4862 233.788 94.4862 233.788C94.4862 233.788 95.6451 234.178 96.6684 234.425C97.6918 234.672 98.1866 236.387 97.9765 237.066C97.8902 237.403 97.8896 237.756 97.9749 238.093C98.0603 238.43 98.2287 238.74 98.4644 238.993C98.8035 239.546 99.0208 240.165 99.1015 240.811C99.3595 240.894 99.5985 241.028 99.8045 241.206C100.01 241.384 100.179 241.602 100.301 241.846C100.523 242.539 100.614 243.267 100.572 243.993Z" fill="#65617D"/>
<path opacity="0.1" d="M56.8735 339.654C57.0485 339.654 64.3957 339.89 64.2746 340.881C64.1535 341.873 56.8735 339.654 56.8735 339.654Z" fill="black"/>
<path opacity="0.1" d="M58.8691 340.653C58.8691 340.653 63.2931 341.59 62.1283 342.456C60.9635 343.322 58.8691 340.653 58.8691 340.653Z" fill="black"/>
<path opacity="0.1" d="M76.8291 338.656C76.8291 338.656 85.3801 339.273 84.1013 340.131C82.8225 340.99 79.7872 341.095 79.6466 341.126C78.6607 340.345 77.7203 339.52 76.8291 338.656Z" fill="black"/>
<path opacity="0.1" d="M76.8291 342.651C76.8291 342.651 81.1148 343.273 81.267 343.983C81.4191 344.693 76.8291 342.651 76.8291 342.651Z" fill="black"/>
<path opacity="0.1" d="M78.8247 320.677C78.8247 320.677 83.4885 321.855 83.7598 322.653L78.8247 320.677Z" fill="black"/>
<path opacity="0.1" d="M62.902 323.674C62.902 323.674 60.6109 324.382 62.8309 325.807C65.0509 327.232 62.902 323.674 62.902 323.674Z" fill="black"/>
<path opacity="0.1" d="M72.8384 290.198C73.0883 290.198 76.8913 287.946 78.2423 288.994C79.1983 289.628 80.2081 289.966 81.228 289.993L72.8384 290.198Z" fill="black"/>
<path opacity="0.1" d="M72.7842 293.69L72.7506 294.047L69.4964 302.764C69.4964 302.764 68.9719 305.409 68.5215 306.886C68.2387 307.906 68.0142 308.943 67.8491 309.99L70.7335 291.712L72.7842 293.69Z" fill="black"/>
<path d="M77.8056 278.684H76.5908H76.5483L75.8315 274.799L76.8945 274.732L77.8056 278.684Z" fill="#3F3D56"/>
<path d="M94.6385 274.093L93.787 274.813L90.9357 277.207C90.9357 277.207 83.2134 281.403 81.0815 277.415C79.207 273.905 87.9656 271.363 90.0711 270.852L90.5199 270.737L94.6385 274.093Z" fill="#FBBEBE"/>
<path opacity="0.1" d="M60.8647 238.776C60.8647 238.776 62.0481 239.475 62.3168 240.518C62.5855 241.561 60.8647 238.776 60.8647 238.776Z" fill="black"/>
<path opacity="0.1" d="M55.3609 249.762C55.3609 249.762 53.23 252.507 54.0811 253.564C54.9322 254.621 55.3609 249.762 55.3609 249.762Z" fill="black"/>
<path opacity="0.1" d="M96.259 240.773C96.259 240.773 93.8755 241.028 93.7915 243.243L96.259 240.773Z" fill="black"/>
<path opacity="0.1" d="M76.8291 269.663C77.0297 269.45 81.6703 262.153 82.7512 262.786L76.8291 269.663Z" fill="black"/>
<path opacity="0.1" d="M85.6264 222.859C85.6278 224.214 85.2878 225.548 84.6366 226.743H84.5756C84.04 226.63 83.762 226.026 83.3553 225.648C83.1065 225.415 82.7894 225.265 82.4488 225.219C82.1081 225.172 81.7612 225.232 81.457 225.389C81.1474 225.567 80.8953 225.828 80.7299 226.14C80.5644 226.452 80.4922 226.804 80.5214 227.155C80.2503 226.053 80.3384 224.878 80.074 223.769C79.8096 222.66 79.0232 221.538 77.9385 221.518C77.4775 221.518 76.9351 221.691 76.5826 221.346C76.3792 221.14 76.3385 220.815 76.1826 220.569C75.4165 219.341 73.064 219.965 72.1149 220.569C71.0859 221.376 69.9932 222.102 68.8472 222.74C68.9225 220.601 69.8471 218.575 71.4243 217.093C73.0016 215.611 75.107 214.79 77.2928 214.805C79.4787 214.819 81.5724 215.668 83.1287 217.172C84.685 218.675 85.5811 220.713 85.6264 222.853V222.859Z" fill="black"/>
<path d="M76.3836 219.602C76.5404 219.87 76.5814 220.215 76.7859 220.433C77.1268 220.793 77.6723 220.609 78.1496 220.616C79.2337 220.616 80.0246 221.828 80.2905 223.004C80.5564 224.18 80.4678 225.427 80.7405 226.596C80.7106 226.223 80.783 225.849 80.9494 225.516C81.1158 225.183 81.3695 224.906 81.6815 224.715C81.9884 224.551 82.3374 224.489 82.6798 224.54C83.0222 224.59 83.3407 224.75 83.5906 224.997C83.9997 225.399 84.2724 226.04 84.8179 226.159C85.3634 226.279 85.8679 225.744 86.0589 225.159C86.1931 224.557 86.2956 223.948 86.3657 223.335C86.6043 222.194 87.3271 221.257 87.7294 220.173C88.2003 218.849 88.1858 217.394 87.6885 216.081C87.4225 215.377 87.0066 214.778 86.7612 214.088C86.3521 213.045 86.2429 211.869 85.7452 210.876C85.3479 210.071 84.6845 209.439 83.8753 209.096C83.0661 208.752 82.1645 208.719 81.3337 209.003C80.5633 209.299 79.8951 209.876 79.111 210.137C78.0609 210.489 76.9427 210.221 75.8586 210.066C74.7745 209.911 73.5744 209.897 72.7017 210.637C71.6994 211.482 71.4267 213.074 70.4789 214.01C70.0835 214.398 69.5925 214.651 69.1766 215.01C68.9499 215.181 68.7655 215.404 68.6387 215.663C68.5119 215.921 68.4462 216.207 68.447 216.496C68.5084 217.257 69.2243 217.947 68.9584 218.644C68.8652 218.848 68.733 219.03 68.5698 219.18C67.7786 220.036 67.1905 221.07 66.8516 222.201C68.7471 222.814 70.7994 220.652 72.3062 219.63C73.2472 218.961 75.6131 218.306 76.3836 219.602Z" fill="#3F3D56"/>
<path opacity="0.1" d="M94.2418 274.398L93.4371 275.183C92.726 273.789 89.8003 271.001 89.8003 271.001L89.925 270.862L90.3493 270.737L94.2418 274.398Z" fill="black"/>
<path d="M95.7224 272.108C95.7224 272.108 95.3835 272.925 95.0226 273.643C94.6617 274.361 94.286 275.001 94.286 274.475C94.2418 273.437 89.8003 269.962 89.8003 269.962L90.4043 269.393L91.1409 268.74L95.7224 272.108Z" fill="#E7EFFD"/>
<path opacity="0.1" d="M95.7257 266.999L96.2159 275.097C95.0553 273.345 91.8908 268.814 89.8003 268.995L94.7886 263.445C94.993 263.224 95.1832 262.991 95.3581 262.747C95.5455 265.072 95.7257 266.999 95.7257 266.999Z" fill="black"/>
<path opacity="0.1" d="M95.2289 272.478C95.2289 272.478 94.8839 273.381 94.5165 274.174C93.1594 272.218 91.2924 269.91 89.8003 269.462L90.5501 268.74L95.2289 272.478Z" fill="black"/>
<path d="M98.7885 243.77L100.088 244.77C100.088 244.77 102.255 244.77 102.47 246.586C102.685 248.402 104.679 249.19 104.679 249.19C104.679 249.19 106.158 250.65 106.158 251.328C106.158 252.006 107.277 253.212 107.277 253.322C107.277 253.432 108.36 255.597 108.214 255.995C108.069 256.392 109.368 258.092 108.972 258.736C108.646 259.312 108.356 259.907 108.103 260.517C108.103 260.517 106.408 263.724 105.54 264.327C104.672 264.93 100.678 270.029 100.678 270.029C100.678 270.029 96.413 274.873 96.413 276.374C96.413 276.374 92.2453 269.522 89.8003 269.713L94.607 264.231C94.607 264.231 95.4405 263.341 95.4753 262.806C95.51 262.272 97.7883 259.811 98.8719 259.709C98.8719 259.709 99.0525 258.242 98.5802 258.208C98.1078 258.174 97.7119 257.036 97.7119 257.036C97.7119 257.036 94.5375 253.329 94.4958 250.979C94.4542 248.628 98.7885 243.77 98.7885 243.77Z" fill="#65617D"/>
<path opacity="0.1" d="M66.6362 350.132C66.6362 350.132 63.6563 352.025 62.163 351.747C61.1313 351.62 60.0836 351.787 59.149 352.23C58.1243 353.319 56.8314 354.137 55.3917 354.607C52.9846 355.394 49.616 355.083 47.6999 354.468C46.793 354.176 46.718 353.806 47.1544 353.329C49.241 353.733 53.8915 354.534 55.1462 353.951C56.5251 353.239 57.8512 352.434 59.1149 351.542C59.1149 351.542 62.163 351.125 62.5926 351.125C63.948 350.705 65.2776 350.21 66.5748 349.642L66.6362 350.132Z" fill="black"/>
<path opacity="0.1" d="M85.2187 354.636C85.2187 354.778 85.2187 354.87 85.2187 354.87C85.2187 354.87 84.5518 356.778 80.6771 357.47C76.8024 358.162 76.8291 355.87 76.8291 355.87C76.8291 355.87 76.8291 355.62 76.8691 355.253C78.0562 355.828 80.7171 356.47 85.2187 354.636Z" fill="black"/>
<path opacity="0.1" d="M61.8518 246.766C61.8518 246.766 61.8518 254.83 61.0807 255.613C60.3096 256.396 61.8518 246.766 61.8518 246.766Z" fill="black"/>
<path opacity="0.1" d="M93.7915 249.762L95.1976 252.726C95.1976 252.726 95.7601 249.818 93.7915 249.762Z" fill="black"/>
<g opacity="0.1">
<path opacity="0.1" d="M69.4705 218.849C69.7293 218.167 69.0482 217.532 68.9597 216.802C68.8723 217.004 68.8349 217.224 68.8507 217.443C68.8916 217.982 69.2934 218.481 69.3956 218.979C69.424 218.938 69.449 218.894 69.4705 218.849Z" fill="black"/>
<path opacity="0.1" d="M80.8175 226.223C80.5588 225.104 80.6337 223.917 80.3817 222.811C80.1298 221.706 79.3195 220.525 78.2368 220.505C77.7669 220.505 77.2222 220.676 76.8749 220.328C76.6706 220.116 76.6298 219.782 76.4732 219.522C75.6969 218.267 73.3409 218.901 72.3876 219.522C70.9372 220.491 68.9488 222.511 67.0899 222.054C66.9984 222.277 66.9188 222.505 66.8516 222.736C68.7446 223.33 70.7942 221.235 72.299 220.246C73.266 219.563 75.6288 218.963 76.3847 220.246C76.5413 220.505 76.5821 220.839 76.7864 221.051C77.1269 221.399 77.6716 221.221 78.1483 221.228C79.2309 221.228 80.0208 222.402 80.2864 223.542C80.552 224.681 80.4635 225.889 80.7358 227.022C80.7051 226.753 80.733 226.48 80.8175 226.223Z" fill="black"/>
<path opacity="0.1" d="M86.1391 225.411C85.9416 225.97 85.4581 226.489 84.893 226.373C84.3278 226.257 84.0827 225.636 83.6741 225.247C83.4221 225.009 83.1026 224.856 82.7598 224.808C82.4169 224.761 82.0678 224.821 81.7607 224.981C81.4661 225.158 81.2239 225.411 81.0588 225.713C80.8937 226.016 80.8117 226.356 80.821 226.7C80.9666 226.267 81.2641 225.901 81.6586 225.67C81.965 225.511 82.3136 225.451 82.6556 225.5C82.9975 225.549 83.3155 225.704 83.5652 225.943C83.9737 226.332 84.2461 226.953 84.7908 227.069C85.3356 227.185 85.8395 226.666 86.0301 226.1C86.1305 225.769 86.1967 225.428 86.2276 225.083C86.2004 225.192 86.1731 225.302 86.1391 225.411Z" fill="black"/>
<path opacity="0.1" d="M88.2779 220.576C87.883 221.634 87.1612 222.542 86.9161 223.647C86.866 223.872 86.8296 224.1 86.8071 224.329C87.0523 223.224 87.7672 222.323 88.1689 221.272C88.3455 220.799 88.4555 220.302 88.4957 219.798C88.4416 220.063 88.3688 220.322 88.2779 220.576Z" fill="black"/>
</g>
<path opacity="0.3" d="M173.193 126.91H137.694V163.839H173.193V126.91Z" fill="#DDDDDD"/>
<path d="M158.833 143.89C158.007 143.89 157.199 144.135 156.512 144.594C155.826 145.054 155.29 145.706 154.974 146.47C154.658 147.234 154.575 148.075 154.736 148.886C154.898 149.697 155.295 150.442 155.879 151.026C156.464 151.611 157.208 152.009 158.018 152.17C158.828 152.332 159.668 152.249 160.431 151.933C161.194 151.616 161.846 151.08 162.305 150.393C162.764 149.705 163.009 148.897 163.009 148.07C163.009 146.961 162.569 145.898 161.786 145.114C161.003 144.33 159.94 143.89 158.833 143.89ZM159.25 150.157V150.579C159.25 150.634 159.228 150.687 159.189 150.726C159.15 150.766 159.097 150.788 159.041 150.788H158.624C158.568 150.788 158.515 150.766 158.476 150.726C158.437 150.687 158.415 150.634 158.415 150.579V150.153C158.119 150.138 157.834 150.034 157.596 149.856C157.572 149.838 157.553 149.814 157.539 149.788C157.525 149.761 157.517 149.731 157.516 149.701C157.514 149.671 157.519 149.641 157.531 149.613C157.542 149.585 157.559 149.56 157.581 149.539L157.888 149.246C157.924 149.214 157.969 149.194 158.017 149.191C158.065 149.187 158.113 149.2 158.152 149.227C158.253 149.29 158.369 149.324 158.487 149.324H159.221C159.39 149.324 159.529 149.17 159.529 148.98C159.529 148.824 159.435 148.687 159.3 148.647L158.125 148.294C157.64 148.149 157.301 147.682 157.301 147.161C157.301 146.52 157.798 146 158.415 145.983V145.562C158.415 145.506 158.437 145.453 158.476 145.414C158.515 145.375 158.568 145.353 158.624 145.353H159.041C159.097 145.353 159.15 145.375 159.189 145.414C159.228 145.453 159.25 145.506 159.25 145.562V145.987C159.546 146.003 159.831 146.106 160.069 146.284C160.093 146.303 160.112 146.326 160.126 146.353C160.14 146.38 160.148 146.409 160.149 146.439C160.151 146.469 160.145 146.499 160.134 146.527C160.123 146.555 160.106 146.581 160.084 146.601L159.777 146.894C159.741 146.927 159.696 146.946 159.648 146.95C159.6 146.953 159.552 146.94 159.513 146.914C159.412 146.85 159.296 146.816 159.178 146.816H158.444C158.275 146.816 158.136 146.971 158.136 147.161C158.136 147.316 158.23 147.453 158.365 147.493L159.54 147.846C160.025 147.992 160.364 148.458 160.364 148.98C160.364 149.621 159.867 150.141 159.25 150.157Z" fill="#1DD595"/>
<path d="M154.191 148.093C154.191 145.747 155.811 143.777 157.988 143.231L160.63 140.308C161.152 139.786 160.781 138.896 160.045 138.896H147.502C146.766 138.896 146.397 139.787 146.918 140.308L151.685 145.585V149.659C151.685 149.821 151.723 149.981 151.796 150.126C151.868 150.271 151.973 150.397 152.103 150.495L154.191 152.062C154.736 152.471 155.456 152.245 155.737 151.708C155.249 151.241 154.86 150.68 154.594 150.059C154.328 149.438 154.191 148.769 154.191 148.093Z" fill="#333333"/>
<path opacity="0.3" d="M127.295 126.91H91.7959V163.839H127.295V126.91Z" fill="#DDDDDD"/>
<path d="M117.598 144.4V145.236C117.598 145.347 117.554 145.454 117.476 145.532C117.398 145.61 117.291 145.655 117.181 145.655H115.51V147.327C115.51 147.438 115.466 147.544 115.388 147.622C115.31 147.701 115.203 147.745 115.093 147.745H114.257C114.147 147.745 114.04 147.701 113.962 147.622C113.884 147.544 113.84 147.438 113.84 147.327V145.655H112.169C112.058 145.655 111.952 145.61 111.874 145.532C111.795 145.454 111.751 145.347 111.751 145.236V144.4C111.751 144.289 111.795 144.183 111.874 144.105C111.952 144.026 112.058 143.982 112.169 143.982H113.84V142.31C113.84 142.199 113.884 142.093 113.962 142.014C114.04 141.936 114.147 141.892 114.257 141.892H115.093C115.203 141.892 115.31 141.936 115.388 142.014C115.466 142.093 115.51 142.199 115.51 142.31V143.982H117.181C117.291 143.982 117.398 144.026 117.476 144.105C117.554 144.183 117.598 144.289 117.598 144.4Z" fill="#1DD595"/>
<path d="M106.623 145.585C107.284 145.585 107.93 145.388 108.479 145.021C109.028 144.653 109.457 144.131 109.709 143.52C109.962 142.909 110.029 142.236 109.9 141.588C109.771 140.939 109.452 140.343 108.985 139.875C108.518 139.407 107.923 139.089 107.275 138.96C106.626 138.831 105.955 138.897 105.344 139.15C104.734 139.403 104.212 139.832 103.845 140.382C103.478 140.932 103.282 141.579 103.282 142.24C103.282 143.127 103.634 143.978 104.26 144.605C104.887 145.232 105.737 145.585 106.623 145.585ZM108.961 146.421H108.526C107.929 146.696 107.28 146.839 106.623 146.839C105.966 146.839 105.317 146.696 104.72 146.421H104.284C103.354 146.421 102.461 146.791 101.804 147.449C101.146 148.108 100.776 149.001 100.776 149.932V151.019C100.776 151.352 100.908 151.671 101.143 151.906C101.378 152.141 101.696 152.273 102.029 152.273H111.217C111.549 152.273 111.868 152.141 112.103 151.906C112.338 151.671 112.47 151.352 112.47 151.019V149.932C112.469 149.001 112.1 148.108 111.442 147.449C110.784 146.791 109.892 146.421 108.961 146.421Z" fill="#333333"/>
<path opacity="0.2" d="M42.4876 214.477L18.958 220.797L27.0755 251.08L50.6051 244.76L42.4876 214.477Z" fill="#DDDDDD"/>
<path d="M44.4842 215.476L20.9546 221.796L29.0724 252.079L52.602 245.759L44.4842 215.476Z" fill="white"/>
<path opacity="0.4" d="M41.692 227.881L38.1846 228.765C38.0518 228.799 37.9047 228.775 37.7757 228.698C37.6468 228.621 37.5466 228.499 37.4971 228.357L36.192 224.613L28.9269 226.445C28.8283 226.469 28.7379 226.514 28.6608 226.577C28.5837 226.64 28.5214 226.72 28.4774 226.811C28.4335 226.903 28.4087 227.005 28.4046 227.111C28.4006 227.218 28.4172 227.327 28.4536 227.432L33.8619 242.945C33.8983 243.05 33.9537 243.149 34.025 243.237C34.0964 243.325 34.1822 243.399 34.2776 243.456C34.373 243.513 34.4762 243.552 34.5811 243.569C34.6861 243.587 34.7908 243.583 34.8894 243.559L45.4151 240.906C45.5136 240.881 45.604 240.836 45.6812 240.773C45.7583 240.71 45.8206 240.631 45.8645 240.539C45.9085 240.447 45.9332 240.345 45.9373 240.239C45.9414 240.132 45.9248 240.023 45.8884 239.918L41.692 227.881ZM37.5587 240.213C37.0465 240.139 36.5416 239.958 36.0758 239.681C35.6099 239.404 35.1932 239.038 34.8517 238.605C33.0108 236.256 33.6417 233.43 35.6405 232.412L37.2876 237.136L41.7137 236.021C42.076 238.442 40.3327 240.608 37.5587 240.213ZM37.9168 235.814L36.5168 231.799C37.0108 231.674 37.5363 231.655 38.0631 231.741C38.59 231.828 39.1079 232.019 39.5872 232.304C40.0666 232.589 40.4981 232.962 40.857 233.401C41.2159 233.841 41.4952 234.339 41.679 234.866L37.9168 235.814Z" fill="#555555"/>
<path d="M41.0818 226.473L36.8726 223.979C36.7767 223.923 36.673 223.885 36.5676 223.868C36.4622 223.851 36.3571 223.855 36.2583 223.88L36.0671 223.928L37.3706 227.658C37.4199 227.8 37.5202 227.922 37.6491 227.998C37.7781 228.075 37.9253 228.099 38.0583 228.065L41.5689 227.184L41.4979 226.981C41.4614 226.877 41.4059 226.778 41.3345 226.691C41.2631 226.604 41.1772 226.53 41.0818 226.473ZM35.5097 231.699C33.5086 232.714 32.8736 235.53 34.7158 237.87C35.0573 238.302 35.4741 238.667 35.9401 238.943C36.4061 239.219 36.9112 239.399 37.4237 239.473C40.1996 239.866 41.9457 237.708 41.5849 235.295L37.1546 236.407L35.5097 231.699Z" fill="#555555"/>
<path d="M148.495 202.442C143.6 200.738 138.373 200.238 133.247 200.984C128.122 201.729 123.248 203.697 119.03 206.725C114.813 209.753 111.374 213.753 109.001 218.392C106.628 223.03 105.389 228.173 105.387 233.392C105.387 234.008 105.144 234.599 104.712 235.035C104.279 235.471 103.693 235.716 103.081 235.716C102.47 235.716 101.884 235.471 101.451 235.035C101.019 234.599 100.776 234.008 100.776 233.392C100.778 227.447 102.187 221.587 104.885 216.3C107.583 211.013 111.492 206.45 116.29 202.989C121.087 199.529 126.633 197.27 132.469 196.402C138.305 195.533 144.263 196.078 149.848 197.993" fill="#1DD595"/>
<path d="M150.038 197.998C157.451 200.518 163.886 205.276 168.445 211.606C173.004 217.936 175.459 225.522 175.468 233.305C175.468 233.92 175.222 234.51 174.784 234.944C174.347 235.379 173.753 235.623 173.135 235.623C172.516 235.623 171.923 235.379 171.485 234.944C171.048 234.51 170.802 233.92 170.802 233.305C170.794 226.514 168.659 219.894 164.693 214.363C160.727 208.831 155.127 204.662 148.669 202.434" fill="white"/>
<path d="M138 218.175C131.371 218.175 126 223.546 126 230.175C126 236.804 131.371 242.175 138 242.175C144.629 242.175 150 236.804 150 230.175C150 223.546 144.629 218.175 138 218.175ZM139.161 227.824C139.321 225.786 140.719 224.369 141.871 224.369C143.023 224.369 144.421 225.786 144.581 227.824C144.615 228.24 144.058 228.399 143.86 228.041L143.4 227.219C143.027 226.556 142.471 226.174 141.876 226.174C141.281 226.174 140.724 226.556 140.352 227.219L139.892 228.041C139.689 228.399 139.127 228.24 139.161 227.824ZM131.419 227.824C131.579 225.786 132.977 224.369 134.129 224.369C135.281 224.369 136.679 225.786 136.839 227.824C136.873 228.24 136.316 228.399 136.118 228.041L135.658 227.219C135.285 226.556 134.729 226.174 134.134 226.174C133.539 226.174 132.982 226.556 132.61 227.219L132.15 228.041C131.942 228.399 131.385 228.235 131.419 227.824ZM145.302 232.594C145.088 234.278 144.268 235.826 142.995 236.948C141.723 238.071 140.084 238.69 138.387 238.691H137.613C135.916 238.69 134.277 238.071 133.005 236.948C131.732 235.826 130.912 234.278 130.698 232.594C130.674 232.39 130.731 232.184 130.858 232.022C130.985 231.859 131.171 231.754 131.376 231.729C131.406 231.725 131.437 231.724 131.468 231.724H144.532C144.738 231.724 144.935 231.805 145.08 231.95C145.225 232.095 145.306 232.292 145.306 232.498C145.307 232.53 145.305 232.562 145.302 232.594Z" fill="#1DD595"/>
<path opacity="0.4" d="M290.036 137.062C286.793 137.696 284.179 140.305 283.539 143.542C282.332 149.65 287.837 154.203 291.984 153.56C293.328 153.351 293.987 151.777 293.371 150.565C292.617 149.082 293.694 147.351 295.358 147.351H297.958C299.126 147.351 300.073 146.384 300.076 145.218C300.06 140.071 295.381 136.021 290.036 137.062ZM286.502 147.351C286.296 147.351 286.094 147.29 285.922 147.175C285.751 147.06 285.617 146.897 285.538 146.706C285.459 146.515 285.438 146.305 285.478 146.102C285.519 145.899 285.618 145.713 285.764 145.567C285.91 145.42 286.096 145.321 286.299 145.281C286.501 145.24 286.711 145.261 286.902 145.34C287.093 145.419 287.256 145.553 287.371 145.725C287.485 145.897 287.547 146.099 287.547 146.306C287.547 146.583 287.437 146.849 287.241 147.045C287.045 147.241 286.779 147.351 286.502 147.351ZM287.547 143.17C287.34 143.17 287.138 143.109 286.967 142.994C286.795 142.879 286.661 142.716 286.582 142.525C286.503 142.334 286.482 142.124 286.523 141.921C286.563 141.718 286.662 141.532 286.808 141.386C286.954 141.24 287.14 141.14 287.343 141.1C287.545 141.059 287.755 141.08 287.946 141.159C288.137 141.238 288.3 141.372 288.415 141.544C288.529 141.716 288.591 141.918 288.591 142.125C288.591 142.402 288.481 142.668 288.285 142.864C288.089 143.06 287.824 143.17 287.547 143.17ZM291.723 141.08C291.517 141.08 291.315 141.018 291.143 140.904C290.971 140.789 290.838 140.625 290.758 140.434C290.679 140.243 290.659 140.033 290.699 139.831C290.739 139.628 290.839 139.442 290.985 139.295C291.131 139.149 291.317 139.05 291.519 139.009C291.722 138.969 291.932 138.99 292.123 139.069C292.314 139.148 292.477 139.282 292.591 139.454C292.706 139.626 292.767 139.828 292.767 140.034C292.767 140.312 292.657 140.578 292.461 140.774C292.266 140.97 292 141.08 291.723 141.08ZM295.9 143.17C295.693 143.17 295.491 143.109 295.32 142.994C295.148 142.879 295.014 142.716 294.935 142.525C294.856 142.334 294.835 142.124 294.876 141.921C294.916 141.718 295.015 141.532 295.161 141.386C295.307 141.24 295.493 141.14 295.696 141.1C295.899 141.059 296.108 141.08 296.299 141.159C296.49 141.238 296.653 141.372 296.768 141.544C296.883 141.716 296.944 141.918 296.944 142.125C296.944 142.402 296.834 142.668 296.638 142.864C296.442 143.06 296.177 143.17 295.9 143.17Z" fill="#999999"/>
<path d="M286.41 145.167C286.203 145.167 286.001 145.228 285.83 145.343C285.658 145.458 285.524 145.621 285.445 145.812C285.366 146.003 285.345 146.213 285.386 146.416C285.426 146.619 285.526 146.805 285.672 146.951C285.818 147.097 286.004 147.197 286.206 147.237C286.409 147.277 286.619 147.257 286.809 147.178C287 147.099 287.163 146.965 287.278 146.793C287.393 146.621 287.454 146.419 287.454 146.212C287.454 145.935 287.344 145.669 287.148 145.473C286.952 145.277 286.687 145.167 286.41 145.167ZM287.454 140.986C287.247 140.986 287.046 141.047 286.874 141.162C286.702 141.277 286.568 141.44 286.489 141.631C286.41 141.822 286.39 142.032 286.43 142.235C286.47 142.438 286.57 142.624 286.716 142.77C286.862 142.916 287.048 143.016 287.25 143.056C287.453 143.097 287.663 143.076 287.854 142.997C288.044 142.918 288.207 142.784 288.322 142.612C288.437 142.44 288.498 142.238 288.498 142.031C288.498 141.754 288.388 141.488 288.192 141.292C287.997 141.096 287.731 140.986 287.454 140.986ZM291.631 138.896C291.424 138.896 291.222 138.957 291.05 139.072C290.879 139.187 290.745 139.35 290.666 139.541C290.587 139.732 290.566 139.942 290.606 140.145C290.647 140.347 290.746 140.534 290.892 140.68C291.038 140.826 291.224 140.926 291.427 140.966C291.629 141.006 291.839 140.986 292.03 140.906C292.221 140.827 292.384 140.693 292.499 140.521C292.613 140.35 292.675 140.148 292.675 139.941C292.675 139.664 292.565 139.398 292.369 139.202C292.173 139.006 291.907 138.896 291.631 138.896ZM295.807 140.986C295.601 140.986 295.399 141.047 295.227 141.162C295.055 141.277 294.921 141.44 294.842 141.631C294.763 141.822 294.743 142.032 294.783 142.235C294.823 142.438 294.923 142.624 295.069 142.77C295.215 142.916 295.401 143.016 295.603 143.056C295.806 143.097 296.016 143.076 296.207 142.997C296.397 142.918 296.561 142.784 296.675 142.612C296.79 142.44 296.851 142.238 296.851 142.031C296.851 141.754 296.741 141.488 296.545 141.292C296.35 141.096 296.084 140.986 295.807 140.986Z" fill="#999999"/>
<defs>
<linearGradient id="paint0_linear" x1="-11839.9" y1="53669.3" x2="-12870.4" y2="26873.3" gradientUnits="userSpaceOnUse">
<stop stop-color="#808080" stop-opacity="0.25"/>
<stop offset="0.54" stop-color="#808080" stop-opacity="0.12"/>
<stop offset="1" stop-color="#808080" stop-opacity="0.1"/>
</linearGradient>
<linearGradient id="paint1_linear" x1="73.2633" y1="357.51" x2="73.2633" y2="208.703" gradientUnits="userSpaceOnUse">
<stop stop-color="#808080" stop-opacity="0.25"/>
<stop offset="0.54" stop-color="#808080" stop-opacity="0.12"/>
<stop offset="1" stop-color="#808080" stop-opacity="0.1"/>
</linearGradient>
</defs>
</svg>
