<svg width="20" height="22" viewBox="0 0 20 22" fill="none" xmlns="http://www.w3.org/2000/svg">
<path d="M19.2369 9.22061L10.7038 1.37017C10.4264 1.11496 10.0611 0.976844 9.68423 0.984692C9.30737 0.99254 8.94813 1.14574 8.6816 1.41228L0.833654 9.26027L0.430908 9.66297V21.2325H7.99341V14.0138H12.1184V21.2325H19.6809V9.62915L19.2369 9.22061ZM9.71379 2.3594C9.72591 2.3594 9.71843 2.36202 9.71323 2.36713C9.70786 2.36202 9.70167 2.3594 9.71379 2.3594ZM18.3059 19.8575H13.4934V14.0138C13.4934 13.6491 13.3485 13.2994 13.0907 13.0415C12.8328 12.7836 12.4831 12.6388 12.1184 12.6388H7.99341C7.62874 12.6388 7.279 12.7836 7.02114 13.0415C6.76327 13.2994 6.61841 13.6491 6.61841 14.0138V19.8575H1.80591V10.2325L9.71379 2.38454C9.71435 2.38402 9.71439 2.38355 9.71482 2.38303L18.3059 10.2325V19.8575Z" fill="#FBCD08"/>
</svg>
