<svg width="11" height="17" viewBox="0 0 11 17" fill="none" xmlns="http://www.w3.org/2000/svg">
<path d="M0.179565 2.98511C0.179565 2.45467 0.390279 1.94597 0.765352 1.57089C1.14042 1.19582 1.64913 0.985107 2.17957 0.985107L8.17957 0.985107C8.71 0.985107 9.21871 1.19582 9.59378 1.57089C9.96885 1.94597 10.1796 2.45467 10.1796 2.98511V14.9851C10.1796 15.5155 9.96885 16.0242 9.59378 16.3993C9.21871 16.7744 8.71 16.9851 8.17957 16.9851H2.17957C1.64913 16.9851 1.14042 16.7744 0.765352 16.3993C0.390279 16.0242 0.179565 15.5155 0.179565 14.9851V2.98511ZM6.17957 13.9851C6.17957 13.7199 6.07421 13.4655 5.88667 13.278C5.69914 13.0905 5.44478 12.9851 5.17957 12.9851C4.91435 12.9851 4.66 13.0905 4.47246 13.278C4.28492 13.4655 4.17957 13.7199 4.17957 13.9851C4.17957 14.2503 4.28492 14.5047 4.47246 14.6922C4.66 14.8798 4.91435 14.9851 5.17957 14.9851C5.44478 14.9851 5.69914 14.8798 5.88667 14.6922C6.07421 14.5047 6.17957 14.2503 6.17957 13.9851Z" fill="#838383"/>
</svg>
