<svg width="13" height="15" viewBox="0 0 13 15" fill="none" xmlns="http://www.w3.org/2000/svg">
<path d="M10.1796 4.81845H11.5129C11.6897 4.81845 11.8593 4.88868 11.9843 5.01371C12.1093 5.13873 12.1796 5.3083 12.1796 5.48511V13.4851C12.1796 13.6619 12.1093 13.8315 11.9843 13.9565C11.8593 14.0815 11.6897 14.1518 11.5129 14.1518H0.846232C0.669421 14.1518 0.499852 14.0815 0.374828 13.9565C0.249803 13.8315 0.179565 13.6619 0.179565 13.4851V5.48511C0.179565 5.3083 0.249803 5.13873 0.374828 5.01371C0.499852 4.88868 0.669421 4.81845 0.846232 4.81845H2.17957V4.15178C2.17957 3.09091 2.60099 2.0735 3.35114 1.32335C4.10128 0.573207 5.1187 0.151779 6.17957 0.151779C7.24043 0.151779 8.25785 0.573207 9.00799 1.32335C9.75814 2.0735 10.1796 3.09091 10.1796 4.15178V4.81845ZM8.84623 4.81845V4.15178C8.84623 3.44454 8.56528 2.76626 8.06518 2.26616C7.56509 1.76606 6.88681 1.48511 6.17957 1.48511C5.47232 1.48511 4.79404 1.76606 4.29395 2.26616C3.79385 2.76626 3.5129 3.44454 3.5129 4.15178V4.81845H8.84623ZM5.5129 8.81845V10.1518H6.84623V8.81845H5.5129ZM2.84623 8.81845V10.1518H4.17957V8.81845H2.84623ZM8.17957 8.81845V10.1518H9.5129V8.81845H8.17957Z" fill="#838383"/>
</svg>
