<svg width="391" height="221" viewBox="0 0 391 221" fill="none" xmlns="http://www.w3.org/2000/svg">
<path d="M186.734 220.713C289.864 220.713 373.468 190.933 373.468 154.198C373.468 117.464 289.864 87.6843 186.734 87.6843C83.6037 87.6843 0 117.464 0 154.198C0 190.933 83.6037 220.713 186.734 220.713Z" fill="#E5E5E5"/>
<path d="M234.655 141.073L291.282 173.813L340.411 145.553L283.355 112.572L234.655 141.073Z" fill="#E0E0E0"/>
<path d="M286.915 125.903L341.881 157.58L390.999 129.32L335.604 97.4013L286.915 125.903Z" fill="#E0E0E0"/>
<path d="M142.154 186.006L204.673 150.046L128.753 106.374L66.2344 142.334L142.154 186.006Z" fill="#E0E0E0"/>
<path d="M40.1914 163.135L0 140.012L84.978 91.2797L125.038 114.326L40.1914 163.135Z" fill="#E0E0E0"/>
<path d="M36.3955 159.914L123.88 109.67V27.6496L36.3955 77.8827V159.914Z" fill="url(#paint0_linear_2204_18202)"/>
<path opacity="0.75" d="M36.3955 159.914L123.88 109.67V27.6496L36.3955 77.8827V159.914Z" fill="white"/>
<path d="M12.627 64.2127L36.3944 77.8828L123.879 27.6496L100.122 13.9796L12.627 64.2127Z" fill="url(#paint1_linear_2204_18202)"/>
<path opacity="0.9" d="M12.627 64.2127L36.3944 77.8828L123.879 27.6496L100.122 13.9796L12.627 64.2127Z" fill="white"/>
<path d="M12.627 64.2127L36.3944 77.8828V159.914L12.627 146.244V64.2127Z" fill="url(#paint2_linear_2204_18202)"/>
<path opacity="0.6" d="M12.627 64.2127L36.3944 77.8828V159.914L12.627 146.244V64.2127Z" fill="white"/>
<path opacity="0.1" d="M123.891 49.2502L59.9541 85.9666V64.3662L59.3165 64.7277V86.3281L36.3955 99.4943V106.329L59.3165 93.1632V146.748L59.9541 146.376V92.8017L123.88 56.0853L123.891 49.2502Z" fill="black"/>
<path d="M36.3955 50.5755L59.9541 64.366V146.825L65.8905 143.418V60.9485L42.3319 47.158L36.3955 50.5755Z" fill="url(#paint3_linear_2204_18202)"/>
<path opacity="0.1" d="M65.8905 88.2777L59.9541 91.6952V92.7906L65.8905 89.3731V88.2777Z" fill="black"/>
<path opacity="0.1" d="M12.627 85.8242V92.6593L36.3944 106.329V99.4943L12.627 85.8242Z" fill="black"/>
<path d="M12.627 84.7179L36.3834 98.388L123.879 48.1548V54.9899L36.3834 105.223L12.627 91.5529V84.7179Z" fill="url(#paint4_linear_2204_18202)"/>
<path opacity="0.15" d="M36.3944 105.223V98.3878L12.627 84.7178V91.5528L36.3944 105.223Z" fill="black"/>
<path opacity="0.5" d="M65.8905 60.9485L59.9541 64.366L36.3955 50.5755L42.3319 47.158L65.8905 60.9485Z" fill="white"/>
<path opacity="0.1" d="M35.5596 51.0575L59.316 64.7275L59.9536 64.3661L36.3951 50.5755L35.5596 51.0575Z" fill="black"/>
<path d="M80.1484 121.237L142.326 157V180.846L80.1484 145.083V121.237Z" fill="url(#paint5_linear_2204_18202)"/>
<path opacity="0.15" d="M80.1484 121.237L142.326 157V180.846L80.1484 145.083V121.237Z" fill="black"/>
<path d="M142.326 157L194.137 127.196V151.042L142.326 180.846V157Z" fill="url(#paint6_linear_2204_18202)"/>
<path d="M194.138 127.196L131.96 91.4323L80.1484 121.237L142.326 157L194.138 127.196Z" fill="url(#paint7_linear_2204_18202)"/>
<path opacity="0.5" d="M194.138 127.196L131.96 91.4323L80.1484 121.237L142.326 157L194.138 127.196Z" fill="white"/>
<path d="M167.249 100.37H93.9785V124.216C93.9785 129.616 97.5623 135.006 104.719 139.124C119.01 147.35 142.217 147.35 156.519 139.124C163.676 135.006 167.249 129.616 167.249 124.216V100.37Z" fill="#37474F"/>
<path d="M130.113 145.291C134.812 145.353 139.502 144.864 144.086 143.834V113.317H130.113V145.291Z" fill="url(#paint8_linear_2204_18202)"/>
<path opacity="0.15" d="M130.113 145.291C134.812 145.353 139.502 144.864 144.086 143.834V113.317H130.113V145.291Z" fill="black"/>
<path d="M104.707 85.4735C90.4155 93.7106 90.4155 107.052 104.707 115.278C118.998 123.504 142.205 123.504 156.507 115.278C170.809 107.052 170.798 93.7106 156.507 85.4735C142.216 77.2364 119.009 77.2474 104.707 85.4735Z" fill="#455A64"/>
<path d="M128.893 79.3286C124.206 79.4328 119.549 80.0947 115.02 81.3002L130.113 121.467C134.812 121.534 139.503 121.045 144.086 120.01L128.893 79.3286Z" fill="url(#paint9_linear_2204_18202)"/>
<path d="M329.736 0.823581C331.847 -0.392267 334.43 -0.271778 337.025 1.25077C343.005 4.6902 347.864 14.6251 347.864 23.3989V44.0902C347.864 44.3401 347.765 44.5797 347.587 44.7563C347.41 44.933 347.169 45.0322 346.919 45.0322C346.668 45.0322 346.428 44.933 346.25 44.7563C346.073 44.5797 345.973 44.3401 345.973 44.0902V23.3989C345.973 15.2275 341.576 6.01557 336.079 2.88284C334.068 1.72176 332.199 1.56841 330.682 2.45565C328.483 3.74818 327.131 7.03424 327.131 11.4814V32.0742C327.106 32.3051 326.996 32.5186 326.822 32.6738C326.649 32.8289 326.424 32.9147 326.191 32.9147C325.958 32.9147 325.733 32.8289 325.559 32.6738C325.386 32.5186 325.276 32.3051 325.251 32.0742V11.4814C325.251 6.34417 326.878 2.46662 329.736 0.823581Z" fill="#37474F"/>
<path d="M283.357 119.429L289.173 19.9923L305.817 10.4408L311.269 103.371L283.357 119.429Z" fill="url(#paint10_linear_2204_18202)"/>
<path opacity="0.6" d="M283.357 119.429L289.173 19.9923L305.817 10.4408L311.269 103.371L283.357 119.429Z" fill="white"/>
<path opacity="0.05" d="M283.357 119.429L289.173 19.9923L305.817 10.4408L311.269 103.371L283.357 119.429Z" fill="black"/>
<path d="M364.301 44.0902L369.753 137.009L311.269 103.371L305.816 10.4408L364.301 44.0902Z" fill="url(#paint11_linear_2204_18202)"/>
<path opacity="0.3" d="M364.301 44.0902L369.753 137.009L311.269 103.371L305.816 10.4408L364.301 44.0902Z" fill="white"/>
<path opacity="0.05" d="M364.301 44.0902L369.753 137.009L311.269 103.371L305.816 10.4408L364.301 44.0902Z" fill="black"/>
<path d="M364.304 44.0903L347.649 53.6308L341.845 153.078L369.757 137.01L364.304 44.0903Z" fill="url(#paint12_linear_2204_18202)"/>
<path opacity="0.55" d="M364.304 44.0903L347.649 53.6308L341.845 153.078L369.757 137.01L364.304 44.0903Z" fill="white"/>
<path opacity="0.05" d="M341.845 153.079L353.838 136.287L355.344 77.6741L356.84 135.268L369.757 137.01L341.845 153.079Z" fill="black"/>
<path d="M283.357 119.429L341.842 153.078L347.646 53.6308L289.162 19.9923L283.357 119.429ZM328.155 52.3492C328.155 51.0129 329.089 50.4652 330.244 51.1333C330.85 51.5301 331.354 52.0627 331.717 52.6884C332.08 53.3141 332.29 54.0157 332.332 54.7371C332.332 56.0625 331.387 56.6101 330.244 55.9639C329.633 55.5692 329.125 55.0357 328.762 54.4073C328.399 53.7788 328.191 53.0735 328.155 52.3492ZM307.422 40.3003C307.422 38.953 308.356 38.4162 309.51 39.0734C310.118 39.469 310.623 40.0012 310.986 40.6272C311.349 41.2532 311.559 41.9554 311.599 42.6772C311.599 44.0026 310.665 44.5502 309.51 43.904C308.907 43.5153 308.403 42.9906 308.04 42.3722C307.677 41.7538 307.465 41.0591 307.422 40.3441V40.3003Z" fill="url(#paint13_linear_2204_18202)"/>
<path opacity="0.7" d="M283.357 119.429L341.842 153.078L347.646 53.6308L289.162 19.9923L283.357 119.429ZM328.155 52.3492C328.155 51.0129 329.089 50.4652 330.244 51.1333C330.85 51.5301 331.354 52.0627 331.717 52.6884C332.08 53.3141 332.29 54.0157 332.332 54.7371C332.332 56.0625 331.387 56.6101 330.244 55.9639C329.633 55.5692 329.125 55.0357 328.762 54.4073C328.399 53.7788 328.191 53.0735 328.155 52.3492ZM307.422 40.3003C307.422 38.953 308.356 38.4162 309.51 39.0734C310.118 39.469 310.623 40.0012 310.986 40.6272C311.349 41.2532 311.559 41.9554 311.599 42.6772C311.599 44.0026 310.665 44.5502 309.51 43.904C308.907 43.5153 308.403 42.9906 308.04 42.3722C307.677 41.7538 307.465 41.0591 307.422 40.3441V40.3003Z" fill="white"/>
<path d="M313.062 10.2765C315.172 9.07159 317.756 9.18112 320.35 10.7146C326.32 14.154 331.179 24.078 331.179 32.8628V53.5431C331.193 53.6746 331.179 53.8077 331.139 53.9335C331.098 54.0594 331.031 54.1753 330.942 54.2738C330.854 54.3722 330.745 54.4509 330.624 54.5048C330.503 54.5587 330.371 54.5866 330.239 54.5866C330.106 54.5866 329.975 54.5587 329.853 54.5048C329.732 54.4509 329.624 54.3722 329.535 54.2738C329.446 54.1753 329.38 54.0594 329.339 53.9335C329.298 53.8077 329.284 53.6746 329.299 53.5431V32.8628C329.299 24.6804 324.901 15.4794 319.405 12.3358C317.393 11.1856 315.524 11.0323 313.996 11.9086C311.797 13.2011 310.456 16.4981 310.456 20.9343V41.5271C310.456 41.7769 310.357 42.0165 310.179 42.1931C310.002 42.3698 309.762 42.4691 309.511 42.4691C309.26 42.4691 309.02 42.3698 308.842 42.1931C308.665 42.0165 308.565 41.7769 308.565 41.5271V20.9453C308.565 15.808 310.203 11.9195 313.062 10.2765Z" fill="#455A64"/>
<path d="M280.718 36.4556C281.713 35.9375 282.831 35.6985 283.952 35.7641C285.073 35.8297 286.155 36.1974 287.083 36.828C292.293 39.8293 296.537 48.4936 296.537 56.1611V74.2126C296.537 74.4305 296.45 74.6395 296.295 74.7935C296.141 74.9476 295.931 75.0342 295.712 75.0342C295.494 75.0342 295.284 74.9476 295.129 74.7935C294.975 74.6395 294.888 74.4305 294.888 74.2126V56.1611C294.888 49.0194 291.018 40.9904 286.258 38.252C285.58 37.769 284.784 37.4783 283.953 37.4108C283.123 37.3433 282.289 37.5015 281.542 37.8686C279.574 38.964 278.442 41.8776 278.442 45.7552V63.7191C278.442 63.937 278.355 64.1459 278.2 64.3C278.046 64.454 277.836 64.5406 277.617 64.5406C277.399 64.5406 277.189 64.454 277.034 64.3C276.88 64.1459 276.793 63.937 276.793 63.7191V45.7552C276.793 41.2752 278.222 37.8796 280.718 36.4556Z" fill="#37474F"/>
<path d="M240.241 139.967L245.309 53.1817L259.842 44.846L264.602 125.946L240.241 139.967Z" fill="url(#paint14_linear_2204_18202)"/>
<path opacity="0.2" d="M240.241 139.967L245.309 53.1817L259.842 44.846L264.602 125.946L240.241 139.967Z" fill="black"/>
<path d="M310.873 74.2126L315.644 155.313L264.602 125.946L259.842 44.846L310.873 74.2126Z" fill="url(#paint15_linear_2204_18202)"/>
<path opacity="0.3" d="M310.873 74.2126L315.644 155.313L264.602 125.946L259.842 44.846L310.873 74.2126Z" fill="black"/>
<path d="M310.872 74.2126L296.349 82.5373L291.271 169.323L315.643 155.313L310.872 74.2126Z" fill="url(#paint16_linear_2204_18202)"/>
<path opacity="0.15" d="M310.872 74.2126L296.349 82.5373L291.271 169.323L315.643 155.313L310.872 74.2126Z" fill="black"/>
<path opacity="0.15" d="M291.271 169.323L301.747 154.678L303.055 103.525L304.363 153.791L315.643 155.313L291.271 169.323Z" fill="black"/>
<path d="M240.241 139.967L291.272 169.323L296.351 82.5373L245.309 53.1817L240.241 139.967ZM279.333 81.431C279.333 80.259 280.147 79.777 281.158 80.3356C281.686 80.6821 282.125 81.1469 282.44 81.6928C282.755 82.2387 282.937 82.8506 282.972 83.4793C282.972 84.6404 282.159 85.1224 281.158 84.5747C280.625 84.2327 280.182 83.7692 279.864 83.2226C279.547 82.6759 279.365 82.0618 279.333 81.431V81.431ZM261.238 70.9375C261.238 69.7764 262.052 69.2944 263.063 69.8421C263.595 70.1854 264.037 70.6492 264.355 71.1956C264.672 71.742 264.855 72.3555 264.888 72.9858C264.888 74.1469 264.075 74.6179 263.063 74.0812C262.53 73.7399 262.086 73.2765 261.768 72.7297C261.451 72.1829 261.269 71.5684 261.238 70.9375V70.9375Z" fill="url(#paint17_linear_2204_18202)"/>
<path d="M266.15 44.7036C267.147 44.1894 268.265 43.9536 269.386 44.0211C270.506 44.0886 271.587 44.4569 272.515 45.087C277.737 48.0773 281.98 56.7525 281.98 64.4091V82.4606C281.98 82.6785 281.893 82.8874 281.739 83.0415C281.584 83.1956 281.374 83.2821 281.156 83.2821C280.937 83.2821 280.727 83.1956 280.573 83.0415C280.418 82.8874 280.331 82.6785 280.331 82.4606V64.4091C280.331 57.2783 276.451 49.2384 271.691 46.5C271.013 46.0165 270.215 45.7264 269.384 45.6608C268.553 45.5951 267.72 45.7565 266.974 46.1275C265.018 47.2229 263.885 50.1256 263.885 54.0032V71.978C263.885 72.1959 263.798 72.4048 263.644 72.5589C263.489 72.713 263.279 72.7995 263.061 72.7995C262.842 72.7995 262.632 72.713 262.478 72.5589C262.323 72.4048 262.236 72.1959 262.236 71.978V54.0032C262.236 49.5232 263.665 46.1385 266.15 44.7036Z" fill="#455A64"/>
<defs>
<linearGradient id="paint0_linear_2204_18202" x1="80.1377" y1="27.6496" x2="80.1377" y2="159.914" gradientUnits="userSpaceOnUse">
<stop stop-color="#DB1580"/>
<stop offset="1" stop-color="#F5A41A"/>
</linearGradient>
<linearGradient id="paint1_linear_2204_18202" x1="68.2529" y1="13.9796" x2="68.2529" y2="77.8828" gradientUnits="userSpaceOnUse">
<stop stop-color="#DB1580"/>
<stop offset="1" stop-color="#F5A41A"/>
</linearGradient>
<linearGradient id="paint2_linear_2204_18202" x1="24.5107" y1="64.2127" x2="24.5107" y2="159.914" gradientUnits="userSpaceOnUse">
<stop stop-color="#DB1580"/>
<stop offset="1" stop-color="#F5A41A"/>
</linearGradient>
<linearGradient id="paint3_linear_2204_18202" x1="51.143" y1="47.158" x2="51.143" y2="146.825" gradientUnits="userSpaceOnUse">
<stop stop-color="#DB1580"/>
<stop offset="1" stop-color="#F5A41A"/>
</linearGradient>
<linearGradient id="paint4_linear_2204_18202" x1="68.2529" y1="48.1548" x2="68.2529" y2="105.223" gradientUnits="userSpaceOnUse">
<stop stop-color="#DB1580"/>
<stop offset="1" stop-color="#F5A41A"/>
</linearGradient>
<linearGradient id="paint5_linear_2204_18202" x1="111.237" y1="121.237" x2="111.237" y2="180.846" gradientUnits="userSpaceOnUse">
<stop stop-color="#DB1580"/>
<stop offset="1" stop-color="#F5A41A"/>
</linearGradient>
<linearGradient id="paint6_linear_2204_18202" x1="168.232" y1="127.196" x2="168.232" y2="180.846" gradientUnits="userSpaceOnUse">
<stop stop-color="#DB1580"/>
<stop offset="1" stop-color="#F5A41A"/>
</linearGradient>
<linearGradient id="paint7_linear_2204_18202" x1="137.143" y1="91.4323" x2="137.143" y2="157" gradientUnits="userSpaceOnUse">
<stop stop-color="#DB1580"/>
<stop offset="1" stop-color="#F5A41A"/>
</linearGradient>
<linearGradient id="paint8_linear_2204_18202" x1="137.1" y1="113.317" x2="137.1" y2="145.296" gradientUnits="userSpaceOnUse">
<stop stop-color="#DB1580"/>
<stop offset="1" stop-color="#F5A41A"/>
</linearGradient>
<linearGradient id="paint9_linear_2204_18202" x1="129.553" y1="79.3286" x2="129.553" y2="121.473" gradientUnits="userSpaceOnUse">
<stop stop-color="#DB1580"/>
<stop offset="1" stop-color="#F5A41A"/>
</linearGradient>
<linearGradient id="paint10_linear_2204_18202" x1="297.313" y1="10.4408" x2="297.313" y2="119.429" gradientUnits="userSpaceOnUse">
<stop stop-color="#DB1580"/>
<stop offset="1" stop-color="#F5A41A"/>
</linearGradient>
<linearGradient id="paint11_linear_2204_18202" x1="337.785" y1="10.4408" x2="337.785" y2="137.009" gradientUnits="userSpaceOnUse">
<stop stop-color="#DB1580"/>
<stop offset="1" stop-color="#F5A41A"/>
</linearGradient>
<linearGradient id="paint12_linear_2204_18202" x1="355.801" y1="44.0903" x2="355.801" y2="153.078" gradientUnits="userSpaceOnUse">
<stop stop-color="#DB1580"/>
<stop offset="1" stop-color="#F5A41A"/>
</linearGradient>
<linearGradient id="paint13_linear_2204_18202" x1="315.502" y1="19.9923" x2="315.502" y2="153.078" gradientUnits="userSpaceOnUse">
<stop stop-color="#DB1580"/>
<stop offset="1" stop-color="#F5A41A"/>
</linearGradient>
<linearGradient id="paint14_linear_2204_18202" x1="252.422" y1="44.846" x2="252.422" y2="139.967" gradientUnits="userSpaceOnUse">
<stop stop-color="#DB1580"/>
<stop offset="1" stop-color="#F5A41A"/>
</linearGradient>
<linearGradient id="paint15_linear_2204_18202" x1="287.743" y1="44.846" x2="287.743" y2="155.313" gradientUnits="userSpaceOnUse">
<stop stop-color="#DB1580"/>
<stop offset="1" stop-color="#F5A41A"/>
</linearGradient>
<linearGradient id="paint16_linear_2204_18202" x1="303.457" y1="74.2126" x2="303.457" y2="169.323" gradientUnits="userSpaceOnUse">
<stop stop-color="#DB1580"/>
<stop offset="1" stop-color="#F5A41A"/>
</linearGradient>
<linearGradient id="paint17_linear_2204_18202" x1="268.296" y1="53.1817" x2="268.296" y2="169.323" gradientUnits="userSpaceOnUse">
<stop stop-color="#DB1580"/>
<stop offset="1" stop-color="#F5A41A"/>
</linearGradient>
</defs>
</svg>
