<svg xmlns="http://www.w3.org/2000/svg" xmlns:xlink="http://www.w3.org/1999/xlink" viewBox="0 0 336.75 229"><defs><style>.cls-1{isolation:isolate;}.cls-2{opacity:0.23;}.cls-2,.cls-30,.cls-46{mix-blend-mode:multiply;}.cls-3{fill:url(#Degradado_sin_nombre_4);}.cls-4{fill:url(#Degradado_sin_nombre_4-2);}.cls-5{fill:url(#Degradado_sin_nombre_4-3);}.cls-6{fill:url(#Degradado_sin_nombre_4-4);}.cls-7{fill:url(#Degradado_sin_nombre_4-5);}.cls-8{fill:url(#Degradado_sin_nombre_4-6);}.cls-9{fill:url(#Degradado_sin_nombre_4-7);}.cls-10{fill:url(#Degradado_sin_nombre_4-8);}.cls-11{fill:url(#Degradado_sin_nombre_4-9);}.cls-12{fill:url(#Degradado_sin_nombre_4-10);}.cls-13{fill:url(#Degradado_sin_nombre_4-11);}.cls-14{fill:url(#Degradado_sin_nombre_4-12);}.cls-15{fill:url(#Degradado_sin_nombre_4-13);}.cls-16{fill:url(#Degradado_sin_nombre_4-14);}.cls-17{fill:url(#Degradado_sin_nombre_4-15);}.cls-18{fill:url(#Degradado_sin_nombre_4-16);}.cls-19{fill:url(#Degradado_sin_nombre_4-17);}.cls-20{fill:url(#Degradado_sin_nombre_4-18);}.cls-21{fill:url(#Degradado_sin_nombre_4-19);}.cls-22{fill:url(#Degradado_sin_nombre_4-20);}.cls-23{fill:url(#Degradado_sin_nombre_4-21);}.cls-24{fill:url(#Degradado_sin_nombre_4-22);}.cls-25{fill:url(#Degradado_sin_nombre_4-23);}.cls-26{fill:#d0e4f6;}.cls-27{fill:#bbdfc1;}.cls-28{fill:#9fcdbb;}.cls-29,.cls-44{fill:none;stroke-miterlimit:10;}.cls-29{stroke:#d71f27;stroke-width:2px;}.cls-30{fill:#e5ebf3;}.cls-31{fill:#d75e27;}.cls-32{fill:#b04b25;}.cls-33{fill:#e7d1ae;}.cls-34{fill:#dfbd82;}.cls-35{fill:#e7cc9e;}.cls-36{fill:#dfb695;}.cls-37{fill:#e0ab83;}.cls-38{fill:#3a3a39;}.cls-39{fill:#2e409a;}.cls-40{fill:#2a368e;}.cls-41{fill:#434343;}.cls-42{fill:#e7f1fa;}.cls-43{fill:#010101;}.cls-44{stroke:#010101;stroke-linecap:round;}.cls-45{fill:#fdb714;}.cls-46{fill:#e7e7e6;}.cls-47{fill:#ffc50f;}.cls-48{fill:#fff;}.cls-49{fill:#ebf4fb;}.cls-50{fill:#606161;}.cls-51{fill:#d71f27;}.cls-52{fill:#a51e22;}.cls-53{mix-blend-mode:screen;}.cls-54{fill:url(#Degradado_sin_nombre_16);}.cls-55{fill:url(#Degradado_sin_nombre_16-2);}.cls-56{fill:#f69fa1;}.cls-57{fill:#5d77ba;}.cls-58{fill:#c6e4ca;}.cls-59{fill:#4b69b2;}.cls-60{fill:#f7fcfd;}</style><linearGradient id="Degradado_sin_nombre_4" x1="50.49" y1="167.39" x2="100.31" y2="167.39" gradientUnits="userSpaceOnUse"><stop offset="0" stop-color="#ae7cb7"/><stop offset="1" stop-color="#fbfcfc"/></linearGradient><linearGradient id="Degradado_sin_nombre_4-2" x1="44.42" y1="164.25" x2="100.1" y2="164.25" xlink:href="#Degradado_sin_nombre_4"/><linearGradient id="Degradado_sin_nombre_4-3" x1="14.37" y1="142.14" x2="85.94" y2="142.14" xlink:href="#Degradado_sin_nombre_4"/><linearGradient id="Degradado_sin_nombre_4-4" x1="57.4" y1="170.58" x2="99.79" y2="170.58" xlink:href="#Degradado_sin_nombre_4"/><linearGradient id="Degradado_sin_nombre_4-5" x1="38.96" y1="161.11" x2="99.28" y2="161.11" xlink:href="#Degradado_sin_nombre_4"/><linearGradient id="Degradado_sin_nombre_4-6" x1="78.26" y1="176.97" x2="91.71" y2="176.97" xlink:href="#Degradado_sin_nombre_4"/><linearGradient id="Degradado_sin_nombre_4-7" x1="33.98" y1="157.96" x2="97.96" y2="157.96" xlink:href="#Degradado_sin_nombre_4"/><linearGradient id="Degradado_sin_nombre_4-8" x1="17.68" y1="145.31" x2="88.97" y2="145.31" xlink:href="#Degradado_sin_nombre_4"/><linearGradient id="Degradado_sin_nombre_4-9" x1="21.28" y1="148.48" x2="91.7" y2="148.48" xlink:href="#Degradado_sin_nombre_4"/><linearGradient id="Degradado_sin_nombre_4-10" x1="25.18" y1="151.64" x2="94.13" y2="151.64" xlink:href="#Degradado_sin_nombre_4"/><linearGradient id="Degradado_sin_nombre_4-11" x1="29.4" y1="154.8" x2="96.23" y2="154.8" xlink:href="#Degradado_sin_nombre_4"/><linearGradient id="Degradado_sin_nombre_4-12" x1="65.73" y1="173.78" x2="97.84" y2="173.78" xlink:href="#Degradado_sin_nombre_4"/><linearGradient id="Degradado_sin_nombre_4-13" x1="4.09" y1="129.49" x2="70.91" y2="129.49" xlink:href="#Degradado_sin_nombre_4"/><linearGradient id="Degradado_sin_nombre_4-14" x1="6.19" y1="132.65" x2="75.13" y2="132.65" xlink:href="#Degradado_sin_nombre_4"/><linearGradient id="Degradado_sin_nombre_4-15" x1="8.61" y1="135.81" x2="79.03" y2="135.81" xlink:href="#Degradado_sin_nombre_4"/><linearGradient id="Degradado_sin_nombre_4-16" x1="11.35" y1="138.98" x2="82.63" y2="138.98" xlink:href="#Degradado_sin_nombre_4"/><linearGradient id="Degradado_sin_nombre_4-17" x1="0.52" y1="113.71" x2="42.92" y2="113.71" xlink:href="#Degradado_sin_nombre_4"/><linearGradient id="Degradado_sin_nombre_4-18" x1="8.6" y1="107.32" x2="22.05" y2="107.32" xlink:href="#Degradado_sin_nombre_4"/><linearGradient id="Degradado_sin_nombre_4-19" x1="2.35" y1="126.33" x2="66.33" y2="126.33" xlink:href="#Degradado_sin_nombre_4"/><linearGradient id="Degradado_sin_nombre_4-20" x1="0" y1="116.9" x2="49.82" y2="116.9" xlink:href="#Degradado_sin_nombre_4"/><linearGradient id="Degradado_sin_nombre_4-21" x1="2.47" y1="110.51" x2="34.58" y2="110.51" xlink:href="#Degradado_sin_nombre_4"/><linearGradient id="Degradado_sin_nombre_4-22" x1="1.03" y1="123.18" x2="61.35" y2="123.18" xlink:href="#Degradado_sin_nombre_4"/><linearGradient id="Degradado_sin_nombre_4-23" x1="0.21" y1="120.04" x2="55.89" y2="120.04" xlink:href="#Degradado_sin_nombre_4"/><linearGradient id="Degradado_sin_nombre_16" x1="68.8" y1="131.31" x2="89.26" y2="131.31" gradientUnits="userSpaceOnUse"><stop offset="0" stop-color="#010101"/><stop offset="0.49" stop-color="#c42126"/><stop offset="1" stop-color="#010101"/></linearGradient><linearGradient id="Degradado_sin_nombre_16-2" x1="114.94" y1="81.25" x2="139.29" y2="81.25" xlink:href="#Degradado_sin_nombre_16"/></defs><title>contact33</title><g class="cls-1"><g id="Layer_2" data-name="Layer 2"><g id="Layer_1-2" data-name="Layer 1"><g class="cls-2"><path class="cls-3" d="M100.29,143.78c0-.44,0-.87,0-1.3L50.49,192.3c.43,0,.87,0,1.3,0Z"/><path class="cls-4" d="M100.1,137.57c0-.39-.07-.77-.11-1.16L44.42,192c.39.05.77.09,1.16.12Z"/><path class="cls-5" d="M14.37,177.29l.32.32.32.32L85.94,107c-.11-.11-.21-.22-.32-.32s-.21-.21-.32-.32Z"/><path class="cls-6" d="M99.54,150.91c.09-.51.18-1,.25-1.53L57.4,191.78c.51-.07,1-.16,1.52-.25Z"/><path class="cls-7" d="M99.28,132c-.07-.35-.15-.7-.23-1.05L39,191l1,.23Z"/><path class="cls-8" d="M91.71,170.25,78.26,183.7a50.81,50.81,0,0,0,13.45-13.45Z"/><path class="cls-9" d="M98,126.93c-.1-.32-.21-.64-.32-1L34,189.63l1,.32Z"/><path class="cls-10" d="M17.68,180.37l.7.58L89,110.36l-.59-.69Z"/><path class="cls-11" d="M91.7,114l-.52-.75-69.9,69.89.75.53Z"/><path class="cls-12" d="M94.13,118l-.47-.82L25.18,185.65l.82.46Z"/><path class="cls-13" d="M96.23,122.28c-.13-.3-.26-.59-.4-.89L29.4,187.82c.3.13.59.27.89.39Z"/><path class="cls-14" d="M97.16,159.69c.24-.65.47-1.31.68-2L65.73,189.83c.66-.21,1.32-.44,2-.68Z"/><path class="cls-15" d="M70.91,96.47l-.89-.4L4.09,162c.12.3.26.59.39.89Z"/><path class="cls-16" d="M75.13,98.64l-.82-.47L6.19,166.3c.15.28.3.55.46.82Z"/><path class="cls-17" d="M79,101.12l-.75-.52L8.61,170.27l.53.75Z"/><path class="cls-18" d="M82.63,103.92l-.69-.59L11.35,173.92c.19.24.38.47.58.7Z"/><path class="cls-19" d="M42.92,92.51c-.51.07-1,.16-1.53.25L.77,133.38c-.09.51-.18,1-.25,1.52Z"/><path class="cls-20" d="M22.05,100.59A50.81,50.81,0,0,0,8.6,114Z"/><path class="cls-21" d="M66.33,94.66l-1-.32-63,63c.1.32.21.64.32,1Z"/><path class="cls-22" d="M49.82,92l-1.3,0L0,140.51c0,.43,0,.87,0,1.3Z"/><path class="cls-23" d="M3.15,124.6c-.24.65-.47,1.31-.68,2L34.58,94.46c-.66.21-1.32.44-2,.68Z"/><path class="cls-24" d="M61.35,93.25,60.3,93,1,152.29c.07.35.15.7.23,1.05Z"/><path class="cls-25" d="M55.89,92.31l-1.16-.11L.21,146.72c0,.39.07.77.12,1.16Z"/></g><circle class="cls-26" cx="44.88" cy="91.41" r="11.5"/><path class="cls-27" d="M99.86,114.18c-2-.55-5.27-5.73-7.94-6s-5.88,2.9-8.6.92-3-10.46-6.08-12.16-5.43.21-6.62-1.79S71,86.39,68.19,84s-5.07-1.61-5.62-3.71,1.11-5.42-1.14-8.56-3.1-7.17.26-5.29,6.36,4.24,9.74,3.49,2.76,5,5.16,6.39,6-.94,7.92.28,2.1,7.76,3.73,8.37,8.13-3.91,11.17-2.64-.68,9.51,2.58,10.74,7.22,2.8,7.22,2.8Z"/><path class="cls-28" d="M66.63,74.17s3.67,12.11,36.52,33.14l2.09-3.39S78.7,92.38,66.63,74.17Z"/><path class="cls-29" d="M64.21,136.51c-7.33,4.89-11.49,29.08,2.69,29.57,9.77.34,13.62-8.47,9.95-11.21-9.22-6.88-20,17.32-9.22,22.21,5.08,2.31,10.22-1.37,15.77-5.85,8.49-6.85,17.92-15.57,29.45-7.59"/><path class="cls-30" d="M241.94,211.83c0,1.92-6.4,3.48-14.28,3.48s-14.28-1.56-14.28-3.48,6.39-3.47,14.28-3.47S241.94,209.91,241.94,211.83Z"/><path class="cls-30" d="M160.55,225.53c0,1.92-6.4,3.47-14.28,3.47S132,227.45,132,225.53s6.39-3.48,14.28-3.48S160.55,223.61,160.55,225.53Z"/><path class="cls-30" d="M270.25,204.31H107.88a57.57,57.57,0,0,1-16.74-2.49L65.9,194.11H314.72l-29.1,8.1A57,57,0,0,1,270.25,204.31Z"/><path class="cls-31" d="M302.53,57.29a57.07,57.07,0,0,0-14.53,1,12.82,12.82,0,0,0-8.78,6c-3.41,5.63-8.68,14.56-9.79,17.68,0,0-9.37-1.46-14.66-4.67l-2.33,4.67s5.39,3.74,21.24,8.93a77.63,77.63,0,0,0,7.23-14s-.53,3.84,1.27,10.63c1.43,5.37-1.92,26.32-1.92,26.32l34.5-1.24-2.83-20.83,4.18-5.38A6.94,6.94,0,0,0,317.47,81a57.4,57.4,0,0,0-5.85-17.76A11.5,11.5,0,0,0,302.53,57.29Z"/><path class="cls-32" d="M308.63,82.78,307.36,74s-1.7,11.58-2.44,13Z"/><path class="cls-33" d="M295.66,94.1c-1.75.61-6.28,2.05-5.86,3,.24.53,3.43-.73,3.78-.3s-.87,2-2.91,3.1c-1.58.83-2.68.66-2.75,1.41-.08,1,4.6.86,5.8.72a6.81,6.81,0,0,0,3.16-1.34A21,21,0,0,0,299,98.45a18.86,18.86,0,0,1,2.92-2.23l-2.33-3.78S296.67,93.74,295.66,94.1Z"/><path class="cls-34" d="M290.88,51.38l.74,8.4s4.54,3.88,8.5-.5l-2.2-10.16Z"/><path class="cls-35" d="M303.22,28.91a13,13,0,0,1,3.84,9.61c0,6.49-7.66,15.65-14.69,15.65-6.19,0-11.2-6.37-11.2-14.21,0-6,3-11.1,7.11-13.23A13.38,13.38,0,0,1,303.22,28.91Z"/><path class="cls-36" d="M288.49,42.66a19,19,0,0,0-.48,2,1.27,1.27,0,0,0,.1.83,1.52,1.52,0,0,0,.76.52,1.16,1.16,0,0,1-1.06-.28,1.37,1.37,0,0,1-.3-1.13,3,3,0,0,1,.35-1A2.94,2.94,0,0,1,288.49,42.66Z"/><path class="cls-37" d="M285.26,44.06c0,.63-.7,1.14-1.57,1.14s-1.57-.51-1.57-1.14.71-1.13,1.57-1.13S285.26,43.44,285.26,44.06Z"/><path class="cls-37" d="M297.18,44.12c0,.69-.85,1.25-1.91,1.25s-1.9-.56-1.9-1.25.85-1.26,1.9-1.26S297.18,43.42,297.18,44.12Z"/><ellipse class="cls-30" cx="293.12" cy="197.73" rx="28.1" ry="4.89"/><path class="cls-38" d="M313.35,188.52s1.63.33,1.39,2.77-.15,5.74-.15,5.74l-.68.27a16.09,16.09,0,0,0-.59-3c-.21,0-1.57,3-3.19,3.64s-5.69,2-6.85.81,1.57-2.48,3-3.34S313.35,188.52,313.35,188.52Z"/><path class="cls-35" d="M307.56,180.66s1.7,6.71.87,9.59-3,5.35-3.27,5.92,3,.2,4.2-.8,4.24-6.23,4.05-6.93a47.17,47.17,0,0,1-.5-8.86Z"/><path class="cls-38" d="M286.46,189.23s1.56.55,1,2.94-.92,5.67-.92,5.67l-.71.17a15.62,15.62,0,0,0-.19-3c-.2-.06-1.88,2.77-3.57,3.23s-6,1.17-7-.17,1.89-2.24,3.44-2.9S286.46,189.23,286.46,189.23Z"/><path class="cls-35" d="M281.76,180.67s.79,6.88-.42,9.63-3.72,4.89-4,5.43,3,.6,4.27-.24,5-5.61,4.94-6.33a46.36,46.36,0,0,1,.69-8.84Z"/><path class="cls-39" d="M280.26,113.78s-2.91,29.23-3.32,39c-.36,8.61,3.66,35.29,3.66,35.29l7-.6s.82-25.58,2.8-34.1c1.5-6.5,6-26,6-26s2.32,18.5,3.09,24.66c1.1,8.76,6.94,35.88,6.94,35.88l8.21-.36s-2.18-27.37-2.06-36.49c.13-9.63,2.21-38.52,2.21-38.52Z"/><path class="cls-40" d="M280.26,113.78s-2.91,29.23-3.32,39c-.36,8.61,3.66,35.29,3.66,35.29l7-.6s.82-25.58,2.8-34.1c1.5-6.5,6-26,6-26s-4-4.86-5.25-14Z"/><path class="cls-41" d="M308,39.25s-1.54,4.75-9,.44a56.21,56.21,0,0,1-12.25-9.51s-2.44,6.29-6.29,8.81a35.11,35.11,0,0,1,.94-6.66c.8-2.54,3.08-7.8,11-8.12C310.38,23.49,308,39.25,308,39.25Z"/><path class="cls-41" d="M306.83,35.82a5.78,5.78,0,0,0,2.55-7c-1.61-4.69-7.83-7.23-11.05-3"/><path class="cls-41" d="M291.52,39.69c0,.56.3,1,.66,1s.65-.46.65-1-.29-1-.65-1S291.52,39.13,291.52,39.69Z"/><path class="cls-41" d="M284.74,40.07c0,.56.3,1,.68,1s.68-.46.68-1-.3-1-.68-1S284.74,39.51,284.74,40.07Z"/><path class="cls-42" d="M292.2,47.43s-3.21,1.52-5.77.23C286.38,49,289.68,51.66,292.2,47.43Z"/><path class="cls-43" d="M301.84,43.22c-.85,2.62.1,5.24,2.13,5.83s4.37-1.06,5.23-3.69-.1-5.24-2.13-5.83S302.69,40.59,301.84,43.22Z"/><path class="cls-44" d="M304.38,47.3A11.26,11.26,0,0,1,293,51.38"/><path class="cls-43" d="M293.15,50.63a.75.75,0,0,0-.88.6.77.77,0,0,0,.61.88.75.75,0,0,0,.87-.61A.74.74,0,0,0,293.15,50.63Z"/><path class="cls-44" d="M307.3,42.54s2.16-19.78-13.51-19.9c-3.58,0-10,1.31-11.86,7.58"/><path class="cls-27" d="M201.11,32.57c.87-1.94,6.48-4.32,7.13-6.91s-1.94-6.26.43-8.64,10.8-1.29,13-4.1.65-5.4,2.81-6.26,8.64,1.72,11.45-.65,2.37-4.75,4.53-5,5.19,1.94,8.64.22,7.56-1.95,5.19,1.08-5.19,5.61-5,9.07-5.4,1.94-7.13,4.1,0,6-1.51,7.78-8,.86-8.86,2.37,2.6,8.64.87,11.45-9.29-2.16-11,.86-3.88,6.7-3.88,6.7Z"/><path class="cls-28" d="M245.82,6S233.3,7.74,207.38,36.89l3,2.6S226,15.08,245.82,6Z"/><path class="cls-45" d="M266.94,99.46l-79.22,79.22a.45.45,0,0,1-.63,0L107.87,99.46a18.88,18.88,0,0,0-13.35-5.53h0v99.73a10.75,10.75,0,0,0,10.75,10.75H272a10.75,10.75,0,0,0,10.75-10.75V93.93h-2.44A18.89,18.89,0,0,0,266.94,99.46Z"/><path class="cls-46" d="M215.42,151l-27.7,27.7a.45.45,0,0,1-.63,0L159.82,151.4,94.51,189.87v3.79a10.75,10.75,0,0,0,10.75,10.75H272a10.75,10.75,0,0,0,10.75-10.75v-3.39Z"/><path class="cls-47" d="M282.73,193.66v-3.2L201.26,145.4a26.08,26.08,0,0,0-25.26,0L94.52,190.46v3.2a10.75,10.75,0,0,0,10.75,10.75H272A10.75,10.75,0,0,0,282.73,193.66Z"/><path class="cls-48" d="M241.36,191.67c0,2,.31-1.27,6.48-1.27,4.68,0,.42,12.21-7,12.64a2.16,2.16,0,0,0-1.27,2.55c.32,2,13.49-2.66,13.49-13.6C253,184.66,241.36,186.15,241.36,191.67Z"/><path class="cls-48" d="M209.85,184.42s.86,28.43,18.76,28.43c16.19,0,18-28.43,18-28.43Z"/><path class="cls-49" d="M215.35,187.6a19.13,19.13,0,0,1-4-.82c.71,6.89,3.87,26.15,17.22,26.07a13.4,13.4,0,0,0,2.5-.26C219.22,210.45,216.13,194.5,215.35,187.6Z"/><path class="cls-49" d="M246.64,184.42c0,1.62-8.24,2.93-18.4,2.93s-18.39-1.31-18.39-2.93,8.23-2.93,18.39-2.93S246.64,182.8,246.64,184.42Z"/><ellipse class="cls-48" cx="228.24" cy="184.42" rx="16.42" ry="2.3"/><path class="cls-50" d="M215.52,185.87a95.68,95.68,0,0,0,25.45,0,95.68,95.68,0,0,0-25.45,0Z"/><path class="cls-51" d="M115.65,62C98.8,63.34,82.42,80.12,79.24,83.54S60,104,59.5,120.94c-.3,9.86,6.5,19.47,10.64,22.68l19-23.92s-3.08-3.06-9.8-4.94c0,0,1.67-8.59,12-19.4,9.72-10.2,19.07-13.17,19.07-13.17,2.2,6.62,5.41,9.54,5.41,9.54l23-20.17C135.41,67.57,125.49,61.24,115.65,62Z"/><path class="cls-52" d="M89,119.51,85.55,117c-2.23-1.75-8.26,2.23-13.46,8.89s-7.59,13.47-5.35,15.22l3.4,2.55Z"/><path class="cls-52" d="M83.6,134.73c-5.19,6.66-11.22,10.64-13.46,8.89s.16-8.56,5.35-15.22S86.71,117.76,89,119.51,88.8,128.07,83.6,134.73Z"/><g class="cls-53"><path class="cls-54" d="M70.14,143.62a2.5,2.5,0,0,1-1-1.89,7.59,7.59,0,0,1,.1-2.18,19.73,19.73,0,0,1,1.33-4.11A37.4,37.4,0,0,1,81.14,122a20.06,20.06,0,0,1,3.66-2.29,7.63,7.63,0,0,1,2.09-.62,2.47,2.47,0,0,1,2.06.46,2.48,2.48,0,0,0-2-.2,7.17,7.17,0,0,0-1.92.8,20.31,20.31,0,0,0-3.4,2.44,48.48,48.48,0,0,0-10.31,13.22,19.69,19.69,0,0,0-1.54,3.89,6.84,6.84,0,0,0-.31,2.05A2.5,2.5,0,0,0,70.14,143.62Z"/></g><path class="cls-52" d="M138.91,71.58l-2.86-3.14c-1.88-2.13-8.54.66-14.88,6.23s-10,11.82-8.1,14l2.87,3.14Z"/><path class="cls-52" d="M130.82,85.54c-6.34,5.57-13,8.36-14.88,6.22s1.75-8.38,8.09-14,13-8.36,14.88-6.23S137.16,80,130.82,85.54Z"/><g class="cls-53"><path class="cls-55" d="M115.94,91.76a2.47,2.47,0,0,1-.58-2,7.37,7.37,0,0,1,.5-2.12,19.88,19.88,0,0,1,2.07-3.79,36.1,36.1,0,0,1,5.77-6.39,36.71,36.71,0,0,1,7.07-4.9,20.63,20.63,0,0,1,4-1.57,7.82,7.82,0,0,1,2.16-.22,2.51,2.51,0,0,1,1.94.84A2.54,2.54,0,0,0,137,71a6.82,6.82,0,0,0-2,.43,19.29,19.29,0,0,0-3.8,1.77,47.76,47.76,0,0,0-12.59,11.06,19.14,19.14,0,0,0-2.24,3.53,6.94,6.94,0,0,0-.69,2A2.52,2.52,0,0,0,115.94,91.76Z"/></g><path class="cls-56" d="M61.93,112.39S73.26,80.94,105,66.07C105,66.07,79.64,77.68,61.93,112.39Z"/><path class="cls-52" d="M110.23,81.2s-9,1.06-22.24,13.06c-9.34,8.5-13.74,20.39-13.74,20.39a10.81,10.81,0,0,1,3.7-.12A60.45,60.45,0,0,1,110.23,81.2Z"/><path class="cls-57" d="M95.87,39.2A13.33,13.33,0,0,0,96.33,41a2.78,2.78,0,0,0,.54,1,.89.89,0,0,0,.63.31,1.44,1.44,0,0,0,.73-.2,2,2,0,0,0,1-1.24,5.83,5.83,0,0,0,.21-2.12A12.19,12.19,0,0,0,98.88,36a16.85,16.85,0,0,0-1.25-3,10.86,10.86,0,0,0-2.14-2.89,7,7,0,0,0-2.6-1.58,6.68,6.68,0,0,0-3-.24,9.65,9.65,0,0,0-3.24,1.1,10.23,10.23,0,0,0-3.63,3.16A11.27,11.27,0,0,0,81.2,37a14.18,14.18,0,0,0,0,5.12A17.19,17.19,0,0,0,83,47.46a13.8,13.8,0,0,0,2.72,3.68,9,9,0,0,0,3.25,2,8.15,8.15,0,0,0,3.62.35,10.86,10.86,0,0,0,3.82-1.26,19.59,19.59,0,0,0,2.23-1.35,20.31,20.31,0,0,0,1.67-1.33,9.94,9.94,0,0,0,1.17-1.21,6.46,6.46,0,0,0,.69-1,2.91,2.91,0,0,1,.68-.71,1.42,1.42,0,0,1,.62-.24,1,1,0,0,1,.56.11,2.25,2.25,0,0,1,.47.34l1.12,1.19a17.92,17.92,0,0,1-1.31,2,18.48,18.48,0,0,1-3.9,3.86,20,20,0,0,1-2.68,1.67,14.84,14.84,0,0,1-5.37,1.73,12,12,0,0,1-5-.52,12.4,12.4,0,0,1-4.43-2.62,16.39,16.39,0,0,1-3.52-4.61,18.6,18.6,0,0,1-1.67-4.41,19.11,19.11,0,0,1-.55-4.54,18.37,18.37,0,0,1,.55-4.44,16.72,16.72,0,0,1,1.59-4.07,15.44,15.44,0,0,1,2.58-3.46,14.4,14.4,0,0,1,3.54-2.62,11.89,11.89,0,0,1,4.39-1.38,11,11,0,0,1,4.39.4,11.09,11.09,0,0,1,4,2.15,12.65,12.65,0,0,1,3.09,3.9,14.72,14.72,0,0,1,1.53,4.37,12.37,12.37,0,0,1,0,4.2,9.26,9.26,0,0,1-1.37,3.57,7.21,7.21,0,0,1-2.71,2.49,4.59,4.59,0,0,1-1,.39,3.11,3.11,0,0,1-1,.08,2.91,2.91,0,0,1-1-.3,3.18,3.18,0,0,1-1-.72A7.86,7.86,0,0,1,93.36,48a6.61,6.61,0,0,1-2,1.68,4.14,4.14,0,0,1-1.76.52,3.64,3.64,0,0,1-1.61-.3,4.43,4.43,0,0,1-1.38-1,7.23,7.23,0,0,1-1.12-1.57A10.23,10.23,0,0,1,84.58,45a11,11,0,0,1-.31-2.57,11.18,11.18,0,0,1,.31-2.67,9.69,9.69,0,0,1,1-2.61,10.6,10.6,0,0,1,1.86-2.38,11.87,11.87,0,0,1,2.76-2q.72-.37,1.32-.63a9.85,9.85,0,0,1,1.14-.41,8.93,8.93,0,0,1,1-.23c.33-.05.68-.09,1.06-.11Zm-4.49-3a5,5,0,0,0-.75.33,3.61,3.61,0,0,0-1.38,1.34,6.13,6.13,0,0,0-.78,2,7.85,7.85,0,0,0-.06,2.38,7.13,7.13,0,0,0,.75,2.37c.56,1,1.2,1.39,1.91,1a2.27,2.27,0,0,0,.6-.48,2.13,2.13,0,0,0,.43-.76,3.75,3.75,0,0,0,.19-1.1,7.89,7.89,0,0,0-.13-1.51Z"/><circle class="cls-45" cx="146.88" cy="16.91" r="3.54"/><circle class="cls-45" cx="70.88" cy="188.91" r="1.77"/><path class="cls-58" d="M336.75,18.15a4.89,4.89,0,1,1-4.89-4.89A4.89,4.89,0,0,1,336.75,18.15Z"/><circle class="cls-59" cx="147.56" cy="203.31" r="23.1"/><path class="cls-60" d="M151.14,193.78a5.23,5.23,0,1,0-5.23-5.23A5.23,5.23,0,0,0,151.14,193.78Zm-2,24.5c-1.83-1.67,6.75-16,5.62-20.65-.82-3.4-14.49-1.17-14.63-.17,0,0,3.94-.5,4.64,1.33s-4.64,12.83-5.62,17,3.66,5.5,6.75,5.5c3.66,0,9.57-2.5,9.43-3.67S151,219.94,149.17,218.28Z"/><path class="cls-45" d="M278.78,20.18v-.5A6.74,6.74,0,0,0,272,12.94h-7.4a6.75,6.75,0,0,0-6.75,6.74v.5a6.75,6.75,0,0,0,6.75,6.75H272l.26,0a7.37,7.37,0,0,0,6,3.42,5.93,5.93,0,0,1-3-4.27A6.75,6.75,0,0,0,278.78,20.18Z"/><path class="cls-48" d="M265.44,20a1.14,1.14,0,1,1-1.14-1.13A1.14,1.14,0,0,1,265.44,20Z"/><path class="cls-48" d="M269.55,20a1.13,1.13,0,1,1-2.26,0,1.13,1.13,0,0,1,2.26,0Z"/><path class="cls-48" d="M273.67,20a1.14,1.14,0,1,1-1.14-1.13A1.14,1.14,0,0,1,273.67,20Z"/></g></g></g></svg>