<?xml version="1.0" encoding="iso-8859-1"?>
<!-- Generator: Adobe Illustrator 19.0.0, SVG Export Plug-In . SVG Version: 6.00 Build 0)  -->
<svg version="1.1" id="Capa_1" xmlns="http://www.w3.org/2000/svg" xmlns:xlink="http://www.w3.org/1999/xlink" x="0px" y="0px"
	 viewBox="0 0 512 512" style="enable-background:new 0 0 512 512;" xml:space="preserve">
<g>
	<path style="fill:#0071BC;" d="M123.586,153.415L0,247.172V512h512V247.172l-123.586-93.758H123.586z"/>
	<path style="fill:#0071BC;" d="M397.241,61.793v-35.31C397.241,11.855,409.097,0,423.724,0c14.627,0,26.483,11.855,26.483,26.483
		v35.31H397.241z"/>
</g>
<path style="fill:#E6E6E6;" d="M397.241,406.069V26.483C397.241,11.855,409.097,0,423.724,0H141.241
	c-14.627,0-26.483,11.855-26.483,26.483v379.586H397.241z"/>
<path style="fill:#80CAEC;" d="M0,247.172l176.552,132.414h158.897L512,247.172V512H0V247.172z"/>
<path style="fill:#29ABE2;" d="M0,512l239.996-182.06c9.463-7.177,22.546-7.177,32.009,0L512,512H0z"/>
<path style="fill:#DA4836;" d="M167.724,52.966h176.552v141.241H167.724V52.966z"/>
<path style="fill:#F2F2F2;" d="M220.69,88.276v70.621l88.276-35.31L220.69,88.276z"/>
<g>
	<path style="fill:#80CAEC;" d="M203.034,414.897h105.931v17.655H203.034V414.897z"/>
	<path style="fill:#80CAEC;" d="M176.552,450.207h158.897v17.655H176.552V450.207z"/>
</g>
<g>
	<path style="fill:#999999;" d="M158.897,264.828h167.724v17.655H158.897V264.828z"/>
	<path style="fill:#999999;" d="M220.69,229.517h132.414v17.655H220.69V229.517z"/>
	<path style="fill:#999999;" d="M185.379,229.517h17.655v17.655h-17.655V229.517z"/>
</g>
<g>
</g>
<g>
</g>
<g>
</g>
<g>
</g>
<g>
</g>
<g>
</g>
<g>
</g>
<g>
</g>
<g>
</g>
<g>
</g>
<g>
</g>
<g>
</g>
<g>
</g>
<g>
</g>
<g>
</g>
</svg>
