<svg width="17" height="16" viewBox="0 0 17 16" fill="none" xmlns="http://www.w3.org/2000/svg">
<path d="M14.5486 2.90574C14.488 2.8998 14.4269 2.8998 14.3663 2.90574H1.9219C1.84214 2.90691 1.76291 2.9183 1.68634 2.9396L8.10856 9.03061L14.5486 2.90574Z" fill="#838383"/>
<path d="M15.2064 3.4941L8.73526 9.63166C8.56871 9.78934 8.34342 9.87784 8.10859 9.87784C7.87376 9.87784 7.64847 9.78934 7.48192 9.63166L1.06859 3.54066C1.04887 3.60967 1.03842 3.68079 1.03748 3.7523V12.2179C1.03748 12.4424 1.13113 12.6578 1.29783 12.8165C1.46452 12.9753 1.69062 13.0645 1.92636 13.0645H14.3708C14.6066 13.0645 14.8327 12.9753 14.9994 12.8165C15.1661 12.6578 15.2597 12.4424 15.2597 12.2179V3.7523C15.2562 3.66411 15.2382 3.57699 15.2064 3.4941ZM2.53525 12.2179H1.91748V11.6126L5.14859 8.56077L5.77526 9.15759L2.53525 12.2179ZM14.3619 12.2179H13.7397L10.4997 9.15759L11.1264 8.56077L14.3575 11.6126L14.3619 12.2179Z" fill="#838383"/>
</svg>
