<svg width="28" height="19" viewBox="0 0 28 19" fill="none" xmlns="http://www.w3.org/2000/svg">
<path d="M27.1761 10.7455L27.1761 10.7456C27.4098 11.3271 27.4053 11.9087 27.1914 12.404C26.9776 12.8993 26.5576 13.3004 25.9748 13.527C25.8789 13.5643 25.8378 13.6048 25.8165 13.6447C25.7932 13.6885 25.7844 13.7482 25.7866 13.8438L25.7866 13.8441C25.8052 14.7814 25.6377 15.6874 25.1188 16.5019C24.2005 17.9483 22.8759 18.7292 21.1358 18.7403C19.6573 18.7496 18.2204 18.2552 17.066 17.3401C15.9117 16.425 15.11 15.1446 14.7956 13.7136M27.1761 10.7455L14.8933 13.6919M27.1761 10.7455C26.1108 8.10205 25.0439 5.45883 23.9753 2.81584M27.1761 10.7455L23.8823 2.85275M14.7956 13.7136C14.7956 13.7135 14.7956 13.7134 14.7956 13.7134L14.8933 13.6919M14.7956 13.7136C14.7957 13.7136 14.7957 13.7137 14.7957 13.7138L14.8933 13.6919M14.7956 13.7136C14.7751 13.6219 14.7447 13.563 14.7053 13.5217C14.6659 13.4806 14.6095 13.4486 14.5216 13.4252M14.8933 13.6919C14.847 13.4854 14.7464 13.3814 14.5467 13.3284M14.5216 13.4252C14.5219 13.4252 14.5221 13.4253 14.5223 13.4254L14.5467 13.3284M14.5216 13.4252C14.1638 13.3356 13.7891 13.3356 13.4313 13.4254L13.4307 13.4255C13.342 13.4472 13.2864 13.4782 13.2476 13.5184C13.2083 13.559 13.1776 13.6178 13.1544 13.7104C12.5407 16.168 10.9968 17.7839 8.55429 18.5079C7.36315 18.8617 6.13626 18.8996 4.9649 18.3574L14.5467 13.3284M14.5216 13.4252C14.5214 13.4251 14.5212 13.4251 14.521 13.425L14.5467 13.3284M1.83378 13.4803L1.80577 13.5763C1.5637 13.5057 1.33885 13.3865 1.14522 13.226C0.951595 13.0655 0.793329 12.8673 0.680334 12.6435C0.567338 12.4198 0.502046 12.1753 0.488561 11.9254C0.475078 11.6756 0.513672 11.4257 0.601918 11.1913C0.84777 10.5323 1.1147 9.88003 1.38095 9.22943C1.49307 8.95545 1.60507 8.68177 1.71532 8.40801L1.71533 8.40797C1.96679 7.78432 2.21872 7.16101 2.47062 6.53777C2.96038 5.32604 3.45003 4.11456 3.93589 2.90137L3.9359 2.90134C4.32004 1.94302 5.00087 1.30921 6.04303 1.12277L6.04307 1.12276C6.44754 1.05059 6.86284 1.06814 7.26377 1.08509C7.37669 1.08986 7.48848 1.09458 7.59856 1.09724L7.59878 1.09725C7.73251 1.10078 7.84596 1.14926 7.92564 1.23925C8.00354 1.32723 8.04046 1.44494 8.04341 1.57309C8.04762 1.63897 8.03797 1.70499 8.01507 1.76696C7.99189 1.82972 7.95566 1.88687 7.9088 1.93474C7.86194 1.98261 7.8055 2.02012 7.74318 2.04491C7.68216 2.06918 7.61679 2.08073 7.55115 2.07888C7.32933 2.08833 7.10561 2.08714 6.88486 2.08596C6.78579 2.08544 6.68732 2.08491 6.58988 2.08535C6.18652 2.08745 5.8431 2.18597 5.56444 2.37223C5.28591 2.55841 5.06598 2.83632 4.91598 3.20724L4.91598 3.20726C3.80959 5.94148 2.70492 8.67739 1.60196 11.415C1.49259 11.6866 1.48998 11.9377 1.56819 12.1392C1.64601 12.3398 1.80734 12.5006 2.04528 12.5881L2.04537 12.5882C2.13822 12.6224 2.17927 12.6224 2.19984 12.6143C2.21431 12.6086 2.24535 12.5874 2.27696 12.4833C2.50632 11.7018 2.92369 11.085 3.49412 10.6638C4.06452 10.2427 4.78189 10.0216 5.60383 10.0213H5.60388H22.3666C23.1714 10.0213 23.8777 10.2385 24.442 10.6503C25.0062 11.0621 25.4229 11.6643 25.655 12.4247C25.672 12.478 25.6873 12.5093 25.6996 12.5268C25.7056 12.5352 25.7095 12.5387 25.7114 12.54C25.7136 12.54 25.7215 12.5397 25.7382 12.5333C25.761 12.5247 25.7906 12.5086 25.8308 12.4833L25.8311 12.4831C26.2808 12.2019 26.45 11.6825 26.2316 11.1224L26.2315 11.1224C26.0128 10.5609 25.7862 10.003 25.5592 9.44418C25.4856 9.26276 25.4118 9.08124 25.3383 8.89947C24.5771 7.01688 23.8153 5.13211 23.0531 3.24516C22.893 2.85062 22.6716 2.56369 22.3888 2.37438C22.1058 2.18501 21.7533 2.08788 21.3216 2.08681C21.2251 2.08681 21.1279 2.08745 21.0304 2.08809C20.8338 2.08939 20.6356 2.09069 20.4385 2.08679C20.2738 2.08353 20.1353 2.03535 20.0383 1.94012C19.9407 1.84428 19.8973 1.71285 19.8999 1.56841L19.8999 1.56739C19.9038 1.4274 19.9529 1.30631 20.0525 1.2207C20.15 1.13696 20.2837 1.09763 20.4378 1.09361L1.83378 13.4803ZM1.83378 13.4803C1.60478 13.4135 1.39211 13.3007 1.20903 13.149C1.02595 12.9973 0.876368 12.8099 0.769598 12.5985C0.662828 12.387 0.601153 12.1561 0.588415 11.9201C0.575677 11.684 0.612148 11.4479 0.695557 11.2264L2.2641 14.062L2.16416 14.0652C2.16415 14.0652 2.16415 14.0651 2.16415 14.0651C2.16385 14.0556 2.16355 14.0463 2.16326 14.0373C2.16003 13.9357 2.15774 13.8639 2.15115 13.8082C2.14406 13.7483 2.1333 13.7218 2.12186 13.706C2.11102 13.691 2.0912 13.674 2.03963 13.6524C1.98673 13.6302 1.91374 13.6083 1.80541 13.5762L1.83378 13.4803ZM19.8869 11.0574V11.0632H19.7869C19.4677 11.0632 19.1489 11.0622 18.8306 11.0611C18.1953 11.059 17.5616 11.0569 16.93 11.0632M19.8869 11.0574L16.9299 11.0632C16.9299 11.0632 16.93 11.0632 16.93 11.0632M19.8869 11.0574C20.1683 11.0573 20.4495 11.0567 20.7305 11.0561C21.3137 11.055 21.8964 11.0538 22.4798 11.0567C23.7869 11.0657 24.7203 11.976 24.7428 13.2632L24.7428 13.2633C24.7439 13.325 24.7452 13.3866 24.7465 13.448C24.7608 14.1308 24.7746 14.7893 24.5215 15.4268C23.9027 16.9813 22.3509 17.8964 20.6671 17.7142C18.6539 17.496 17.1856 16.504 16.2393 14.7469C15.8439 14.0036 15.6475 13.1724 15.6688 12.3326L15.6688 12.3317C15.6747 11.9547 15.8046 11.6412 16.0218 11.4211C16.2388 11.2012 16.5496 11.068 16.93 11.0632M19.8869 11.0574L16.93 11.0632M4.64065 17.0135L4.64086 17.0136C5.59353 17.7403 6.67903 17.8596 7.84763 17.6491C10.4049 17.1807 12.3135 14.8974 12.2811 12.3372C12.2763 11.9602 12.146 11.6469 11.9284 11.4271C11.7108 11.2074 11.3996 11.0745 11.0206 11.0697L11.0201 11.0697C10.3337 11.0581 9.64725 11.06 8.95957 11.0618C8.70381 11.0625 8.44787 11.0632 8.19169 11.0632C7.87243 11.0632 7.55399 11.062 7.236 11.0608C6.60172 11.0584 5.96921 11.0559 5.3354 11.0632C4.84502 11.0753 4.37316 11.2506 3.99589 11.5606C3.61849 11.8707 3.35778 12.2975 3.25557 12.772L4.64065 17.0135ZM4.64065 17.0135C3.7033 16.3023 3.21564 15.3597 3.20492 14.1876C3.20393 14.0801 3.20106 13.974 3.19821 13.8689M4.64065 17.0135L3.19821 13.8689M15.0203 11.0588C14.764 11.4733 14.6329 11.8849 14.6295 12.3381L14.6295 12.3383C14.6294 12.3682 14.6254 12.3851 14.6221 12.3936C14.6205 12.3975 14.6193 12.3992 14.6189 12.3997L14.6186 12.4C14.6185 12.4001 14.6138 12.4032 14.599 12.4044L15.0203 11.0588ZM15.0203 11.0588H15.017H15.0124H15.0079H15.0033H14.9987H14.9942H14.9896H14.985H14.9805H14.9759H14.9714H14.9668H14.9623H14.9577H14.9532H14.9486H14.9441H14.9395H14.935H14.9304H14.9259H14.9213H14.9168H14.9122H14.9077H14.9032H14.8986H14.8941H14.8896H14.885H14.8805H14.876H14.8714H14.8669H14.8624H14.8578H14.8533H14.8488H14.8443H14.8397H14.8352H14.8307H14.8262H14.8217H14.8172H14.8126H14.8081H14.8036H14.7991H14.7946H14.7901H14.7856H14.7811H14.7765H14.772H14.7675H14.763H14.7585H14.754H14.7495H14.745H14.7405H14.736H14.7315H14.727H14.7226H14.7181H14.7136H14.7091H14.7046H14.7001H14.6956H14.6911H14.6866H14.6822H14.6777H14.6732H14.6687H14.6642H14.6597H14.6553H14.6508H14.6463H14.6418H14.6374H14.6329H14.6284H14.6239H14.6195H14.615H14.6105H14.6061H14.6016H14.5971H14.5927H14.5882H14.5838H14.5793H14.5748H14.5704H14.5659H14.5615H14.557H14.5525H14.5481H14.5436H14.5392H14.5347H14.5303H14.5258H14.5214H14.5169H14.5125H14.508H14.5036H14.4992H14.4947H14.4903H14.4858H14.4814H14.477H14.4725H14.4681H14.4636H14.4592H14.4548H14.4503H14.4459H14.4415H14.437H14.4326H14.4282H14.4238H14.4193H14.4149H14.4105H14.4061H14.4016H14.3972H14.3928H14.3884H14.3839H14.3795H14.3751H14.3707H14.3663H14.3619H14.3574H14.353H14.3486H14.3442H14.3398H14.3354H14.331H14.3266H14.3221H14.3177H14.3133H14.3089H14.3045H14.3001H14.2957H14.2913H14.2869H14.2825H14.2781H14.2737H14.2693H14.2649H14.2605H14.2561H14.2517H14.2473H14.2429H14.2385H14.2341H14.2298H14.2254H14.221H14.2166H14.2122H14.2078H14.2034H14.199H14.1946H14.1903H14.1859H14.1815H14.1771H14.1727H14.1684H14.164H14.1596H14.1552H14.1508H14.1465H14.1421H14.1377H14.1333H14.129H14.1246H14.1202H14.1158H14.1115H14.1071H14.1027H14.0984H14.094H14.0896H14.0852H14.0809H14.0765H14.0722H14.0678H14.0634H14.0591H14.0547H14.0503H14.046H14.0416H14.0373H14.0329H14.0285H14.0242H14.0198H14.0155H14.0111H14.0068H14.0024H13.998H13.9937H13.9893H13.985H13.9806H13.9763H13.9719H13.9676H13.9632H13.9589H13.9545H13.9502H13.9458H13.9415H13.9371H13.9328H13.9285H13.9241H13.9198H13.9154H13.9111H13.9067H13.9024H13.8981H13.8937H13.8894H13.885H13.8807H13.8764H13.872H13.8677H13.8634H13.859H13.8547H13.8504H13.846H13.8417H13.8374H13.833H13.8287H13.8244H13.82H13.8157H13.8114H13.8071H13.8027H13.7984H13.7941H13.7897H13.7854H13.7811H13.7768H13.7724H13.7681H13.7638H13.7595H13.7551H13.7508H13.7465H13.7422H13.7379H13.7335H13.7292H13.7249H13.7206H13.7163H13.7119H13.7076H13.7033H13.699H13.6947H13.6904H13.686H13.6817H13.6774H13.6731H13.6688H13.6645H13.6602H13.6559H13.6515H13.6472H13.6429H13.6386H13.6343H13.63H13.6257H13.6214H13.6171H13.6128H13.6084H13.6041H13.5998H13.5955H13.5912H13.5869H13.5826H13.5783H13.574H13.5697H13.5654H13.5611H13.5568H13.5525H13.5482H13.5439H13.5396H13.5353H13.531H13.5267H13.5224H13.5181H13.5138H13.5095H13.5052H13.5009H13.4966H13.4923H13.488H13.4837H13.4794H13.4751H13.4708H13.4665H13.4622H13.4579H13.4536H13.4493H13.445H13.4407H13.4365H13.4322H13.4279H13.4236H13.4193H13.415H13.4107H13.4064H13.4021H13.3978H13.3935H13.3892H13.3849H13.3807H13.3764H13.3721H13.3678H13.3635H13.3592H13.3549H13.3506H13.3463H13.3421H13.3378H13.3335H13.3292H13.3249H13.3206H13.3163H13.3121H13.3078H13.3035H13.2992H13.2949H13.2906H13.2863H13.2821H13.2778H13.2735H13.2692H13.2649H13.2606H13.2564H13.2521H13.2478H13.2435H13.2392H13.2349H13.2307H13.2264H13.2221H13.2178H13.2135H13.2092H13.205H13.2007H13.1964H13.1921H13.1878H13.1836H13.1793H13.175H13.1707H13.1664H13.1622H13.1579H13.1536H13.1493H13.145H13.1408H13.1365H13.1322H13.1279H13.1236H13.1194H13.1151H13.1108H13.1065H13.1023H13.098H13.0937H13.0894H13.0851H13.0809H13.0766H13.0723H13.068H13.0637H13.0595H13.0552H13.0509H13.0466H13.0424H13.0381H13.0338H13.0295H13.0252H13.021H13.0167H13.0124H13.0081H13.0039H12.9996H12.9953H12.991H12.9868H12.9825H12.9782H12.9739H12.9696H12.9654H12.9611H12.9568C12.9473 11.0588 12.9391 11.0592 12.932 11.0597C12.9365 11.0686 12.9426 11.0792 12.9506 11.0916L12.9506 11.0916C13.1884 11.4614 13.3159 11.8903 13.3182 12.3288L13.3182 12.3294C13.3182 12.3833 13.3286 12.3981 13.3302 12.4001C13.3323 12.4013 13.3495 12.4097 13.4073 12.3996L13.4076 12.3995C13.7798 12.3354 14.1604 12.3354 14.5326 12.3995C14.5326 12.3995 14.5327 12.3995 14.5328 12.3995L15.0203 11.0588ZM13.2182 12.3294C13.216 11.9099 13.0941 11.4996 12.8665 11.1457L13.2182 12.3294ZM13.2182 12.3294C13.2182 12.4748 13.2799 12.5235 13.4246 12.4981L13.2182 12.3294ZM21.1724 1.09212C21.5868 1.04831 22.0058 1.1015 22.3956 1.24745C22.787 1.39398 23.138 1.62988 23.4201 1.93607M21.1724 1.09212L23.347 2.00426M21.1724 1.09212C21.0766 1.09211 20.9898 1.09167 20.9089 1.09126L21.1724 1.09212ZM23.4201 1.93607C23.4203 1.93622 23.4204 1.93637 23.4205 1.93652L23.347 2.00426M23.4201 1.93607C23.42 1.93597 23.4199 1.93587 23.4198 1.93576L23.347 2.00426M23.4201 1.93607C23.6602 2.19148 23.8486 2.49012 23.9753 2.81584M23.347 2.00426C23.5786 2.2506 23.7603 2.53863 23.8823 2.85275M23.9753 2.81584C23.9752 2.81565 23.9751 2.81546 23.975 2.81526L23.8823 2.85275M23.9753 2.81584C23.9753 2.81608 23.9754 2.81631 23.9755 2.81654L23.8823 2.85275M3.19821 13.8689C3.18806 13.4943 3.17826 13.1328 3.25555 12.7721L3.19821 13.8689Z" fill="#EA6D47" stroke="#EA6D47" stroke-width="0.2"/>
</svg>
