<svg width="20" height="23" viewBox="0 0 20 23" fill="none" xmlns="http://www.w3.org/2000/svg">
<path d="M1.88673 10.1975L0.737367 20.5388L2.20583 20.7028L3.3552 10.36L1.88673 10.1975ZM2.94007 23H17.3677V21.5227H2.94007V23ZM19.5704 20.5388L18.421 10.1975L16.9526 10.36L18.1019 20.7028L19.5704 20.5388ZM16.2169 8.22672H4.09091V9.70405H16.2198V8.22672H16.2169ZM18.421 10.1975C18.3607 9.65552 18.1026 9.15483 17.6962 8.79123C17.2898 8.42763 16.7622 8.22664 16.2169 8.22672L16.2183 9.70405C16.4002 9.70404 16.5756 9.7711 16.7111 9.8924C16.8466 10.0137 16.9326 10.1807 16.9526 10.3615L18.421 10.1975ZM17.3677 23C17.6793 22.9999 17.9874 22.934 18.2718 22.8067C18.5562 22.6794 18.8106 22.4936 19.0183 22.2613C19.226 22.029 19.3824 21.7556 19.4773 21.4588C19.5722 21.162 19.6049 20.8485 19.5704 20.5388L18.1019 20.7028C18.1136 20.8061 18.1033 20.9093 18.0717 21.0084C18.0401 21.1075 17.9879 21.1988 17.9186 21.2763C17.8493 21.3539 17.7644 21.4159 17.6695 21.4583C17.5745 21.5008 17.4717 21.5227 17.3677 21.5227V23ZM0.737367 20.5388C0.702869 20.8486 0.734124 21.1622 0.829089 21.4591C0.924055 21.756 1.08059 22.0296 1.28848 22.2619C1.49637 22.4941 1.75092 22.68 2.03552 22.8072C2.32011 22.9344 2.62834 23.0001 2.94007 23V21.5227C2.83621 21.5227 2.73351 21.5008 2.63868 21.4584C2.54385 21.4161 2.45903 21.3542 2.38974 21.2768C2.32045 21.1994 2.26826 21.1083 2.23657 21.0094C2.20488 20.9105 2.19441 20.806 2.20583 20.7028L0.737367 20.5403V20.5388ZM3.3552 10.36C3.37554 10.1795 3.46166 10.0129 3.5971 9.89185C3.73254 9.77085 3.90929 9.704 4.09091 9.70405V8.22672C3.54585 8.227 3.01854 8.42816 2.61246 8.79172C2.20638 9.15529 1.94705 9.65577 1.88673 10.1975L3.3552 10.36ZM6.46055 6.74938V6.01072H4.98322V6.74938H6.46055ZM13.8472 6.01072V6.74938H15.3245V6.01072H13.8472ZM10.1539 2.31739C11.1334 2.31739 12.0728 2.70651 12.7655 3.39914C13.4581 4.09177 13.8472 5.03119 13.8472 6.01072H15.3245C15.3245 4.63937 14.7798 3.3242 13.8101 2.35451C12.8404 1.38482 11.5252 0.840057 10.1539 0.840057V2.31739ZM6.46055 6.01072C6.46055 5.03119 6.84967 4.09177 7.5423 3.39914C8.23493 2.70651 9.17435 2.31739 10.1539 2.31739V0.840057C8.78253 0.840057 7.46736 1.38482 6.49767 2.35451C5.52798 3.3242 4.98322 4.63937 4.98322 6.01072H6.46055Z" fill="#D52582"/>
</svg>
