<svg width="22" height="16" viewBox="0 0 22 16" fill="none" xmlns="http://www.w3.org/2000/svg">
<path d="M20.4722 0.420013H2.47217C2.07434 0.420013 1.69281 0.578049 1.41151 0.859353C1.1302 1.14066 0.972168 1.52219 0.972168 1.92001V13.92C0.972168 14.3178 1.1302 14.6994 1.41151 14.9807C1.69281 15.262 2.07434 15.42 2.47217 15.42H20.4722C20.87 15.42 21.2515 15.262 21.5328 14.9807C21.8141 14.6994 21.9722 14.3178 21.9722 13.92V1.92001C21.9722 1.52219 21.8141 1.14066 21.5328 0.859353C21.2515 0.578049 20.87 0.420013 20.4722 0.420013ZM18.8222 1.92001L11.4722 7.00501L4.12217 1.92001H18.8222ZM2.47217 13.92V2.60251L11.0447 8.53501C11.1702 8.62211 11.3194 8.66878 11.4722 8.66878C11.625 8.66878 11.7741 8.62211 11.8997 8.53501L20.4722 2.60251V13.92H2.47217Z" fill="#64BFD5"/>
</svg>
