<svg width="757" height="425" viewBox="0 0 757 425" fill="none" xmlns="http://www.w3.org/2000/svg">
<mask id="mask0" mask-type="alpha" maskUnits="userSpaceOnUse" x="241" y="49" width="340" height="339">
<circle cx="411.076" cy="218.5" r="169.5" fill="#F2F9FC"/>
</mask>
<g mask="url(#mask0)">
<circle cx="411.076" cy="218.5" r="169.5" fill="#FBFBE1"/>
<path d="M855.261 265.538C487.759 234.888 1.11226 247.155 -96.2871 269.993C-193.687 292.83 -170.604 378.617 -112.466 409.698C163.389 557.171 473.881 558.047 684.071 494.498C894.26 430.949 1222.76 296.189 855.261 265.538Z" fill="#F0F085"/>
</g>
<circle cx="207" cy="125" r="125" fill="#FBFBE1"/>
<path fill-rule="evenodd" clip-rule="evenodd" d="M298.39 126.306C298.39 178.052 256.439 220.001 204.693 220.001C152.948 220.001 111 178.052 111 126.306C111 74.559 152.948 32.6113 204.693 32.6113C256.439 32.6113 298.39 74.559 298.39 126.306Z" fill="#D5D50A"/>
<path fill-rule="evenodd" clip-rule="evenodd" d="M277.167 126.309C277.167 166.334 244.719 198.781 204.693 198.781C164.668 198.781 132.222 166.334 132.222 126.309C132.222 86.2824 164.668 53.8359 204.693 53.8359C244.719 53.8359 277.167 86.2824 277.167 126.309Z" fill="#F7F7C8"/>
<path d="M193.13 86.8203L216.136 136.996" stroke="#8E8F15" stroke-width="10.5925"/>
<path d="M218.327 115.959L167.933 170.736" stroke="#8E8F15" stroke-width="10.5925"/>
<path fill-rule="evenodd" clip-rule="evenodd" d="M343.076 329.066C343.076 332.29 345.69 334.904 348.914 334.904C352.138 334.904 354.751 332.29 354.751 329.066C354.751 325.842 352.138 323.229 348.914 323.229C345.69 323.229 343.076 325.842 343.076 329.066Z" fill="#BCBC3E"/>
<path fill-rule="evenodd" clip-rule="evenodd" d="M299.41 329.066C299.41 332.29 302.024 334.904 305.248 334.904C308.471 334.904 311.085 332.29 311.085 329.066C311.085 325.842 308.471 323.229 305.248 323.229C302.024 323.229 299.41 325.842 299.41 329.066Z" fill="#BCBC3E"/>
<path fill-rule="evenodd" clip-rule="evenodd" d="M356.09 257.623H297.869V251.293H356.09V257.623Z" fill="#D5D50A"/>
<path fill-rule="evenodd" clip-rule="evenodd" d="M290.192 257.624H317.306L322.328 225.148V200.089C322.328 187.886 312.435 177.992 300.231 177.992C288.027 177.992 278.134 187.886 278.134 200.089V225.148L275.462 240.706C274.22 249.647 281.165 257.624 290.192 257.624Z" fill="#D5D50A"/>
<path fill-rule="evenodd" clip-rule="evenodd" d="M317.572 255.614H334.65C325.678 255.614 318.757 247.729 319.899 238.854L317.572 255.614Z" fill="#ECF6FF"/>
<path fill-rule="evenodd" clip-rule="evenodd" d="M308.909 199.732C308.909 204.192 305.293 207.808 300.834 207.808C300.613 207.808 300.392 207.798 300.178 207.781C300.006 207.767 299.839 207.747 299.672 207.721C295.765 207.161 292.762 203.797 292.762 199.732C292.762 195.671 295.765 192.306 299.672 191.747C299.839 191.72 300.006 191.7 300.178 191.687C300.392 191.67 300.613 191.66 300.834 191.66C305.293 191.66 308.909 195.276 308.909 199.732Z" fill="#B6D4FF"/>
<path fill-rule="evenodd" clip-rule="evenodd" d="M306.575 199.731C306.575 203.792 303.575 207.154 299.672 207.719C295.764 207.16 292.761 203.796 292.761 199.731C292.761 195.67 295.764 192.305 299.672 191.746C303.575 192.312 306.575 195.673 306.575 199.731Z" fill="white"/>
<path fill-rule="evenodd" clip-rule="evenodd" d="M289.809 330.238H347.498C349.707 330.238 351.516 328.43 351.516 326.221C351.516 324.011 349.707 322.203 347.498 322.203H289.809C287.599 322.203 285.791 324.011 285.791 326.221C285.791 328.43 287.599 330.238 289.809 330.238Z" fill="#D5D50A"/>
<path fill-rule="evenodd" clip-rule="evenodd" d="M320.481 328.328H316.824V257.625H320.481V328.328Z" fill="#D7DFDE"/>
<path fill-rule="evenodd" clip-rule="evenodd" d="M298.367 257.625L318.653 266.864L338.938 257.625H298.367Z" fill="#BCBC3E"/>
<path fill-rule="evenodd" clip-rule="evenodd" d="M321.117 330.238H328.602C330.813 330.238 332.62 328.43 332.62 326.221C332.62 324.011 330.813 322.203 328.602 322.203H321.117C318.907 322.203 317.099 324.011 317.099 326.221C317.099 328.43 318.907 330.238 321.117 330.238Z" fill="#D5D50A"/>
<path fill-rule="evenodd" clip-rule="evenodd" d="M326.027 329.066C326.027 332.29 328.641 334.904 331.865 334.904C335.089 334.904 337.702 332.29 337.702 329.066C337.702 325.842 335.089 323.229 331.865 323.229C328.641 323.229 326.027 325.842 326.027 329.066Z" fill="#BCBC3E"/>
<path fill-rule="evenodd" clip-rule="evenodd" d="M282.169 329.066C282.169 332.29 284.782 334.904 288.006 334.904C291.23 334.904 293.844 332.29 293.844 329.066C293.844 325.842 291.23 323.229 288.006 323.229C284.782 323.229 282.169 325.842 282.169 329.066Z" fill="#BCBC3E"/>
<path fill-rule="evenodd" clip-rule="evenodd" d="M306.925 252.267H353.609C356.611 252.267 359.044 249.834 359.044 246.833V246.833C359.044 243.831 356.611 241.398 353.609 241.398H306.925C303.924 241.398 301.491 243.831 301.491 246.833V246.833C301.491 249.834 303.924 252.267 306.925 252.267Z" fill="#F3C6E6"/>
<path fill-rule="evenodd" clip-rule="evenodd" d="M288.161 252.267H315.938C318.939 252.267 321.372 249.834 321.372 246.833V246.833C321.372 243.831 318.939 241.398 315.938 241.398H288.161C285.16 241.398 282.727 243.831 282.727 246.833V246.833C282.727 249.834 285.16 252.267 288.161 252.267Z" fill="#BCBC3E"/>
<path fill-rule="evenodd" clip-rule="evenodd" d="M335.489 132.798C335.489 137.598 332.403 141.488 328.596 141.488C324.789 141.488 321.703 137.598 321.703 132.798C321.703 127.998 324.789 124.107 328.596 124.107C332.403 124.107 335.489 127.998 335.489 132.798Z" fill="#19141E"/>
<path d="M319.177 167.226L318.888 157.244C318.888 157.244 330.991 158.21 333.58 156.862C333.58 156.862 336.744 140.523 332.97 131.475L332.893 131.123L307.354 128.129L305.923 142.817C305.062 140.274 297.962 137.39 296.106 141.032C292.084 148.923 306.465 154.237 306.465 154.237L305.005 167.346" fill="#E576C6"/>
<path opacity="0.398926" fill-rule="evenodd" clip-rule="evenodd" d="M318.888 157.244L310.728 155.49L318.849 160.989L318.888 157.244Z" fill="black"/>
<path fill-rule="evenodd" clip-rule="evenodd" d="M325.412 142.631L328.232 149.541L324.853 149.584L325.412 142.631Z" fill="#405FD3"/>
<path fill-rule="evenodd" clip-rule="evenodd" d="M322.405 142.896C322.573 143.827 321.957 144.717 321.028 144.885C320.1 145.054 319.211 144.436 319.043 143.505C318.875 142.575 319.492 141.684 320.42 141.516C321.349 141.348 322.237 141.965 322.405 142.896Z" fill="#0D0B6D"/>
<path fill-rule="evenodd" clip-rule="evenodd" d="M331.881 142.896C332.049 143.827 331.432 144.717 330.504 144.885C329.575 145.054 328.687 144.436 328.519 143.505C328.351 142.575 328.967 141.684 329.896 141.516C330.824 141.348 331.713 141.965 331.881 142.896Z" fill="#0D0B6D"/>
<path d="M307.82 145.323C305.398 141.17 301.895 139.903 300.322 139.532C299.695 137.715 299.217 135.608 298.881 133.367C297.98 127.369 302.331 121.897 305.846 120.325C309.403 118.735 315.537 116.532 324.516 119.523C330.553 121.535 334.411 116.717 337.964 118.775C344.034 122.292 338.388 137.691 322.996 133.779C311.987 130.981 311.704 131.682 311.609 133.716C311.304 140.291 310.281 144.159 307.82 145.323Z" fill="#2F2F3D"/>
<path fill-rule="evenodd" clip-rule="evenodd" d="M320.717 149.84C320.717 149.84 321.802 151.816 324.147 151.769L320.717 149.84Z" fill="white"/>
<path d="M320.717 149.84C320.717 149.84 321.802 151.816 324.147 151.769" stroke="#252535" stroke-width="1.33921"/>
<path fill-rule="evenodd" clip-rule="evenodd" d="M324.593 142.979C324.593 145.143 322.843 146.896 320.685 146.896C318.526 146.896 316.776 145.143 316.776 142.979C316.776 140.816 318.526 139.062 320.685 139.062C322.843 139.062 324.593 140.816 324.593 142.979Z" stroke="#252535" stroke-width="1.33921"/>
<path fill-rule="evenodd" clip-rule="evenodd" d="M334.434 142.979C334.434 145.143 332.684 146.896 330.526 146.896C328.367 146.896 326.617 145.143 326.617 142.979C326.617 140.816 328.367 139.062 330.526 139.062C332.684 139.062 334.434 140.816 334.434 142.979Z" stroke="#252535" stroke-width="1.33921"/>
<path d="M326.299 143.16H324.609" stroke="#252535" stroke-width="1.33921"/>
<path d="M316.777 142.978H307.122" stroke="#252535" stroke-width="1.33921"/>
<path fill-rule="evenodd" clip-rule="evenodd" d="M387.28 325.584L387.375 316.786L376.751 311.072L375.209 336.222H412.017C405.755 328.69 387.28 325.584 387.28 325.584ZM328.336 325.235L328.437 314.771L316.964 314.19L315.92 324.657L313.252 336.139H339.931C336.577 326.384 328.336 325.235 328.336 325.235Z" fill="#0D0B6D"/>
<path fill-rule="evenodd" clip-rule="evenodd" d="M328.436 314.768L317.186 311.158L315.919 324.654L328.335 325.232L328.436 314.768ZM387.375 316.782L376.751 313.374L375.894 325.034L387.279 325.58L387.375 316.782Z" fill="#E576C6"/>
<path fill-rule="evenodd" clip-rule="evenodd" d="M327.265 224.25H285.018V232.511C285.018 242.778 293.444 251.1 303.839 251.1H313.072L313.072 251.1L317.563 251.1L314.288 320.499H333.64L340.836 251.1H374.452L373.546 320.499H393.229L402.525 249.315C404.19 236.004 393.777 224.25 380.322 224.25H327.288C327.28 224.25 327.273 224.25 327.265 224.25Z" fill="#19141E"/>
<path opacity="0.101632" fill-rule="evenodd" clip-rule="evenodd" d="M285.018 224.25H327.265C335.992 224.25 342.816 231.686 341.96 240.264L333.64 320.499H314.288L317.563 251.1H303.839C293.444 251.1 285.018 242.778 285.018 232.511V224.25Z" fill="white"/>
<path d="M302.886 165.208C302.886 165.208 308.56 165.197 312.655 165.184C316.749 165.17 321.898 166.891 321.898 166.891C321.898 166.891 324.578 172.907 315.27 172.362C305.963 171.817 302.886 165.208 302.886 165.208Z" fill="#E576C6"/>
<path d="M297.047 224.696L288.776 224.692C288.776 224.692 263.575 220.479 262.82 206.437C262.339 197.493 270.29 188.571 270.29 188.571C270.29 188.571 280.118 172.874 291.477 167.577C293.809 166.49 299.461 165.583 302.887 165.209C303.937 165.094 303.309 165.503 303.67 166.195C304.047 166.918 305.193 167.99 305.986 168.791C307.637 170.458 310.891 171.72 312.639 171.978C313.971 172.175 316.545 172.481 317.783 172.315C319.021 172.148 320.367 171.59 320.727 171.258C321.087 170.926 321.622 170.511 321.9 169.871C322.177 169.231 322.163 169.415 322.163 168.824C322.163 168.234 322.133 168.322 322.075 168.041C322.017 167.76 322.017 167.591 321.983 167.446C321.832 166.804 321.9 166.891 321.9 166.891C328.606 168.915 332.003 169.664 334.446 172.609L353.115 185.704L365.889 169.045L382.372 180.105C382.372 180.105 367.778 207.278 357.202 210.282C348.682 212.702 340.051 205.176 337.016 202.158L340.622 220.45C341.2 223.609 338.433 224.804 335.967 224.692L297.047 224.696Z" fill="#72A065"/>
<path opacity="0.201242" fill-rule="evenodd" clip-rule="evenodd" d="M336.96 202.169L334.729 193.355L340.754 205.4L336.96 202.169Z" fill="black"/>
<path opacity="0.200591" d="M295.177 208.57L284.987 207.824L297.555 188.775" stroke="black" stroke-width="1.67401"/>
<path d="M227.906 211.813L208.418 170.494" stroke="#BCBC3E" stroke-width="4.01762"/>
<path d="M249.536 146.971L208.418 170.494" stroke="#BCBC3E" stroke-width="4.01762"/>
<path d="M249.059 147.48H265.831" stroke="#BCBC3E" stroke-width="4.01762"/>
<path fill-rule="evenodd" clip-rule="evenodd" d="M215.584 215.703H251.853C251.853 212.168 249.179 209.303 245.88 209.303H221.557C218.258 209.303 215.584 212.168 215.584 215.703Z" fill="#E5E57C"/>
<path fill-rule="evenodd" clip-rule="evenodd" d="M282.409 145.53C276.39 139.511 266.632 139.509 260.615 145.527C254.598 151.544 254.599 161.301 260.618 167.321" fill="#E5E57C"/>
<path fill-rule="evenodd" clip-rule="evenodd" d="M207.05 340.868H210.534L231.94 225.66H219.894L207.05 340.868Z" fill="#D5D50A"/>
<path fill-rule="evenodd" clip-rule="evenodd" d="M354.26 215.702H382.706V212.146H354.26V215.702Z" fill="#515151"/>
<path fill-rule="evenodd" clip-rule="evenodd" d="M192.827 225.659H388.395V215.703H192.827V225.659Z" fill="#8E8F15"/>
<path fill-rule="evenodd" clip-rule="evenodd" d="M374.172 225.659H450.266V215.703H374.172V225.659Z" fill="#8E8F15"/>
<path fill-rule="evenodd" clip-rule="evenodd" d="M440.381 340.868H443.865L431.021 225.66H418.975L440.381 340.868Z" fill="#D5D50A"/>
<path d="M304.479 212.149L310.168 211.793V215.704H304.479V212.149Z" fill="#E4E3E3"/>
<path d="M297.722 208.592L305.738 206.382C309.153 205.441 312.687 207.431 313.651 210.839L299.856 214.992L297.722 214.993L297.722 208.592Z" fill="#E576C6"/>
<path fill-rule="evenodd" clip-rule="evenodd" d="M310.168 215.704H354.26V211.438H310.168V215.704Z" fill="#515151"/>
<path d="M314.516 169.957H386.833L381.476 212.142H309.159L314.516 169.957Z" fill="#E4E3E3"/>
<path d="M315.854 169.957H388.171L382.814 212.142H310.497L315.854 169.957Z" fill="#515151"/>
<path fill-rule="evenodd" clip-rule="evenodd" d="M351.917 186.317C351.654 187.121 350.898 187.702 350.007 187.702C349.007 187.702 348.178 186.972 348.023 186.016C346.436 186.665 345.318 188.225 345.318 190.045C345.318 192.449 347.267 194.398 349.671 194.398C352.075 194.398 354.023 192.449 354.023 190.045C354.023 188.463 353.179 187.079 351.917 186.317Z" fill="#E4E3E3"/>
<path fill-rule="evenodd" clip-rule="evenodd" d="M158.241 228.198C158.241 237.513 152.578 245.063 145.593 245.063C138.607 245.063 132.944 237.513 132.944 228.198C132.944 218.884 138.607 211.334 145.593 211.334C152.578 211.334 158.241 218.884 158.241 228.198Z" fill="url(#paint0_linear)"/>
<path d="M145.688 316.778V229.057" stroke="#8E8F15" stroke-width="1.61231" stroke-linecap="round" stroke-linejoin="round"/>
<path fill-rule="evenodd" clip-rule="evenodd" d="M132.066 252.973C138.039 258.946 139.25 267.419 134.77 271.899C130.29 276.378 121.817 275.168 115.844 269.195C109.871 263.222 108.661 254.749 113.14 250.269C117.62 245.789 126.093 247 132.066 252.973Z" fill="url(#paint1_linear)"/>
<path fill-rule="evenodd" clip-rule="evenodd" d="M174.714 265.244C179.53 270.061 178.229 279.171 171.807 285.593C165.385 292.015 156.274 293.316 151.458 288.5" fill="url(#paint2_linear)"/>
<path d="M168.226 273.729L146.062 295.955" stroke="#8E8F15" stroke-width="1.61231" stroke-linecap="round" stroke-linejoin="round"/>
<path d="M161.822 252.473L145.625 268.479" stroke="#8E8F15" stroke-width="1.61231" stroke-linecap="round" stroke-linejoin="round"/>
<path d="M128.807 287.607L145.727 304.718" stroke="#8E8F15" stroke-width="1.61231" stroke-linecap="round" stroke-linejoin="round"/>
<path d="M122.975 260.219L145.593 283.107" stroke="#8E8F15" stroke-width="1.61231" stroke-linecap="round" stroke-linejoin="round"/>
<path fill-rule="evenodd" clip-rule="evenodd" d="M152.47 346.904H138.905C128.486 346.904 119.962 338.379 119.962 327.96V310.135H171.414V327.96C171.414 338.379 162.889 346.904 152.47 346.904Z" fill="#D5D50A"/>
<path d="M171.414 320.043H119.962" stroke="#E5E57C" stroke-width="2.74303"/>
<path d="M171.414 329.981H119.962" stroke="#E5E57C" stroke-width="2.74303"/>
<path fill-rule="evenodd" clip-rule="evenodd" d="M601.61 274.305C601.61 289.938 588.937 302.61 573.305 302.61C557.672 302.61 545 289.938 545 274.305C545 258.672 557.672 246 573.305 246C588.937 246 601.61 258.672 601.61 274.305Z" fill="#D5D50A"/>
<path fill-rule="evenodd" clip-rule="evenodd" d="M595.199 274.306C595.199 286.398 585.396 296.2 573.305 296.2C561.213 296.2 551.411 286.398 551.411 274.306C551.411 262.214 561.213 252.412 573.305 252.412C585.396 252.412 595.199 262.214 595.199 274.306Z" fill="#F7F7C8"/>
<path d="M569.812 262.377L576.762 277.535" stroke="#8E8F15" stroke-width="3.2"/>
<path d="M577.423 271.18L562.199 287.728" stroke="#8E8F15" stroke-width="3.2"/>
<path fill-rule="evenodd" clip-rule="evenodd" d="M512.61 69.3052C512.61 84.9376 499.937 97.6104 484.305 97.6104C468.672 97.6104 456 84.9376 456 69.3052C456 53.6724 468.672 41 484.305 41C499.937 41 512.61 53.6724 512.61 69.3052Z" fill="#D5D50A"/>
<path fill-rule="evenodd" clip-rule="evenodd" d="M506.199 69.3061C506.199 81.3978 496.396 91.2001 484.305 91.2001C472.213 91.2001 462.411 81.3978 462.411 69.3061C462.411 57.2142 472.213 47.4121 484.305 47.4121C496.396 47.4121 506.199 57.2142 506.199 69.3061Z" fill="#F7F7C8"/>
<path d="M480.812 57.377L487.762 72.535" stroke="#8E8F15" stroke-width="3.2"/>
<path d="M488.423 66.1797L473.199 82.7277" stroke="#8E8F15" stroke-width="3.2"/>
<path d="M757 317C757 322.538 752.538 327 747 327C741.462 327 737 322.538 737 317C737 311.462 741.462 307 747 307C752.538 307 757 311.462 757 317Z" fill="#A6278C"/>
<path d="M138 164C138 175.077 129.077 184 118 184C106.923 184 98 175.077 98 164C98 152.923 106.923 144 118 144C129.077 144 138 152.923 138 164Z" fill="#E5E435"/>
<path d="M728 112C728 119.754 721.754 126 714 126C706.246 126 700 119.754 700 112C700 104.246 706.246 98 714 98C721.754 98 728 104.246 728 112Z" fill="#149AAB"/>
<path d="M95 294C95 305.077 86.0769 314 75 314C63.9231 314 55 305.077 55 294C55 282.923 63.9231 274 75 274C86.0769 274 95 282.923 95 294Z" fill="#8AC542"/>
<path d="M203 370C203 374.985 198.985 379 194 379C189.015 379 185 374.985 185 370C185 365.015 189.015 361 194 361C198.985 361 203 365.015 203 370Z" fill="#0E9BD6"/>
<path fill-rule="evenodd" clip-rule="evenodd" d="M391.61 47.3052C391.61 62.9376 378.937 75.6104 363.305 75.6104C347.672 75.6104 335 62.9376 335 47.3052C335 31.6724 347.672 19 363.305 19C378.937 19 391.61 31.6724 391.61 47.3052Z" fill="#D5D50A"/>
<path fill-rule="evenodd" clip-rule="evenodd" d="M385.199 47.3061C385.199 59.3978 375.396 69.2001 363.305 69.2001C351.213 69.2001 341.411 59.3978 341.411 47.3061C341.411 35.2142 351.213 25.4121 363.305 25.4121C375.396 25.4121 385.199 35.2142 385.199 47.3061Z" fill="#F7F7C8"/>
<path d="M359.812 35.377L366.762 50.535" stroke="#8E8F15" stroke-width="3.2"/>
<path d="M367.423 44.1797L352.199 60.7277" stroke="#8E8F15" stroke-width="3.2"/>
<path fill-rule="evenodd" clip-rule="evenodd" d="M605.61 167.305C605.61 182.938 592.937 195.61 577.305 195.61C561.672 195.61 549 182.938 549 167.305C549 151.672 561.672 139 577.305 139C592.937 139 605.61 151.672 605.61 167.305Z" fill="#D5D50A"/>
<path fill-rule="evenodd" clip-rule="evenodd" d="M599.199 167.306C599.199 179.398 589.396 189.2 577.305 189.2C565.213 189.2 555.411 179.398 555.411 167.306C555.411 155.214 565.213 145.412 577.305 145.412C589.396 145.412 599.199 155.214 599.199 167.306Z" fill="#F7F7C8"/>
<path d="M573.812 155.377L580.762 170.535" stroke="#8E8F15" stroke-width="3.2"/>
<path d="M581.423 164.18L566.199 180.728" stroke="#8E8F15" stroke-width="3.2"/>
<defs>
<linearGradient id="paint0_linear" x1="137.002" y1="217.261" x2="159.514" y2="227.601" gradientUnits="userSpaceOnUse">
<stop stop-color="#F0F085"/>
<stop offset="1" stop-color="#D5D50A"/>
</linearGradient>
<linearGradient id="paint1_linear" x1="114.772" y1="252.316" x2="135.964" y2="265.294" gradientUnits="userSpaceOnUse">
<stop stop-color="#F0F085"/>
<stop offset="1" stop-color="#D5D50A"/>
</linearGradient>
<linearGradient id="paint2_linear" x1="155.654" y1="269.841" x2="176.16" y2="282.4" gradientUnits="userSpaceOnUse">
<stop stop-color="#F0F085"/>
<stop offset="1" stop-color="#D5D50A"/>
</linearGradient>
</defs>
</svg>
