<?xml version="1.0" encoding="utf-8"?>
<!-- Generator: Adobe Illustrator 22.1.0, SVG Export Plug-In . SVG Version: 6.00 Build 0)  -->
<svg version="1.1" id="object" xmlns="http://www.w3.org/2000/svg" xmlns:xlink="http://www.w3.org/1999/xlink" x="0px" y="0px"
	 width="800px" height="600px" viewBox="0 0 800 600" style="enable-background:new 0 0 800 600;" xml:space="preserve">
<style type="text/css">
	.st0{fill:url(#SVGID_1_);}
	.st1{fill:#C2CACE;}
	.st2{fill:#E6EDEF;}
	.st3{fill:#FAFDFF;}
	.st4{fill:none;stroke:#FAFDFF;stroke-width:2.2214;stroke-miterlimit:10;}
	.st5{opacity:0.5;}
	.st6{fill:#ACB3B5;}
	.st7{fill:none;stroke:#ACB3B5;stroke-width:2.2214;stroke-miterlimit:10;}
	.st8{fill:url(#SVGID_2_);}
	.st9{fill:#2C3F49;}
	.st10{fill:#223138;}
	.st11{fill:#485F68;}
	.st12{fill:#FFD05B;}
	.st13{fill:#D89844;}
	.st14{fill:#F7E3A1;}
	.st15{fill:#C7B299;}
	.st16{fill:#EDD4BE;}
	.st17{fill:#F4E4D7;}
	.st18{fill:#534741;}
	.st19{fill:#736357;}
	.st20{fill:#998675;}
	.st21{fill:#DDD1C3;}
	.st22{fill:url(#SVGID_3_);}
	.st23{fill:#C65F2D;}
	.st24{fill:#BB4B51;}
	.st25{fill:#B29C8A;}
	.st26{fill:#F14149;}
	.st27{fill:url(#SVGID_4_);}
	.st28{fill:url(#SVGID_5_);}
	.st29{fill:#2FD4B8;}
	.st30{fill:url(#SVGID_6_);}
	.st31{fill:url(#SVGID_7_);}
	.st32{fill:#2BBA9E;}
	.st33{fill:#25E8C3;}
	.st34{fill:#61A383;}
	.st35{fill:#FBB53D;}
	.st36{fill:#FCC068;}
	.st37{fill:url(#SVGID_8_);}
	.st38{fill:url(#SVGID_9_);}
	.st39{opacity:0.33;fill:#998675;}
	.st40{fill:url(#SVGID_10_);}
	.st41{fill:#FFF8F3;}
	.st42{fill:#6CC94B;}
	.st43{fill:url(#SVGID_11_);}
	.st44{fill:url(#SVGID_12_);}
	.st45{fill:#97DD76;}
	.st46{fill:#58A04C;}
	.st47{fill:url(#SVGID_13_);}
	.st48{opacity:0.2;fill:#998675;}
	.st49{opacity:0.33;}
	.st50{opacity:0.5;fill:url(#SVGID_14_);}
	.st51{fill:url(#SVGID_15_);}
	.st52{fill:url(#SVGID_16_);}
	.st53{fill:url(#SVGID_17_);}
	.st54{fill:url(#SVGID_18_);}
	.st55{opacity:0.15;fill:#223138;}
	.st56{fill:#F1F1F2;}
	.st57{fill:#FFFFFF;}
	.st58{fill:url(#SVGID_19_);}
	.st59{fill:#8FFFDC;}
	.st60{fill:url(#SVGID_20_);}
</style>
<linearGradient id="SVGID_1_" gradientUnits="userSpaceOnUse" x1="400.2178" y1="575.3012" x2="398.3666" y2="523.8396" gradientTransform="matrix(1 3.627119e-03 -3.627152e-03 1 1.0691 -1.4459)">
	<stop  offset="0" style="stop-color:#2C3F49;stop-opacity:0"/>
	<stop  offset="0.999" style="stop-color:#2C3F49;stop-opacity:0.3"/>
</linearGradient>
<polygon class="st0" points="750.8,548.2 46.1,558.2 91.7,517.2 716.7,510.2 "/>
<g>
	<g>
		<polygon class="st1" points="768.4,521.7 35.3,532.3 29.9,508.1 768.5,503 		"/>
		<polygon class="st2" points="768,503.1 29.3,508.1 77.1,465 732.2,463.3 		"/>
		<g>
			<g>
				<polygon class="st3" points="163.3,473.7 137.6,508.8 135.8,507.4 				"/>
			</g>
			<line class="st4" x1="258.9" y1="472.2" x2="242.3" y2="507.3"/>
			<line class="st4" x1="354.5" y1="470.6" x2="348" y2="506.6"/>
			<line class="st4" x1="450.1" y1="469" x2="453.6" y2="505.8"/>
			<line class="st4" x1="545.6" y1="467.5" x2="559.2" y2="505"/>
			<g>
				<polygon class="st3" points="641.2,465.9 665.8,503.7 663.9,504.9 				"/>
			</g>
		</g>
		<g class="st5">
			<g>
				<polygon class="st6" points="141.4,530.8 135.6,508.3 137.8,507.9 				"/>
			</g>
			<line class="st7" x1="245.9" y1="529.1" x2="242.3" y2="507.3"/>
			<line class="st7" x1="350.4" y1="527.5" x2="348" y2="506.6"/>
			<line class="st7" x1="454.9" y1="525.8" x2="453.6" y2="505.8"/>
			<line class="st7" x1="559.5" y1="524.1" x2="559.2" y2="505"/>
			<g>
				<polygon class="st6" points="664,522.5 663.7,504.2 665.9,504.3 				"/>
			</g>
		</g>
		
			<linearGradient id="SVGID_2_" gradientUnits="userSpaceOnUse" x1="679.0087" y1="480.7445" x2="280.829" y2="485.7426" gradientTransform="matrix(1 3.627119e-03 -3.627152e-03 1 1.0691 -1.4459)">
			<stop  offset="0" style="stop-color:#FFFFFF;stop-opacity:0"/>
			<stop  offset="0.999" style="stop-color:#FFFFFF;stop-opacity:0.3"/>
		</linearGradient>
		<polygon class="st8" points="768,503.1 29.3,508.1 77.1,465 732.2,463.3 		"/>
		<g>
			<polygon class="st3" points="28.4,507.4 767.1,503.5 28.4,509.6 			"/>
		</g>
		<g>
			<polygon class="st3" points="28.6,507.2 77.1,465 30,508.9 			"/>
		</g>
	</g>
	<g>
		<path class="st9" d="M116.6,487.6l-32.4,0.3c-0.1-3.1,2.5-5.7,5.9-5.9l-0.3-7.7c-0.1-2.1,1.6-3.8,3.8-4.1L93,453.7
			c-0.1-1.6,1.3-2.9,3.1-2.9l0.4,0l-6.2-163.6l5.3,0l6.1,163.6l0.4,0c1.8,0,3.2,1.3,3.3,2.8l0.6,16.5c2.3,0.2,4,1.9,4.1,4l0.3,7.7
			C113.7,482,116.5,484.5,116.6,487.6z"/>
		<g>
			<polygon class="st10" points="95.5,287.3 102.7,450.8 100.5,450.9 			"/>
		</g>
		<g>
			<path class="st10" d="M102,450.8c0.9-0.1,1.9,0.1,2.6,0.7c0.4,0.3,0.7,0.7,0.9,1.2c0.2,0.5,0.3,1,0.3,1.4
				c0.2,1.8,0.4,3.5,0.5,5.3c0.2,1.8,0.3,3.5,0.4,5.3c0.1,1.8,0.2,3.5,0.3,5.3l-1-1.1c1.4,0.1,2.8,0.8,3.7,1.9
				c0.5,0.5,0.9,1.2,1.1,1.9c0.1,0.4,0.2,0.7,0.2,1.1c0,0.4,0,0.6,0,0.9c0,2.3,0,4.6,0,7l-0.7-0.8c1.7,0.2,3.4,0.9,4.6,2.1
				c1.2,1.2,1.9,2.9,1.7,4.5c-0.3-1.6-1.2-2.9-2.3-3.7c-0.6-0.4-1.2-0.8-1.9-1c-0.7-0.2-1.4-0.3-2.1-0.3l-0.7,0l-0.1-0.7
				c-0.2-2.3-0.4-4.6-0.5-6.9c0-0.3,0-0.6-0.1-0.8c0-0.2-0.1-0.4-0.1-0.6c-0.1-0.4-0.4-0.8-0.7-1.1c-0.6-0.6-1.5-1-2.4-1.1l-1-0.1
				l0-0.9c0-1.8-0.1-3.5-0.1-5.3c0-1.8,0-3.5,0-5.3c0-1.8,0.1-3.6,0.1-5.3c0-0.5,0.1-0.8,0-1.2c-0.1-0.4-0.3-0.7-0.5-1
				C103.7,451.4,102.9,450.9,102,450.8z"/>
		</g>
		<path class="st10" d="M116.6,487.6l-32.4,0.3c-0.1-3.1,2.5-5.7,5.9-5.9l-0.3-7.7c0-1.2,0.5-2.3,1.3-3c5.6,7.1,13.1,10.8,18.1,8.5
			c0.3-0.2,0.7-0.3,1-0.5l0.1,2.5C113.7,482,116.5,484.5,116.6,487.6z"/>
		<g>
			<path class="st11" d="M84.2,487.9c-0.3-1.5,0.3-3.3,1.4-4.5c1.1-1.3,2.7-2,4.4-2.2l-0.7,0.8c-0.2-2.3-0.4-4.6-0.5-6.9
				c0-0.3,0-0.5-0.1-0.9c0-0.4,0-0.7,0.1-1.1c0.2-0.7,0.5-1.4,1-2c0.9-1.1,2.3-1.8,3.7-2l-1,1.1c0-1.9-0.1-3.8-0.1-5.8
				c0-1.9,0-3.8,0-5.8c0-1,0-1.9,0.1-2.9l0-1.4l0-0.7c0-0.3,0.1-0.6,0.2-0.9c0.5-1,1.2-1.7,2-2.3c0.8-0.6,1.7-1.1,2.7-1
				c-1,0.1-1.7,0.8-2.4,1.4c-0.6,0.7-1.2,1.4-1.5,2.2c-0.1,0.2-0.1,0.4-0.1,0.5l0.1,0.7l0.2,1.4c0.1,1,0.2,1.9,0.3,2.9
				c0.2,1.9,0.3,3.8,0.4,5.7c0.1,1.9,0.2,3.8,0.3,5.7l0.1,1l-1,0.1c-0.9,0.1-1.7,0.5-2.3,1.2c-0.3,0.3-0.5,0.7-0.6,1.1
				c-0.1,0.2-0.1,0.4-0.1,0.6c0,0.2,0,0.6,0,0.8c0,2.3,0,4.6,0,6.9l0,0.8l-0.7,0c-0.7,0-1.4,0.1-2,0.3c-0.7,0.2-1.3,0.6-1.9,1
				C85.1,485,84.3,486.4,84.2,487.9z"/>
		</g>
		<g>
			<polygon class="st11" points="95.3,450.9 90.3,287.2 97.6,450.8 			"/>
		</g>
		<polygon class="st10" points="95.5,287.3 95.6,289.9 90.4,289.8 90.3,287.2 		"/>
		<path class="st9" d="M97.9,288.8l-10-0.1c-3,0-5.6-2.3-5.7-5.1l0,0l21,0.1l0,0C103.3,286.6,101,288.8,97.9,288.8z"/>
		<g>
			<path class="st10" d="M104.3,283.7c0,1.4-0.5,2.7-1.4,3.7c-0.9,1-2.1,1.7-3.3,1.9c-0.6,0.2-1.3,0.2-1.9,0.1l-1.7-0.1l-3.3-0.2
				l-3.3-0.2l-1.7-0.1c-0.6,0-1.2-0.2-1.7-0.3c-2.2-0.7-3.9-2.8-3.9-5.1c0.2,2.2,2,4,4,4.5c0.5,0.1,1,0.2,1.6,0.2l1.7-0.1l3.3-0.1
				l3.3-0.1l1.7-0.1c0.5,0,1-0.1,1.4-0.2c1.8-0.5,3.1-2.3,2.9-4L104.3,283.7z"/>
		</g>
		<path class="st12" d="M109.4,269.9c0.3,5.6-1.9,10.8-5.9,13.7l-0.2,0.2l-21-0.1c-4.7-2.7-7.8-8.2-8.1-14.1c0-0.3,0-0.7,0-1.1
			l0.3-17.2l0.1-5.5L108,246l0.3,5.5L109.4,269.9z"/>
		<g>
			<path class="st13" d="M109.5,249.1l0.3,18.2c0,1.5,0.1,3,0,4.6c-0.1,1.5-0.5,3.1-1,4.5c-1,2.9-2.9,5.5-5.4,7.2
				c2.4-1.9,4-4.5,4.9-7.4c0.4-1.4,0.6-2.9,0.7-4.4c0-1.5-0.2-3-0.3-4.5l-1.4-18.1L109.5,249.1z"/>
		</g>
		<path class="st13" d="M109.4,271.6c-0.2,4.9-2.4,9.4-6,12l-0.2,0.2l-21-0.1c-4.1-2.4-7-6.8-7.8-11.8c4.7,4.5,10.9,7.4,17.6,7.4
			C98.9,279.3,105.1,276.4,109.4,271.6z"/>
		<path class="st9" d="M108.4,249.2l-33.9-0.3l2.5-9.7c1.2-4.7,6.8-7.9,13.4-7.9l0,0l0.8,0c6.6,0.1,12.5,3.5,14,8.2L108.4,249.2z"/>
		<path class="st10" d="M105.2,239.5c-0.5-1.7-1.6-3.2-3.1-4.4c-0.8,3.6-6.8,6.3-14.3,6.2c-4.2,0-8-1-10.7-2.4
			c0,0.1-0.1,0.2-0.1,0.3l-2.5,9.7l33.9,0.3L105.2,239.5z"/>
		<g>
			<path class="st11" d="M73.4,248.6l1.5-5.4l0.8-2.7l0.4-1.3c0.1-0.5,0.3-1,0.5-1.4c0.9-1.9,2.4-3.4,4-4.4c1.7-1,3.5-1.7,5.4-2.1
				c1.9-0.4,3.8-0.4,5.7-0.3c1.9,0.1,3.8,0.5,5.6,1.1c1.8,0.7,3.5,1.6,4.9,2.8c0.7,0.6,1.3,1.3,1.9,2.1c0.5,0.8,0.9,1.6,1.2,2.5
				c-0.3-0.9-0.8-1.7-1.3-2.4c-0.6-0.7-1.2-1.4-2-2c-1.4-1.1-3.1-2-4.9-2.5c-1.8-0.5-3.6-0.8-5.4-0.8c-1.9,0-3.7,0.1-5.4,0.5
				c-1.8,0.4-3.4,1.2-4.9,2.2c-1.4,1-2.6,2.4-3.2,3.9c-0.2,0.4-0.2,0.8-0.4,1.2l-0.3,1.4l-0.6,2.7l-1.2,5.5L73.4,248.6z"/>
		</g>
		<polygon class="st13" points="108.3,251.5 74.5,251.2 74.6,245.7 108,246 		"/>
		<g>
			<path class="st14" d="M82.3,283.6c-2.8-1.5-5-3.9-6.5-6.7c-1.5-2.8-2.2-6.1-2.1-9.3l-0.3-18.8l2.2,0l-0.8,18.8
				c-0.2,3.1,0.2,6.2,1.5,9C77.5,279.5,79.6,282,82.3,283.6z"/>
		</g>
		<path class="st9" d="M111.9,249.3l-41-0.4l0,0c-1-3.3,1.5-6.4,5.1-6.4l30.2,0.3C109.9,242.9,112.7,246.1,111.9,249.3L111.9,249.3z
			"/>
		<path class="st10" d="M109.3,243.7c-3.7,2.1-13.3,3.5-24.6,3.4c-5,0-9.7-0.4-13.7-0.9c-0.2,0.9-0.3,1.8,0,2.7l0,0l41,0.4
			C112.4,247,111.3,244.8,109.3,243.7z"/>
	</g>
</g>
<polygon class="st15" points="668.7,128.3 658.5,454.9 147.7,458.8 136.9,117.5 "/>
<g>
	<polygon class="st16" points="147.7,458.8 135.2,117.5 138.6,117.4 	"/>
</g>
<polygon class="st16" points="544.3,237.5 583.9,237.9 584.2,225.3 544.5,224.8 "/>
<g>
	<path class="st17" d="M584.2,225.3c-3.3,0.3-6.6,0.5-9.9,0.6l-5,0.1l-5,0.1c-3.3,0-6.6,0-9.9-0.1c-1.7,0-3.3-0.1-5-0.1
		c-1.7-0.1-3.3-0.1-5-0.2l0.9-0.8c-0.1,2.1-0.3,4.2-0.4,6.3c-0.2,2.1-0.4,4.2-0.6,6.3c-0.2-2.1-0.3-4.2-0.4-6.3
		c-0.1-2.1-0.2-4.2-0.2-6.3l0-0.8l0.9,0c1.7-0.1,3.3-0.1,5-0.1c1.7,0,3.3,0,5,0c3.3,0,6.6,0.1,9.9,0.1l5,0.2l5,0.3
		C577.6,224.6,580.9,224.9,584.2,225.3z"/>
</g>
<polygon class="st16" points="504.9,218.8 544.9,219.3 545.1,206.6 505.1,206 "/>
<g>
	<path class="st17" d="M545.1,206.6c-3.3,0.3-6.7,0.5-10,0.6l-5,0.1l-5,0.1c-3.3,0-6.7,0-10-0.1c-1.7,0-3.3-0.1-5-0.1
		c-1.7-0.1-3.3-0.1-5-0.2l0.9-0.8c-0.1,2.1-0.2,4.3-0.4,6.4c-0.2,2.1-0.3,4.3-0.6,6.4c-0.2-2.1-0.3-4.3-0.5-6.4
		c-0.1-2.1-0.2-4.3-0.2-6.4l0-0.8l0.9,0c1.7-0.1,3.3-0.1,5-0.1c1.7,0,3.3,0,5,0c3.3,0,6.7,0.1,10,0.2l5,0.2l5,0.3
		C538.4,205.9,541.8,206.2,545.1,206.6z"/>
</g>
<g>
	<polygon class="st16" points="670.3,179.2 632.4,178.6 632.8,163.2 670.8,163.8 	"/>
	<polygon class="st16" points="669.7,225.1 632,224.6 632.4,209.4 670.1,209.9 	"/>
	<polygon class="st16" points="653.2,202 607.5,201.4 607.9,186 653.7,186.7 	"/>
	<g>
		<path class="st17" d="M632.4,178.6c-0.2-2.6-0.3-5.1-0.4-7.7c0-1.3-0.1-2.6-0.1-3.9l0-3.9l0-0.9l1,0c3.2,0,6.3,0,9.5,0
			c3.2,0,6.3,0.1,9.5,0.2c3.2,0.1,6.3,0.3,9.5,0.5c3.2,0.2,6.3,0.5,9.5,0.9c-3.2,0.3-6.3,0.4-9.5,0.5c-3.2,0.1-6.3,0.2-9.5,0.2
			c-3.2,0-6.3,0-9.5-0.1c-3.2-0.1-6.3-0.2-9.5-0.3l1-0.9l-0.3,3.8c-0.1,1.3-0.2,2.6-0.3,3.8C633,173.4,632.7,176,632.4,178.6z"/>
	</g>
	<g>
		<path class="st17" d="M632,224.6c-0.2-2.5-0.3-5.1-0.4-7.6c-0.1-2.5-0.1-5.1-0.1-7.6l0-0.9l1,0c3.1,0,6.3-0.1,9.4,0
			c3.1,0,6.3,0.1,9.4,0.2c3.1,0.1,6.3,0.3,9.4,0.5c3.1,0.2,6.3,0.5,9.4,0.8c-3.2,0.3-6.3,0.5-9.5,0.6c-3.1,0.1-6.3,0.2-9.4,0.2
			c-3.1,0-6.3,0-9.4-0.1c-3.1,0-6.3-0.2-9.4-0.3l1-0.9c-0.2,2.5-0.3,5.1-0.5,7.6C632.5,219.6,632.3,222.1,632,224.6z"/>
	</g>
	<g>
		<path class="st17" d="M607.5,201.4c-0.2-2.6-0.3-5.1-0.4-7.7c-0.1-2.6-0.1-5.1-0.1-7.7l0-0.8l0.9,0c3.8-0.1,7.6-0.1,11.5,0
			c3.8,0,7.6,0.1,11.5,0.2c3.8,0.1,7.6,0.3,11.4,0.5c3.8,0.2,7.6,0.5,11.4,0.9c-3.8,0.3-7.6,0.4-11.5,0.6c-3.8,0.1-7.6,0.1-11.5,0.1
			c-3.8,0-7.6,0-11.5-0.1c-3.8-0.1-7.6-0.2-11.4-0.4l0.9-0.8c-0.1,2.6-0.3,5.1-0.5,7.7C608,196.3,607.8,198.8,607.5,201.4z"/>
	</g>
	<polygon class="st16" points="667.8,282.6 630.4,282.3 630.8,267.3 668.3,267.6 	"/>
	<g>
		<path class="st17" d="M630.4,282.3c-0.4-5-0.5-10-0.5-15l0-0.9l1,0c3.1-0.1,6.3-0.1,9.4-0.1c3.1,0,6.3,0.1,9.4,0.1
			c3.1,0.1,6.3,0.2,9.4,0.4c3.1,0.2,6.2,0.4,9.4,0.8c-3.1,0.3-6.3,0.5-9.4,0.6c-3.1,0.1-6.3,0.2-9.4,0.2c-3.1,0-6.3,0-9.4,0
			c-3.1,0-6.3-0.1-9.4-0.2l0.9-0.9C631.4,272.3,631,277.3,630.4,282.3z"/>
	</g>
	<polygon class="st16" points="666.2,334.5 628.9,334.4 629.3,319.6 666.6,319.7 	"/>
	<g>
		<path class="st17" d="M628.9,334.4c-0.4-5-0.5-9.9-0.5-14.9l0-0.9l0.9,0c3.1-0.1,6.2-0.1,9.3-0.1c3.1,0,6.2,0,9.3,0.1
			c3.1,0.1,6.2,0.2,9.3,0.4c3.1,0.2,6.2,0.4,9.3,0.7c-3.1,0.3-6.2,0.5-9.3,0.7c-3.1,0.1-6.2,0.2-9.3,0.3c-3.1,0-6.2,0.1-9.3,0
			c-3.1,0-6.2-0.1-9.3-0.2l0.9-0.9C630,324.5,629.6,329.5,628.9,334.4z"/>
	</g>
	<polygon class="st16" points="651.7,252.4 606.3,252 606.6,236.8 652.2,237.3 	"/>
	<g>
		<path class="st17" d="M606.3,252c-0.3-5.1-0.5-10.1-0.5-15.2l0-0.8l0.9,0c3.8-0.1,7.6-0.1,11.4-0.1c3.8,0,7.6,0.1,11.4,0.2
			l5.7,0.2l5.7,0.3c3.8,0.2,7.6,0.5,11.4,0.9c-3.8,0.3-7.6,0.5-11.4,0.6l-5.7,0.1l-5.7,0.1c-3.8,0-7.6,0-11.4-0.1
			c-3.8-0.1-7.6-0.2-11.4-0.3l0.9-0.8C607.2,241.9,606.8,246.9,606.3,252z"/>
	</g>
	<polygon class="st16" points="652.3,307 615.8,306.8 616.2,291.9 652.7,292.1 	"/>
	<g>
		<path class="st17" d="M615.8,306.8c-0.2-2.5-0.3-5-0.4-7.5c0-1.2-0.1-2.5-0.1-3.7l0-3.7l0-0.9l1,0c3-0.1,6.1-0.1,9.1-0.1
			c3,0,6.1,0,9.1,0.1c3,0.1,6.1,0.2,9.1,0.4c3,0.2,6.1,0.4,9.1,0.8c-3,0.3-6.1,0.5-9.1,0.6c-3,0.1-6.1,0.2-9.1,0.3
			c-3,0-6.1,0.1-9.1,0c-3,0-6.1-0.1-9.1-0.2l0.9-0.9l-0.2,3.7c-0.1,1.2-0.2,2.5-0.3,3.7C616.4,301.9,616.2,304.3,615.8,306.8z"/>
	</g>
	<polygon class="st16" points="645.5,361.8 609.2,361.8 609.6,347 645.9,347.1 	"/>
	<g>
		<path class="st17" d="M609.2,361.8c-0.2-2.5-0.3-4.9-0.4-7.4c0-1.2-0.1-2.5-0.1-3.7l-0.1-3.7l0-0.9l1,0c3-0.1,6-0.1,9.1-0.1
			c3,0,6,0,9.1,0.1c3,0.1,6,0.2,9.1,0.3c3,0.2,6,0.4,9.1,0.7c-3,0.3-6,0.5-9.1,0.7c-3,0.2-6,0.3-9.1,0.3c-3,0.1-6,0.1-9.1,0.1
			c-3,0-6-0.1-9.1-0.2l0.9-0.9l-0.2,3.7c-0.1,1.2-0.2,2.5-0.3,3.7C609.8,356.8,609.6,359.3,609.2,361.8z"/>
	</g>
</g>
<g>
	<polygon class="st16" points="135.5,170.6 176.7,171.3 176.3,155.2 135,154.5 	"/>
	<polygon class="st16" points="136.2,218.7 177.1,219.1 176.7,203.3 135.7,202.8 	"/>
	<polygon class="st16" points="154.1,195 203.4,195.7 203,179.8 153.6,179.1 	"/>
	<polygon class="st16" points="138.1,278.8 178.7,279.1 178.3,263.5 137.6,263.1 	"/>
	<polygon class="st16" points="139.8,333.1 180.2,333.2 179.8,317.8 139.3,317.6 	"/>
	<polygon class="st16" points="155.7,247.6 204.7,248.1 204.3,232.4 155.2,231.8 	"/>
	<polygon class="st16" points="155,304.5 194.3,304.7 193.9,289.2 154.5,289 	"/>
	<polygon class="st16" points="162.3,361.6 201.3,361.6 201,346.3 161.9,346.3 	"/>
	<g>
		<path class="st17" d="M176.3,155.2c-3.4,0.3-6.9,0.4-10.3,0.5c-3.4,0.1-6.9,0.1-10.3,0.1c-3.4,0-6.9,0-10.3-0.1
			c-3.4-0.1-6.9-0.2-10.3-0.3l0.9-1c0,5.4-0.1,10.7-0.4,16.1c-0.7-5.3-1.1-10.7-1.4-16l-0.1-1l1,0c3.4,0,6.9,0,10.3,0
			c3.4,0,6.9,0.1,10.3,0.2c3.4,0.1,6.9,0.3,10.3,0.5C169.4,154.6,172.8,154.9,176.3,155.2z"/>
	</g>
	<g>
		<path class="st17" d="M176.7,203.3c-3.4,0.3-6.8,0.5-10.3,0.6c-3.4,0.1-6.8,0.2-10.3,0.2c-3.4,0-6.8,0-10.3-0.1
			c-3.4-0.1-6.8-0.2-10.3-0.3l0.9-1c0,5.3-0.1,10.6-0.4,15.9c-0.7-5.3-1.1-10.6-1.4-15.9l-0.1-0.9l1,0c3.4,0,6.8-0.1,10.3,0
			c3.4,0,6.8,0.1,10.3,0.2c3.4,0.1,6.8,0.3,10.3,0.5C169.9,202.7,173.3,202.9,176.7,203.3z"/>
	</g>
	<g>
		<path class="st17" d="M203,179.8c-4.1,0.3-8.2,0.4-12.4,0.5l-6.2,0.1l-6.2,0c-4.1,0-8.2,0-12.4-0.2c-2.1,0-4.1-0.1-6.2-0.2
			c-2.1-0.1-4.1-0.1-6.2-0.2l0.9-0.9c0,2.7,0,5.3-0.1,8c-0.1,2.7-0.1,5.3-0.3,8c-0.3-2.7-0.5-5.3-0.8-8c-0.2-2.7-0.4-5.3-0.6-8
			l0-0.9l0.9,0c2.1,0,4.1-0.1,6.2-0.1c2.1,0,4.1,0,6.2,0c4.1,0,8.2,0.1,12.4,0.2l6.2,0.2l6.2,0.3C194.8,179.2,198.9,179.4,203,179.8
			z"/>
	</g>
	<g>
		<path class="st17" d="M178.3,263.5c-3.4,0.3-6.8,0.5-10.2,0.6c-3.4,0.1-6.8,0.2-10.2,0.2c-3.4,0-6.8,0-10.2,0
			c-3.4,0-6.8-0.1-10.2-0.3l0.9-1c0,5.2-0.1,10.5-0.4,15.7c-0.7-5.2-1.1-10.4-1.4-15.6l-0.1-0.9l1,0c3.4-0.1,6.8-0.1,10.2-0.1
			c3.4,0,6.8,0.1,10.2,0.1c3.4,0.1,6.8,0.2,10.2,0.4C171.5,262.9,174.9,263.1,178.3,263.5z"/>
	</g>
	<g>
		<path class="st17" d="M179.8,317.8c-3.4,0.3-6.7,0.5-10.1,0.7c-3.4,0.1-6.7,0.2-10.1,0.3c-3.4,0-6.7,0.1-10.1,0
			c-3.4,0-6.7-0.1-10.1-0.2l0.9-1c0,5.2-0.1,10.3-0.4,15.5c-0.7-5.1-1.1-10.3-1.4-15.4l-0.1-0.9l1,0c3.4-0.1,6.7-0.1,10.1-0.1
			c3.4,0,6.7,0,10.1,0.1c3.4,0.1,6.7,0.2,10.1,0.4C173.1,317.2,176.4,317.4,179.8,317.8z"/>
	</g>
	<g>
		<path class="st17" d="M204.3,232.4c-4.1,0.3-8.2,0.5-12.3,0.6l-6.1,0.1l-6.1,0.1c-4.1,0-8.2,0-12.3-0.1c-2,0-4.1-0.1-6.1-0.1
			c-2-0.1-4.1-0.1-6.1-0.2l0.9-0.9c0,2.6,0,5.3-0.1,7.9c-0.1,2.6-0.1,5.3-0.3,7.9c-0.3-2.6-0.5-5.2-0.8-7.9
			c-0.2-2.6-0.4-5.2-0.6-7.9l0-0.9l0.9,0c2-0.1,4.1-0.1,6.1-0.1c2,0,4.1,0,6.1,0c4.1,0,8.2,0.1,12.3,0.2l6.1,0.2l6.1,0.3
			C196.1,231.7,200.2,232,204.3,232.4z"/>
	</g>
	<g>
		<path class="st17" d="M193.9,289.2c-3.3,0.3-6.6,0.5-9.9,0.6c-3.3,0.1-6.6,0.2-9.9,0.3c-3.3,0-6.6,0.1-9.9,0
			c-3.3,0-6.6-0.1-9.9-0.2l0.9-1c0,5.2-0.1,10.4-0.5,15.6c-0.7-5.2-1.1-10.3-1.4-15.5l-0.1-0.9l1,0c3.3-0.1,6.6-0.1,9.9-0.1
			c3.3,0,6.6,0.1,9.9,0.1c3.3,0.1,6.6,0.2,9.9,0.4C187.4,288.6,190.7,288.9,193.9,289.2z"/>
	</g>
	<g>
		<path class="st17" d="M201,346.3c-3.3,0.3-6.5,0.5-9.8,0.7c-3.3,0.2-6.5,0.3-9.8,0.3c-3.3,0.1-6.5,0.1-9.8,0.1
			c-3.3,0-6.5-0.1-9.8-0.2l0.9-1c0,5.1-0.1,10.2-0.5,15.3c-0.7-5.1-1.1-10.2-1.4-15.3l-0.1-0.9l1,0c3.3-0.1,6.5-0.1,9.8-0.1
			c3.3,0,6.5,0,9.8,0.1c3.3,0.1,6.5,0.2,9.8,0.3C194.4,345.8,197.7,346,201,346.3z"/>
	</g>
</g>
<g>
	<path class="st18" d="M668.8,390l-2.5,75.7l-529.2,4.5l-2.6-79.1c-0.2-5.5,4.6-10,10.6-10l513.9-0.6c0.6,0,1.2,0.1,1.7,0.1
		c0.8,0.1,1.6,0.4,2.4,0.7C666.6,382.9,668.9,386.2,668.8,390z"/>
	<polygon class="st19" points="150.5,470.1 137.1,470.2 131.4,381.2 145.1,381.1 147.7,381.1 	"/>
	<polygon class="st19" points="166.4,470 153,470.1 150.3,381.1 163.8,381.1 	"/>
	<polygon class="st19" points="182.2,469.9 168.9,470 166.3,381.1 179.8,381.1 	"/>
	<polygon class="st19" points="198,469.7 184.7,469.8 182.3,381.1 195.8,381.1 	"/>
	<polygon class="st19" points="213.8,469.6 200.5,469.7 198.3,381.1 211.7,381.1 	"/>
	<polygon class="st19" points="229.5,469.4 216.3,469.6 214.2,381 227.6,381 	"/>
	<polygon class="st19" points="245.1,469.3 232,469.4 230.1,381 243.4,381 	"/>
	<polygon class="st19" points="260.8,469.2 247.7,469.3 246,381 259.2,381 	"/>
	<polygon class="st19" points="276.4,469 263.3,469.2 261.8,381 275,381 	"/>
	<polygon class="st19" points="291.9,468.9 278.9,469 277.5,381 290.7,381 	"/>
	<polygon class="st19" points="307.4,468.8 294.4,468.9 293.2,381 306.4,380.9 	"/>
	<polygon class="st19" points="322.9,468.7 309.9,468.8 308.9,380.9 322,380.9 	"/>
	<polygon class="st19" points="338.3,468.5 325.4,468.6 324.5,380.9 337.6,380.9 	"/>
	<polygon class="st19" points="353.7,468.4 340.8,468.5 340.1,380.9 353.2,380.9 	"/>
	<polygon class="st19" points="369.1,468.3 356.2,468.4 355.7,380.9 368.7,380.9 	"/>
	<polygon class="st19" points="384.4,468.1 371.5,468.2 371.2,380.9 384.2,380.8 	"/>
	<polygon class="st19" points="399.7,468 386.8,468.1 386.7,380.8 399.6,380.8 	"/>
	<polygon class="st19" points="414.9,467.9 402.1,468 402.1,380.8 415,380.8 	"/>
	<polygon class="st19" points="430.1,467.7 417.3,467.8 417.5,380.8 430.4,380.8 	"/>
	<polygon class="st19" points="445.3,467.6 432.5,467.7 432.9,380.8 445.7,380.8 	"/>
	<polygon class="st19" points="460.4,467.5 447.7,467.6 448.2,380.8 461,380.7 	"/>
	<polygon class="st19" points="475.5,467.4 462.8,467.5 463.4,380.7 476.2,380.7 	"/>
	<polygon class="st19" points="490.5,467.2 477.9,467.3 478.7,380.7 491.4,380.7 	"/>
	<polygon class="st19" points="505.5,467.1 492.9,467.2 493.9,380.7 506.6,380.7 	"/>
	<polygon class="st19" points="520.5,467 507.9,467.1 509,380.7 521.7,380.7 	"/>
	<polygon class="st19" points="535.4,466.8 522.9,466.9 524.2,380.7 536.8,380.6 	"/>
	<polygon class="st19" points="550.3,466.7 537.8,466.8 539.2,380.6 551.9,380.6 	"/>
	<polygon class="st19" points="565.2,466.6 552.7,466.7 554.3,380.6 566.9,380.6 	"/>
	<polygon class="st19" points="580,466.5 567.5,466.6 569.3,380.6 581.8,380.6 	"/>
	<polygon class="st19" points="596.8,380.6 594.7,466.3 582.3,466.4 584.2,380.6 	"/>
	<polygon class="st19" points="611.7,380.6 609.5,466.2 597.1,466.3 599.2,380.6 	"/>
	<polygon class="st19" points="626.5,380.5 624.2,466.1 611.9,466.2 614.1,380.6 	"/>
	<polygon class="st19" points="641.4,380.5 638.9,466 626.6,466.1 628.9,380.5 	"/>
	<polygon class="st19" points="656.1,380.5 653.5,465.8 641.2,465.9 643.7,380.5 	"/>
	<path class="st19" d="M672.9,381.1l-4.8,84.6l-12.2,0.1l2.7-85.3l2.4,0C662.4,380.5,672.9,381.1,672.9,381.1L672.9,381.1z"/>
	<polygon class="st20" points="151.3,382 163.8,382 163.8,381.1 150.3,381.1 153,470.1 154,470.1 	"/>
	<polygon class="st20" points="167.4,382 179.8,382 179.8,381.1 166.3,381.1 168.9,470 169.9,470 	"/>
	<polygon class="st20" points="183.4,382 195.8,382 195.8,381.1 182.3,381.1 184.7,469.8 185.7,469.8 	"/>
	<polygon class="st20" points="199.3,382 211.7,382 211.7,381.1 198.3,381.1 200.5,469.7 201.5,469.7 	"/>
	<polygon class="st20" points="215.2,381.9 227.6,381.9 227.6,381 214.2,381 216.3,469.6 217.3,469.6 	"/>
	<polygon class="st20" points="231.1,381.9 243.4,381.9 243.4,381 230.1,381 232,469.4 233,469.4 	"/>
	<polygon class="st20" points="246.9,381.9 259.2,381.9 259.2,381 246,381 247.7,469.3 248.6,469.3 	"/>
	<polygon class="st20" points="262.7,381.9 275,381.9 275,381 261.8,381 263.3,469.2 264.2,469.2 	"/>
	<polygon class="st20" points="278.5,381.9 290.7,381.9 290.7,381 277.5,381 278.9,469 279.8,469 	"/>
	<polygon class="st20" points="294.2,381.8 306.4,381.8 306.4,380.9 293.2,381 294.4,468.9 295.4,468.9 	"/>
	<polygon class="st20" points="309.9,381.8 322,381.8 322,380.9 308.9,380.9 309.9,468.8 310.9,468.8 	"/>
	<polygon class="st20" points="325.5,381.8 337.6,381.8 337.6,380.9 324.5,380.9 325.4,468.6 326.3,468.6 	"/>
	<polygon class="st20" points="341.1,381.8 353.2,381.8 353.2,380.9 340.1,380.9 340.8,468.5 341.8,468.5 	"/>
	<polygon class="st20" points="356.6,381.8 368.7,381.7 368.7,380.9 355.7,380.9 356.2,468.4 357.1,468.4 	"/>
	<polygon class="st20" points="372.2,381.7 384.2,381.7 384.2,380.8 371.2,380.9 371.5,468.2 372.5,468.2 	"/>
	<polygon class="st20" points="387.6,381.7 399.6,381.7 399.6,380.8 386.7,380.8 386.8,468.1 387.8,468.1 	"/>
	<polygon class="st20" points="403.1,381.7 415,381.7 415,380.8 402.1,380.8 402.1,468 403.1,468 	"/>
	<polygon class="st20" points="418.4,381.7 430.4,381.7 430.4,380.8 417.5,380.8 417.3,467.8 418.3,467.8 	"/>
	<polygon class="st20" points="433.8,381.7 445.7,381.6 445.7,380.8 432.9,380.8 432.5,467.7 433.5,467.7 	"/>
	<polygon class="st20" points="449.1,381.6 461,381.6 461,380.7 448.2,380.8 447.7,467.6 448.6,467.6 	"/>
	<polygon class="st20" points="464.4,381.6 476.2,381.6 476.2,380.7 463.4,380.7 462.8,467.5 463.7,467.5 	"/>
	<polygon class="st20" points="479.6,381.6 491.4,381.6 491.4,380.7 478.7,380.7 477.9,467.3 478.8,467.3 	"/>
	<polygon class="st20" points="494.8,381.6 506.6,381.6 506.6,380.7 493.9,380.7 492.9,467.2 493.8,467.2 	"/>
	<polygon class="st20" points="510,381.6 521.7,381.5 521.7,380.7 509,380.7 507.9,467.1 508.8,467.1 	"/>
	<polygon class="st20" points="525.1,381.5 536.8,381.5 536.8,380.6 524.1,380.7 522.9,466.9 523.8,466.9 	"/>
	<polygon class="st20" points="540.1,381.5 551.8,381.5 551.9,380.6 539.2,380.6 537.8,466.8 538.7,466.8 	"/>
	<polygon class="st20" points="555.2,381.5 566.9,381.5 566.9,380.6 554.3,380.6 552.7,466.7 553.6,466.7 	"/>
	<polygon class="st20" points="570.2,381.5 581.8,381.5 581.8,380.6 569.3,380.6 567.5,466.6 568.4,466.6 	"/>
	<polygon class="st20" points="585.1,381.5 596.8,381.4 596.8,380.6 584.2,380.6 582.3,466.4 583.3,466.4 	"/>
	<polygon class="st20" points="611.7,380.6 611.6,381.4 600.1,381.4 598,466.3 597.1,466.3 599.2,380.6 	"/>
	<polygon class="st20" points="626.5,380.5 626.5,381.4 615,381.4 612.8,466.2 611.9,466.2 614.1,380.6 	"/>
	<polygon class="st20" points="641.4,380.5 641.3,381.4 629.8,381.4 627.5,466.1 626.6,466.1 628.9,380.5 	"/>
	<polygon class="st20" points="656.1,380.5 656.1,381.4 644.6,381.4 642.1,465.9 641.2,465.9 643.7,380.5 	"/>
	<path class="st20" d="M672.8,381.4l-13.4,0l-2.6,84.4l-0.9,0l2.7-85.3l2.4,0C662.4,380.5,671.6,380.8,672.8,381.4z"/>
</g>
<g>
	<path class="st21" d="M137.1,470.2l-3.3-44.5l-3.2-44.5l-0.1-0.8l0.8,0l46.9-0.3l46.9-0.1l46.9-0.1l46.9,0l46.9,0l46.9,0.2
		c31.3,0.1,62.5,0.3,93.8,0.6c-31.3,0.4-62.5,0.7-93.8,0.9l-46.9,0.3L319,382l-46.9,0.1l-46.9,0l-46.9,0l-46.9-0.2l0.7-0.8l2.6,44.5
		L137.1,470.2z"/>
</g>
<g>
	
		<linearGradient id="SVGID_3_" gradientUnits="userSpaceOnUse" x1="661.3601" y1="349.6026" x2="616.8675" y2="349.6026" gradientTransform="matrix(1 3.627119e-03 -3.627152e-03 1 1.0691 -1.4459)">
		<stop  offset="0" style="stop-color:#2C3F49;stop-opacity:0"/>
		<stop  offset="0.999" style="stop-color:#2C3F49;stop-opacity:0.3"/>
	</linearGradient>
	<polygon class="st22" points="672.9,381.1 668.1,465.7 588.3,466.4 583.3,465.2 582.4,464.9 580,464.4 568.5,461.6 567.6,461.4 
		565.3,460.8 553.8,458 552.9,457.8 550.5,457.2 544.6,455.8 538.9,454.4 538,454.1 535.6,453.6 524,450.7 523.1,450.5 520.7,449.9 
		509.1,447.1 508.2,446.9 507.9,448.3 510.6,234.9 627.9,234.3 664.7,256.3 660.8,380.5 660.9,380.5 665,381.4 	"/>
	<polygon class="st19" points="622.2,445.6 508.4,446.3 511.1,233 627.9,234.3 	"/>
	<g>
		<path class="st21" d="M508.6,380.7c-0.1-6.2-0.1-12.3-0.1-18.5c0-6.2,0-12.3,0-18.5l0.1-18.5c0-6.2,0.1-12.3,0.2-18.5l0.5-36.9
			l0.7-36.9l0-1l1,0l29.2,0.4l29.2,0.5c9.7,0.2,19.5,0.4,29.2,0.6l29.2,0.7l-29.2,0.1c-9.7,0-19.5,0-29.2-0.1l-29.2-0.1l-29.2-0.2
			l1-1l-0.5,36.9l-0.8,36.9c-0.1,6.2-0.3,12.3-0.5,18.5l-0.5,18.5c-0.2,6.2-0.4,12.3-0.6,18.5C509.1,368.4,508.9,374.5,508.6,380.7z
			"/>
	</g>
	<polygon class="st23" points="612.6,445.6 518.1,446.3 521,243.3 617.8,244.3 	"/>
	<polygon class="st24" points="612.6,445.6 518.1,446.3 521,243.3 617.8,244.3 	"/>
	<g>
		<polygon class="st25" points="617.8,244.3 613.7,445.7 611.5,445.6 		"/>
	</g>
	<polygon class="st26" points="609.7,433.4 521.2,434 524,245 614.7,245.9 	"/>
	<polygon class="st26" points="609.7,433.4 521.2,434 524,245 614.7,245.9 	"/>
	
		<linearGradient id="SVGID_4_" gradientUnits="userSpaceOnUse" x1="571.7233" y1="341.6813" x2="720.5548" y2="438.6809" gradientTransform="matrix(1 3.627119e-03 -3.627152e-03 1 1.0691 -1.4459)">
		<stop  offset="0" style="stop-color:#FFFFFF;stop-opacity:0"/>
		<stop  offset="0.5519" style="stop-color:#FFFFFF;stop-opacity:0.1656"/>
		<stop  offset="0.999" style="stop-color:#FFFFFF;stop-opacity:0.3"/>
	</linearGradient>
	<polygon class="st27" points="609.7,433.4 521.2,434 524,245 614.7,245.9 	"/>
	
		<linearGradient id="SVGID_5_" gradientUnits="userSpaceOnUse" x1="557.7937" y1="328.2059" x2="472.6414" y2="192.7026" gradientTransform="matrix(1 3.627119e-03 -3.627152e-03 1 1.0691 -1.4459)">
		<stop  offset="0" style="stop-color:#2C3F49;stop-opacity:0"/>
		<stop  offset="0.999" style="stop-color:#2C3F49;stop-opacity:0.3"/>
	</linearGradient>
	<polygon class="st28" points="607.8,435.6 519.3,436.2 522.1,247.2 612.8,248.2 	"/>
	<polygon class="st29" points="602.4,259.8 600.3,350.6 534.6,350.5 535.9,259.1 	"/>
	
		<linearGradient id="SVGID_6_" gradientUnits="userSpaceOnUse" x1="569.1026" y1="307.0078" x2="549.1264" y2="217.6228" gradientTransform="matrix(1 3.627119e-03 -3.627152e-03 1 1.0691 -1.4459)">
		<stop  offset="0" style="stop-color:#2C3F49;stop-opacity:0"/>
		<stop  offset="0.999" style="stop-color:#2C3F49;stop-opacity:0.3"/>
	</linearGradient>
	<polygon class="st30" points="602.4,259.8 600.3,350.6 534.6,350.5 535.9,259.1 	"/>
	
		<linearGradient id="SVGID_7_" gradientUnits="userSpaceOnUse" x1="570.1293" y1="314.409" x2="576.4218" y2="353.7367" gradientTransform="matrix(1 3.627119e-03 -3.627152e-03 1 1.0691 -1.4459)">
		<stop  offset="0" style="stop-color:#FFFFFF;stop-opacity:0"/>
		<stop  offset="0.999" style="stop-color:#FFFFFF;stop-opacity:0.3"/>
	</linearGradient>
	<polygon class="st31" points="602.4,259.8 600.3,350.6 534.6,350.5 535.9,259.1 	"/>
	<polygon class="st32" points="602.4,259.8 602.3,264.3 539.2,264.9 536.5,350.5 534.6,350.5 535.9,259.1 	"/>
	<g>
		<polygon class="st33" points="555.1,259.3 535.6,282.6 535.7,275.6 549.4,259.3 		"/>
		<polygon class="st33" points="563.2,259.4 535.4,292.5 535.5,288.2 559.7,259.4 		"/>
		<polygon class="st33" points="598.6,259.8 534.8,335.5 534.9,325.6 590.4,259.7 		"/>
		<polygon class="st33" points="602.4,263.1 602.2,269.3 534.6,349.6 534.7,343.5 		"/>
		<polygon class="st33" points="601.4,305.3 601.2,312.4 569,350.5 563.3,350.5 		"/>
		<polygon class="st33" points="601.1,318 601,322.3 577.1,350.5 573.6,350.5 		"/>
	</g>
	<polygon class="st34" points="601.4,305.5 601.3,309.7 535.2,309.3 535.2,305.1 	"/>
	<polygon class="st34" points="535.9,259.1 535.9,261.1 602.4,261.8 602.4,259.8 	"/>
	<polygon class="st26" points="569.6,352.5 565.5,352.5 567.2,258.5 571.4,258.6 	"/>
	<polygon class="st26" points="534.9,307.2 534.9,302.9 606.2,303.4 606.1,307.6 	"/>
	<g>
		<polygon class="st35" points="532.1,360.2 531.7,383.5 526.4,383.6 526.7,360.2 		"/>
		<polygon class="st36" points="532,363.5 532,366.9 526.5,375.4 526.6,372.1 		"/>
		<polygon class="st36" points="531.9,372.9 531.8,376.2 527.2,383.5 526.4,383.6 526.4,381.5 		"/>
	</g>
	<polygon class="st24" points="537.4,371.9 592.5,369.6 535.5,369.6 534.8,423.6 	"/>
	
		<linearGradient id="SVGID_8_" gradientUnits="userSpaceOnUse" x1="513.3499" y1="328.8418" x2="612.4783" y2="444.9081" gradientTransform="matrix(1 3.627119e-03 -3.627152e-03 1 1.0691 -1.4459)">
		<stop  offset="0" style="stop-color:#FFFFFF;stop-opacity:0"/>
		<stop  offset="0.999" style="stop-color:#FFFFFF;stop-opacity:0.3"/>
	</linearGradient>
	<polygon class="st37" points="596.6,421.3 541.5,423.6 541.5,423.6 598.4,423.6 599.1,369.6 	"/>
</g>
<g>
	<polygon class="st20" points="668.6,132.5 668.1,156.5 135.3,135.4 134.8,121.8 	"/>
	<polygon class="st16" points="680.4,127.7 679.9,142.8 124.6,132.1 124.1,116.3 	"/>
	
		<linearGradient id="SVGID_9_" gradientUnits="userSpaceOnUse" x1="424.8175" y1="157.6816" x2="373.8128" y2="95.7959" gradientTransform="matrix(1 3.627119e-03 -3.627152e-03 1 1.0691 -1.4459)">
		<stop  offset="0" style="stop-color:#FFFFFF;stop-opacity:0"/>
		<stop  offset="0.999" style="stop-color:#FFFFFF;stop-opacity:0.3"/>
	</linearGradient>
	<polygon class="st38" points="680.4,127.7 679.9,142.8 124.6,132.1 124.1,116.3 	"/>
	<polygon class="st39" points="680.4,127.7 680.3,131.5 124.2,120.3 124.1,116.3 	"/>
	<polygon class="st9" points="577.9,113.1 557.6,113 559.6,40.9 581.6,40.9 	"/>
	<g>
		<polygon class="st11" points="557.6,113 558.6,40.8 560.6,40.9 		"/>
	</g>
	<polygon class="st10" points="577.9,113.1 578.5,50.5 559.4,47.1 581.6,40.9 	"/>
	<polygon class="st16" points="694.2,128 106,116 105,86.1 695.2,99.6 	"/>
	
		<linearGradient id="SVGID_10_" gradientUnits="userSpaceOnUse" x1="424.5389" y1="137.5921" x2="369.0048" y2="70.2107" gradientTransform="matrix(1 3.627119e-03 -3.627152e-03 1 1.0691 -1.4459)">
		<stop  offset="0" style="stop-color:#FFFFFF;stop-opacity:0"/>
		<stop  offset="0.999" style="stop-color:#FFFFFF;stop-opacity:0.3"/>
	</linearGradient>
	<polygon class="st40" points="694.2,128 106,116 105,86.1 695.2,99.6 	"/>
	<g>
		<polygon class="st41" points="104.9,116 103.9,86.1 103.9,85 105,85 695.2,99.6 105,87.1 106.1,86 107.2,115.9 		"/>
	</g>
</g>
<g>
	<path class="st42" d="M474.1,440.2c-0.1,11.7-10.4,21.3-23,21.4c-7.9,0.1-14.8-3.6-18.9-9.2c-5.2,7.7-14.4,12.9-24.9,13
		c-12.7,0.1-23.5-7.2-27.6-17.6c-4.9,8.6-14.7,14.5-26,14.6c-12.8,0.1-23.7-7.3-28-17.8c-4.9,8.7-14.7,14.6-26.1,14.7
		c-12.9,0.1-24-7.3-28.4-17.9c-4.9,8.7-14.8,14.7-26.3,14.8c-9.3,0.1-17.7-3.7-23.3-9.7c-5.3,7-14.2,11.7-24.4,11.8
		c-13.6,0.1-25.4-8-29.6-19.2c-0.6-1.7-1.1-3.5-1.4-5.4c-0.1-1-0.2-1.9-0.2-2.9c-0.2-7.8,3.1-14.9,8.6-19.9c-1.7-2.3-2.7-5-2.8-8
		c-0.2-8.2,6.9-14.9,15.9-14.9c2.1,0,4.1,0.4,5.9,1c4.7-9.4,15-16,27.2-16c10.9,0,20.5,5.2,26,13.1c2.9-3.1,7.2-5.1,12.1-5.2
		c5.4,0,10.2,2.4,13.1,6.2c1.8-0.6,3.7-1,5.6-1c5.6,0,10.6,2.7,13.5,6.8c2.2-2.1,5.3-3.5,8.8-3.5c4.2,0,8,2,10.3,5
		c2.2-2,5.3-3.3,8.6-3.3c4.9,0,9.2,2.6,11.1,6.5c1.9-5.5,7.5-9.6,14.1-9.6c7,0,12.9,4.4,14.5,10.4c1.4-0.7,2.9-1,4.5-1
		c4.6,0,8.5,3,9.5,7c2.8-2.3,6.4-3.7,10.4-3.8c3.2,0,6.2,0.9,8.7,2.4c0.7-11,10.5-19.7,22.5-19.7c11.7,0,21.3,8.3,22.4,18.9l0.1,0
		c7.6,0,13.9,5.1,15.2,11.8c0.8-0.3,1.6-0.5,2.5-0.5c3.3,0,5.9,2.4,5.9,5.5c0,0.6-0.1,1.1-0.3,1.6c5.6,2.1,10.1,6.3,12.4,11.5
		c0.6,1.3,1,2.7,1.3,4.1C474,437.5,474.1,438.9,474.1,440.2z"/>
	
		<linearGradient id="SVGID_11_" gradientUnits="userSpaceOnUse" x1="320.7235" y1="426.7336" x2="322.9449" y2="333.4362" gradientTransform="matrix(1 3.627119e-03 -3.627152e-03 1 1.0691 -1.4459)">
		<stop  offset="0" style="stop-color:#FFFFFF;stop-opacity:0"/>
		<stop  offset="0.999" style="stop-color:#FFFFFF;stop-opacity:0.3"/>
	</linearGradient>
	<path class="st43" d="M474.1,440.2c-0.1,11.7-10.4,21.3-23,21.4c-7.9,0.1-14.8-3.6-18.9-9.2c-5.2,7.7-14.4,12.9-24.9,13
		c-12.7,0.1-23.5-7.2-27.6-17.6c-4.9,8.6-14.7,14.5-26,14.6c-12.8,0.1-23.7-7.3-28-17.8c-4.9,8.7-14.7,14.6-26.1,14.7
		c-12.9,0.1-24-7.3-28.4-17.9c-4.9,8.7-14.8,14.7-26.3,14.8c-9.3,0.1-17.7-3.7-23.3-9.7c-5.3,7-14.2,11.7-24.4,11.8
		c-13.6,0.1-25.4-8-29.6-19.2c-0.6-1.7-1.1-3.5-1.4-5.4c-0.1-1-0.2-1.9-0.2-2.9c-0.2-7.8,3.1-14.9,8.6-19.9c-1.7-2.3-2.7-5-2.8-8
		c-0.2-8.2,6.9-14.9,15.9-14.9c2.1,0,4.1,0.4,5.9,1c4.7-9.4,15-16,27.2-16c10.9,0,20.5,5.2,26,13.1c2.9-3.1,7.2-5.1,12.1-5.2
		c5.4,0,10.2,2.4,13.1,6.2c1.8-0.6,3.7-1,5.6-1c5.6,0,10.6,2.7,13.5,6.8c2.2-2.1,5.3-3.5,8.8-3.5c4.2,0,8,2,10.3,5
		c2.2-2,5.3-3.3,8.6-3.3c4.9,0,9.2,2.6,11.1,6.5c1.9-5.5,7.5-9.6,14.1-9.6c7,0,12.9,4.4,14.5,10.4c1.4-0.7,2.9-1,4.5-1
		c4.6,0,8.5,3,9.5,7c2.8-2.3,6.4-3.7,10.4-3.8c3.2,0,6.2,0.9,8.7,2.4c0.7-11,10.5-19.7,22.5-19.7c11.7,0,21.3,8.3,22.4,18.9l0.1,0
		c7.6,0,13.9,5.1,15.2,11.8c0.8-0.3,1.6-0.5,2.5-0.5c3.3,0,5.9,2.4,5.9,5.5c0,0.6-0.1,1.1-0.3,1.6c5.6,2.1,10.1,6.3,12.4,11.5
		c0.6,1.3,1,2.7,1.3,4.1C474,437.5,474.1,438.9,474.1,440.2z"/>
	
		<linearGradient id="SVGID_12_" gradientUnits="userSpaceOnUse" x1="320.5184" y1="409.9015" x2="320.5184" y2="470.4745" gradientTransform="matrix(1 3.627119e-03 -3.627152e-03 1 1.0691 -1.4459)">
		<stop  offset="0" style="stop-color:#2C3F49;stop-opacity:0"/>
		<stop  offset="0.999" style="stop-color:#2C3F49;stop-opacity:0.3"/>
	</linearGradient>
	<path class="st44" d="M474.1,440.2c-0.1,11.7-10.4,21.3-23,21.4c-7.9,0.1-14.8-3.6-18.9-9.2c-5.2,7.7-14.4,12.9-24.9,13
		c-12.7,0.1-23.5-7.2-27.6-17.6c-4.9,8.6-14.7,14.5-26,14.6c-12.8,0.1-23.7-7.3-28-17.8c-4.9,8.7-14.7,14.6-26.1,14.7
		c-12.9,0.1-24-7.3-28.4-17.9c-4.9,8.7-14.8,14.7-26.3,14.8c-9.3,0.1-17.7-3.7-23.3-9.7c-5.3,7-14.2,11.7-24.4,11.8
		c-13.6,0.1-25.4-8-29.6-19.2c-0.6-1.7-1.1-3.5-1.4-5.4c-0.1-1-0.2-1.9-0.2-2.9c-0.2-7.8,3.1-14.9,8.6-19.9c-1.7-2.3-2.7-5-2.8-8
		c-0.2-8.2,6.9-14.9,15.9-14.9c2.1,0,4.1,0.4,5.9,1c4.7-9.4,15-16,27.2-16c10.9,0,20.5,5.2,26,13.1c2.9-3.1,7.2-5.1,12.1-5.2
		c5.4,0,10.2,2.4,13.1,6.2c1.8-0.6,3.7-1,5.6-1c5.6,0,10.6,2.7,13.5,6.8c2.2-2.1,5.3-3.5,8.8-3.5c4.2,0,8,2,10.3,5
		c2.2-2,5.3-3.3,8.6-3.3c4.9,0,9.2,2.6,11.1,6.5c1.9-5.5,7.5-9.6,14.1-9.6c7,0,12.9,4.4,14.5,10.4c1.4-0.7,2.9-1,4.5-1
		c4.6,0,8.5,3,9.5,7c2.8-2.3,6.4-3.7,10.4-3.8c3.2,0,6.2,0.9,8.7,2.4c0.7-11,10.5-19.7,22.5-19.7c11.7,0,21.3,8.3,22.4,18.9l0.1,0
		c7.6,0,13.9,5.1,15.2,11.8c0.8-0.3,1.6-0.5,2.5-0.5c3.3,0,5.9,2.4,5.9,5.5c0,0.6-0.1,1.1-0.3,1.6c5.6,2.1,10.1,6.3,12.4,11.5
		c0.6,1.3,1,2.7,1.3,4.1C474,437.5,474.1,438.9,474.1,440.2z"/>
	<g>
		<path class="st45" d="M167.6,439.2c-0.9-2.4-1.5-4.9-1.7-7.5c-0.2-2.6,0-5.2,0.6-7.7c0.6-2.5,1.6-5,2.9-7.2c1.3-2.2,3-4.3,4.9-6.1
			l0,0.4c-2-2.6-3.1-6-2.9-9.3c0.1-1.7,0.5-3.3,1.1-4.9c0.7-1.5,1.6-3,2.7-4.2c2.3-2.5,5.4-4.1,8.6-4.9c3.3-0.7,6.7-0.5,9.9,0.6
			l-0.8,0.3c2.4-4.9,6.3-9,10.9-11.8c4.6-2.8,10-4.4,15.4-4.7c5.4-0.3,10.9,0.7,15.8,3c4.9,2.3,9.3,5.8,12.5,10.3l-1.5-0.1
			c3.4-3.7,8.6-5.7,13.6-5.5c5,0.2,10,2.5,13.1,6.5l-1.1-0.3c3.6-1.3,7.5-1.4,11.2-0.3c1.8,0.5,3.6,1.4,5.1,2.4
			c1.6,1.1,2.9,2.4,4.1,4l-1.6-0.1c2.8-2.7,6.8-4.1,10.7-3.8c3.9,0.3,7.6,2.2,10,5.4l-1.6-0.1c1.5-1.4,3.4-2.5,5.4-3.1
			c2-0.6,4.1-0.7,6.2-0.4c2.1,0.3,4,1.1,5.8,2.3c1.7,1.2,3.2,2.8,4.1,4.6l-2,0.2c1.1-3.2,3.4-5.9,6.2-7.7c2.8-1.8,6.2-2.7,9.5-2.6
			c3.3,0.1,6.6,1.2,9.3,3.1c2.7,2,4.8,4.8,5.6,8.1l-1.4-0.6c2.9-1.4,6.3-1.5,9.2-0.3c1.5,0.6,2.8,1.5,3.9,2.7
			c1.1,1.2,1.9,2.6,2.3,4.2l-1.6-0.5c2.8-2.3,6.3-3.7,9.9-3.9c3.6-0.2,7.3,0.6,10.4,2.6l-1.4,0.7c0.4-5.7,3.3-11.1,7.6-14.7
			c4.3-3.7,9.9-5.7,15.4-5.7c5.6-0.1,11.2,1.7,15.5,5.3c4.4,3.5,7.4,8.7,7.9,14.3l-0.6-0.5c1.8,0,3.6,0.3,5.3,0.8
			c1.7,0.6,3.3,1.4,4.8,2.5c2.9,2.2,5,5.4,5.6,9l-0.6-0.3c1.1-0.4,2.3-0.6,3.4-0.5c1.2,0.1,2.3,0.6,3.2,1.3c0.9,0.7,1.6,1.7,2,2.8
			c0.2,0.6,0.3,1.1,0.3,1.7c0,0.6-0.1,1.2-0.3,1.7l-0.2-0.4c2,0.8,3.9,1.9,5.7,3.2c1.7,1.3,3.3,2.9,4.5,4.6c1.3,1.8,2.3,3.7,2.9,5.8
			c0.6,2.1,1,4.2,0.9,6.4c0-2.2-0.4-4.3-1.1-6.3c-0.7-2-1.7-3.9-3-5.6c-1.3-1.7-2.8-3.2-4.5-4.5c-1.7-1.3-3.6-2.3-5.6-3l-0.3-0.1
			l0.1-0.3c0.2-0.5,0.3-1,0.3-1.5c0-0.5-0.1-1-0.3-1.5c-0.3-1-1-1.8-1.8-2.4c-0.8-0.6-1.8-1-2.8-1.1c-1-0.1-2.1,0.1-3,0.5l-0.5,0.2
			l-0.1-0.5c-0.7-3.3-2.7-6.3-5.4-8.3c-2.7-2-6.1-3-9.5-3l-0.5,0l-0.1-0.5c-0.5-5.2-3.4-10.1-7.6-13.3c-4.1-3.3-9.4-4.9-14.7-4.8
			c-5.2,0.1-10.4,2.1-14.3,5.5c-3.9,3.4-6.5,8.3-6.8,13.5l-0.1,1.6l-1.3-0.8c-2.7-1.7-6-2.5-9.2-2.2c-3.2,0.2-6.3,1.4-8.8,3.5
			l-1.2,1l-0.4-1.5c-0.3-1.2-1-2.4-1.8-3.3c-0.9-1-2-1.7-3.2-2.2c-2.4-1-5.3-0.9-7.6,0.3l-1.1,0.5l-0.3-1.2
			c-0.8-2.8-2.5-5.2-4.9-6.9c-2.3-1.7-5.2-2.6-8.1-2.7c-2.9-0.1-5.8,0.7-8.3,2.3c-2.4,1.6-4.4,3.9-5.3,6.6l-0.8,2.4l-1.2-2.2
			c-0.8-1.5-2-2.8-3.5-3.8c-1.5-1-3.1-1.6-4.9-1.9c-1.7-0.3-3.5-0.2-5.2,0.3c-1.7,0.5-3.3,1.4-4.5,2.5l-0.9,0.8l-0.7-1
			c-1.9-2.6-5.1-4.3-8.4-4.5c-3.3-0.3-6.7,0.8-9.1,3.1l-0.9,0.8l-0.7-1c-1-1.3-2.2-2.5-3.5-3.5c-1.4-1-2.9-1.7-4.5-2.2
			c-3.2-1-6.7-0.9-9.9,0.2l-0.7,0.2l-0.4-0.6c-2.8-3.5-7.1-5.6-11.6-5.8c-4.5-0.2-9,1.5-12.1,4.8l-0.8,0.9l-0.7-1
			c-3-4.2-7.1-7.5-11.7-9.7c-4.6-2.2-9.8-3.2-15-3c-5.1,0.2-10.3,1.6-14.7,4.3c-4.4,2.6-8.2,6.5-10.5,11.1l-0.3,0.5l-0.5-0.2
			c-2.9-1.1-6.2-1.3-9.2-0.6c-1.5,0.3-3,0.9-4.4,1.6c-1.4,0.7-2.7,1.7-3.7,2.8c-1.1,1.1-2,2.4-2.6,3.9c-0.6,1.4-1,3-1.1,4.5
			c-0.2,3.1,0.8,6.3,2.6,8.9l0.2,0.2l-0.2,0.2c-1.9,1.7-3.6,3.7-4.9,5.8c-1.4,2.2-2.4,4.5-3,7c-0.6,2.5-1,5-0.8,7.6
			C166.2,434.2,166.7,436.7,167.6,439.2z"/>
	</g>
	<path class="st46" d="M474.1,440.2c-0.1,11.7-10.4,21.3-23,21.4c-7.9,0.1-14.8-3.6-18.9-9.2c-5.2,7.7-14.4,12.9-24.9,13
		c-12.7,0.1-23.5-7.2-27.6-17.6c-4.9,8.6-14.7,14.5-26,14.6c-12.8,0.1-23.7-7.3-28-17.8c-4.9,8.7-14.7,14.6-26.1,14.7
		c-12.9,0.1-24-7.3-28.4-17.9c-4.9,8.7-14.8,14.7-26.3,14.8c-9.3,0.1-17.7-3.7-23.3-9.7c-5.3,7-14.2,11.7-24.4,11.8
		c-13.6,0.1-25.4-8-29.6-19.2c1.5-0.8,3.3-1.3,5.1-1.3l299.5-1.8c0.5,0,1,0,1.5,0.1C474,437.5,474.1,438.9,474.1,440.2z"/>
	<polygon class="st16" points="482,440.2 162.3,442.2 163.3,473.7 481.8,470.9 482,449.7 	"/>
	
		<linearGradient id="SVGID_13_" gradientUnits="userSpaceOnUse" x1="335.2258" y1="462.3932" x2="306.7094" y2="427.7933" gradientTransform="matrix(1 3.627119e-03 -3.627152e-03 1 1.0691 -1.4459)">
		<stop  offset="0" style="stop-color:#FFFFFF;stop-opacity:0"/>
		<stop  offset="0.999" style="stop-color:#FFFFFF;stop-opacity:0.3"/>
	</linearGradient>
	<polygon class="st47" points="482,440.2 162.3,442.2 162.2,453.6 482,447.5 482,449.7 	"/>
	<polygon class="st48" points="482,447.5 162.2,453.6 163.3,473.7 481.8,470.9 482,449.7 	"/>
	<g>
		<polygon class="st17" points="482,440.2 162.3,443.2 163.3,442.2 164.4,473.7 162.2,473.7 161.3,442.2 161.2,441.2 162.3,441.2 		
			"/>
	</g>
	<g>
		<polygon class="st17" points="482,447.5 162.2,452.5 162.2,450.2 		"/>
	</g>
	<g class="st49">
		<polygon class="st20" points="482,448.6 162.2,453.6 481.9,446.4 		"/>
	</g>
	<polygon class="st39" points="482,440.2 481.8,470.9 163.3,473.7 477.9,467.3 	"/>
</g>
<g>
	<polygon class="st18" points="478.6,364.6 174,361.1 168.2,195.2 477.8,199.6 	"/>
	<polygon class="st19" points="478.6,362.4 174,358.9 168.1,193 477.9,197.4 	"/>
	<polygon class="st29" points="466.7,207.5 465.6,350.2 184,349.9 180.1,203.7 	"/>
	
		<linearGradient id="SVGID_14_" gradientUnits="userSpaceOnUse" x1="328.8764" y1="313.3367" x2="321.842" y2="245.9552" gradientTransform="matrix(1 3.627119e-03 -3.627152e-03 1 1.0691 -1.4459)">
		<stop  offset="0" style="stop-color:#2C3F49;stop-opacity:0"/>
		<stop  offset="0.999" style="stop-color:#2C3F49;stop-opacity:0.3"/>
	</linearGradient>
	<polygon class="st50" points="466.7,207.5 465.6,350.2 184,349.9 180.1,203.7 	"/>
	
		<linearGradient id="SVGID_15_" gradientUnits="userSpaceOnUse" x1="328.0406" y1="296.1672" x2="339.8879" y2="370.2127" gradientTransform="matrix(1 3.627119e-03 -3.627152e-03 1 1.0691 -1.4459)">
		<stop  offset="0" style="stop-color:#FFFFFF;stop-opacity:0"/>
		<stop  offset="0.999" style="stop-color:#FFFFFF;stop-opacity:0.3"/>
	</linearGradient>
	<polygon class="st51" points="466.7,207.5 465.6,350.2 184,349.9 180.1,203.7 	"/>
	<polygon class="st32" points="466.7,207.5 186.3,210.4 190.4,349.9 184,349.9 180.1,203.7 	"/>
	<polygon class="st33" points="276.2,205 181.7,262.5 181.1,240.3 239.9,204.5 	"/>
	<polygon class="st33" points="466.7,207.5 466.7,208.4 234.7,349.9 194.4,349.9 428.7,207 	"/>
	<polygon class="st33" points="466.6,214.9 466.5,227.1 265.1,350 245.3,349.9 	"/>
	<polygon class="st33" points="417.3,206.9 184,349.1 183.8,341.9 405.5,206.7 	"/>
	<polygon class="st33" points="309.8,205.4 182.2,283.1 182,272.8 293,205.2 	"/>
	<polygon class="st33" points="330.3,205.7 182.6,295.7 182.4,290 321,205.6 	"/>
	<polygon class="st33" points="180.1,203.7 180.2,207.7 466.6,211.4 466.7,207.5 	"/>
</g>
<polygon class="st16" points="628,439.3 627.7,446.7 502.7,447.6 502.8,440.1 508.5,434.5 622.5,433.9 "/>
<polygon class="st16" points="634,450.8 633.8,459 496,460.1 496.1,451.8 502.4,445.7 628.1,444.9 "/>
<polygon class="st16" points="640.3,463 640.1,471.9 489,473.3 489.1,464.2 496.1,457.5 633.8,456.5 "/>
<polygon class="st39" points="628,439.3 627.7,446.7 502.7,447.6 502.8,440.1 508.5,434.5 622.5,433.9 "/>
<polygon class="st39" points="634,450.8 633.8,459 496,460.1 496.1,451.8 502.4,445.7 628.1,444.9 "/>
<polygon class="st39" points="640.3,463 640.1,471.9 489,473.3 489.1,464.2 496.1,457.5 633.8,456.5 "/>
<polygon class="st16" points="628,439.3 502.8,440.1 508.5,434.5 622.5,433.9 "/>
<polygon class="st16" points="634,450.8 496.1,451.8 502.4,445.7 628.1,444.9 "/>
<polygon class="st16" points="640.3,463 489.1,464.2 496.1,457.5 633.8,456.5 "/>
<linearGradient id="SVGID_16_" gradientUnits="userSpaceOnUse" x1="570.64" y1="444.8477" x2="559.7802" y2="431.6712" gradientTransform="matrix(1 3.627119e-03 -3.627152e-03 1 1.0691 -1.4459)">
	<stop  offset="0" style="stop-color:#FFFFFF;stop-opacity:0"/>
	<stop  offset="0.999" style="stop-color:#FFFFFF;stop-opacity:0.3"/>
</linearGradient>
<polygon class="st52" points="628,439.3 502.8,440.1 508.5,434.5 622.5,433.9 "/>
<linearGradient id="SVGID_17_" gradientUnits="userSpaceOnUse" x1="570.858" y1="457.0543" x2="558.9025" y2="442.5483" gradientTransform="matrix(1 3.627119e-03 -3.627152e-03 1 1.0691 -1.4459)">
	<stop  offset="0" style="stop-color:#FFFFFF;stop-opacity:0"/>
	<stop  offset="0.999" style="stop-color:#FFFFFF;stop-opacity:0.3"/>
</linearGradient>
<polygon class="st53" points="634,450.8 496.1,451.8 502.4,445.7 628.1,444.9 "/>
<linearGradient id="SVGID_18_" gradientUnits="userSpaceOnUse" x1="571.0702" y1="469.9247" x2="557.9861" y2="454.0495" gradientTransform="matrix(1 3.627119e-03 -3.627152e-03 1 1.0691 -1.4459)">
	<stop  offset="0" style="stop-color:#FFFFFF;stop-opacity:0"/>
	<stop  offset="0.999" style="stop-color:#FFFFFF;stop-opacity:0.3"/>
</linearGradient>
<polygon class="st54" points="640.3,463 489.1,464.2 496.1,457.5 633.8,456.5 "/>
<path class="st55" d="M477.7,184l-23.5-0.4l-23.3-0.4l-23.3-0.4l-23.4-0.4l-23.5-0.4l-23.7-0.4l-23.8-0.4l-23.8-0.4l-23.9-0.4
	l-23.9-0.4l-24.1-0.4l-24.3-0.4l-24.2-0.4l-4.7,51.8l3.8,20.5c1.4,7.7,7.9,13.9,14.3,14l2.9,0c6,0,10-5.3,9.4-12.2
	c1.9,6.9,7.9,12.3,13.9,12.4l2.9,0c6,0,9.9-5.3,9.4-12.1c1.9,6.9,7.8,12.3,13.8,12.3l2.9,0c6,0,9.9-5.2,9.4-12.1
	c1.9,6.9,7.7,12.3,13.7,12.3l2.9,0c5.9,0,9.9-5.2,9.4-12.1c1.8,6.9,7.7,12.2,13.6,12.3l2.9,0c5.9,0,9.9-5.2,9.4-12.1
	c1.8,6.9,7.6,12.2,13.5,12.3l2.9,0c5.9,0,9.8-5.2,9.3-12c1.8,6.8,7.5,12.2,13.4,12.2l2.9,0c5.9,0,9.8-5.2,9.3-12
	c1.8,6.8,7.4,12.1,13.3,12.2l2.9,0c5.8,0,9.8-5.2,9.3-12c1.7,6.8,7.4,12.1,13.2,12.2l2.8,0c5.8,0,9.8-5.2,9.3-12
	c1.7,6.8,7.3,12.1,13.1,12.1l2.8,0c5.8,0,9.7-5.2,9.3-11.9c1.7,6.8,7.2,12.1,13,12.1l2.8,0c5.8,0,9.7-5.2,9.3-11.9
	c1.7,6.8,7.2,12,12.9,12.1l2.8,0c5.7,0,9.7-5.1,9.3-11.9c1.6,6.7,7.1,12,12.8,12.1l2.8,0c6.1,0.1,10.3-5.9,9.2-13.4l-2.9-19.9l0.1,0
	L477.7,184z"/>
<g>
	<polygon class="st26" points="490.6,224.1 155.9,220 169.1,179.3 477.3,184 	"/>
	<g>
		<path class="st24" d="M171.4,247.3l-3,0c-6.5-0.1-11.9-5-12.1-11.1l-0.5-16.2l26.6,0.3l0.4,16.1
			C183,242.5,177.9,247.4,171.4,247.3z"/>
		<path class="st56" d="M197.7,247.6l-2.9,0c-6.5-0.1-11.9-5-12-11.1l-0.4-16.1l26.4,0.3l0.4,16.1
			C209.2,242.8,204.1,247.6,197.7,247.6z"/>
		<path class="st24" d="M223.8,247.8l-2.9,0c-6.4-0.1-11.8-5-11.9-11l-0.4-16.1l26.3,0.3l0.3,16
			C235.3,243.1,230.2,247.9,223.8,247.8z"/>
		<path class="st56" d="M249.8,248.1l-2.9,0c-6.4-0.1-11.7-5-11.8-11l-0.3-16l26.2,0.3l0.3,16C261.3,243.3,256.2,248.1,249.8,248.1z
			"/>
		<path class="st24" d="M275.7,248.3l-2.9,0c-6.4-0.1-11.7-5-11.8-11l-0.3-16l26.1,0.3l0.2,16C287.2,243.6,282.1,248.4,275.7,248.3z
			"/>
		<path class="st56" d="M301.5,248.6l-2.9,0c-6.4-0.1-11.6-5-11.7-11l-0.2-16l26,0.3l0.2,15.9C313,243.8,307.9,248.6,301.5,248.6z"
			/>
		<path class="st24" d="M327.2,248.8l-2.9,0c-6.3-0.1-11.5-5-11.6-10.9l-0.2-15.9l25.9,0.3l0.1,15.9
			C338.6,244.1,333.5,248.9,327.2,248.8z"/>
		<path class="st56" d="M352.8,249.1l-2.9,0c-6.3-0.1-11.5-4.9-11.5-10.9l-0.1-15.9l25.8,0.3l0.1,15.9
			C364.2,244.4,359.1,249.1,352.8,249.1z"/>
		<path class="st24" d="M378.3,249.3l-2.9,0c-6.3-0.1-11.4-4.9-11.4-10.9l-0.1-15.9l25.7,0.3l0,15.8
			C389.6,244.6,384.5,249.4,378.3,249.3z"/>
		<path class="st56" d="M403.6,249.6l-2.8,0c-6.3-0.1-11.3-4.9-11.3-10.9l0-15.8l25.6,0.3l0,15.8
			C414.9,244.9,409.9,249.6,403.6,249.6z"/>
		<path class="st24" d="M428.9,249.8l-2.8,0c-6.2-0.1-11.3-4.9-11.3-10.8l0-15.8l25.4,0.3l-0.1,15.8
			C440.1,245.1,435.1,249.9,428.9,249.8z"/>
		<path class="st56" d="M454,250.1l-2.8,0c-6.2-0.1-11.2-4.9-11.2-10.8l0.1-15.8l25.3,0.3l-0.1,15.7
			C465.3,245.4,460.2,250.1,454,250.1z"/>
		<path class="st24" d="M479.1,250.3l-2.8,0c-6.2-0.1-11.1-4.9-11.1-10.8l0.1-15.7l25.2,0.3l-0.2,15.7
			C490.3,245.6,485.2,250.4,479.1,250.3z"/>
	</g>
	<polygon class="st57" points="465.2,223.8 182.2,220.4 193.3,179.7 453.8,183.7 	"/>
	<polygon class="st26" points="440,223.5 208.6,220.7 217.5,180.1 430.6,183.3 	"/>
	<polygon class="st57" points="414.8,223.1 234.8,221 241.6,180.4 407.4,183 	"/>
	<polygon class="st26" points="389.4,222.8 260.7,221.3 265.5,180.8 384,182.6 	"/>
	<polygon class="st57" points="364,222.5 286.7,221.6 289.4,181.2 360.5,182.3 	"/>
	<polygon class="st26" points="338.3,222.2 312.5,221.9 313.1,181.5 336.9,181.9 	"/>
</g>
<linearGradient id="SVGID_19_" gradientUnits="userSpaceOnUse" x1="321.5401" y1="208.0461" x2="315.6164" y2="148.8097" gradientTransform="matrix(1 3.627119e-03 -3.627152e-03 1 1.0691 -1.4459)">
	<stop  offset="0" style="stop-color:#FFFFFF;stop-opacity:0"/>
	<stop  offset="0.999" style="stop-color:#FFFFFF;stop-opacity:0.3"/>
</linearGradient>
<polygon class="st58" points="490.6,224.1 155.9,220 169.1,179.3 477.3,184 "/>
<g>
	<path class="st59" d="M570.5,303.3c2.5-0.3,5-0.5,7.5-0.7c2.5-0.2,5-0.4,7.5-0.6c2.5-0.1,5-0.3,7.5-0.4c2.5-0.1,5-0.3,7.5-0.4
		l-0.9,0.9c0.3-7.1,0.6-14.1,1.1-21.2c0.2-3.5,0.5-7.1,0.8-10.6c0.3-3.5,0.6-7,1-10.6c0.1,3.5,0.1,7.1,0.1,10.6
		c0,3.5-0.1,7.1-0.2,10.6c-0.2,7.1-0.5,14.1-0.9,21.2l0,0.9l-0.9,0c-2.5,0.1-5,0.1-7.5,0.2c-2.5,0.1-5,0.1-7.5,0.1c-2.5,0-5,0-7.5,0
		C575.5,303.4,573,303.4,570.5,303.3z"/>
</g>
<g>
	<path class="st59" d="M569.6,350.6c2.5-0.3,5-0.5,7.4-0.7c2.5-0.2,5-0.4,7.4-0.6c5-0.3,9.9-0.6,14.9-0.8l-0.9,0.9
		c0.1-3.5,0.3-7,0.5-10.5c0.2-3.5,0.4-7,0.6-10.5c0.2-3.5,0.5-7,0.8-10.5c0.3-3.5,0.6-7,1-10.5c0.1,3.5,0,7,0,10.5
		c0,3.5-0.1,7-0.2,10.5c-0.1,3.5-0.2,7-0.4,10.5c-0.1,3.5-0.3,7-0.5,10.5l0,0.9l-0.9,0c-5,0.2-9.9,0.3-14.9,0.3c-2.5,0-5,0-7.5,0
		C574.6,350.7,572.1,350.7,569.6,350.6z"/>
</g>
<g>
	<path class="st59" d="M534.6,350.5c2.5-0.3,5-0.4,7.5-0.7c2.5-0.2,5-0.4,7.5-0.5c2.5-0.1,5-0.3,7.5-0.4c2.5-0.1,5-0.3,7.5-0.3
		l-0.9,0.9c0.2-7,0.6-14,1-21.1c0.2-3.5,0.5-7,0.7-10.5c0.3-3.5,0.6-7,1-10.5c0.1,3.5,0.1,7,0.1,10.6c0,3.5-0.1,7-0.1,10.5
		c-0.2,7-0.4,14-0.8,21.1l0,0.9l-0.9,0c-2.5,0.1-5,0.1-7.5,0.2c-2.5,0.1-5,0.1-7.5,0.1c-2.5,0-5,0-7.5,0
		C539.6,350.6,537.1,350.6,534.6,350.5z"/>
</g>
<g>
	<path class="st59" d="M535.2,303c2.5-0.3,5-0.4,7.5-0.6c2.5-0.2,5-0.3,7.6-0.5c5-0.3,10.1-0.5,15.1-0.6l-0.9,0.9
		c0-3.6,0.1-7.3,0.2-10.9c0.1-3.6,0.2-7.3,0.3-10.9c0.2-3.6,0.3-7.3,0.5-10.9c0.2-3.6,0.4-7.3,0.7-10.9c0.2,3.6,0.2,7.3,0.3,10.9
		c0.1,3.6,0.1,7.3,0.1,10.9c0,3.6,0,7.3-0.1,10.9c0,3.6-0.1,7.3-0.2,10.9l0,0.9l-0.9,0c-5,0.1-10.1,0.1-15.1,0.1c-2.5,0-5,0-7.6-0.1
		C540.3,303.1,537.7,303.1,535.2,303z"/>
</g>
<g>
	<path class="st59" d="M184,349.1c11.7-0.3,23.4-0.4,35.1-0.6c11.7-0.2,23.4-0.3,35.1-0.4l35.1-0.3l35.1-0.2c23.4,0,46.7-0.1,70.1,0
		l35.1,0.1c11.7,0,23.4,0.2,35.1,0.3l-1.2,1.2l0.6-20.3c0.2-6.8,0.4-13.5,0.7-20.3l0.8-20.3c0.2-6.8,0.5-13.5,0.8-20.3
		c0,6.8,0,13.5,0,20.3l-0.1,20.3c0,6.8-0.1,13.5-0.2,20.3l-0.2,20.3l0,1.2l-1.2,0c-11.7,0.1-23.4,0.3-35.1,0.3l-35.1,0.1
		c-23.4,0.1-46.7,0-70.1,0l-35.1-0.2l-35.1-0.3c-11.7-0.1-23.4-0.2-35.1-0.4C207.4,349.6,195.7,349.4,184,349.1z"/>
</g>
<g>
	<polygon class="st57" points="169.1,178.2 477.3,184 169.1,180.4 	"/>
</g>
<g>
	<polygon class="st57" points="170.2,179.7 156.2,220.1 156.2,220 156.4,236.2 155.6,220.1 155.6,220 155.6,220 168,179 	"/>
</g>
<g class="st5">
	<polygon class="st57" points="155.9,218.9 352.1,222.4 155.9,221.2 	"/>
</g>
<g>
	<path class="st11" d="M69.9,249.2c-0.6-1.9,0-4.2,1.4-5.6c0.7-0.7,1.5-1.2,2.5-1.6c0.9-0.3,1.9-0.4,2.8-0.3l9.9,0.4l19.9,0.8
		l-19.9,0.4l-10,0.2c-0.8,0-1.5,0.1-2.1,0.4c-0.6,0.3-1.2,0.7-1.6,1.2c-0.9,1-1.1,2.4-0.7,3.6L69.9,249.2z"/>
</g>
<g>
	<path class="st9" d="M711.9,481.7L680,482c0.1-3,2.9-5.4,6.3-5.6l0.3-7.3c0.1-2,1.9-3.6,4.1-3.9l0.7-15.7c0.1-1.5,1.5-2.7,3.2-2.7
		l0.4,0l7-155.3l5.2,0l-7.1,155.3l0.4,0c1.7,0,3.1,1.2,3,2.7l-0.7,15.6c2.2,0.2,3.8,1.8,3.7,3.8l-0.3,7.3
		C709.5,476.3,712,478.7,711.9,481.7z"/>
	<g>
		<polygon class="st10" points="707.2,291.5 701.2,446.8 699,446.7 		"/>
	</g>
	<g>
		<path class="st10" d="M700.5,446.7c0.8-0.1,1.8,0.1,2.5,0.7c0.4,0.3,0.7,0.7,0.8,1.2c0.1,0.2,0.1,0.5,0.1,0.7l0,0.7
			c0,1.7,0.1,3.4,0.1,5.1c0,1.7,0,3.4-0.1,5c0,1.7-0.1,3.4-0.2,5l-1-1.1c1.3,0.1,2.6,0.7,3.6,1.8c0.5,0.5,0.8,1.2,1,1.9
			c0.1,0.4,0.1,0.7,0.1,1.1c0,0.4,0,0.6-0.1,0.9c-0.2,2.2-0.3,4.4-0.6,6.6l-0.7-0.8c1.6,0.2,3.2,0.8,4.3,2c0.6,0.6,1,1.3,1.2,2
			c0.3,0.7,0.3,1.5,0.2,2.3c-0.1-1.5-0.9-2.8-2-3.6c-0.5-0.4-1.2-0.7-1.8-0.9c-0.6-0.2-1.3-0.3-2-0.3l-0.7,0l0-0.8
			c0-2.2,0-4.4,0.1-6.6c0-0.3,0-0.6,0-0.8c0-0.2,0-0.4-0.1-0.6c-0.1-0.4-0.3-0.7-0.5-1c-0.5-0.6-1.3-0.9-2.2-1.1l-1-0.1l0.1-1
			c0.1-1.7,0.2-3.4,0.3-5c0.1-1.7,0.2-3.4,0.4-5c0.1-1.7,0.3-3.4,0.5-5c0.1-0.4,0.1-0.8,0.1-1.1c-0.1-0.3-0.2-0.7-0.4-1
			C702.1,447.2,701.3,446.8,700.5,446.7z"/>
	</g>
	<path class="st10" d="M711.9,481.7L680,482c0.1-3,2.9-5.4,6.3-5.6l0.3-7.3c0-1.1,0.6-2.1,1.6-2.9c5,6.8,12.1,10.3,17.2,8.1
		c0.3-0.1,0.7-0.3,1-0.5l-0.1,2.4C709.5,476.3,712,478.7,711.9,481.7z"/>
	<g>
		<path class="st11" d="M680,482c-0.1-1.6,0.6-3.2,1.8-4.3c1.2-1.2,2.8-1.9,4.5-2.1l-0.7,0.7c0-2.2,0-4.5,0.1-6.7c0-0.5,0-1.3,0.3-2
			c0.2-0.7,0.6-1.3,1.1-1.8c1-1,2.3-1.6,3.6-1.7l-0.9,1c0.1-1.8,0.2-3.7,0.3-5.5c0.1-1.8,0.3-3.7,0.5-5.5c0.1-0.9,0.2-1.8,0.3-2.8
			l0.2-1.4c0-0.2,0-0.5,0.1-0.8c0.1-0.3,0.2-0.5,0.3-0.7c0.6-0.9,1.3-1.5,2.1-2c0.8-0.5,1.7-0.9,2.6-0.9c-0.9,0.1-1.7,0.7-2.4,1.3
			c-0.7,0.6-1.3,1.3-1.7,2c-0.1,0.2-0.2,0.4-0.2,0.5c0,0.1,0,0.4,0,0.6l0,1.4c0,0.9,0,1.9,0,2.8c0,1.9,0,3.7,0,5.6
			c0,1.9-0.1,3.7-0.2,5.5l0,0.9l-0.9,0.1c-0.9,0.1-1.7,0.5-2.3,1.1c-0.3,0.3-0.5,0.6-0.7,1c-0.1,0.4-0.2,0.7-0.2,1.3
			c-0.2,2.2-0.3,4.5-0.5,6.7l-0.1,0.7l-0.6,0c-1.4,0-2.8,0.4-4,1.3C681.2,479.2,680.2,480.4,680,482z"/>
	</g>
	<g>
		<polygon class="st11" points="693.9,446.7 702,291.4 696.1,446.8 		"/>
	</g>
	<polygon class="st10" points="707.2,291.5 707.1,293.9 701.9,293.9 702,291.4 	"/>
	<path class="st9" d="M709.5,292.9l-9.9-0.1c-3,0-5.3-2.2-5.2-4.8l0,0l20.6,0.1l0,0C715,290.8,712.5,292.9,709.5,292.9z"/>
	<g>
		<path class="st10" d="M716.2,288.2c-0.1,1.3-0.7,2.6-1.6,3.5c-0.9,0.9-2,1.5-3.2,1.8c-0.6,0.1-1.2,0.2-1.8,0.2l-1.6-0.1l-3.2-0.2
			l-3.2-0.2l-1.6-0.1c-0.5,0-1.1-0.1-1.7-0.3c-1.1-0.3-2.1-1-2.8-1.8c-0.7-0.9-1-2-0.9-3.1c0,1.1,0.4,2.1,1.1,2.9
			c0.7,0.8,1.7,1.3,2.7,1.5c0.5,0.1,1,0.1,1.5,0.1l1.6-0.1l3.2-0.1l3.2-0.1l1.6-0.1c0.5,0,0.9-0.1,1.4-0.2c1.8-0.5,3.2-2.2,3.1-3.8
			L716.2,288.2z"/>
	</g>
	<path class="st12" d="M722.3,274.9c-0.1,5.3-2.8,10.3-7,13.1l-0.2,0.1l-20.6-0.1c-4.4-2.6-7.1-7.8-6.8-13.4c0-0.3,0-0.7,0.1-1
		l1.7-16.4l0.5-5.3l32.9,0.3l-0.1,5.2L722.3,274.9z"/>
	<g>
		<path class="st13" d="M724,255.3l-1.1,17.5c-0.1,1.4-0.1,2.9-0.4,4.4c-0.3,1.5-0.7,2.9-1.4,4.2c-1.3,2.7-3.3,5-5.8,6.5
			c2.4-1.7,4.2-4.1,5.3-6.8c0.5-1.3,0.9-2.7,1.1-4.1c0.2-1.4,0.1-2.8,0.1-4.3l0.1-17.5L724,255.3z"/>
	</g>
	<path class="st13" d="M722.1,276.6c-0.6,4.7-3.1,8.9-6.8,11.4l-0.2,0.1l-20.6-0.1c-3.8-2.2-6.3-6.5-6.8-11.2c4.2,4.3,10.1,7,16.7,7
		C711.2,283.9,717.5,281.1,722.1,276.6z"/>
	<path class="st9" d="M723,255.3l-33.4-0.3l3.2-9.2c1.5-4.4,7.3-7.5,13.9-7.5l0,0l0.8,0c6.5,0.1,12,3.3,13.2,7.7L723,255.3z"/>
	<path class="st10" d="M720.6,246.1c-0.4-1.6-1.4-3-2.7-4.2c-1,3.4-7.2,6-14.6,5.9c-4.1,0-7.8-0.9-10.4-2.3c0,0.1-0.1,0.2-0.1,0.3
		l-3.2,9.2l33.4,0.3L720.6,246.1z"/>
	<g>
		<path class="st11" d="M688.5,254.6l1.9-5.1l1-2.5l0.5-1.3c0.2-0.4,0.4-0.9,0.6-1.3c1-1.8,2.5-3.1,4.1-4.1c1.6-1,3.4-1.6,5.3-2
			c1.8-0.4,3.7-0.5,5.5-0.4c1.9,0.1,3.7,0.4,5.4,1c1.8,0.6,3.4,1.5,4.8,2.6c1.4,1.2,2.5,2.8,2.9,4.5c-0.5-1.8-1.7-3.2-3.1-4.3
			c-1.4-1.1-3.1-1.9-4.8-2.3c-1.7-0.5-3.5-0.7-5.3-0.7c-1.8,0-3.6,0.2-5.3,0.6c-1.7,0.4-3.3,1.1-4.8,2.1c-1.4,1-2.7,2.2-3.4,3.7
			c-0.2,0.4-0.3,0.7-0.5,1.1l-0.4,1.3l-0.8,2.6l-1.7,5.2L688.5,254.6z"/>
	</g>
	<polygon class="st13" points="722.7,257.5 689.4,257.2 690,251.9 722.8,252.3 	"/>
	<g>
		<path class="st14" d="M694.4,288c-2.6-1.4-4.7-3.8-5.9-6.5c-1.2-2.7-1.6-5.9-1.3-8.9l1.2-17.7l2.1,0.2l-2.2,17.6
			c-0.5,2.9-0.3,5.8,0.7,8.5C690.1,284,691.9,286.4,694.4,288z"/>
	</g>
	<path class="st9" d="M726.4,255.4l-40.3-0.4l0,0c-0.7-3.1,2-6.1,5.6-6l29.8,0.3C725,249.3,727.4,252.3,726.4,255.4L726.4,255.4z"/>
	<path class="st10" d="M724.3,250.1c-3.8,2-13.4,3.4-24.6,3.3c-4.9,0-9.5-0.4-13.5-0.9c-0.3,0.8-0.4,1.7-0.2,2.6l0,0l40.3,0.4
		C727.1,253.3,726.1,251.2,724.3,250.1z"/>
</g>
<g>
	<path class="st11" d="M685,255.3c-0.2-1-0.1-2.1,0.2-3c0.3-0.9,0.9-1.8,1.6-2.4c1.4-1.3,3.4-1.8,5.2-1.7l9.8,0.4l19.6,0.7
		l-19.6,0.3l-9.8,0.2c-1.5,0-2.9,0.5-3.8,1.5c-1,1-1.4,2.3-1,3.5L685,255.3z"/>
</g>
<g>
	<polygon class="st3" points="30.4,507.8 34.8,532.3 28.2,508.3 	"/>
</g>
<polygon class="st9" points="584,48.4 557.2,47.1 557.4,29.2 584.9,30.1 "/>
<g>
	<path class="st11" d="M557.2,47.1c-0.2-3-0.4-6-0.5-9c-0.1-3-0.2-6-0.2-9l0-0.8l0.9,0c2.3,0,4.6,0.1,6.9,0.1
		c2.3,0.1,4.6,0.2,6.9,0.3c2.3,0.1,4.6,0.3,6.9,0.5c2.3,0.2,4.6,0.5,6.9,0.8c-2.3,0.2-4.6,0.3-6.9,0.4c-2.3,0.1-4.6,0.1-6.9,0.1
		c-2.3,0-4.6-0.1-6.9-0.1c-2.3-0.1-4.6-0.2-6.9-0.3l0.9-0.8c-0.1,3-0.2,6-0.4,9C557.7,41.1,557.5,44.1,557.2,47.1z"/>
</g>
<polygon class="st10" points="557.2,47.1 584,48.4 584.9,30.1 582.4,45.4 "/>
<g>
	<path class="st45" d="M262.5,418.6c1.8,0.7,3.9,0.4,5.4-0.7c1.5-1.1,2.4-2.8,2.4-4.6c0-1.8-0.9-3.5-2.3-4.4c-1.4-1-3.2-1.2-4.8-0.6
		l-0.8,0.3l-0.3-0.8c-1.1-3.3-3.4-6.1-6.2-8c-2.9-1.9-6.3-2.8-9.7-2.6c-3.4,0.2-6.7,1.6-9.3,3.9c-2.6,2.3-4.4,5.4-5,8.7l-0.2,0.8
		l-0.8,0c-2.3-0.1-4.7,0.7-6.4,2.3c-1.7,1.6-2.9,3.9-3,6.3c-0.1,2.4,0.7,4.9,2.4,6.7c1.7,1.9,4.1,3,6.7,3.2
		c-2.6,0.2-5.3-0.8-7.2-2.7c-2-1.8-3.2-4.5-3.2-7.3c-0.1-2.7,1.1-5.5,3.1-7.5c2-2,4.8-3.1,7.6-3l-1,0.8c0.6-3.8,2.6-7.4,5.5-10
		c2.9-2.6,6.7-4.2,10.6-4.4c3.9-0.3,7.9,0.8,11,3.1c3.2,2.2,5.6,5.5,6.7,9.2l-1.1-0.5c2.1-0.7,4.5-0.3,6.2,1.1
		c1.7,1.3,2.7,3.5,2.5,5.6c-0.1,2.1-1.4,4-3.1,5.1C266.5,419.4,264.2,419.5,262.5,418.6z"/>
</g>
<g>
	<path class="st45" d="M407.6,419.5c-1.6,0.8-3.7,0.7-5.3-0.2c-1.6-0.9-2.7-2.7-2.9-4.7c-0.1-1.9,0.8-3.9,2.4-5.1
		c1.6-1.2,3.8-1.6,5.7-0.9l-1,0.5c1-3.4,3.3-6.4,6.2-8.5c2.9-2.1,6.6-3,10.2-2.8c3.6,0.2,7.1,1.7,9.7,4.2c2.7,2.4,4.5,5.7,5,9.3
		l-0.9-0.7c2.6-0.1,5.2,1,7,2.9c1.8,1.8,2.9,4.4,2.8,6.9c0,2.5-1.2,5-3,6.7c-1.8,1.7-4.3,2.6-6.7,2.4c2.4-0.1,4.6-1.2,6.2-2.9
		c1.6-1.7,2.3-4,2.3-6.2c-0.1-2.2-1.1-4.4-2.7-5.8c-1.6-1.5-3.8-2.3-5.9-2.2l-0.8,0l-0.1-0.8c-0.6-3.1-2.3-6-4.6-8.1
		c-2.3-2.1-5.4-3.4-8.5-3.6c-3.2-0.3-6.4,0.6-9,2.3c-2.7,1.7-4.7,4.4-5.8,7.4l-0.3,0.8l-0.7-0.3c-1.4-0.6-3.1-0.4-4.4,0.5
		c-1.3,0.9-2.2,2.4-2.2,4.1c0,1.6,0.8,3.3,2.2,4.3C404,419.8,405.9,420.1,407.6,419.5z"/>
</g>
<g>
	<path class="st45" d="M328.7,433.4c2.6-0.2,5-1.6,6.4-3.6c1.4-2,1.9-4.6,1.3-6.9c-0.6-2.3-2.3-4.2-4.4-5.2c-2.1-1-4.6-0.9-6.7,0.1
		l-1.7,0.9l0.2-2c0.1-1.5-0.4-3-1.3-4.1c-1-1.1-2.4-1.8-3.9-1.8c-1.5-0.1-3,0.5-4.1,1.6c-1.1,1.1-1.7,2.5-1.7,4.1l0,1.6l-1.3-0.9
		c-0.9-0.6-2-0.8-3.1-0.5c-1.1,0.3-1.9,1.2-2.3,2.3c-0.4,1.1-0.3,2.4,0.4,3.4c0.7,1,1.8,1.8,3.1,1.9c-1.3,0.1-2.7-0.4-3.6-1.5
		c-0.9-1.1-1.3-2.6-0.9-4c0.3-1.4,1.4-2.7,2.8-3.3c1.4-0.6,3.1-0.5,4.4,0.4l-1.3,0.7c-0.2-2,0.6-4.1,2-5.5c1.4-1.5,3.4-2.4,5.5-2.3
		c2.1,0,4.1,1,5.5,2.5c1.4,1.5,2.1,3.7,1.9,5.7l-1.6-1.1c2.6-1.3,5.9-1.3,8.5,0c1.3,0.6,2.5,1.6,3.4,2.7c0.9,1.2,1.5,2.5,1.8,3.9
		c0.6,2.8-0.2,5.8-2.1,7.9C334.2,432.6,331.4,433.7,328.7,433.4z"/>
</g>
<g>
	<path class="st45" d="M382.6,420.7c-0.3-1.3-0.8-2.4-1.5-3.3c-0.8-0.9-1.7-1.5-2.7-1.9c-1-0.3-2.1-0.4-3.2-0.2
		c-1,0.2-2,0.7-2.8,1.4l-2.2,2l0.3-2.8c0.1-0.8-0.2-1.6-0.7-2.2c-0.5-0.6-1.3-1.1-2.2-1.2c-0.9-0.1-1.8,0.1-2.6,0.7
		c-0.8,0.6-1.4,1.5-1.6,2.6c-0.2-1.1,0.1-2.4,0.9-3.3c0.8-0.9,2-1.6,3.4-1.6c1.3-0.1,2.7,0.5,3.6,1.5c1,1,1.5,2.4,1.4,3.7l-1.9-0.9
		c1-1.1,2.4-1.7,3.9-2c1.5-0.2,3,0,4.3,0.6c0.6,0.3,1.2,0.8,1.7,1.2c0.5,0.5,0.9,1.1,1.2,1.7C382.6,418,382.9,419.4,382.6,420.7z"/>
</g>
<g>
	<path class="st45" d="M185.5,413.4c-0.1-1-0.1-2.1,0.1-3.1c0.2-1,0.6-2.1,1.2-3c0.6-0.9,1.2-1.8,2.1-2.6c0.8-0.7,1.8-1.3,2.8-1.8
		c2-0.9,4.4-1.3,6.6-0.8c2.2,0.4,4.4,1.5,6,3.1l-1.9,0.8c-0.1-2.1,0.6-4.2,2.1-5.6c1.4-1.5,3.4-2.3,5.5-2.3c2,0,3.9,0.9,5.2,2.4
		c1.3,1.4,1.9,3.4,1.6,5.2c-0.2-1.8-1.1-3.4-2.4-4.4c-1.3-1.1-2.9-1.5-4.5-1.4c-1.6,0.1-3,0.9-4,2c-1,1.1-1.5,2.6-1.4,4.1l0.3,2.9
		l-2.1-2c-1.3-1.3-3-2.2-4.8-2.6c-0.9-0.2-1.8-0.2-2.8-0.2c-0.9,0.1-1.8,0.3-2.7,0.6c-1.8,0.7-3.4,1.8-4.6,3.4
		c-0.6,0.8-1.1,1.6-1.5,2.6C185.9,411.4,185.7,412.4,185.5,413.4z"/>
</g>
<g>
	<path class="st17" d="M508.5,434.5c-1.7,2.1-3.5,4.1-5.3,6l0.2-0.4c0,1.9-0.1,3.8-0.1,5.6l0,0.3l-0.3,0.3l-3.1,3.1l-3.1,3.1
		l0.3-0.8c0,1.9,0,3.8,0,5.7l0,0.5l-0.3,0.3c-1.2,1.1-2.4,2.2-3.6,3.3c-1.2,1.1-2.4,2.1-3.6,3.2l0.2-0.5c-0.2,3-0.4,6-0.8,9
		c-0.3-3-0.5-6-0.6-9.1l0-0.3l0.2-0.3c1.1-1.2,2.2-2.3,3.3-3.5c1.1-1.1,2.2-2.3,3.4-3.4l-0.3,0.8c0-1.9-0.1-3.8,0-5.7l0-0.5l0.3-0.3
		l3.2-3l3.3-3l-0.3,0.6c0.2-1.9,0.4-3.7,0.6-5.6l0-0.3l0.2-0.1C504.3,437.9,506.4,436.2,508.5,434.5z"/>
</g>
<g>
	<polygon class="st17" points="502.8,439 628,439.3 502.8,441.2 	"/>
</g>
<g>
	<polygon class="st17" points="495.9,450.7 621.1,451 495.9,452.9 	"/>
</g>
<g>
	<polygon class="st17" points="489,462.9 614.2,463.3 489,465.1 	"/>
</g>
<g>
	<path class="st21" d="M624,380.7c4.1-0.2,8.2-0.2,12.2-0.3c4.1-0.1,8.2-0.2,12.2-0.2c8.1-0.1,16.3-0.2,24.4-0.2l1.1,0l-0.1,1.1
		l-1.1,21.2c-0.4,7.1-0.8,14.1-1.3,21.2c-0.5,7-1,14.1-1.5,21.1c-0.3,3.5-0.6,7-0.9,10.6c-0.3,3.5-0.6,7-1,10.6
		c0-3.5,0.1-7.1,0.2-10.6c0.1-3.5,0.2-7.1,0.3-10.6c0.2-7.1,0.5-14.1,0.9-21.2c0.3-7.1,0.7-14.1,1.1-21.2l1.3-21.2l1,1.1
		c-8.1-0.1-16.3-0.3-24.4-0.5c-4.1-0.1-8.1-0.2-12.2-0.4C632.1,381.1,628,381,624,380.7z"/>
</g>
<circle class="st14" cx="91.4" cy="263.6" r="5.4"/>
<circle class="st14" cx="706.2" cy="269.2" r="5.4"/>
<linearGradient id="SVGID_20_" gradientUnits="userSpaceOnUse" x1="399.9565" y1="505.7736" x2="401.0672" y2="538.3536" gradientTransform="matrix(1 3.627119e-03 -3.627152e-03 1 1.0691 -1.4459)">
	<stop  offset="0" style="stop-color:#2C3F49;stop-opacity:0"/>
	<stop  offset="0.999" style="stop-color:#2C3F49;stop-opacity:0.3"/>
</linearGradient>
<polygon class="st60" points="768.4,521.7 35.3,532.3 29.9,508.1 768.5,503 "/>
</svg>
