<svg width="13" height="15" viewBox="0 0 13 15" fill="none" xmlns="http://www.w3.org/2000/svg">
<path d="M8.64577 9.09659C8.56016 9.06859 8.019 8.82466 8.35716 7.79674H8.35231C9.23377 6.8889 9.90739 5.42805 9.90739 3.98982C9.90739 1.77836 8.43685 0.619049 6.72777 0.619049C5.01762 0.619049 3.55516 1.77782 3.55516 3.98982C3.55516 5.43397 4.225 6.90074 5.11185 7.80643C5.45754 8.7132 4.83939 9.04974 4.71016 9.09713C2.92031 9.74436 0.820312 10.9241 0.820312 12.0888V12.5255C0.820312 14.1124 3.89708 14.4731 6.74447 14.4731C9.59616 14.4731 12.6342 14.1124 12.6342 12.5255V12.0888C12.6342 10.8891 10.5239 9.71851 8.64577 9.09659Z" fill="#838383"/>
</svg>
