<svg width="17" height="21" viewBox="0 0 17 21" fill="none" xmlns="http://www.w3.org/2000/svg">
<path d="M10.5765 8.02443C10.5765 8.02443 11.5277 2.42913 7.64623 0C7.5884 0.961382 7.32842 1.89975 6.88326 2.75382C6.4381 3.60788 5.81777 4.35844 5.0628 4.95645C3.40513 6.41393 0.287421 9.69103 0.320575 13.1849C0.308665 14.6785 0.714368 16.1456 1.49191 17.4209C2.26946 18.6961 3.3879 19.7287 4.72107 20.4022C4.7687 19.7278 4.95045 19.0697 5.25568 18.4665C5.56091 17.8632 5.98347 17.327 6.49861 16.8892C6.93512 16.5535 7.30042 16.1342 7.5732 15.6559C7.84599 15.1775 8.02079 14.6496 8.08743 14.103C9.22859 14.7097 10.1928 15.6021 10.8856 16.6931C11.5785 17.784 11.9764 19.0361 12.0403 20.3269V20.3435C13.2987 19.7671 14.373 18.8539 15.1445 17.7048C15.9159 16.5557 16.3544 15.2155 16.4115 13.8327C16.6869 10.5505 14.889 6.0875 13.2938 4.62874C12.6916 5.97331 11.7563 7.14204 10.5765 8.02443V8.02443Z" fill="#DB1580"/>
</svg>
