<svg width="111" height="76" viewBox="0 0 111 76" fill="none" xmlns="http://www.w3.org/2000/svg">
<path d="M0.023499 12.1119V16.0382H6.42605L2.83648 19.3103L6.01419 73.3245L5.81409 73.9789H9.34484L10.1099 72.906L6.93219 19.0742L10.4159 15.9417H12.8168L13.0169 12.9594C12.8168 12.5196 12.5697 12.2407 12.299 12.1227H0L0.023499 12.1119Z" fill="url(#paint0_linear_988_10961)"/>
<path d="M15.9004 12.1119V15.9417H21.585V27.7959H25.5278V12.9487C25.3277 12.5089 25.0806 12.2299 24.8099 12.1119H15.9004Z" fill="url(#paint1_linear_988_10961)"/>
<path d="M76.1133 12.1119V15.9417H81.7979V73.9789H85.7414V12.9487C85.54 12.5089 85.2933 12.2299 85.0233 12.1119H76.1133Z" fill="url(#paint2_linear_988_10961)"/>
<path d="M87.6465 12.1119V15.9417H102.758V73.9789H106.76V15.9417H110.09V12.9594C110.02 12.5196 109.785 12.2407 109.372 12.1227H87.6582L87.6465 12.1119Z" fill="url(#paint3_linear_988_10961)"/>
<path d="M72.0399 12.1117H62.9299V11.9508C62.9299 7.68113 61.8586 4.62372 59.729 2.77854C57.5987 0.922647 54.9858 6.10352e-05 51.9141 6.10352e-05H51.6552C48.5128 6.10352e-05 45.9705 1.07284 44.0286 3.21839C42.0984 5.35321 41.1216 8.31406 41.1098 12.101H32.9418C31.6355 12.101 30.5762 13.3318 30.5762 13.9326V63.09C30.5762 67.3596 32.6711 70.417 36.8611 72.2622C41.0509 74.1181 46.1706 75.0407 52.2083 75.0407H52.7144C58.8816 75.0407 63.8829 73.9679 67.7082 71.8223C71.5334 69.6768 73.4395 66.6838 73.4395 62.8539V13.9326C73.5251 12.8608 72.5697 12.2297 72.0282 12.1117H72.0399ZM45.0525 11.7684C45.0525 11.0175 45.1702 10.1807 45.3821 9.24739C45.6057 8.31406 45.9705 7.45584 46.4884 6.65127C47.0063 5.85741 47.7006 5.19228 48.5951 4.64518C49.4778 4.09806 50.5606 3.82987 51.8199 3.82987C53.1851 3.82987 54.3151 4.06588 55.1977 4.54862C56.0804 5.03137 56.7983 5.63213 57.3515 6.37235C57.9046 7.10183 58.2813 7.90641 58.5049 8.77536C58.7285 9.64431 58.9639 10.5133 58.9639 11.3178C58.9639 11.3178 59.011 11.9079 58.9639 12.101C58.0694 15.5339 52.173 23.7264 52.173 23.7264C52.173 23.7264 45.9705 15.5553 45.0643 12.101C45.0407 12.0151 45.0643 11.7577 45.0643 11.7577L45.0525 11.7684ZM69.5792 63.283C69.5792 64.034 69.2975 64.8708 68.7444 65.804C68.1796 66.7374 67.2616 67.5956 65.9554 68.3895C64.6608 69.1833 62.8948 69.8485 60.647 70.3956C58.3989 70.9426 55.6802 71.2108 52.4907 71.2108C49.0423 71.2108 46.1824 70.9642 43.9462 70.4921C41.6982 70.0094 39.8858 69.3978 38.5087 68.6683C37.1317 67.9389 36.1549 67.1343 35.6017 66.2653C35.0368 65.3964 34.7543 64.5596 34.7543 63.7443V16.0274H41.9336L50.0309 27.7849C50.0309 27.7849 51.0314 28.9368 52.173 28.9368C53.3146 28.9368 54.1385 27.7849 54.1385 27.7849L61.9768 16.0274H69.5792V63.283Z" fill="url(#paint4_linear_988_10961)"/>
<path d="M52.0212 14.1501C53.4771 14.1501 54.6574 13.0742 54.6574 11.747C54.6574 10.4199 53.4771 9.34399 52.0212 9.34399C50.565 9.34399 49.3848 10.4199 49.3848 11.747C49.3848 13.0742 50.565 14.1501 52.0212 14.1501Z" fill="url(#paint5_linear_988_10961)"/>
<defs>
<linearGradient id="paint0_linear_988_10961" x1="89.3878" y1="-14.7396" x2="-2.03721" y2="60.3308" gradientUnits="userSpaceOnUse">
<stop stop-color="#F5A41A"/>
<stop offset="0.49" stop-color="#DB1580"/>
<stop offset="1" stop-color="#56BFCF"/>
</linearGradient>
<linearGradient id="paint1_linear_988_10961" x1="82.9982" y1="-22.5279" x2="-8.42922" y2="52.5315" gradientUnits="userSpaceOnUse">
<stop stop-color="#F5A41A"/>
<stop offset="0.49" stop-color="#DB1580"/>
<stop offset="1" stop-color="#56BFCF"/>
</linearGradient>
<linearGradient id="paint2_linear_988_10961" x1="116.765" y1="18.6022" x2="25.3379" y2="93.6618" gradientUnits="userSpaceOnUse">
<stop stop-color="#F5A41A"/>
<stop offset="0.49" stop-color="#DB1580"/>
<stop offset="1" stop-color="#56BFCF"/>
</linearGradient>
<linearGradient id="paint3_linear_988_10961" x1="122.601" y1="25.7147" x2="31.1745" y2="100.774" gradientUnits="userSpaceOnUse">
<stop stop-color="#F5A41A"/>
<stop offset="0.49" stop-color="#DB1580"/>
<stop offset="1" stop-color="#56BFCF"/>
</linearGradient>
<linearGradient id="paint4_linear_988_10961" x1="104.793" y1="4.02296" x2="13.3671" y2="79.0824" gradientUnits="userSpaceOnUse">
<stop stop-color="#F5A41A"/>
<stop offset="0.49" stop-color="#DB1580"/>
<stop offset="1" stop-color="#56BFCF"/>
</linearGradient>
<linearGradient id="paint5_linear_988_10961" x1="86.9173" y1="-16.5742" x2="6.67339" y2="61.8186" gradientUnits="userSpaceOnUse">
<stop stop-color="#F5A41A"/>
<stop offset="0.49" stop-color="#DB1580"/>
<stop offset="1" stop-color="#56BFCF"/>
</linearGradient>
</defs>
</svg>
