<svg width="121" height="82" viewBox="0 0 121 82" fill="none" xmlns="http://www.w3.org/2000/svg">
<path d="M0.0256784 13.2352V17.5256H7.02201L3.09954 21.1011L6.57195 80.1247L6.35329 80.8398H10.2115L11.0475 79.6674L7.57509 20.8432L11.3819 17.4201H14.0054L14.2241 14.1613C14.0054 13.6807 13.7354 13.3759 13.4396 13.2469H0L0.0256784 13.2352Z" fill="url(#paint0_linear_988_10719)"/>
<path d="M17.375 13.2352V17.4201H23.5868V30.3737H27.8953V14.1496C27.6766 13.6689 27.4066 13.3641 27.1108 13.2352H17.375Z" fill="url(#paint1_linear_988_10719)"/>
<path d="M83.1719 13.2352V17.4201H89.3837V80.8398H93.6929V14.1496C93.4728 13.6689 93.2033 13.3641 92.9083 13.2352H83.1719Z" fill="url(#paint2_linear_988_10719)"/>
<path d="M95.7754 13.2352V17.4201H112.288V80.8398H116.661V17.4201H120.301V14.1613C120.224 13.6807 119.967 13.3759 119.516 13.2469H95.7881L95.7754 13.2352Z" fill="url(#paint3_linear_988_10719)"/>
<path d="M78.7193 13.2349H68.7644V13.059C68.7644 8.39342 67.5938 5.05246 65.2666 3.03616C62.9388 1.00815 60.0836 0 56.727 0H56.444C53.0102 0 50.2322 1.17227 48.1101 3.5168C46.001 5.84961 44.9336 9.08505 44.9206 13.2231H35.9952C34.5677 13.2231 33.4102 14.5682 33.4102 15.2246V68.9409C33.4102 73.6065 35.6994 76.9474 40.2779 78.9638C44.8564 80.9918 50.4508 82 57.0485 82H57.6016C64.3406 82 69.8058 80.8276 73.9858 78.4831C78.1658 76.1387 80.2487 72.868 80.2487 68.683V15.2246C80.3422 14.0535 79.2982 13.3638 78.7065 13.2349H78.7193ZM49.2291 12.8597C49.2291 12.0392 49.3576 11.1248 49.5892 10.1049C49.8335 9.08505 50.2322 8.14724 50.798 7.26804C51.364 6.40056 52.1227 5.67376 53.1002 5.07591C54.0647 4.47805 55.2479 4.18499 56.6241 4.18499C58.1159 4.18499 59.3506 4.44289 60.3152 4.9704C61.2797 5.49792 62.0642 6.1544 62.6686 6.96326C63.2731 7.7604 63.6847 8.63959 63.929 9.58913C64.1733 10.5387 64.4306 11.4882 64.4306 12.3674C64.4306 12.3674 64.4821 13.0121 64.4306 13.2231C63.4531 16.9744 57.0099 25.9267 57.0099 25.9267C57.0099 25.9267 50.2322 16.9978 49.242 13.2231C49.2161 13.1294 49.242 12.848 49.242 12.848L49.2291 12.8597ZM76.0304 69.1519C76.0304 69.9725 75.7226 70.8869 75.1182 71.9067C74.501 72.9266 73.4978 73.8644 72.0704 74.7319C70.6558 75.5994 68.7261 76.3263 66.2697 76.9241C63.8132 77.5219 60.8424 77.8149 57.3571 77.8149C53.5888 77.8149 50.4638 77.5454 48.0202 77.0295C45.5637 76.5021 43.5832 75.8338 42.0783 75.0366C40.5736 74.2396 39.5062 73.3603 38.9018 72.4108C38.2844 71.4613 37.9758 70.5469 37.9758 69.656V17.5137H45.8209L54.6692 30.3616C54.6692 30.3616 55.7624 31.6204 57.0099 31.6204C58.2573 31.6204 59.1576 30.3616 59.1576 30.3616L67.7229 17.5137H76.0304V69.1519Z" fill="url(#paint4_linear_988_10719)"/>
<path d="M56.8457 15.4622C58.4367 15.4622 59.7265 14.2865 59.7265 12.8363C59.7265 11.3861 58.4367 10.2104 56.8457 10.2104C55.2546 10.2104 53.9648 11.3861 53.9648 12.8363C53.9648 14.2865 55.2546 15.4622 56.8457 15.4622Z" fill="url(#paint5_linear_988_10719)"/>
<defs>
<linearGradient id="paint0_linear_988_10719" x1="97.6777" y1="-16.1066" x2="-2.22614" y2="65.926" gradientUnits="userSpaceOnUse">
<stop stop-color="#F5A41A"/>
<stop offset="0.49" stop-color="#DB1580"/>
<stop offset="1" stop-color="#56BFCF"/>
</linearGradient>
<linearGradient id="paint1_linear_988_10719" x1="90.6956" y1="-24.6172" x2="-9.21097" y2="57.4033" gradientUnits="userSpaceOnUse">
<stop stop-color="#F5A41A"/>
<stop offset="0.49" stop-color="#DB1580"/>
<stop offset="1" stop-color="#56BFCF"/>
</linearGradient>
<linearGradient id="paint2_linear_988_10719" x1="127.594" y1="20.3273" x2="27.6875" y2="102.348" gradientUnits="userSpaceOnUse">
<stop stop-color="#F5A41A"/>
<stop offset="0.49" stop-color="#DB1580"/>
<stop offset="1" stop-color="#56BFCF"/>
</linearGradient>
<linearGradient id="paint3_linear_988_10719" x1="133.971" y1="28.0995" x2="34.0662" y2="110.12" gradientUnits="userSpaceOnUse">
<stop stop-color="#F5A41A"/>
<stop offset="0.49" stop-color="#DB1580"/>
<stop offset="1" stop-color="#56BFCF"/>
</linearGradient>
<linearGradient id="paint4_linear_988_10719" x1="114.51" y1="4.39599" x2="14.6051" y2="86.4166" gradientUnits="userSpaceOnUse">
<stop stop-color="#F5A41A"/>
<stop offset="0.49" stop-color="#DB1580"/>
<stop offset="1" stop-color="#56BFCF"/>
</linearGradient>
<linearGradient id="paint5_linear_988_10719" x1="94.9782" y1="-18.1115" x2="7.29237" y2="67.5515" gradientUnits="userSpaceOnUse">
<stop stop-color="#F5A41A"/>
<stop offset="0.49" stop-color="#DB1580"/>
<stop offset="1" stop-color="#56BFCF"/>
</linearGradient>
</defs>
</svg>
