<svg width="20" height="20" viewBox="0 0 20 20" fill="none" xmlns="http://www.w3.org/2000/svg">
<path d="M19.1667 4.16723H17.1708C17.3717 3.77022 17.484 3.33436 17.5 2.88973C17.4711 2.10369 17.1346 1.36045 16.5631 0.820066C15.9915 0.279683 15.2306 -0.0146118 14.4442 0.000558698C13.5074 0.0409044 12.5993 0.334856 11.8165 0.851037C11.0338 1.36722 10.406 2.08625 10 2.93139C9.59834 2.08862 8.97528 1.37079 8.19738 0.854585C7.41947 0.338381 6.51595 0.0431945 5.58333 0.000558698C5.55167 0.000558698 5.52 0.000558698 5.48833 0.000558698C4.71316 0.00180009 3.96867 0.303542 3.41137 0.842345C2.85408 1.38115 2.52739 2.11504 2.5 2.88973V2.94473C2.51626 3.37018 2.62398 3.78714 2.81583 4.16723H0.833333C0.61232 4.16723 0.400358 4.25502 0.244078 4.4113C0.0877974 4.56758 0 4.77955 0 5.00056L0 7.50056C0 7.72157 0.0877974 7.93353 0.244078 8.08982C0.400358 8.2461 0.61232 8.33389 0.833333 8.33389H19.1667C19.3877 8.33389 19.5996 8.2461 19.7559 8.08982C19.9122 7.93353 20 7.72157 20 7.50056V5.00056C20 4.77955 19.9122 4.56758 19.7559 4.4113C19.5996 4.25502 19.3877 4.16723 19.1667 4.16723ZM14.47 1.66723C14.8104 1.6584 15.1412 1.78011 15.3947 2.00742C15.6482 2.23473 15.8051 2.55041 15.8333 2.88973C15.8215 3.23083 15.6784 3.55417 15.4338 3.79223C15.1892 4.03028 14.8621 4.16464 14.5208 4.16723H11.2317C11.75 3.11806 12.7808 1.66723 14.47 1.66723ZM4.16667 2.91723C4.188 2.57622 4.33943 2.25641 4.58971 2.02381C4.83999 1.79121 5.17001 1.66357 5.51167 1.66723C7.23583 1.67389 8.24583 3.10973 8.77 4.16723H5.52C5.17783 4.1698 4.84751 4.04202 4.59614 3.80985C4.34478 3.57768 4.19122 3.25853 4.16667 2.91723Z" fill="#DB1580"/>
<path d="M11.668 10.0005V20.0005H15.8346C16.4977 20.0005 17.1336 19.7371 17.6024 19.2683C18.0712 18.7994 18.3346 18.1635 18.3346 17.5005V10.0005H11.668Z" fill="#DB1580"/>
<path d="M8.33464 10.0005H1.66797V17.5005C1.66797 18.1635 1.93136 18.7994 2.4002 19.2683C2.86904 19.7371 3.50493 20.0005 4.16797 20.0005H8.33464V10.0005Z" fill="#DB1580"/>
</svg>
