<svg width="44" height="31" viewBox="0 0 44 31" fill="none" xmlns="http://www.w3.org/2000/svg">
<path d="M0.00939191 4.97556V6.54479H2.56831L1.13366 7.85253L2.4037 29.4405L2.32373 29.702H3.73487L4.04064 29.2733L2.7706 7.75819L4.16296 6.5062H5.12251L5.20248 5.31427C5.12251 5.13848 5.02376 5.02701 4.91555 4.97984H0L0.00939191 4.97556Z" fill="url(#paint0_linear_2007_7404)"/>
<path d="M6.35498 4.97556V6.5062H8.62697V11.244H10.2028V5.30998C10.1228 5.13419 10.0241 5.02272 9.91585 4.97556H6.35498Z" fill="url(#paint1_linear_2007_7404)"/>
<path d="M30.4202 4.97556V6.5062H32.6922V29.702H34.2683V5.30998C34.1878 5.13419 34.0892 5.02272 33.9813 4.97556H30.4202Z" fill="url(#paint2_linear_2007_7404)"/>
<path d="M35.03 4.97556V6.5062H41.0696V29.702H42.6691V6.5062H44.0002V5.31427C43.9722 5.13848 43.8783 5.02701 43.7132 4.97984H35.0347L35.03 4.97556Z" fill="url(#paint3_linear_2007_7404)"/>
<path d="M28.7921 4.97545H25.1511V4.91113C25.1511 3.20468 24.7229 1.98271 23.8718 1.24525C23.0204 0.503498 21.9761 0.134766 20.7484 0.134766H20.6449C19.389 0.134766 18.3729 0.563524 17.5968 1.42104C16.8253 2.27427 16.4349 3.45764 16.4302 4.97116H13.1657C12.6436 4.97116 12.2202 5.4631 12.2202 5.7032V25.35C12.2202 27.0565 13.0575 28.2784 14.7321 29.0159C16.4067 29.7577 18.4529 30.1264 20.866 30.1264H21.0683C23.5331 30.1264 25.532 29.6976 27.0608 28.8401C28.5897 27.9826 29.3515 26.7864 29.3515 25.2557V5.7032C29.3857 5.27486 29.0038 5.02261 28.7874 4.97545H28.7921ZM18.006 4.83824C18.006 4.53811 18.053 4.20368 18.1377 3.83066C18.2271 3.45764 18.3729 3.11463 18.5799 2.79307C18.7869 2.47578 19.0644 2.20995 19.4219 1.99129C19.7747 1.77262 20.2074 1.66543 20.7108 1.66543C21.2564 1.66543 21.708 1.75976 22.0608 1.9527C22.4136 2.14564 22.7005 2.38575 22.9216 2.68159C23.1426 2.97315 23.2932 3.29471 23.3825 3.64201C23.4719 3.9893 23.566 4.3366 23.566 4.65816C23.566 4.65816 23.5848 4.89398 23.566 4.97116C23.2085 6.3432 20.8519 9.61751 20.8519 9.61751C20.8519 9.61751 18.3729 6.35175 18.0107 4.97116C18.0013 4.93686 18.0107 4.83395 18.0107 4.83395L18.006 4.83824ZM27.8086 25.4272C27.8086 25.7273 27.6961 26.0618 27.475 26.4348C27.2493 26.8078 26.8824 27.1508 26.3603 27.4681C25.8429 27.7854 25.1371 28.0512 24.2387 28.2699C23.3402 28.4885 22.2536 28.5957 20.9788 28.5957C19.6006 28.5957 18.4576 28.4971 17.5639 28.3085C16.6654 28.1155 15.941 27.8711 15.3906 27.5796C14.8403 27.288 14.4499 26.9665 14.2288 26.6191C14.003 26.2719 13.8901 25.9374 13.8901 25.6116V6.54043H16.7595L19.9957 11.2396C19.9957 11.2396 20.3956 11.7 20.8519 11.7C21.3081 11.7 21.6374 11.2396 21.6374 11.2396L24.7702 6.54043H27.8086V25.4272Z" fill="url(#paint4_linear_2007_7404)"/>
<path d="M20.7912 5.79017C21.3731 5.79017 21.8449 5.36017 21.8449 4.82974C21.8449 4.29932 21.3731 3.86932 20.7912 3.86932C20.2093 3.86932 19.7375 4.29932 19.7375 4.82974C19.7375 5.36017 20.2093 5.79017 20.7912 5.79017Z" fill="url(#paint5_linear_2007_7404)"/>
<defs>
<linearGradient id="paint0_linear_2007_7404" x1="35.7258" y1="-5.75627" x2="-0.814218" y2="24.2473" gradientUnits="userSpaceOnUse">
<stop stop-color="#F5A41A"/>
<stop offset="0.49" stop-color="#DB1580"/>
<stop offset="1" stop-color="#56BFCF"/>
</linearGradient>
<linearGradient id="paint1_linear_2007_7404" x1="33.1721" y1="-8.86904" x2="-3.36889" y2="21.1301" gradientUnits="userSpaceOnUse">
<stop stop-color="#F5A41A"/>
<stop offset="0.49" stop-color="#DB1580"/>
<stop offset="1" stop-color="#56BFCF"/>
</linearGradient>
<linearGradient id="paint2_linear_2007_7404" x1="46.6677" y1="7.56952" x2="10.1267" y2="37.5688" gradientUnits="userSpaceOnUse">
<stop stop-color="#F5A41A"/>
<stop offset="0.49" stop-color="#DB1580"/>
<stop offset="1" stop-color="#56BFCF"/>
</linearGradient>
<linearGradient id="paint3_linear_2007_7404" x1="49.0003" y1="10.4122" x2="12.4598" y2="40.4113" gradientUnits="userSpaceOnUse">
<stop stop-color="#F5A41A"/>
<stop offset="0.49" stop-color="#DB1580"/>
<stop offset="1" stop-color="#56BFCF"/>
</linearGradient>
<linearGradient id="paint4_linear_2007_7404" x1="41.8827" y1="1.74261" x2="5.34221" y2="31.7418" gradientUnits="userSpaceOnUse">
<stop stop-color="#F5A41A"/>
<stop offset="0.49" stop-color="#DB1580"/>
<stop offset="1" stop-color="#56BFCF"/>
</linearGradient>
<linearGradient id="paint5_linear_2007_7404" x1="34.7383" y1="-6.48947" x2="2.667" y2="24.8419" gradientUnits="userSpaceOnUse">
<stop stop-color="#F5A41A"/>
<stop offset="0.49" stop-color="#DB1580"/>
<stop offset="1" stop-color="#56BFCF"/>
</linearGradient>
</defs>
</svg>
