<svg width="167" height="145" viewBox="0 0 167 145" fill="none" xmlns="http://www.w3.org/2000/svg">
<path d="M166.37 111.7C166.016 125.633 131.347 141.255 84.8842 140.075C29.1112 142.202 0.433857 121.276 0.787882 107.343C1.14191 93.4093 38.5523 81.9244 86.1662 89.6179C132.629 90.7984 162.739 86.2818 166.37 111.7Z" fill="#E5E5E5"/>
<path d="M106.276 139.122L149.221 115.636C150.162 115.122 150.162 114.287 149.221 113.772L67.9154 69.2946C67.3874 69.0408 66.8037 68.9085 66.2116 68.9085C65.6195 68.9085 65.0358 69.0408 64.5078 69.2946L21.5627 92.7804C20.6223 93.2949 20.6223 94.1299 21.5627 94.6444L102.869 139.122C103.397 139.376 103.981 139.508 104.573 139.508C105.165 139.508 105.748 139.376 106.276 139.122Z" fill="#E0E0E0"/>
<g opacity="0.8">
<path d="M36.2848 90.1397L43.493 86.1986C43.493 86.1986 45.2529 71.583 44.0824 60.2623C42.3983 44.3624 31.586 25.2233 18.6516 29.7149C5.71724 34.2065 24.5462 50.4096 28.7566 63.9003C32.967 77.391 36.2848 90.1397 36.2848 90.1397Z" fill="url(#paint0_linear_884_15931)"/>
<path opacity="0.15" d="M36.2848 90.1397L43.493 86.1986C43.493 86.1986 45.2529 71.583 44.0824 60.2623C42.3983 44.3624 31.586 25.2233 18.6516 29.7149C5.71724 34.2065 24.5462 50.4096 28.7566 63.9003C32.967 77.391 36.2848 90.1397 36.2848 90.1397Z" fill="#353039"/>
<path d="M40.0581 88.4803C39.9435 88.4761 39.8351 88.4295 39.7564 88.3504C39.6777 88.2713 39.6348 88.1662 39.6371 88.0575C40.9002 52.7153 22.3745 34.9325 22.1471 34.757C22.1061 34.7191 22.0735 34.6738 22.0513 34.6238C22.029 34.5738 22.0176 34.5201 22.0176 34.4658C22.0176 34.4115 22.029 34.3578 22.0513 34.3078C22.0735 34.2578 22.1061 34.2125 22.1471 34.1746C22.229 34.0981 22.3394 34.0552 22.4545 34.0552C22.5695 34.0552 22.6799 34.0981 22.7618 34.1746C22.9471 34.3581 41.7928 52.3882 40.5129 88.0894C40.5063 88.198 40.455 88.2999 40.3699 88.373C40.2849 88.4461 40.1729 88.4847 40.0581 88.4803Z" fill="white"/>
<path d="M32.4791 92.9639L37.5315 90.1556C37.5315 90.1556 38.3736 80.1274 33.2201 67.9451C28.6981 57.3345 17.49 48.5348 11.8481 50.3937C6.20615 52.2526 6.37457 56.0102 9.12817 59.9991C11.8818 63.9881 28.6055 73.4419 32.4791 92.9639Z" fill="url(#paint1_linear_884_15931)"/>
<path d="M35.1475 91.9108C35.0314 91.9108 34.92 91.8671 34.8379 91.7893C34.7558 91.7115 34.7096 91.606 34.7096 91.496C34.8107 69.1578 12.664 54.0476 12.4366 53.896C12.3435 53.832 12.2807 53.7359 12.2618 53.6284C12.2429 53.521 12.2694 53.4108 12.3356 53.3216C12.3683 53.2771 12.4101 53.2392 12.4585 53.2102C12.5069 53.1812 12.5609 53.1617 12.6174 53.1528C12.6739 53.1438 12.7317 53.1457 12.7874 53.1583C12.8431 53.1708 12.8957 53.1938 12.9419 53.2259C13.1692 53.3775 35.678 68.727 35.5854 91.5199C35.577 91.6251 35.5274 91.7234 35.4464 91.7958C35.3654 91.8681 35.2588 91.9091 35.1475 91.9108Z" fill="white"/>
</g>
<path d="M148.358 111.233C149.057 111.743 148.981 112.469 148.138 112.932L101.996 138.179C101.476 138.429 100.901 138.558 100.318 138.558C99.7349 138.558 99.16 138.429 98.6397 138.179L10.3972 89.9213C9.54133 89.4543 9.47411 88.7199 10.2001 88.2231C9.76596 88.5336 9.40842 88.9298 9.15228 89.3844C8.89614 89.8389 8.74753 90.3409 8.7168 90.8553V92.9568C8.7488 93.5094 8.91759 94.0471 9.20951 94.5265C9.50142 95.0059 9.90829 95.4135 10.3972 95.7164L98.6083 143.957C99.1288 144.209 99.7046 144.34 100.289 144.34C100.873 144.34 101.449 144.209 101.969 143.957L148.125 118.714C148.614 118.412 149.021 118.006 149.313 117.527C149.605 117.048 149.774 116.511 149.805 115.959V113.836C149.774 113.33 149.628 112.835 149.378 112.387C149.129 111.938 148.781 111.545 148.358 111.233Z" fill="#353039"/>
<path d="M148.153 111.094L59.9148 62.8355C59.3945 62.5863 58.8196 62.4564 58.2366 62.4564C57.6536 62.4564 57.0787 62.5863 56.5584 62.8355L10.4027 88.0875C9.47513 88.5927 9.47513 89.4163 10.4027 89.9215L98.6183 138.18C99.1386 138.429 99.7135 138.559 100.297 138.559C100.88 138.559 101.454 138.429 101.975 138.18L148.13 112.928C149.049 112.422 149.049 111.599 148.153 111.094ZM136.184 107.192C136.977 107.617 136.977 108.33 136.184 108.763L94.2134 131.726C93.7666 131.94 93.2731 132.051 92.7727 132.051C92.2723 132.051 91.7788 131.94 91.332 131.726L22.6273 94.1372C21.8341 93.7127 21.8341 92.9952 22.6273 92.5622L64.602 69.6027C65.3952 69.1782 66.2242 68.915 67.0174 69.348L136.184 107.192Z" fill="#4F4C52"/>
<path d="M10.2001 88.1935C9.76596 88.504 9.40842 88.9002 9.15228 89.3548C8.89614 89.8093 8.74753 90.3113 8.7168 90.8257V92.9272C8.74915 93.4797 8.91809 94.0174 9.20997 94.4967C9.50186 94.976 9.90854 95.3837 10.3972 95.6868L98.6083 143.958C99.1272 144.217 99.7067 144.348 100.293 144.34V138.557C99.7084 138.568 99.1303 138.438 98.6128 138.179L10.3972 89.9214C9.54133 89.4672 9.47411 88.72 10.2001 88.1935Z" fill="#353039"/>
<path d="M37.9148 77.9409C38.5376 77.6012 38.5376 77.0493 37.9148 76.7097C37.5673 76.5436 37.1836 76.4571 36.7945 76.4571C36.4053 76.4571 36.0216 76.5436 35.6742 76.7097C35.0513 77.0493 35.0513 77.6012 35.6742 77.9409C36.0216 78.1069 36.4053 78.1934 36.7945 78.1934C37.1836 78.1934 37.5673 78.1069 37.9148 77.9409Z" fill="#353039"/>
<path d="M123.344 124.119C124.809 123.32 124.809 122.021 123.344 121.223C122.523 120.826 121.615 120.619 120.693 120.619C119.771 120.619 118.863 120.826 118.042 121.223C116.577 122.021 116.577 123.32 118.042 124.119C118.863 124.516 119.771 124.723 120.693 124.723C121.615 124.723 122.523 124.516 123.344 124.119V124.119Z" stroke="#E6E6E6" stroke-miterlimit="10"/>
<path d="M36.7903 82.0249L45.4837 77.2743C45.999 76.9898 46.0259 76.544 45.5419 76.2766C45.2597 76.1492 44.9501 76.0856 44.6375 76.0907C44.325 76.0959 44.0179 76.1697 43.7405 76.3063L35.0471 81.057C34.5318 81.3414 34.5049 81.7872 34.9889 82.0547C35.2711 82.182 35.5807 82.2457 35.8933 82.2405C36.2058 82.2353 36.5129 82.1616 36.7903 82.0249Z" fill="#353039"/>
<path d="M67.0143 69.3651C66.2211 68.9405 65.3921 69.1825 64.5989 69.6198L22.6242 92.5792C21.831 93.0037 21.831 93.717 22.6242 94.1543L91.311 131.722C91.7578 131.936 92.2513 132.047 92.7517 132.047C93.2521 132.047 93.7455 131.936 94.1924 131.722L136.163 108.759C136.96 108.334 136.96 107.621 136.163 107.188L67.0143 69.3651Z" fill="url(#paint2_linear_884_15931)"/>
<path opacity="0.85" d="M67.0143 69.3651C66.2211 68.9405 65.3921 69.1825 64.5989 69.6198L22.6242 92.5792C21.831 93.0037 21.831 93.717 22.6242 94.1543L91.311 131.722C91.7578 131.936 92.2513 132.047 92.7517 132.047C93.2521 132.047 93.7455 131.936 94.1924 131.722L136.163 108.759C136.96 108.334 136.96 107.621 136.163 107.188L67.0143 69.3651Z" fill="white"/>
<path d="M27.4616 94.6424L27.0135 94.3962C26.9929 94.389 26.9751 94.3759 26.9626 94.3589C26.9501 94.3418 26.9434 94.3215 26.9434 94.3007C26.9434 94.2799 26.9501 94.2596 26.9626 94.2425C26.9751 94.2254 26.9929 94.2124 27.0135 94.2052L27.0628 94.1797C27.1166 94.1526 27.1766 94.1384 27.2375 94.1384C27.2985 94.1384 27.3585 94.1526 27.4123 94.1797L27.8604 94.4217C27.9545 94.4769 27.9545 94.5618 27.8604 94.6127L27.8111 94.6424C27.7567 94.6676 27.6969 94.6807 27.6364 94.6807C27.5758 94.6807 27.516 94.6676 27.4616 94.6424Z" fill="#353039"/>
<path d="M28.2599 94.2051L27.4846 93.7805C27.3905 93.7296 27.3905 93.6447 27.4846 93.5895L27.5339 93.564C27.5884 93.5389 27.6481 93.5258 27.7087 93.5258C27.7693 93.5258 27.829 93.5389 27.8835 93.564L28.6587 93.9886C28.7528 94.0395 28.7528 94.1244 28.6587 94.1796L28.6094 94.2051C28.555 94.2302 28.4952 94.2433 28.4346 94.2433C28.3741 94.2433 28.3143 94.2302 28.2599 94.2051Z" fill="#353039"/>
<path d="M29.0566 93.7678L27.9587 93.1692C27.8601 93.114 27.8601 93.0291 27.9587 92.9781L28.008 92.9484C28.0624 92.9233 28.1222 92.9102 28.1828 92.9102C28.2433 92.9102 28.3031 92.9233 28.3575 92.9484L29.4554 93.5513C29.476 93.5585 29.4937 93.5716 29.5063 93.5886C29.5188 93.6057 29.5255 93.626 29.5255 93.6468C29.5255 93.6676 29.5188 93.6879 29.5063 93.705C29.4937 93.7221 29.476 93.7351 29.4554 93.7423L29.4061 93.7678C29.3523 93.7949 29.2923 93.8091 29.2313 93.8091C29.1704 93.8091 29.1104 93.7949 29.0566 93.7678Z" fill="#353039"/>
<path d="M29.8484 93.3347L27.9528 92.2946C27.8543 92.2437 27.8543 92.1588 27.9528 92.1036L28.0021 92.0781C28.0563 92.052 28.1162 92.0384 28.1769 92.0384C28.2376 92.0384 28.2975 92.052 28.3517 92.0781L30.2427 93.114C30.3413 93.1692 30.3413 93.2541 30.2427 93.305L30.1979 93.3347C30.1435 93.3599 30.0837 93.373 30.0231 93.373C29.9626 93.373 29.9028 93.3599 29.8484 93.3347Z" fill="#353039"/>
<path d="M32.1387 92.2225C32.1085 92.2258 32.0781 92.2182 32.0536 92.2012L31.7758 92.0484L30.8795 92.5366C30.8603 92.5489 30.8377 92.5554 30.8146 92.5554C30.7914 92.5554 30.7688 92.5489 30.7496 92.5366L30.6465 92.4814L30.6017 92.4517V92.4093L30.5569 91.3437C30.554 91.3282 30.554 91.3124 30.5569 91.297C30.5717 91.2807 30.59 91.2677 30.6107 91.2587L30.7317 91.1908C30.7634 91.1733 30.7984 91.1617 30.8347 91.1569C30.8679 91.1573 30.9004 91.1661 30.9288 91.1823L31.9012 91.713L32.0984 91.6069C32.1279 91.5882 32.1617 91.5765 32.197 91.5729C32.2289 91.5728 32.26 91.5817 32.2866 91.5984L32.3538 91.6366C32.3852 91.6366 32.3986 91.6663 32.3942 91.6833C32.3897 91.7003 32.3942 91.713 32.3359 91.7342L32.1387 91.8446L32.4166 91.9975C32.4479 91.9975 32.4614 92.0272 32.4569 92.0442C32.4524 92.0611 32.4345 92.0781 32.3942 92.0994L32.2418 92.18C32.2128 92.2038 32.1768 92.2186 32.1387 92.2225ZM31.5965 91.8871L30.9019 91.5092L30.9467 92.2437L31.5965 91.8871Z" fill="#353039"/>
<path d="M33.0316 91.5518C32.7179 91.5661 32.4066 91.4938 32.1354 91.3438C31.8576 91.1909 31.7321 91.0254 31.7545 90.847C31.7769 90.6687 31.9517 90.4947 32.2698 90.3206C32.3954 90.2501 32.5273 90.1904 32.6642 90.1423C32.7844 90.0982 32.909 90.0655 33.0361 90.0446C33.0548 90.0378 33.0756 90.0378 33.0944 90.0446C33.0963 90.0516 33.0963 90.0589 33.0944 90.0659L33.1347 90.1763C33.1391 90.1809 33.1415 90.187 33.1415 90.1932C33.1415 90.1995 33.1391 90.2056 33.1347 90.2102H33.0854C32.8924 90.2464 32.7074 90.3139 32.5387 90.4098C32.3236 90.5244 32.2071 90.6475 32.1892 90.7706C32.1712 90.8937 32.2698 91.0169 32.4849 91.1315C32.6815 91.2454 32.9088 91.303 33.1392 91.2971C33.3671 91.2891 33.5892 91.2262 33.7845 91.1145C33.8544 91.076 33.9217 91.0335 33.9861 90.9871C34.0372 90.9527 34.0825 90.9112 34.1205 90.864L33.6724 90.6178L33.3005 90.8216C33.2688 90.8391 33.2338 90.8507 33.1974 90.8555C33.1657 90.8545 33.1349 90.8457 33.1078 90.8301L33.0451 90.7961C33.0152 90.7791 33.0017 90.7621 33.0047 90.7452C33.0047 90.7452 33.0271 90.7154 33.063 90.6942L33.659 90.3673C33.6943 90.3471 33.7343 90.3354 33.7755 90.3333C33.8121 90.3338 33.8479 90.3441 33.8786 90.3631L34.5238 90.7154C34.542 90.7223 34.5576 90.7341 34.5686 90.7494C34.5686 90.7494 34.5686 90.7706 34.5686 90.7876C34.4279 90.9872 34.2328 91.1471 34.004 91.2504C33.7111 91.4252 33.377 91.5287 33.0316 91.5518Z" fill="#353039"/>
<path d="M45.4355 83.3027L46.4886 83.8801C46.5331 83.9011 46.5822 83.912 46.632 83.912C46.6817 83.912 46.7308 83.9011 46.7754 83.8801L47.8374 83.3027C47.9136 83.256 47.9136 83.1881 47.8374 83.1457L46.7798 82.5683C46.736 82.5452 46.6866 82.5331 46.6364 82.5331C46.5863 82.5331 46.5369 82.5452 46.493 82.5683L45.4355 83.1457C45.3548 83.1881 45.3548 83.256 45.4355 83.3027Z" fill="#353039"/>
<path d="M46.1641 82.5174C46.0246 82.4532 45.8711 82.4212 45.716 82.424C45.5608 82.4202 45.407 82.4522 45.2679 82.5174C45.0617 82.632 45.0617 82.8061 45.2679 82.9165L45.6309 83.116L45.8952 83.0651L45.5323 82.8698C45.5 82.8581 45.4723 82.8375 45.4528 82.8106C45.4332 82.7836 45.4227 82.7518 45.4227 82.7191C45.4227 82.6864 45.4332 82.6545 45.4528 82.6276C45.4723 82.6007 45.5 82.58 45.5323 82.5684C45.5901 82.5386 45.6547 82.5226 45.7205 82.5217C45.7852 82.5199 45.8491 82.5361 45.9042 82.5684L46.2672 82.7679L46.536 82.717L46.1641 82.5174Z" fill="#353039"/>
<path d="M65.3938 71.9845C65.2163 71.9787 65.0403 72.0168 64.883 72.0948L62.1943 73.5595C61.9613 73.6826 61.9613 73.8822 62.1943 74.0095L63.1712 74.5402C63.3285 74.6183 63.5045 74.6563 63.682 74.6506C63.7647 74.65 63.8471 74.6429 63.9285 74.6294C64.0203 74.6153 64.1084 74.5851 64.1884 74.5402L66.8771 73.0798C67.1056 72.9524 67.1056 72.7529 66.8771 72.6298L65.9002 72.0948C65.7445 72.0168 65.5699 71.9787 65.3938 71.9845ZM63.691 74.5317C63.6141 74.5306 63.5388 74.5116 63.4714 74.4765L62.499 73.9416C62.4616 73.9289 62.4292 73.9056 62.4063 73.8749C62.3834 73.8441 62.3711 73.8073 62.3711 73.7697C62.3711 73.732 62.3834 73.6953 62.4063 73.6645C62.4292 73.6337 62.4616 73.6104 62.499 73.5977L65.1877 72.1373C65.2303 72.1124 65.2774 72.0951 65.3266 72.0863H65.4073C65.4831 72.0886 65.5571 72.109 65.6224 72.1458L66.5948 72.6765C66.6322 72.6891 66.6646 72.7124 66.6875 72.7432C66.7104 72.774 66.7227 72.8107 66.7227 72.8484C66.7227 72.8861 66.7104 72.9228 66.6875 72.9536C66.6646 72.9844 66.6322 73.0077 66.5948 73.0203L63.9061 74.485C63.8409 74.5218 63.7669 74.5422 63.691 74.5445V74.5317Z" fill="#353039"/>
<path d="M63.7678 74.3661L63.7319 74.3449L62.8357 73.8651C62.8082 73.8555 62.7846 73.8381 62.7679 73.8153C62.7511 73.7926 62.7422 73.7655 62.7422 73.7378C62.7422 73.71 62.7511 73.683 62.7679 73.6602C62.7846 73.6374 62.8082 73.62 62.8357 73.6104L65.2465 72.2943C65.2615 72.2845 65.2782 72.2773 65.2958 72.2731L65.3317 72.2943L66.2279 72.774C66.2539 72.7844 66.2762 72.8018 66.2918 72.8241C66.3074 72.8464 66.3157 72.8725 66.3157 72.8993C66.3157 72.926 66.3074 72.9522 66.2918 72.9745C66.2762 72.9967 66.2539 73.0141 66.2279 73.0245L63.8171 74.3449L63.7678 74.3661Z" fill="#353039"/>
<path d="M66.0396 72.027C66.1322 72.0062 66.2283 72.0042 66.3217 72.021C66.4152 72.0379 66.5038 72.0732 66.5819 72.1246L66.7611 72.2265C66.9628 72.3326 67.0479 72.4685 66.9538 72.5279L66.779 72.6298L65.8828 72.1246L66.0396 72.027Z" fill="#353039"/>
<path d="M50.7293 96.9732C51.3881 96.9472 52.0319 96.7788 52.6114 96.4807C53.7048 95.8821 53.9871 95.067 52.2529 94.0438C52.1946 94.3527 52.0614 94.6446 51.864 94.8965C51.6665 95.1485 51.41 95.3536 51.1147 95.4958C49.6269 96.3109 47.9331 96.5189 46.5663 95.7759C45.1996 95.033 45.6701 93.9292 47.1668 93.114C48.1299 92.5935 49.2202 92.3216 50.329 92.3253C51.4377 92.329 52.5261 92.6083 53.4852 93.1353C56.017 94.5193 55.4479 95.984 53.6555 96.9562C52.7174 97.4539 51.6726 97.7442 50.5994 97.8053L50.7293 96.9732ZM51.3611 93.6023C50.0482 93.0631 48.9324 93.1395 48.0854 93.6023C47.3729 93.9886 47.2295 94.5533 48.0182 94.982C48.4132 95.1844 48.8591 95.2808 49.3077 95.2605C49.7563 95.2403 50.1905 95.1044 50.5635 94.8674C50.8149 94.7565 51.0253 94.5766 51.1675 94.351C51.3098 94.1254 51.3772 93.8646 51.3611 93.6023Z" fill="#353039"/>
<path d="M54.4963 90.9319C54.7635 90.7783 55.0656 90.6874 55.3774 90.6667C55.6891 90.646 56.0016 90.6962 56.2888 90.813C56.7369 91.0677 56.6518 91.4923 56.0782 91.8022C55.8067 91.9594 55.4994 92.0526 55.1821 92.074C54.8647 92.0954 54.5466 92.0444 54.2544 91.9253C53.7928 91.6748 53.9093 91.2461 54.4963 90.9319ZM57.9961 92.8466C58.2635 92.6933 58.5658 92.603 58.8776 92.583C59.1895 92.5631 59.5018 92.6142 59.7886 92.732C60.2367 92.9824 60.1515 93.407 59.5779 93.7211C59.3061 93.8773 58.9989 93.97 58.6817 93.9914C58.3646 94.0128 58.0466 93.9624 57.7541 93.8443C57.297 93.5938 57.4091 93.1608 57.9827 92.8636L57.9961 92.8466Z" fill="#353039"/>
<path d="M58.5885 90.5328C56.3883 89.3271 56.3883 88.0747 58.1897 87.0855C59.9911 86.0963 62.2944 86.1048 64.4902 87.3063C66.6859 88.5077 66.7307 89.7983 64.9383 90.7875C63.1458 91.7767 60.7932 91.7385 58.5885 90.5328ZM62.9845 88.1256C61.1428 87.1195 59.9598 87.1279 59.1128 87.5907C58.2659 88.0535 58.248 88.703 60.0897 89.7134C61.9314 90.7238 63.1951 90.7408 64.0286 90.2866C64.8621 89.8323 64.8307 89.136 62.9845 88.1256Z" fill="#353039"/>
<path d="M65.5964 86.6992C63.3917 85.4935 63.3917 84.241 65.1931 83.2561C66.9945 82.2711 69.3023 82.2754 71.4936 83.4726C73.6849 84.6698 73.7611 85.9689 71.9417 86.9539C70.1224 87.9388 67.7967 87.9049 65.5964 86.6992ZM69.9924 84.2962C68.1462 83.2858 66.9632 83.2943 66.1162 83.7571C65.2693 84.2198 65.2514 84.8694 67.0976 85.8798C68.9438 86.8902 70.203 86.9029 71.032 86.4487C71.8611 85.9944 71.8342 85.3024 69.9924 84.2962Z" fill="#353039"/>
<path d="M54.2981 106.292L89.5557 87.0091C89.9725 86.8094 90.433 86.7054 90.9 86.7054C91.3671 86.7054 91.8276 86.8094 92.2444 87.0091L101.256 91.938C102 92.3626 102 93.0036 101.256 93.4112L66.0118 112.694C65.595 112.894 65.1345 112.998 64.6675 112.998C64.2004 112.998 63.7399 112.894 63.3231 112.694L54.2981 107.765C53.5543 107.358 53.5543 106.699 54.2981 106.292Z" fill="url(#paint3_linear_884_15931)"/>
<path d="M58.0818 106.946L64.3913 110.393C64.5707 110.481 64.7696 110.527 64.9716 110.527C65.1735 110.527 65.3725 110.481 65.5519 110.393L74.8502 105.298C75.1729 105.12 75.1729 104.836 74.8502 104.662L68.5408 101.21C68.3608 101.124 68.162 101.079 67.9605 101.079C67.759 101.079 67.5602 101.124 67.3802 101.21L58.0818 106.305C58.0095 106.326 57.9462 106.368 57.9012 106.426C57.8563 106.484 57.832 106.553 57.832 106.625C57.832 106.697 57.8563 106.767 57.9012 106.824C57.9462 106.882 58.0095 106.925 58.0818 106.946Z" fill="#FAFAFA"/>
<path d="M67.5984 105.286L75.0774 105.006L67.6253 104.9L67.9255 101.091L66.7022 105.791L57.834 106.623L65.0755 106.301L64.8963 110.525L65.4519 106.284L67.5267 106.19L67.5984 105.286Z" fill="url(#paint4_linear_884_15931)"/>
<path d="M71.5238 99.4101L80.6339 94.4472C80.8611 94.3383 81.112 94.2815 81.3666 94.2815C81.6212 94.2815 81.8722 94.3383 82.0993 94.4472C82.4981 94.6637 82.4846 95.0203 82.0679 95.2496L72.9578 100.213C72.7306 100.321 72.4797 100.378 72.2251 100.378C71.9705 100.378 71.7195 100.321 71.4924 100.213C71.0981 99.996 71.116 99.6564 71.5238 99.4101Z" fill="#FAFAFA"/>
<path d="M74.336 100.93L92.7983 90.8214C93.0254 90.7125 93.2764 90.6558 93.531 90.6558C93.7855 90.6558 94.0365 90.7125 94.2636 90.8214C94.6625 91.038 94.649 91.3988 94.2323 91.6238L75.77 101.732C75.542 101.841 75.2903 101.897 75.0351 101.897C74.7799 101.897 74.5282 101.841 74.3002 101.732C73.9058 101.528 73.9193 101.172 74.336 100.93Z" fill="#FAFAFA"/>
<path d="M77.1365 102.475L95.6033 92.3669C95.8304 92.2579 96.0814 92.2012 96.3359 92.2012C96.5905 92.2012 96.8415 92.2579 97.0686 92.3669C97.4629 92.5834 97.4495 92.9442 97.0372 93.1693L78.5705 103.278C78.3434 103.387 78.0924 103.443 77.8378 103.443C77.5833 103.443 77.3323 103.387 77.1052 103.278C76.7063 103.053 76.7243 102.705 77.1365 102.475Z" fill="#FAFAFA"/>
<path d="M63.9336 42.1367L116.417 13.4318L118.518 14.58C118.804 14.7586 119.043 14.9983 119.213 15.28C119.384 15.5616 119.483 15.8773 119.502 16.2017V52.8806C119.483 53.205 119.385 53.5208 119.214 53.8025C119.043 54.0842 118.805 54.3239 118.518 54.5022L68.0062 82.126C67.7006 82.2702 67.3638 82.3452 67.0225 82.3452C66.6811 82.3452 66.3443 82.2702 66.0387 82.126L64.9291 81.5184C64.6424 81.3398 64.4037 81.1001 64.2322 80.8186C64.0607 80.537 63.9612 80.2213 63.9415 79.8967L63.9336 42.1367Z" fill="url(#paint5_linear_884_15931)"/>
<path opacity="0.05" d="M63.9336 42.1367L116.417 13.4318L118.518 14.58C118.804 14.7586 119.043 14.9983 119.213 15.28C119.384 15.5616 119.483 15.8773 119.502 16.2017V52.8806C119.483 53.205 119.385 53.5208 119.214 53.8025C119.043 54.0842 118.805 54.3239 118.518 54.5022L68.0062 82.126C67.7006 82.2702 67.3638 82.3452 67.0225 82.3452C66.6811 82.3452 66.3443 82.2702 66.0387 82.126L64.9291 81.5184C64.6424 81.3398 64.4037 81.1001 64.2322 80.8186C64.0607 80.537 63.9612 80.2213 63.9415 79.8967L63.9336 42.1367Z" fill="#353039"/>
<path d="M116.126 10.2034L116.342 10.0916L115.527 9.64424C115.457 9.6066 115.383 9.5742 115.307 9.54732L92.2095 1.43911C91.8928 1.33848 91.5506 1.33589 91.2323 1.43172C90.914 1.52756 90.6361 1.71685 90.4388 1.9722L64.5986 37.7191C64.1974 38.3356 63.9686 39.0386 63.9336 39.762V42.1367L64.7206 42.5766L116.405 13.4281V11.0534C116.398 10.7509 116.301 10.4564 116.126 10.2034Z" fill="url(#paint6_linear_884_15931)"/>
<path opacity="0.1" d="M91.5057 2.14754C91.4028 2.22383 91.3126 2.3143 91.2381 2.41595L65.3979 38.1629C65.1856 38.4791 65.0238 38.8233 64.9178 39.1843L64.1309 38.7444C64.1891 38.5605 64.2587 38.38 64.3394 38.2039C64.3748 38.1293 64.4102 38.0585 64.4496 37.9877V37.9541C64.4905 37.8793 64.5365 37.8071 64.5873 37.7379L90.4354 1.97605C90.4743 1.92309 90.5178 1.87322 90.5653 1.82694L90.703 1.70764L91.5057 2.14754Z" fill="#353039"/>
<path opacity="0.35" d="M116.331 10.0916C116.261 10.0514 116.187 10.0177 116.11 9.99097L93.0088 1.87904C92.7549 1.79901 92.4836 1.78166 92.2206 1.82863C91.9575 1.87559 91.7115 1.98532 91.5057 2.14745L90.7188 1.70755C90.9262 1.54696 91.1729 1.43825 91.4362 1.39135C91.6995 1.34446 91.971 1.36089 92.2258 1.43915L115.323 9.54735C115.399 9.57407 115.471 9.60779 115.54 9.64801L116.331 10.0916Z" fill="white"/>
<path d="M64.4609 37.9356C64.5028 37.8612 64.5487 37.7891 64.5987 37.7194C64.5487 37.7891 64.5028 37.8612 64.4609 37.9356Z" fill="url(#paint7_linear_884_15931)"/>
<path d="M90.5684 1.82694C90.6104 1.78337 90.6565 1.74344 90.7061 1.70764C90.6557 1.74247 90.6095 1.78248 90.5684 1.82694Z" fill="url(#paint8_linear_884_15931)"/>
<path d="M64.1113 38.7445C64.1696 38.5593 64.2392 38.3776 64.3199 38.2002C64.2392 38.3776 64.1696 38.5593 64.1113 38.7445Z" fill="url(#paint9_linear_884_15931)"/>
<path d="M64.3301 38.1852C64.3655 38.1107 64.4048 38.0398 64.4403 37.9727C64.4048 38.0398 64.3655 38.1107 64.3301 38.1852Z" fill="url(#paint10_linear_884_15931)"/>
<path opacity="0.2" d="M64.4414 37.9727C64.4414 37.9727 64.4414 37.9466 64.4414 37.9354C64.4414 37.9242 64.4493 37.9615 64.4414 37.9727Z" fill="#353039"/>
<path opacity="0.2" d="M90.4375 1.97235C90.4753 1.91972 90.5188 1.87099 90.5674 1.82697C90.5177 1.86997 90.474 1.91883 90.4375 1.97235Z" fill="#353039"/>
<path d="M91.2376 2.4196L65.4013 38.1703C64.9967 38.784 64.7663 39.4865 64.7324 40.2094V42.5841L117.216 13.8792V11.4933C117.196 11.1719 117.082 10.8621 116.887 10.5986C116.691 10.3352 116.422 10.1286 116.11 10.0022L93.0123 1.89396C92.6956 1.79459 92.354 1.79186 92.0357 1.88617C91.7173 1.98047 91.4382 2.16704 91.2376 2.4196Z" fill="url(#paint11_linear_884_15931)"/>
<path d="M70.4449 77.1307L68.7608 76.2099C68.6218 76.1095 68.5126 75.9767 68.4436 75.8246C68.3747 75.6724 68.3484 75.5059 68.3673 75.3413V25.6259C68.3893 25.1212 68.5522 24.6311 68.8395 24.2056L70.5511 25.1375C70.2615 25.5648 70.0984 26.0579 70.0789 26.5653V76.2621C70.058 76.4243 70.0806 76.589 70.1445 76.7408C70.2085 76.8926 70.3118 77.0267 70.4449 77.1307Z" fill="#E0E0E0"/>
<path d="M71.4968 24.1906L113.655 1.13725C114.442 0.697361 115.099 1.05151 115.099 1.92757V51.6281C115.073 52.1037 114.928 52.5667 114.677 52.9793C114.426 53.392 114.076 53.7427 113.655 54.0027L71.4968 77.0524C70.7099 77.4886 70.0527 77.1344 70.0527 76.2584V26.5653C70.0799 26.0899 70.2248 25.6273 70.4757 25.2147C70.7266 24.8022 71.0764 24.4514 71.4968 24.1906Z" fill="#F0F0F0"/>
<path d="M112.966 0.104606L114.618 1.01422C114.458 0.957695 114.286 0.940022 114.117 0.962812C113.948 0.985602 113.787 1.04813 113.65 1.14469L71.4961 24.1944C71.0917 24.4253 70.7559 24.7499 70.5203 25.1375L68.8086 24.2055C69.0461 23.8185 69.3797 23.4922 69.7805 23.2549L111.939 0.182892C112.085 0.0807643 112.258 0.0187491 112.439 0.00362705C112.621 -0.011495 112.803 0.0208571 112.966 0.097149V0.104606Z" fill="#FAFAFA"/>
<path d="M74.7875 26.7927L109.843 7.61633C110.315 7.35911 110.697 7.54178 110.697 8.0264C110.676 8.29734 110.587 8.55969 110.439 8.7922C110.29 9.02471 110.086 9.22085 109.843 9.36472L74.7875 28.5411C74.3153 28.7983 73.9336 28.6157 73.9336 28.1347C73.9544 27.8632 74.0425 27.6001 74.1909 27.3669C74.3393 27.1337 74.5437 26.9369 74.7875 26.7927Z" fill="#E0E0E0"/>
<path d="M74.7875 30.2783L109.843 11.1019C110.315 10.8447 110.697 11.0274 110.697 11.512C110.676 11.7829 110.587 12.0453 110.439 12.2778C110.29 12.5103 110.086 12.7064 109.843 12.8503L74.7875 32.0267C74.3153 32.2839 73.9336 32.1012 73.9336 31.6203C73.9544 31.3488 74.0425 31.0857 74.1909 30.8525C74.3393 30.6193 74.5437 30.4225 74.7875 30.2783Z" fill="#E0E0E0"/>
<path d="M74.7875 33.7638L109.843 14.5875C110.315 14.3302 110.697 14.5129 110.697 14.9938C110.676 15.2654 110.588 15.5285 110.44 15.7617C110.291 15.9949 110.087 16.1916 109.843 16.3358L74.7875 35.5122C74.3153 35.7694 73.9336 35.5868 73.9336 35.1059C73.9544 34.8343 74.0425 34.5712 74.1909 34.338C74.3393 34.1048 74.5437 33.9081 74.7875 33.7638Z" fill="#E0E0E0"/>
<path d="M74.7875 37.2495L109.843 18.0768C110.315 17.8196 110.697 18.0023 110.697 18.4832C110.676 18.7548 110.588 19.0179 110.44 19.2511C110.291 19.4843 110.087 19.681 109.843 19.8252L74.7875 39.0016C74.3153 39.2588 73.9336 39.0761 73.9336 38.5915C73.9544 38.3199 74.0425 38.0568 74.1909 37.8236C74.3393 37.5904 74.5437 37.3937 74.7875 37.2495Z" fill="#E0E0E0"/>
<path d="M74.7875 40.7351L109.843 21.5587C110.315 21.3015 110.697 21.4841 110.697 21.965C110.676 22.2366 110.588 22.4997 110.44 22.7329C110.291 22.9661 110.087 23.1629 109.843 23.3071L74.7875 42.4835C74.3153 42.7407 73.9336 42.558 73.9336 42.0734C73.955 41.8025 74.0434 41.5401 74.1918 41.3076C74.3401 41.0751 74.5442 40.8789 74.7875 40.7351Z" fill="#E0E0E0"/>
<path d="M74.7875 44.2207L109.843 25.0444C110.315 24.7871 110.697 24.9698 110.697 25.4507C110.676 25.7223 110.588 25.9854 110.44 26.2186C110.291 26.4518 110.087 26.6485 109.843 26.7928L74.7875 45.9691C74.3153 46.2263 73.9336 46.0437 73.9336 45.559C73.955 45.2881 74.0434 45.0258 74.1918 44.7933C74.3401 44.5607 74.5442 44.3646 74.7875 44.2207Z" fill="#E0E0E0"/>
<path d="M74.7875 47.7063L109.843 28.5151C110.315 28.2578 110.697 28.4405 110.697 28.9214C110.676 29.193 110.588 29.4561 110.44 29.6893C110.291 29.9225 110.087 30.1192 109.843 30.2635L74.7875 49.4398C74.3153 49.6971 73.9336 49.5144 73.9336 49.0298C73.9574 48.7614 74.0469 48.502 74.1952 48.2723C74.3434 48.0425 74.5462 47.8487 74.7875 47.7063Z" fill="#E0E0E0"/>
<path d="M74.7875 51.1919L109.843 32.0155C110.315 31.7545 110.697 31.9409 110.697 32.4218C110.676 32.6934 110.588 32.9565 110.44 33.1897C110.291 33.4229 110.087 33.6196 109.843 33.7639L74.7875 52.9403C74.3153 53.1975 73.9336 53.0148 73.9336 52.5302C73.955 52.2592 74.0434 51.9969 74.1918 51.7644C74.3401 51.5319 74.5442 51.3357 74.7875 51.1919Z" fill="#E0E0E0"/>
<path d="M118.17 53.3652C118.154 53.3917 118.136 53.4167 118.115 53.4397L96.2448 44.2504C95.4145 43.9024 94.4794 43.8503 93.6117 44.1038C92.744 44.3572 92.0023 44.8992 91.523 45.6298L68.142 81.1717L67.2763 81.6451C67.1799 81.7089 67.0682 81.7487 66.9514 81.7611C66.8346 81.7735 66.7163 81.758 66.6074 81.7159L90.6534 45.16C91.1338 44.4306 91.8753 43.8894 92.7424 43.6354C93.6095 43.3814 94.544 43.4317 95.3752 43.777L118.17 53.3652Z" fill="url(#paint12_linear_884_15931)"/>
<path opacity="0.4" d="M89.3647 48.8621L89.4198 48.8173L68.1362 81.1756L67.2705 81.649C67.1737 81.7119 67.062 81.7512 66.9454 81.7635C66.8287 81.7759 66.7107 81.7609 66.6016 81.7199L88.5069 48.3849L89.3647 48.8621Z" fill="white"/>
<path opacity="0.4" d="M118.173 53.369C118.157 53.3955 118.139 53.4205 118.118 53.4435L96.2438 44.2505C95.4134 43.9025 94.4783 43.8504 93.6107 44.1039C92.743 44.3573 92.0012 44.8993 91.5219 45.6299L90.6562 45.1527C91.1385 44.4252 91.8808 43.8863 92.7477 43.6344C93.6147 43.3825 94.5483 43.4345 95.3781 43.7808L118.173 53.369Z" fill="white"/>
<path d="M119.485 15.9631C119.438 15.6947 119.288 15.6202 119.092 15.7469C118.994 15.8157 118.909 15.8987 118.84 15.993L118.73 16.1383L97.1627 44.6047L93.94 48.8582C93.7325 49.1061 93.4577 49.2957 93.145 49.4067C92.8324 49.5177 92.4937 49.5459 92.1654 49.4882L89.3834 48.8619L68.1352 44.0753C67.9924 44.0477 67.8452 44.0477 67.7023 44.0753C67.6469 44.0859 67.5928 44.1022 67.541 44.1238L68.1273 43.8032L88.5886 48.4146L91.3784 49.0185C91.7067 49.077 92.0457 49.0492 92.3585 48.9381C92.6714 48.8271 92.9461 48.637 93.153 48.3885L96.3757 44.1387L118.065 15.527C118.131 15.4419 118.214 15.3698 118.309 15.3145L116.443 14.2968L117.23 13.868L118.529 14.5763C118.778 14.7354 118.991 14.94 119.155 15.1782C119.319 15.4163 119.431 15.6832 119.485 15.9631Z" fill="url(#paint13_linear_884_15931)"/>
<path opacity="0.4" d="M97.164 44.6047L93.9413 48.8583C93.7339 49.1061 93.459 49.2957 93.1464 49.4067C92.8337 49.5177 92.495 49.5459 92.1667 49.4883L89.3848 48.862L89.4399 48.8173L89.5736 48.6159L91.3955 49.026C91.7238 49.0845 92.0628 49.0567 92.3756 48.9456C92.6884 48.8346 92.9632 48.6445 93.1701 48.396L96.3613 44.1909L97.164 44.6047Z" fill="white"/>
<path opacity="0.1" d="M118.513 14.5763L117.214 13.868L116.427 14.2968L118.304 15.3219C118.209 15.3775 118.127 15.4496 118.06 15.5344L96.3752 44.1461L96.3438 44.1871L97.1307 44.6009L118.725 16.1383L118.835 15.993C118.905 15.8987 118.99 15.8157 119.087 15.7469C119.28 15.6202 119.43 15.6947 119.481 15.9631C119.426 15.6823 119.312 15.4149 119.145 15.1767C118.979 14.9385 118.764 14.7343 118.513 14.5763Z" fill="#353039"/>
<path d="M68.561 44.6716L63.9336 42.1367V79.8967C63.9533 80.2212 64.0529 80.5369 64.2244 80.8185C64.3959 81.1001 64.6345 81.3397 64.9212 81.5183L66.0309 82.1259C66.3365 82.2701 66.6732 82.3451 67.0146 82.3451C67.356 82.3451 67.6927 82.2701 67.9983 82.1259L68.5531 81.8203L68.561 44.6716Z" fill="url(#paint14_linear_884_15931)"/>
<path opacity="0.15" d="M68.561 44.6716L63.9336 42.1367V79.8967C63.9533 80.2212 64.0529 80.5369 64.2244 80.8185C64.3959 81.1001 64.6345 81.3397 64.9212 81.5183L66.0309 82.1259C66.3365 82.2701 66.6732 82.3451 67.0146 82.3451C67.356 82.3451 67.6927 82.2701 67.9983 82.1259L68.5531 81.8203L68.561 44.6716Z" fill="#353039"/>
<path d="M118.731 16.1384V52.4184C118.72 52.7545 118.614 53.0817 118.424 53.3653C118.279 53.6059 118.082 53.8144 117.845 53.9767L117.81 53.9991L117.743 54.0401L67.235 81.6639C67.1744 81.6993 67.1097 81.7281 67.0422 81.7496C67.038 81.6938 67.038 81.6377 67.0422 81.5819V44.9179C67.0334 44.7865 67.0585 44.6551 67.1152 44.535C67.1719 44.4148 67.2585 44.3095 67.3677 44.2281C67.4768 44.1467 67.6052 44.0916 67.7418 44.0676C67.8784 44.0436 68.0191 44.0514 68.1518 44.0903L89.4001 48.8769L92.182 49.5032C92.5103 49.5609 92.849 49.5327 93.1617 49.4217C93.4743 49.3107 93.7492 49.1211 93.9566 48.8732L97.1636 44.6047L118.731 16.1384Z" fill="#353039"/>
<path d="M119.506 16.2128V52.8917C119.493 53.2275 119.387 53.5542 119.199 53.8386C119.052 54.0788 118.855 54.288 118.62 54.4537L118.581 54.4724C118.561 54.4873 118.54 54.501 118.518 54.5134L68.0102 82.1223C67.9137 82.1873 67.8014 82.2282 67.6838 82.2412C67.5662 82.2543 67.447 82.239 67.3373 82.1969C67.2535 82.1506 67.1829 82.0856 67.1314 82.0077C67.08 81.9298 67.0494 81.8411 67.0422 81.7495C67.038 81.6936 67.038 81.6376 67.0422 81.5817V44.9177C67.0334 44.7864 67.0585 44.655 67.1152 44.5348C67.1719 44.4147 67.2585 44.3094 67.3677 44.228C67.4768 44.1466 67.6052 44.0915 67.7418 44.0675C67.8784 44.0435 68.0191 44.0512 68.1518 44.0901L89.4001 48.8768L92.182 49.5031C92.5103 49.5607 92.849 49.5325 93.1617 49.4215C93.4743 49.3105 93.7492 49.1209 93.9566 48.8731L97.1636 44.6046L118.746 16.1383L118.856 15.9929C119.199 15.512 119.506 15.6015 119.506 16.2128Z" fill="url(#paint15_linear_884_15931)"/>
<path d="M118.519 54.4986L118.582 54.4576L118.621 54.439C118.856 54.2733 119.053 54.064 119.199 53.8239C119.383 53.5443 119.487 53.2246 119.502 52.8956L97.1641 44.6047L112.117 57.9991L118.519 54.4986Z" fill="url(#paint16_linear_884_15931)"/>
<path opacity="0.2" d="M118.519 54.4986L118.582 54.4576L118.621 54.439C118.856 54.2733 119.053 54.064 119.199 53.8239C119.383 53.5443 119.487 53.2246 119.502 52.8956L97.1641 44.6047L112.117 57.9991L118.519 54.4986Z" fill="#353039"/>
<path d="M67.02 81.5856C67.0056 81.705 67.0267 81.8259 67.0809 81.9346C67.1352 82.0433 67.2204 82.1355 67.327 82.2007C67.4367 82.2429 67.5559 82.2581 67.6735 82.2451C67.7911 82.2321 67.9033 82.1911 67.9998 82.1261L85.388 72.6162L89.3583 48.8657L67.02 80.9742V81.5856Z" fill="url(#paint17_linear_884_15931)"/>
<path opacity="0.15" d="M91.5087 45.6261L67.325 82.1969C67.2184 82.1316 67.1332 82.0395 67.079 81.9308C67.0247 81.8221 67.0037 81.7012 67.0181 81.5818V80.9741L88.3568 48.6457L88.5221 48.3959L90.643 45.175L91.5087 45.6261Z" fill="#353039"/>
<path d="M119.199 53.8239C119.053 54.064 118.856 54.2733 118.621 54.439L118.582 54.4576L68.0108 82.1224C67.9143 82.1874 67.802 82.2283 67.6844 82.2414C67.5668 82.2544 67.4476 82.2391 67.3379 82.197L91.5216 45.615C92.0066 44.8812 92.7544 44.3374 93.6281 44.0834C94.5018 43.8294 95.4428 43.8822 96.2788 44.2319L119.199 53.8239Z" fill="url(#paint18_linear_884_15931)"/>
<path d="M119.199 53.8275C119.055 54.0681 118.858 54.2766 118.621 54.4389L118.586 54.4613L68.0068 82.1261C67.9097 82.1899 67.7973 82.2297 67.6799 82.2421C67.5624 82.2545 67.4435 82.2389 67.334 82.1969L68.0068 81.1829L117.708 53.9916L117.747 53.9692C117.957 53.8239 118.135 53.6416 118.271 53.4324L119.199 53.8275Z" fill="url(#paint19_linear_884_15931)"/>
<path opacity="0.15" d="M64.1088 38.7445L64.8957 39.1844C64.7842 39.5151 64.7219 39.8589 64.7108 40.2058V42.5768L63.9238 42.1369V39.7622C63.9353 39.4165 63.9976 39.074 64.1088 38.7445Z" fill="#353039"/>
<path d="M68.864 43.9561L68.1243 43.7883L67.538 44.1089L66.7274 43.6653L64.7324 42.5767L65.5076 42.1406L68.864 43.9561Z" fill="url(#paint20_linear_884_15931)"/>
<path opacity="0.1" d="M68.8641 43.9561L65.5116 42.1443L64.7246 42.5805L66.7196 43.669L67.5302 44.1126C67.5773 44.0905 67.6277 44.0754 67.6797 44.0679C67.8225 44.0403 67.9697 44.0403 68.1125 44.0679L69.7455 44.4407L88.3574 48.6458L88.5227 48.396L68.8641 43.9561Z" fill="#353039"/>
<path d="M128.84 45.4173L125.106 43.3669L125.075 43.3483C123.446 42.476 121.207 42.6027 118.732 43.9634C113.75 46.6885 109.709 53.3167 109.709 58.7669C109.709 61.4883 110.72 63.4007 112.345 64.2954L115.749 66.1594L116.536 64.8956C117.445 64.7047 118.319 64.3829 119.125 63.9413C124.107 61.2162 128.148 54.588 128.148 49.1377C128.147 48.4014 128.052 47.6678 127.864 46.9532L128.84 45.4173Z" fill="#DB1580"/>
<path opacity="0.15" d="M110.04 55.9001C109.819 56.8429 109.705 57.8051 109.697 58.7706C109.697 61.492 110.709 63.4044 112.334 64.2991L115.737 66.1631L116.524 64.8993C117.434 64.7084 118.307 64.3866 119.113 63.945C119.995 63.4562 120.819 62.8801 121.573 62.2264L110.04 55.9001Z" fill="#353039"/>
<path d="M122.271 45.9056C117.289 48.6307 113.248 55.2589 113.248 60.7091C113.248 66.1593 117.289 68.37 122.271 65.6449C127.252 62.9198 131.293 56.2915 131.293 50.8413C131.293 45.3911 127.256 43.1805 122.271 45.9056Z" fill="#C51A76"/>
<path d="M125.838 53.4919V51.3968C125.838 49.0072 124.303 47.9075 122.414 48.9439C120.522 49.9802 118.987 52.7538 118.987 55.1434V57.0073C118.946 58.3007 118.548 59.5614 117.834 60.6644C117.658 60.9568 117.562 61.2861 117.555 61.6225C117.555 62.2227 117.948 62.5023 118.416 62.2413L126.416 57.8647C126.678 57.6862 126.893 57.4519 127.043 57.1806C127.192 56.9094 127.273 56.6088 127.278 56.3028C127.29 56.1859 127.274 56.0679 127.23 55.958C127.186 55.8481 127.116 55.7492 127.026 55.669C126.302 55.3782 125.838 54.6103 125.838 53.4919Z" fill="white"/>
<path d="M124.055 59.8293C124.055 60.9775 123.319 62.3084 122.414 62.8117C121.509 63.3149 120.77 62.7819 120.77 61.6374L124.055 59.8293Z" fill="white"/>
<defs>
<linearGradient id="paint0_linear_884_15931" x1="29.3329" y1="29.0494" x2="29.3329" y2="90.1397" gradientUnits="userSpaceOnUse">
<stop stop-color="#DB1580"/>
<stop offset="1" stop-color="#F5A41A"/>
</linearGradient>
<linearGradient id="paint1_linear_884_15931" x1="22.4241" y1="50.1443" x2="22.4241" y2="92.9639" gradientUnits="userSpaceOnUse">
<stop stop-color="#DB1580"/>
<stop offset="1" stop-color="#F5A41A"/>
</linearGradient>
<linearGradient id="paint2_linear_884_15931" x1="79.3951" y1="69.1437" x2="79.3951" y2="132.047" gradientUnits="userSpaceOnUse">
<stop stop-color="#DB1580"/>
<stop offset="1" stop-color="#F5A41A"/>
</linearGradient>
<linearGradient id="paint3_linear_884_15931" x1="77.777" y1="86.7054" x2="77.777" y2="112.998" gradientUnits="userSpaceOnUse">
<stop stop-color="#DB1580"/>
<stop offset="1" stop-color="#F5A41A"/>
</linearGradient>
<linearGradient id="paint4_linear_884_15931" x1="66.4557" y1="101.091" x2="66.4557" y2="110.525" gradientUnits="userSpaceOnUse">
<stop stop-color="#DB1580"/>
<stop offset="1" stop-color="#F5A41A"/>
</linearGradient>
<linearGradient id="paint5_linear_884_15931" x1="91.7176" y1="13.4318" x2="91.7176" y2="82.3452" gradientUnits="userSpaceOnUse">
<stop stop-color="#DB1580"/>
<stop offset="1" stop-color="#F5A41A"/>
</linearGradient>
<linearGradient id="paint6_linear_884_15931" x1="90.1693" y1="1.36169" x2="90.1693" y2="42.5766" gradientUnits="userSpaceOnUse">
<stop stop-color="#DB1580"/>
<stop offset="1" stop-color="#F5A41A"/>
</linearGradient>
<linearGradient id="paint7_linear_884_15931" x1="64.5298" y1="37.7194" x2="64.5298" y2="37.9356" gradientUnits="userSpaceOnUse">
<stop stop-color="#DB1580"/>
<stop offset="1" stop-color="#F5A41A"/>
</linearGradient>
<linearGradient id="paint8_linear_884_15931" x1="90.6372" y1="1.70764" x2="90.6372" y2="1.82694" gradientUnits="userSpaceOnUse">
<stop stop-color="#DB1580"/>
<stop offset="1" stop-color="#F5A41A"/>
</linearGradient>
<linearGradient id="paint9_linear_884_15931" x1="64.2156" y1="38.2002" x2="64.2156" y2="38.7445" gradientUnits="userSpaceOnUse">
<stop stop-color="#DB1580"/>
<stop offset="1" stop-color="#F5A41A"/>
</linearGradient>
<linearGradient id="paint10_linear_884_15931" x1="64.3852" y1="37.9727" x2="64.3852" y2="38.1852" gradientUnits="userSpaceOnUse">
<stop stop-color="#DB1580"/>
<stop offset="1" stop-color="#F5A41A"/>
</linearGradient>
<linearGradient id="paint11_linear_884_15931" x1="90.974" y1="1.81738" x2="90.974" y2="42.5841" gradientUnits="userSpaceOnUse">
<stop stop-color="#DB1580"/>
<stop offset="1" stop-color="#F5A41A"/>
</linearGradient>
<linearGradient id="paint12_linear_884_15931" x1="92.3886" y1="43.4757" x2="92.3886" y2="81.7652" gradientUnits="userSpaceOnUse">
<stop stop-color="#DB1580"/>
<stop offset="1" stop-color="#F5A41A"/>
</linearGradient>
<linearGradient id="paint13_linear_884_15931" x1="93.5131" y1="13.868" x2="93.5131" y2="49.5174" gradientUnits="userSpaceOnUse">
<stop stop-color="#DB1580"/>
<stop offset="1" stop-color="#F5A41A"/>
</linearGradient>
<linearGradient id="paint14_linear_884_15931" x1="66.2473" y1="42.1367" x2="66.2473" y2="82.3451" gradientUnits="userSpaceOnUse">
<stop stop-color="#DB1580"/>
<stop offset="1" stop-color="#F5A41A"/>
</linearGradient>
<linearGradient id="paint15_linear_884_15931" x1="93.2724" y1="15.6851" x2="93.2724" y2="82.2458" gradientUnits="userSpaceOnUse">
<stop stop-color="#DB1580"/>
<stop offset="1" stop-color="#F5A41A"/>
</linearGradient>
<linearGradient id="paint16_linear_884_15931" x1="108.333" y1="44.6047" x2="108.333" y2="57.9991" gradientUnits="userSpaceOnUse">
<stop stop-color="#DB1580"/>
<stop offset="1" stop-color="#F5A41A"/>
</linearGradient>
<linearGradient id="paint17_linear_884_15931" x1="78.1869" y1="48.8657" x2="78.1869" y2="82.2496" gradientUnits="userSpaceOnUse">
<stop stop-color="#DB1580"/>
<stop offset="1" stop-color="#F5A41A"/>
</linearGradient>
<linearGradient id="paint18_linear_884_15931" x1="93.2686" y1="43.925" x2="93.2686" y2="82.2459" gradientUnits="userSpaceOnUse">
<stop stop-color="#DB1580"/>
<stop offset="1" stop-color="#F5A41A"/>
</linearGradient>
<linearGradient id="paint19_linear_884_15931" x1="93.2667" y1="53.4324" x2="93.2667" y2="82.2462" gradientUnits="userSpaceOnUse">
<stop stop-color="#DB1580"/>
<stop offset="1" stop-color="#F5A41A"/>
</linearGradient>
<linearGradient id="paint20_linear_884_15931" x1="66.7982" y1="42.1406" x2="66.7982" y2="44.1089" gradientUnits="userSpaceOnUse">
<stop stop-color="#DB1580"/>
<stop offset="1" stop-color="#F5A41A"/>
</linearGradient>
</defs>
</svg>
