<svg width="21" height="21" viewBox="0 0 21 21" fill="none" xmlns="http://www.w3.org/2000/svg">
<g clip-path="url(#clip0_1994_13241)">
<path d="M10.4179 0C4.79283 0 0.216797 4.57604 0.216797 10.2011C0.216797 15.8261 4.79283 20.4022 10.4179 20.4022C16.0429 20.4022 20.619 15.8261 20.619 10.2011C20.619 4.57604 16.0429 0 10.4179 0ZM5.31734 6.80072C5.31734 5.86137 6.07817 5.10054 7.01752 5.10054C7.95687 5.10054 8.7177 5.86137 8.7177 6.80072C8.7177 7.74007 7.95687 8.5009 7.01752 8.5009C6.07817 8.5009 5.31734 7.74007 5.31734 6.80072ZM7.01752 14.8035L5.81549 13.6014L13.8182 5.59869L15.0203 6.80072L7.01752 14.8035ZM13.8182 15.3016C12.8789 15.3016 12.1181 14.5408 12.1181 13.6014C12.1181 12.6621 12.8789 11.9013 13.8182 11.9013C14.7576 11.9013 15.5184 12.6621 15.5184 13.6014C15.5184 14.5408 14.7576 15.3016 13.8182 15.3016Z" fill="#DB1580"/>
</g>
<defs>
<clipPath id="clip0_1994_13241">
<rect width="20.4022" height="20.4022" fill="white" transform="translate(0.217773)"/>
</clipPath>
</defs>
</svg>
