<svg width="93" height="93" viewBox="0 0 93 93" fill="none" xmlns="http://www.w3.org/2000/svg">
<g filter="url(#filter0_d_992_8983)">
<circle cx="46.7188" cy="40.511" r="36" fill="url(#paint0_linear_992_8983)"/>
<circle cx="46.7188" cy="40.511" r="34.5" stroke="url(#paint1_linear_992_8983)" stroke-width="3"/>
</g>
<g filter="url(#filter1_d_992_8983)">
<path d="M39.4865 58.2071C41.6133 59.1938 44.207 59.682 47.258 59.682H47.5129C50.63 59.682 53.1681 59.1142 55.1149 57.9706C57.0682 56.8232 58.0507 55.2136 58.0507 53.1538V27.3528C58.0735 27.0393 57.9508 26.7898 57.7873 26.6124C57.6334 26.4454 57.4397 26.3381 57.2861 26.297L39.5286 58.1164M39.4865 58.2071L39.5286 58.1164M39.4865 58.2071C39.4866 58.2071 39.4866 58.2072 39.4867 58.2072L39.5286 58.1164M39.4865 58.2071C38.418 57.7142 37.6106 57.0566 37.0709 56.2317C36.531 55.4064 36.2633 54.4205 36.2633 53.2783V27.3491C36.2633 27.2452 36.3057 27.1275 36.3701 27.0148C36.4358 26.9 36.5294 26.7814 36.6439 26.6742C36.8718 26.4608 37.1929 26.2829 37.5547 26.2829H41.5691M39.5286 58.1164C37.4184 57.1431 36.3633 55.5304 36.3633 53.2783V27.3491C36.3633 27.0322 36.8968 26.3829 37.5547 26.3829H41.6684M41.5691 26.2829C41.5687 26.3161 41.5685 26.3493 41.5684 26.3826L41.6684 26.3829M41.5691 26.2829C41.5909 24.3169 42.0868 22.7627 43.0627 21.6323L43.0627 21.6322C44.061 20.4771 45.3696 19.9 46.9794 19.9H47.1098C48.6797 19.9 50.0202 20.3946 51.1129 21.3916M41.5691 26.2829H41.6684V26.3829M41.6684 26.3829L51.1129 21.3916M51.1129 21.3916C51.1129 21.3916 51.1129 21.3916 51.1128 21.3916L51.0456 21.4656M51.1129 21.3916L43.1384 21.6976C44.1164 20.5659 45.3968 20 46.9794 20H47.1098C48.6568 20 49.9728 20.4867 51.0456 21.4656M51.1129 21.3916C51.113 21.3917 51.113 21.3917 51.113 21.3917L51.0456 21.4656M51.1129 21.3916L52.7577 26.3886V26.3037C52.7577 26.2987 52.7577 26.2936 52.7577 26.2886H52.6577V26.3037C52.6577 24.0516 52.1182 22.4389 51.0456 21.4656M57.14 26.3886H57.24H57.14ZM57.14 26.3886C57.14 26.3849 57.1402 26.3812 57.1406 26.3774C57.1463 26.3268 57.1891 26.2886 57.24 26.2886M57.14 26.3886L57.24 26.2886M57.24 26.2886H57.2458H57.24ZM49.8483 23.3612C49.5697 22.9708 49.2081 22.6539 48.7636 22.3993C48.319 22.1446 47.7499 22.0202 47.0624 22.0202C46.4281 22.0202 45.8828 22.1616 45.4382 22.4502C44.9877 22.7388 44.6381 23.0896 44.3772 23.5084M49.8483 23.3612L44.3772 23.5084M49.8483 23.3612C50.1268 23.746 50.3165 24.1704 50.4292 24.6288C50.4349 24.6523 50.4407 24.6758 50.4465 24.6993C50.5536 25.134 50.6603 25.5672 50.6603 25.9699L49.8483 23.3612ZM44.3772 23.5084L44.4621 23.5612C44.4621 23.5612 44.4622 23.5611 44.4622 23.561C44.4623 23.5609 44.4623 23.5608 44.4624 23.5607L44.3772 23.5084ZM43.6654 26.2075L43.7289 26.2743L43.723 26.28C43.7042 26.2978 43.6797 26.3073 43.6548 26.3075C43.6551 26.2702 43.6577 26.2313 43.6591 26.2129C43.6593 26.2108 43.6594 26.209 43.6596 26.2075H43.6654ZM43.6654 26.2075H43.7246M43.6654 26.2075L43.66 26.2019M43.7246 26.2075L43.7596 26.2106C43.7596 26.2106 43.7596 26.2106 43.7596 26.2106L43.7246 26.2075M43.7246 26.2075H43.7246M43.7246 26.2075L43.66 26.2019M43.7246 26.2075H43.7541C43.7541 26.1945 43.7541 26.1815 43.7543 26.1684C43.7456 26.1441 43.7277 26.1235 43.7034 26.1118C43.6881 26.1044 43.6717 26.1012 43.6554 26.102C43.6546 26.1335 43.6542 26.1647 43.6541 26.1956C43.6541 26.1975 43.6541 26.1994 43.6541 26.2013L43.66 26.2019M43.7246 26.2075L43.66 26.2019M43.9177 24.8995C43.9177 24.8993 43.9177 24.8991 43.9178 24.8989L43.82 24.8778L43.9175 24.9C43.9176 24.8999 43.9176 24.8997 43.9177 24.8995ZM47.2402 32.515C47.2402 32.515 47.2184 32.4849 47.1781 32.4287L47.191 32.4098C47.2034 32.3915 47.2192 32.3684 47.238 32.3405C47.2573 32.3675 47.2734 32.3901 47.2862 32.4079L47.3001 32.4272C47.2612 32.4844 47.2402 32.515 47.2402 32.515ZM50.5631 26.3596C50.563 26.3598 50.563 26.36 50.5629 26.3602L50.6603 26.3829L50.5633 26.3588C50.5632 26.3591 50.5631 26.3594 50.5631 26.3596ZM54.1278 55.9893L54.1274 55.9895C53.4879 56.4003 52.6098 56.7478 51.4833 57.0349C50.3616 57.3208 49.0013 57.4619 47.4002 57.4619C45.6679 57.4619 44.2355 57.332 43.1188 57.0852C41.9923 56.8318 41.0894 56.512 40.4069 56.1333C39.7216 55.7531 39.2459 55.3392 38.9798 54.9013L38.9793 54.9005C38.702 54.4539 38.5676 54.0306 38.5676 53.6235V28.554H42.0294L46.0778 34.7107L46.0773 34.7111L46.0844 34.7196L46.1614 34.6558L46.0844 34.7197L46.0845 34.7197L46.0846 34.7199L46.085 34.7204L46.0864 34.7221L46.0914 34.7279C46.0956 34.7328 46.1018 34.7398 46.1097 34.7487C46.1255 34.7663 46.1486 34.7913 46.1779 34.821C46.2365 34.8803 46.3209 34.9595 46.4243 35.0389C46.6281 35.1954 46.9196 35.3634 47.2402 35.3634C47.5626 35.3634 47.8329 35.1938 48.0161 35.0352C48.1089 34.955 48.1824 34.875 48.2328 34.8151C48.258 34.785 48.2776 34.7599 48.2911 34.7419C48.293 34.7394 48.2948 34.737 48.2964 34.7348C48.3006 34.7291 48.304 34.7244 48.3066 34.7208L48.3108 34.7148L48.3121 34.7131L48.3124 34.7125L48.3126 34.7123L48.3126 34.7123L48.2301 34.6558L48.3127 34.7122L48.3144 34.7095L52.2326 28.554H55.9066V53.3801C55.9066 53.7526 55.773 54.1766 55.4993 54.6602C55.2251 55.1346 54.7763 55.5765 54.1278 55.9893Z" fill="#D38F23" stroke="#D38F23" stroke-width="0.2" stroke-linejoin="round"/>
<path d="M47.1565 27.2967C47.8742 27.2967 48.4559 26.7149 48.4559 25.9973C48.4559 25.2796 47.8742 24.6978 47.1565 24.6978C46.4388 24.6978 45.857 25.2796 45.857 25.9973C45.857 26.7149 46.4388 27.2967 47.1565 27.2967Z" fill="#D38F23" stroke="#D38F23" stroke-width="0.2" stroke-linejoin="round"/>
</g>
<path d="M16.9398 27.4225L15.698 21.9972L17.7435 27.1727L23.1667 25.9244L17.9933 27.9765L19.2396 33.3932L17.1895 28.2262L11.7708 29.466L16.9398 27.4225Z" fill="white"/>
<path d="M68.319 65.0363L65.8473 60.0497L69.0424 64.6062L74.0255 62.1286L69.4726 65.3296L71.9467 70.3068L68.7492 65.7597L63.7685 68.228L68.319 65.0363Z" fill="white"/>
<path d="M29.6955 15.4192L27.623 4.13406L31.3762 14.9767L42.6614 12.9043L31.8205 16.6641L33.8912 27.9426L30.1397 17.1066L18.8528 19.1724L29.6955 15.4192Z" fill="white"/>
<defs>
<filter id="filter0_d_992_8983" x="0.71875" y="0.511047" width="92" height="92" filterUnits="userSpaceOnUse" color-interpolation-filters="sRGB">
<feFlood flood-opacity="0" result="BackgroundImageFix"/>
<feColorMatrix in="SourceAlpha" type="matrix" values="0 0 0 0 0 0 0 0 0 0 0 0 0 0 0 0 0 0 127 0" result="hardAlpha"/>
<feOffset dy="6"/>
<feGaussianBlur stdDeviation="5"/>
<feComposite in2="hardAlpha" operator="out"/>
<feColorMatrix type="matrix" values="0 0 0 0 0.779167 0 0 0 0 0.779167 0 0 0 0 0.779167 0 0 0 0.6 0"/>
<feBlend mode="normal" in2="BackgroundImageFix" result="effect1_dropShadow_992_8983"/>
<feBlend mode="normal" in="SourceGraphic" in2="effect1_dropShadow_992_8983" result="shape"/>
</filter>
<filter id="filter1_d_992_8983" x="31.1641" y="14.8" width="31.9883" height="49.982" filterUnits="userSpaceOnUse" color-interpolation-filters="sRGB">
<feFlood flood-opacity="0" result="BackgroundImageFix"/>
<feColorMatrix in="SourceAlpha" type="matrix" values="0 0 0 0 0 0 0 0 0 0 0 0 0 0 0 0 0 0 127 0" result="hardAlpha"/>
<feOffset/>
<feGaussianBlur stdDeviation="2.5"/>
<feComposite in2="hardAlpha" operator="out"/>
<feColorMatrix type="matrix" values="0 0 0 0 1 0 0 0 0 1 0 0 0 0 1 0 0 0 0.5 0"/>
<feBlend mode="normal" in2="BackgroundImageFix" result="effect1_dropShadow_992_8983"/>
<feBlend mode="normal" in="SourceGraphic" in2="effect1_dropShadow_992_8983" result="shape"/>
</filter>
<linearGradient id="paint0_linear_992_8983" x1="34.2187" y1="57" x2="67.7187" y2="18" gradientUnits="userSpaceOnUse">
<stop stop-color="#F5A41A"/>
<stop offset="1" stop-color="#FFC96C"/>
</linearGradient>
<linearGradient id="paint1_linear_992_8983" x1="86.2187" y1="29.5" x2="12.2188" y2="35.5" gradientUnits="userSpaceOnUse">
<stop stop-color="#F5A41A"/>
<stop offset="1" stop-color="#FFCB72"/>
</linearGradient>
</defs>
</svg>
