<svg width="24" height="42" viewBox="0 0 24 42" fill="none" xmlns="http://www.w3.org/2000/svg">
<path d="M23.206 6.77851H18.1074V6.68845C18.1074 4.29886 17.5078 2.58772 16.3159 1.55503C15.1237 0.516344 13.6613 0 11.9422 0H11.7973C10.0386 0 8.61576 0.6004 7.52889 1.8012C6.44865 2.996 5.90195 4.65309 5.89533 6.77251H1.32399C0.592853 6.77251 0 7.46138 0 7.7976V35.3095C0 37.6991 1.17246 39.4102 3.51748 40.4429C5.86241 41.4816 8.72774 41.998 12.1068 41.998H12.3901C15.8417 41.998 18.6408 41.3975 20.7817 40.1967C22.9225 38.996 23.9893 37.3209 23.9893 35.1774V7.7976C24.0372 7.19779 23.5025 6.84456 23.1995 6.77851H23.206ZM8.10197 6.58638C8.10197 6.16611 8.16781 5.69779 8.28641 5.17545C8.41155 4.65309 8.61576 4.17277 8.90556 3.72248C9.19545 3.27818 9.58402 2.90593 10.0846 2.59973C10.5787 2.29353 11.1847 2.14343 11.8895 2.14343C12.6536 2.14343 13.2859 2.27552 13.7799 2.54569C14.274 2.81587 14.6758 3.1521 14.9853 3.56638C15.2949 3.97465 15.5057 4.42494 15.6309 4.91127C15.756 5.39759 15.8878 5.88392 15.8878 6.33421C15.8878 6.33421 15.9141 6.66444 15.8878 6.77251C15.3871 8.6938 12.0871 13.2789 12.0871 13.2789C12.0871 13.2789 8.61575 8.70579 8.10859 6.77251C8.09536 6.72447 8.10859 6.58038 8.10859 6.58038L8.10197 6.58638ZM21.8288 35.4176C21.8288 35.8378 21.6712 36.3062 21.3616 36.8285C21.0455 37.3509 20.5317 37.8312 19.8007 38.2755C19.0761 38.7198 18.0878 39.0921 16.8297 39.3982C15.5716 39.7044 14.05 39.8545 12.2649 39.8545C10.3349 39.8545 8.73436 39.7165 7.48282 39.4523C6.22467 39.1821 5.21034 38.8398 4.43959 38.4316C3.66892 38.0233 3.12222 37.573 2.81265 37.0867C2.49645 36.6004 2.3384 36.132 2.3384 35.6757V8.96999H6.35643L10.8882 15.5503C10.8882 15.5503 11.4482 16.195 12.0871 16.195C12.726 16.195 13.1871 15.5503 13.1871 15.5503L17.574 8.96999H21.8288V35.4176Z" fill="url(#paint0_linear_884_15889)"/>
<path d="M12.0028 7.91942C12.8177 7.91942 13.4783 7.31728 13.4783 6.57451C13.4783 5.83174 12.8177 5.22961 12.0028 5.22961C11.1879 5.22961 10.5273 5.83174 10.5273 6.57451C10.5273 7.31728 11.1879 7.91942 12.0028 7.91942Z" fill="url(#paint1_linear_884_15889)"/>
<defs>
<linearGradient id="paint0_linear_884_15889" x1="41.5371" y1="2.2515" x2="-9.63142" y2="44.26" gradientUnits="userSpaceOnUse">
<stop stop-color="#F5A41A"/>
<stop offset="0.49" stop-color="#DB1580"/>
<stop offset="1" stop-color="#56BFCF"/>
</linearGradient>
<linearGradient id="paint1_linear_884_15889" x1="31.5332" y1="-9.27603" x2="-13.3769" y2="34.598" gradientUnits="userSpaceOnUse">
<stop stop-color="#F5A41A"/>
<stop offset="0.49" stop-color="#DB1580"/>
<stop offset="1" stop-color="#56BFCF"/>
</linearGradient>
</defs>
</svg>
