<svg width="22" height="22" viewBox="0 0 22 22" fill="none" xmlns="http://www.w3.org/2000/svg">
<path d="M14.875 15.6667C15.9796 15.6667 16.875 14.7713 16.875 13.6667C16.875 12.5622 15.9796 11.6667 14.875 11.6667C13.7704 11.6667 12.875 12.5622 12.875 13.6667C12.875 14.7713 13.7704 15.6667 14.875 15.6667Z" stroke="#353039" stroke-width="1.5" stroke-linecap="round" stroke-linejoin="round"/>
<path d="M0.875 3.66667V18.3333C0.875 19.0406 1.15595 19.7189 1.65605 20.219C2.15615 20.719 2.83442 21 3.54167 21H20.875V6.33333H3.54167C2.83442 6.33333 2.15615 6.05238 1.65605 5.55229C1.15595 5.05219 0.875 4.37391 0.875 3.66667V3.66667ZM0.875 3.66667C0.875 2.95942 1.15595 2.28115 1.65605 1.78105C2.15615 1.28095 2.83442 1 3.54167 1H15.5417V3.66667" stroke="#353039" stroke-width="1.5" stroke-linecap="round" stroke-linejoin="round"/>
</svg>
