<svg width="180" height="149" viewBox="0 0 180 149" fill="none" xmlns="http://www.w3.org/2000/svg">
<path d="M51.3901 73.6344L57.7162 68.9416C57.7162 68.9416 58.8248 50.6152 54.548 35.4774C48.5324 14.2081 32.8744 8.48616 27.7686 11.3033C22.6628 14.1205 22.1723 20.6715 33.3179 32.0532C39.9489 38.7434 49.1671 53.4895 51.3901 73.6344Z" fill="url(#paint0_linear_992_9004)" fill-opacity="0.6"/>
<path d="M54.1364 64.1622L54.0679 64.1718C54.0039 64.1743 53.94 64.1641 53.8799 64.1418C53.8199 64.1194 53.7649 64.0854 53.7181 64.0416C53.6713 63.9978 53.6336 63.9452 53.6073 63.8868C53.581 63.8284 53.5665 63.7653 53.5647 63.7012C52.8716 43.0697 40.9649 22.3959 30.3214 15.0665C30.2192 14.9893 30.1519 14.8747 30.134 14.7479C30.1161 14.6211 30.1491 14.4924 30.2259 14.3899C30.3045 14.287 30.4204 14.2193 30.5486 14.2012C30.6769 14.1831 30.807 14.2161 30.9111 14.2932C41.7086 21.7232 53.8374 42.7324 54.5446 63.6503C54.553 63.7712 54.5157 63.8909 54.4401 63.9856C54.3645 64.0804 54.2562 64.1434 54.1364 64.1622Z" fill="white"/>
<path d="M52.3251 94.4984C51.7039 95.5832 49.0935 95.5214 48.0732 95.4546C46.3103 95.3231 44.6106 94.7414 43.1369 93.765C41.4711 92.6489 40.1937 91.0421 39.482 89.1675C39.1082 88.1779 38.804 87.1633 38.5719 86.1312C38.3212 85.129 38.0746 84.1152 37.8202 83.1052C37.637 82.094 37.2498 81.1307 36.6823 80.274C35.4323 78.6288 33.1435 78.2977 31.0892 78.0554C28.8225 77.7903 26.2751 77.1802 25.0448 75.0363C24.1933 73.3231 23.9337 71.376 24.3068 69.4996C24.5734 67.616 25.1294 65.7757 25.2531 63.8742C25.4361 62.5054 25.1387 61.1156 24.4117 59.9415C23.9046 59.2713 23.2693 58.7087 22.5429 58.2862C20.9837 57.3363 19.2579 56.6389 17.869 55.4441C16.4802 54.2493 15.4857 52.3568 16.0215 50.5742C16.4702 49.15 17.8202 48.2048 19.1619 47.5418C20.4614 46.9862 21.8667 46.7212 23.2793 46.7652C27.7529 46.6909 32.0118 49.5881 36.448 48.956C38.1343 48.5831 39.7959 48.1062 41.4233 47.528C43.1177 47.0603 44.988 46.9591 46.4077 47.9184C49.2285 49.7981 48.6809 54.455 51.2325 56.7132C53.4902 58.7191 56.4417 58.2718 59.0875 59.7269C60.2049 60.3849 61.0853 61.3797 61.6026 62.5688C62.5785 64.5304 63.1878 66.6538 63.4004 68.8345C63.5687 70.7417 63.6293 72.657 63.5819 74.571C63.5573 74.6596 52.4205 94.3374 52.3251 94.4984Z" fill="url(#paint1_linear_992_9004)" fill-opacity="0.6"/>
<path d="M58.9789 83.8239C58.9224 83.8549 58.8603 83.8743 58.7962 83.881C58.7321 83.8877 58.6673 83.8815 58.6057 83.8629C58.544 83.8442 58.4867 83.8134 58.4371 83.7724C58.3875 83.7313 58.3465 83.6807 58.3167 83.6236C49.3178 66.4702 30.7298 52.5462 21.8843 50.4875C21.7586 50.4588 21.6494 50.3813 21.5808 50.2721C21.5122 50.1628 21.4898 50.0308 21.5185 49.9051C21.5472 49.7794 21.6247 49.6702 21.7339 49.6016C21.8431 49.533 21.9751 49.5106 22.1009 49.5393C31.1276 51.6358 50.0446 65.7856 59.1829 83.1696C59.2404 83.2838 59.2513 83.4159 59.2132 83.538C59.1751 83.6601 59.0911 83.7626 58.9789 83.8239Z" fill="white"/>
<path d="M45.0131 65.4834C44.9752 65.5158 44.9295 65.5377 44.8805 65.547C40.2801 66.7528 35.8239 68.4537 31.59 70.6199C31.5337 70.6495 31.472 70.6677 31.4086 70.6734C31.3452 70.6792 31.2813 70.6724 31.2205 70.6535C31.1597 70.6345 31.1033 70.6038 31.0544 70.563C31.0055 70.5222 30.9652 70.4722 30.9356 70.4158C30.9036 70.36 30.8834 70.2981 30.8763 70.2342C30.8693 70.1702 30.8755 70.1055 30.8947 70.044C30.9139 69.9826 30.9455 69.9257 30.9877 69.8771C31.0298 69.8285 31.0816 69.7891 31.1397 69.7614C35.4455 67.5506 39.9806 65.8183 44.6639 64.5956C44.7904 64.5691 44.9223 64.5933 45.0312 64.6631C45.1401 64.7329 45.2172 64.8427 45.2459 64.9687C45.2686 65.0682 45.2581 65.1723 45.2161 65.2652C45.1741 65.3582 45.1028 65.4348 45.0131 65.4834Z" fill="white"/>
<path d="M124.866 112.506L119.704 104.504C119.704 104.504 122.509 89.0472 127.548 76.4441C134.619 58.7482 151.538 39.5845 164.094 48.805C176.65 58.0255 150.775 70.6536 141.726 84.7949C132.678 98.9361 124.866 112.506 124.866 112.506Z" fill="url(#paint2_linear_992_9004)"/>
<path opacity="0.15" d="M124.866 112.506L119.704 104.504C119.704 104.504 122.509 89.0472 127.548 76.4441C134.619 58.7482 151.538 39.5845 164.094 48.805C176.65 58.0255 150.775 70.6536 141.726 84.7949C132.678 98.9361 124.866 112.506 124.866 112.506Z" fill="white"/>
<path d="M121.299 109.417C121.425 109.45 121.559 109.432 121.672 109.366C121.784 109.3 121.866 109.193 121.9 109.066C132.267 68.1157 158.341 53.6355 158.6 53.4883C158.662 53.461 158.718 53.421 158.765 53.3709C158.811 53.3207 158.846 53.2615 158.869 53.197C158.891 53.1325 158.899 53.0641 158.894 52.9961C158.888 52.9281 158.868 52.862 158.836 52.802C158.804 52.742 158.759 52.6894 158.705 52.6475C158.651 52.6056 158.589 52.5753 158.523 52.5586C158.457 52.5418 158.388 52.539 158.321 52.5503C158.254 52.5615 158.189 52.5866 158.132 52.624C157.866 52.7676 131.416 67.5029 120.952 108.809C120.934 108.872 120.929 108.937 120.937 109.002C120.945 109.067 120.966 109.129 120.998 109.186C121.031 109.242 121.074 109.292 121.125 109.332C121.177 109.371 121.236 109.401 121.299 109.417Z" fill="white"/>
<path d="M127.628 117.271L123.585 111.589C123.585 111.589 125.856 100.355 135.544 88.0246C143.969 77.2925 159.068 70.7347 164.609 74.6417C170.149 78.5487 168.708 82.838 164.4 86.5254C160.093 90.2128 138.274 96.1115 127.628 117.271Z" fill="url(#paint3_linear_992_9004)"/>
<path d="M125.526 114.87C125.589 114.888 125.654 114.894 125.719 114.887C125.783 114.88 125.846 114.86 125.903 114.829C125.96 114.798 126.01 114.756 126.05 114.705C126.091 114.654 126.121 114.596 126.139 114.534C133.457 88.8891 162.521 78.5559 162.839 78.4649C162.901 78.4428 162.957 78.4087 163.005 78.3646C163.053 78.3206 163.092 78.2675 163.119 78.2083C163.146 78.1492 163.162 78.0852 163.164 78.0201C163.167 77.955 163.156 77.8901 163.134 77.829C163.087 77.7067 162.994 77.6075 162.875 77.5526C162.757 77.4976 162.621 77.4913 162.498 77.5349C162.203 77.6367 132.656 88.1471 125.199 114.28C125.168 114.401 125.185 114.53 125.246 114.64C125.307 114.749 125.407 114.832 125.526 114.87Z" fill="white"/>
<path d="M153.453 118.087C153.189 128.489 127.307 140.151 92.6207 139.27C50.9839 140.858 29.5751 125.236 29.8394 114.834C30.1037 104.432 58.032 95.8583 93.5778 101.602C128.264 102.483 150.742 99.1113 153.453 118.087Z" fill="#E5E5E5"/>
<path d="M124.473 128.777C124.673 128.638 124.831 128.448 124.932 128.226C125.032 128.005 125.071 127.76 125.044 127.518V72.9645C125.02 72.2863 124.824 71.6254 124.473 71.0446L127.854 69.0932C128.204 69.6726 128.401 70.3319 128.425 71.0086V125.567C128.452 125.809 128.413 126.053 128.313 126.275C128.212 126.497 128.054 126.687 127.854 126.826L124.473 128.777Z" fill="#353039"/>
<path d="M124.474 71.0446C124.147 70.451 123.673 69.951 123.098 69.5923L61.3591 33.9456C59.2099 32.7046 55.7207 32.7046 53.5715 33.9456L52.2226 34.7234C51.6713 35.0075 51.2065 35.4345 50.8767 35.9597C50.5468 36.4849 50.3641 37.089 50.3477 37.709V96.7635C50.3648 96.1431 50.5477 95.5386 50.8774 95.0128C51.2071 94.487 51.6716 94.059 52.2226 93.7734L53.5715 92.9956C55.7207 91.7546 59.2099 91.7546 61.3591 92.9956L123.089 128.642C123.275 128.806 123.508 128.907 123.755 128.931C124.002 128.956 124.25 128.902 124.465 128.778C124.68 128.654 124.851 128.466 124.953 128.24C125.055 128.014 125.084 127.761 125.036 127.518V72.9645C125.015 72.2871 124.822 71.6263 124.474 71.0446Z" fill="#4F4C52"/>
<path d="M50.5191 38.7207C50.029 37.2324 50.636 35.6407 52.2277 34.7235L53.5766 33.9456C55.7258 32.7046 59.2149 32.7046 61.3642 33.9456L123.089 69.5923C123.664 69.9515 124.138 70.4514 124.465 71.0446L127.847 69.0932C127.517 68.5 127.044 67.999 126.471 67.6364L63.0458 31.0275C59.8669 29.1885 55.0693 29.1885 51.8859 31.0275L50.537 31.8009C49.612 32.3144 48.8167 33.0328 48.212 33.9009C47.6072 34.7691 47.2091 35.7641 47.0479 36.8097C47.0038 37.1075 46.9813 37.408 46.9805 37.709C47.0033 39.5245 47.7266 41.2611 48.9993 42.556L51.4408 40.2269C51.0246 39.802 50.7095 39.2887 50.5191 38.7252" fill="#353039"/>
<path d="M120.543 79.9742V72.4968L58.5347 36.7062C57.934 36.3915 57.266 36.2271 56.5878 36.2271C55.9097 36.2271 55.2416 36.3915 54.6409 36.7062L53.9665 37.0929C53.6913 37.2352 53.4593 37.4488 53.2948 37.7114C53.1303 37.974 53.0393 38.2759 53.0312 38.5856V51.5215L120.543 79.9742Z" fill="url(#paint4_linear_992_9004)"/>
<path opacity="0.2" d="M120.543 79.9742V72.4968L58.5347 36.7062C57.934 36.3915 57.266 36.2271 56.5878 36.2271C55.9097 36.2271 55.2416 36.3915 54.6409 36.7062L53.9665 37.0929C53.6913 37.2352 53.4593 37.4488 53.2948 37.7114C53.1303 37.974 53.0393 38.2759 53.0312 38.5856V51.5215L120.543 79.9742Z" fill="#353039"/>
<path d="M59.3781 35.245C58.5175 34.7933 57.5601 34.5573 56.5881 34.5573C55.6162 34.5573 54.6587 34.7933 53.7981 35.245L53.1282 35.6317C52.6664 35.8865 52.2688 36.2433 51.9657 36.675C51.6626 37.1066 51.462 37.6018 51.3791 38.1227C51.3579 38.2716 51.3474 38.4219 51.3477 38.5723V40.5956L53.0338 42.3582V38.6083C53.0413 38.2984 53.1321 37.9963 53.2967 37.7336C53.4613 37.471 53.6935 37.2575 53.969 37.1155L54.6435 36.7288C55.2468 36.4227 55.9138 36.2632 56.5904 36.2632C57.2669 36.2632 57.9339 36.4227 58.5373 36.7288L120.546 72.5194L122.236 71.5437L59.3781 35.245Z" fill="url(#paint5_linear_992_9004)"/>
<path opacity="0.3" d="M59.3781 35.245C58.5175 34.7933 57.5601 34.5573 56.5881 34.5573C55.6162 34.5573 54.6587 34.7933 53.7981 35.245L53.1282 35.6317C52.6664 35.8865 52.2688 36.2433 51.9657 36.675C51.6626 37.1066 51.462 37.6018 51.3791 38.1227C51.3579 38.2716 51.3474 38.4219 51.3477 38.5723V40.5956L53.0338 42.3582V38.6083C53.0413 38.2984 53.1321 37.9963 53.2967 37.7336C53.4613 37.471 53.6935 37.2575 53.969 37.1155L54.6435 36.7288C55.2468 36.4227 55.9138 36.2632 56.5904 36.2632C57.2669 36.2632 57.9339 36.4227 58.5373 36.7288L120.546 72.5194L122.236 71.5437L59.3781 35.245Z" fill="#353039"/>
<path d="M120.543 72.497L122.234 71.5213V80.8287L120.543 79.826V72.497Z" fill="url(#paint6_linear_992_9004)"/>
<path opacity="0.4" d="M120.543 72.497L122.234 71.5213V80.8287L120.543 79.826V72.497Z" fill="#353039"/>
<path d="M122.712 121.943V79.9385L60.8746 44.2018C60.2393 43.8361 59.5191 43.6436 58.7861 43.6436C58.053 43.6436 57.3328 43.8361 56.6975 44.2018L55.1328 45.1011V85.1722L120.779 123.067C120.976 123.177 121.198 123.234 121.424 123.232C121.65 123.23 121.871 123.17 122.066 123.056C122.261 122.943 122.423 122.78 122.537 122.585C122.65 122.39 122.711 122.169 122.712 121.943Z" fill="#353039"/>
<path d="M116.697 120.374L117.758 119.762C117.933 119.646 118.079 119.491 118.184 119.31C118.288 119.128 118.349 118.924 118.361 118.714V75.5499C118.35 75.3397 118.289 75.135 118.185 74.9523C118.08 74.7696 117.934 74.6139 117.758 74.4977L61.7839 42.1693C61.5962 42.0751 61.3891 42.0261 61.1791 42.0261C60.9692 42.0261 60.7621 42.0751 60.5744 42.1693L59.5132 42.7808C59.3374 42.896 59.191 43.0508 59.0856 43.2327C58.9802 43.4146 58.9188 43.6186 58.9062 43.8284V86.993C58.9183 87.2024 58.979 87.4062 59.0836 87.5881C59.1882 87.7699 59.3338 87.9249 59.5088 88.0406L115.488 120.374C115.675 120.468 115.883 120.517 116.093 120.517C116.303 120.517 116.51 120.468 116.697 120.374Z" fill="url(#paint7_linear_992_9004)"/>
<path opacity="0.7" d="M116.697 120.374L117.758 119.762C117.933 119.646 118.079 119.491 118.184 119.31C118.288 119.128 118.349 118.924 118.361 118.714V75.5499C118.35 75.3397 118.289 75.135 118.185 74.9523C118.08 74.7696 117.934 74.6139 117.758 74.4977L61.7839 42.1693C61.5962 42.0751 61.3891 42.0261 61.1791 42.0261C60.9692 42.0261 60.7621 42.0751 60.5744 42.1693L59.5132 42.7808C59.3374 42.896 59.191 43.0508 59.0856 43.2327C58.9802 43.4146 58.9188 43.6186 58.9062 43.8284V86.993C58.9183 87.2024 58.979 87.4062 59.0836 87.5881C59.1882 87.7699 59.3338 87.9249 59.5088 88.0406L115.488 120.374C115.675 120.468 115.883 120.517 116.093 120.517C116.303 120.517 116.51 120.468 116.697 120.374Z" fill="white"/>
<path d="M115.488 75.8015L59.5132 43.4776C59.1805 43.2842 58.9062 43.4416 58.9062 43.8283V86.9928C58.9183 87.2023 58.979 87.4061 59.0836 87.5879C59.1882 87.7698 59.3338 87.9248 59.5088 88.0405L115.488 120.373C115.821 120.567 116.09 120.409 116.09 120.027V76.8627C116.08 76.6509 116.021 76.4444 115.916 76.2601C115.811 76.0757 115.665 75.9186 115.488 75.8015Z" fill="url(#paint8_linear_992_9004)"/>
<path d="M115.488 75.8015L59.5132 43.4776C59.1805 43.2842 58.9062 43.4416 58.9062 43.8283V86.9928C58.9183 87.2023 58.979 87.4061 59.0836 87.5879C59.1882 87.7698 59.3338 87.9248 59.5088 88.0405L115.488 120.373C115.821 120.567 116.09 120.409 116.09 120.027V76.8627C116.08 76.6509 116.021 76.4444 115.916 76.2601C115.811 76.0757 115.665 75.9186 115.488 75.8015Z" fill="url(#paint9_linear_992_9004)"/>
<path opacity="0.5" d="M115.488 75.8015L59.5132 43.4776C59.1805 43.2842 58.9062 43.4416 58.9062 43.8283V86.9928C58.9183 87.2023 58.979 87.4061 59.0836 87.5879C59.1882 87.7698 59.3338 87.9248 59.5088 88.0405L115.488 120.373C115.821 120.567 116.09 120.409 116.09 120.027V76.8627C116.08 76.6509 116.021 76.4444 115.916 76.2601C115.811 76.0757 115.665 75.9186 115.488 75.8015Z" fill="white"/>
<path d="M59.5117 43.4777C64.1069 46.2968 68.7337 49.0486 73.3738 51.7913L87.3124 59.9386L101.345 67.9511L108.391 71.9078L115.473 75.8016L108.557 71.6156L101.611 67.4879L87.6721 59.3406L73.6256 51.3282C68.945 48.6844 64.2463 46.0495 59.5117 43.4777Z" fill="white"/>
<path d="M115.894 76.2513L118.142 74.9429C118.255 75.1208 118.317 75.3259 118.322 75.5364V118.701C118.311 118.911 118.251 119.115 118.148 119.298C118.044 119.481 117.899 119.636 117.724 119.753L116.663 120.365C116.495 120.449 116.311 120.498 116.122 120.507C115.934 120.517 115.746 120.486 115.57 120.419C115.849 120.508 116.056 120.347 116.056 120.009V76.8448C116.056 76.6361 116 76.4311 115.894 76.2513Z" fill="url(#paint10_linear_992_9004)"/>
<path d="M116.09 81.7772L118.36 80.4688V91.7545L116.09 93.0495V81.7772Z" fill="url(#paint11_linear_992_9004)"/>
<path opacity="0.2" d="M116.09 81.7772L118.36 80.4688V91.7545L116.09 93.0495V81.7772Z" fill="#353039"/>
<path opacity="0.2" d="M58.9062 48.7519L116.09 81.7773V93.0495L58.9062 60.0241V48.7519Z" fill="#353039"/>
<path d="M112.561 106.448V113.827C112.561 114.38 112.174 114.605 111.693 114.331L103.946 109.915C103.693 109.751 103.483 109.529 103.332 109.268C103.182 109.007 103.094 108.714 103.078 108.413V101.035C103.078 100.482 103.469 100.257 103.946 100.536C106.059 101.754 109.58 103.728 111.693 104.947C111.946 105.111 112.156 105.333 112.307 105.594C112.457 105.855 112.545 106.148 112.561 106.448Z" fill="#353039"/>
<path d="M114.085 109.371L114.282 109.03L101.553 101.741L101.355 102.078L114.085 109.371Z" fill="white"/>
<path d="M109.508 106.386H109.117V110.145H109.508V106.386Z" fill="white"/>
<path d="M106.524 104.74H106.133V108.495H106.524V104.74Z" fill="white"/>
<path d="M114.085 113.139L114.282 112.797L101.553 105.509L101.355 105.846L114.085 113.139Z" fill="white"/>
<path d="M82.5041 69.1157C82.1809 68.491 82.0186 67.7955 82.032 67.0923C82.032 66.3324 82.1849 65.8378 82.4817 65.613C82.7784 65.3882 83.2325 65.4467 83.8305 65.7794C84.0654 65.9149 84.2854 66.0747 84.487 66.256C84.6759 66.422 84.8436 66.6108 84.9861 66.818C85.0166 66.8565 85.0339 66.9038 85.0356 66.9529C85.0363 66.9864 85.0269 67.0193 85.0086 67.0473L84.8332 67.3531C84.8107 67.3846 84.7883 67.3981 84.7613 67.3846C84.7304 67.3584 84.7031 67.3281 84.6803 67.2946C84.4763 67.0243 84.2212 66.7967 83.9295 66.6247C83.5877 66.4269 83.3225 66.4044 83.1336 66.5573C83.0194 66.6965 82.9353 66.8578 82.8865 67.0312C82.8378 67.2045 82.8255 67.3861 82.8504 67.5644C82.8368 68.0316 82.9388 68.4949 83.1471 68.9133C83.3266 69.2703 83.6063 69.5672 83.9519 69.7676C84.1823 69.9265 84.4596 70.0026 84.7388 69.9834C84.7668 69.976 84.7962 69.976 84.8242 69.9834C84.8568 70.0139 84.8801 70.0528 84.8917 70.0958L85.085 70.6534C85.0893 70.6832 85.0893 70.7135 85.085 70.7433C85.085 70.7703 85.085 70.7928 85.0221 70.8108C84.7658 70.9052 84.3656 70.8108 83.826 70.487C83.2667 70.1613 82.809 69.6865 82.5041 69.1157Z" fill="#353039"/>
<path d="M85.5503 71.3098C85.5121 71.2331 85.4936 71.1482 85.4964 71.0625V67.1373C85.4964 67.0383 85.5143 66.9754 85.5503 66.9484C85.5818 66.9169 85.6402 66.9259 85.7212 66.9754L86.9757 67.6993C87.3722 67.9093 87.7013 68.2272 87.9248 68.6162C88.1484 69.0053 88.2574 69.4496 88.2391 69.898C88.2543 70.1453 88.2031 70.3921 88.0907 70.6129C88.045 70.6905 87.9789 70.7541 87.8997 70.7969C87.8205 70.8397 87.7311 70.86 87.6411 70.8557L88.1627 72.6812C88.1663 72.7141 88.1663 72.7473 88.1627 72.7801C88.1627 72.8611 88.1267 72.8835 88.0593 72.8431L87.5062 72.5238C87.4664 72.5026 87.4312 72.4735 87.4028 72.4384C87.373 72.3987 87.3529 72.3525 87.3444 72.3035L86.8947 70.5814L86.3012 70.2397V71.5391C86.3012 71.6336 86.3012 71.6965 86.2517 71.7235C86.2023 71.7505 86.1618 71.7235 86.0809 71.692L85.7077 71.4807C85.64 71.4399 85.5854 71.3806 85.5503 71.3098ZM86.8587 69.7631C87.0476 69.871 87.187 69.9025 87.2814 69.8485C87.3758 69.7946 87.4253 69.6597 87.4253 69.4304C87.4315 69.2291 87.3867 69.0296 87.2949 68.8504C87.2042 68.6893 87.0703 68.5569 86.9082 68.4682L86.3147 68.1264V69.4529L86.8587 69.7631Z" fill="#353039"/>
<path d="M88.6996 73.1309C88.6651 73.0531 88.6482 72.9687 88.6502 72.8836V68.9538C88.6425 68.8869 88.6602 68.8195 88.6996 68.765C88.7356 68.738 88.7941 68.765 88.8705 68.7919L90.9343 69.9835C91.0038 70.0188 91.0615 70.0734 91.1007 70.1408C91.1306 70.2166 91.1444 70.2977 91.1411 70.3791V70.6264C91.1501 70.6936 91.1358 70.7618 91.1007 70.8198C91.0692 70.8467 91.0152 70.8198 90.9343 70.7928L89.4685 69.943V70.9816L90.4937 71.5752C90.5619 71.6106 90.6182 71.6653 90.6555 71.7325C90.6894 71.8072 90.7048 71.8889 90.7005 71.9708V72.2046C90.7005 72.3036 90.7005 72.371 90.6555 72.398C90.6106 72.4249 90.5701 72.398 90.4937 72.3665L89.4685 71.7775V72.8296L90.9298 73.6749C91.0004 73.7093 91.0574 73.7663 91.0917 73.8368C91.1259 73.913 91.1413 73.9962 91.1366 74.0796V74.3179C91.1366 74.4213 91.1366 74.4843 91.0917 74.5067C91.0467 74.5292 91.0108 74.5067 90.9298 74.4753L88.8705 73.2882C88.8008 73.2517 88.7418 73.1974 88.6996 73.1309Z" fill="#353039"/>
<path d="M91.5521 74.7766C91.5139 74.6999 91.4954 74.6149 91.4982 74.5293V70.5995C91.4938 70.566 91.4963 70.532 91.5056 70.4995C91.5149 70.467 91.5307 70.4368 91.5521 70.4106C91.5836 70.3837 91.6421 70.4106 91.723 70.4376L92.7661 71.0401C93.3073 71.3428 93.754 71.7894 94.0566 72.3306C94.3726 72.9361 94.5275 73.6128 94.5062 74.2955C94.5062 75.0628 94.3563 75.5439 94.0566 75.7388C93.7598 75.9321 93.3282 75.8692 92.7706 75.5454L91.7275 74.9429C91.6526 74.9079 91.5911 74.8495 91.5521 74.7766ZM92.8066 74.7766C93.1064 74.9474 93.3267 74.9654 93.4676 74.8305C93.6546 74.5335 93.731 74.1801 93.6834 73.8323C93.7027 73.4064 93.6291 72.9814 93.4676 72.5869C93.3232 72.2905 93.0928 72.0445 92.8066 71.8809L92.3165 71.6022V74.4978L92.8066 74.7766Z" fill="#353039"/>
<path d="M94.9623 76.7414C94.9241 76.6663 94.9055 76.5828 94.9083 76.4986V72.5688C94.904 72.5353 94.9065 72.5013 94.9158 72.4688C94.9251 72.4363 94.9409 72.4061 94.9623 72.3799C94.9938 72.353 95.0522 72.38 95.1332 72.4069L95.5064 72.6228C95.5799 72.6602 95.6397 72.7201 95.6772 72.7936C95.7144 72.8705 95.7314 72.9556 95.7267 73.0409V76.9707C95.7267 77.0696 95.7267 77.1325 95.6772 77.1595C95.6278 77.1865 95.5873 77.1595 95.5064 77.1281L95.1332 76.9122C95.0596 76.8747 94.9998 76.8149 94.9623 76.7414Z" fill="#353039"/>
<path d="M97.1105 77.9869C97.0738 77.9098 97.0568 77.8249 97.061 77.7396V74.3269L96.2427 73.8773C96.1762 73.8394 96.1205 73.7853 96.0808 73.7199C96.047 73.6436 96.0315 73.5604 96.0359 73.4771V73.2298C96.0359 73.1309 96.0359 73.0679 96.0808 73.041C96.1258 73.014 96.1663 73.041 96.2427 73.0679L98.6977 74.4843C98.7684 74.5199 98.8265 74.5764 98.864 74.6461C98.8995 74.7236 98.9164 74.8083 98.9135 74.8934V75.1362C98.9135 75.2352 98.9135 75.2981 98.864 75.3206C98.8146 75.3431 98.7786 75.3206 98.6977 75.2936L97.9063 74.8035V78.2162C97.9063 78.3151 97.9063 78.3736 97.8524 78.4006C97.7984 78.4275 97.7624 78.4006 97.677 78.3691L97.3083 78.1578C97.2269 78.1217 97.1581 78.0622 97.1105 77.9869Z" fill="#353039"/>
<path d="M101.388 80.0146C101.06 79.3929 100.896 78.6982 100.911 77.9958C100.911 77.2314 101.064 76.7368 101.361 76.5165C101.657 76.2962 102.116 76.3456 102.71 76.6784C102.945 76.8132 103.165 76.973 103.366 77.155C103.554 77.3221 103.721 77.5107 103.865 77.717C103.897 77.7546 103.915 77.8025 103.915 77.8519C103.917 77.8869 103.907 77.9218 103.888 77.9508L103.712 78.2521C103.712 78.288 103.667 78.297 103.645 78.2835C103.611 78.2612 103.582 78.2321 103.559 78.1981C103.358 77.9243 103.102 77.6948 102.809 77.5237C102.467 77.3303 102.202 77.3078 102.013 77.4607C101.898 77.5998 101.814 77.7612 101.765 77.9345C101.716 78.1079 101.704 78.2895 101.729 78.4679C101.715 78.9352 101.817 79.3987 102.026 79.8168C102.207 80.1753 102.488 80.4736 102.835 80.6756C103.064 80.8348 103.34 80.911 103.618 80.8914C103.645 80.8814 103.676 80.8814 103.703 80.8914C103.737 80.921 103.76 80.9602 103.771 81.0038L103.969 81.5568C103.973 81.5881 103.973 81.62 103.969 81.6513C103.969 81.6783 103.969 81.6962 103.91 81.7142C103.649 81.8131 103.249 81.7142 102.71 81.395C102.147 81.0694 101.689 80.5907 101.388 80.0146Z" fill="#353039"/>
<path d="M104.161 82.0111C104.157 81.9797 104.157 81.948 104.161 81.9166L105.447 78.5714C105.458 78.5259 105.485 78.486 105.524 78.459C105.545 78.4534 105.568 78.4529 105.59 78.4576C105.612 78.4623 105.632 78.472 105.649 78.486L106.009 78.6973C106.058 78.7222 106.1 78.7594 106.131 78.8052C106.164 78.869 106.188 78.9371 106.203 79.0075L107.493 83.8366C107.496 83.874 107.496 83.9116 107.493 83.949C107.493 84.0254 107.461 84.0479 107.403 84.0119L106.801 83.6657C106.761 83.6442 106.727 83.6133 106.702 83.5758C106.675 83.5312 106.655 83.4826 106.643 83.4319L106.414 82.5326L105.209 81.8357L104.984 82.4877C104.984 82.5326 104.948 82.5596 104.926 82.5641C104.903 82.5686 104.872 82.5641 104.822 82.5371L104.224 82.1909C104.197 82.1702 104.177 82.1422 104.166 82.1103C104.155 82.0784 104.153 82.0439 104.161 82.0111ZM106.252 81.6514L105.838 79.9787L105.425 81.1703L106.252 81.6514Z" fill="#353039"/>
<path d="M107.982 84.2638C107.945 84.1867 107.928 84.1018 107.932 84.0165V80.0867C107.927 80.0536 107.929 80.0198 107.938 79.9873C107.946 79.9549 107.961 79.9245 107.982 79.8979C108.018 79.8709 108.076 79.8979 108.153 79.9249L109.412 80.6533C109.808 80.8633 110.137 81.1811 110.361 81.5702C110.584 81.9593 110.693 82.4036 110.675 82.852C110.691 83.0984 110.638 83.3445 110.522 83.5624C110.477 83.6408 110.411 83.7053 110.332 83.7489C110.253 83.7925 110.163 83.8135 110.072 83.8097L110.594 85.6352C110.598 85.668 110.598 85.7013 110.594 85.7341C110.594 85.815 110.563 85.833 110.491 85.7926L109.942 85.4733C109.901 85.4535 109.865 85.426 109.834 85.3924C109.807 85.3495 109.787 85.3024 109.776 85.253L109.326 83.5354L108.737 83.1937V84.4706C108.746 84.5377 108.728 84.6055 108.688 84.6595C108.652 84.6865 108.598 84.6595 108.512 84.628L108.139 84.4122C108.075 84.3763 108.021 84.3253 107.982 84.2638ZM109.29 82.7171C109.479 82.825 109.623 82.852 109.717 82.8025C109.812 82.7531 109.857 82.6092 109.857 82.3799C109.864 82.1804 109.821 81.9824 109.731 81.8043C109.637 81.6428 109.502 81.5092 109.34 81.4176L108.751 81.0804V82.4023L109.29 82.7171Z" fill="#353039"/>
<path d="M111.136 86.0802C111.098 86.005 111.08 85.9216 111.082 85.8374V81.9077C111.082 81.8087 111.1 81.7458 111.136 81.7188C111.172 81.6918 111.226 81.7188 111.307 81.7458L112.35 82.3483C112.892 82.648 113.339 83.0935 113.641 83.6342C113.956 84.24 114.111 84.9165 114.09 85.5991C114.09 86.368 113.942 86.8491 113.641 87.0469C113.339 87.2448 112.912 87.1773 112.355 86.8536L111.307 86.2691C111.232 86.2254 111.172 86.1594 111.136 86.0802ZM112.391 86.0802C112.69 86.2511 112.911 86.2691 113.052 86.1342C113.196 86.0038 113.267 85.6846 113.267 85.1405C113.287 84.7146 113.214 84.2895 113.052 83.895C112.908 83.5979 112.678 83.3516 112.391 83.1891L111.905 82.9058V85.8015L112.391 86.0802Z" fill="#353039"/>
<g opacity="0.15">
<path opacity="0.15" d="M82.5041 69.1158C82.1809 68.4911 82.0186 67.7957 82.032 67.0924C82.032 66.3326 82.1849 65.838 82.4817 65.6131C82.7784 65.3883 83.2325 65.4468 83.8305 65.7795C84.0654 65.9151 84.2854 66.0748 84.487 66.2561C84.6759 66.4222 84.8436 66.6109 84.9861 66.8182C85.0166 66.8567 85.0339 66.9039 85.0356 66.953C85.0363 66.9865 85.0269 67.0194 85.0086 67.0475L84.8332 67.3532C84.8107 67.3847 84.7883 67.3982 84.7613 67.3847C84.7304 67.3585 84.7031 67.3283 84.6803 67.2948C84.4763 67.0244 84.2212 66.7968 83.9295 66.6248C83.5877 66.427 83.3225 66.4045 83.1336 66.5574C83.0194 66.6966 82.9353 66.858 82.8865 67.0313C82.8378 67.2046 82.8255 67.3862 82.8504 67.5645C82.8368 68.0317 82.9388 68.4951 83.1471 68.9134C83.3266 69.2704 83.6063 69.5673 83.9519 69.7677C84.1823 69.9266 84.4596 70.0027 84.7388 69.9836C84.7668 69.9761 84.7962 69.9761 84.8242 69.9836C84.8568 70.014 84.8801 70.0529 84.8917 70.096L85.085 70.6535C85.0893 70.6833 85.0893 70.7136 85.085 70.7434C85.085 70.7704 85.085 70.7929 85.0221 70.8109C84.7658 70.9053 84.3656 70.8109 83.826 70.4871C83.2667 70.1615 82.809 69.6867 82.5041 69.1158Z" fill="#353039"/>
<path opacity="0.15" d="M85.5542 71.3101C85.516 71.2334 85.4975 71.1484 85.5003 71.0628V67.1375C85.5003 67.0386 85.5183 66.9756 85.5542 66.9487C85.5857 66.9172 85.6442 66.9262 85.7251 66.9756L86.9796 67.6995C87.3761 67.9095 87.7052 68.2274 87.9287 68.6165C88.1523 69.0055 88.2613 69.4499 88.243 69.8982C88.2582 70.1455 88.207 70.3923 88.0947 70.6131C88.0489 70.6907 87.9829 70.7543 87.9036 70.7971C87.8244 70.8399 87.735 70.8602 87.645 70.856L88.1666 72.6815C88.1702 72.7143 88.1702 72.7475 88.1666 72.7804C88.1666 72.8613 88.1306 72.8838 88.0632 72.8433L87.5101 72.5241C87.4703 72.5028 87.4351 72.4738 87.4067 72.4386C87.3769 72.3989 87.3568 72.3527 87.3483 72.3038L86.8986 70.5817L86.3051 70.24V71.5394C86.3051 71.6338 86.3051 71.6968 86.2556 71.7237C86.2062 71.7507 86.1657 71.7237 86.0848 71.6923L85.7116 71.4809C85.6439 71.4402 85.5893 71.3809 85.5542 71.3101ZM86.8627 69.7633C87.0515 69.8713 87.1909 69.9027 87.2853 69.8488C87.3797 69.7948 87.4292 69.6599 87.4292 69.4306C87.4354 69.2294 87.3906 69.0298 87.2988 68.8506C87.2081 68.6896 87.0742 68.5572 86.9121 68.4684L86.3186 68.1267V69.4531L86.8627 69.7633Z" fill="#353039"/>
<path opacity="0.15" d="M88.6996 73.1309C88.6651 73.0532 88.6482 72.9687 88.6502 72.8836V68.9539C88.6425 68.8869 88.6602 68.8196 88.6996 68.765C88.7356 68.738 88.7941 68.765 88.8705 68.792L90.9343 69.9835C91.0038 70.0189 91.0615 70.0735 91.1007 70.1409C91.1306 70.2166 91.1444 70.2978 91.1411 70.3792V70.6265C91.1501 70.6937 91.1358 70.7619 91.1007 70.8198C91.0692 70.8468 91.0152 70.8198 90.9343 70.7929L89.4685 69.9431V70.9817L90.4937 71.5752C90.5619 71.6106 90.6182 71.6654 90.6555 71.7326C90.6894 71.8073 90.7048 71.889 90.7005 71.9709V72.2047C90.7005 72.3036 90.7005 72.3711 90.6555 72.398C90.6106 72.425 90.5701 72.398 90.4937 72.3666L89.4685 71.7775V72.8297L90.9298 73.675C91.0004 73.7093 91.0574 73.7663 91.0917 73.8369C91.1259 73.913 91.1413 73.9963 91.1366 74.0797V74.318C91.1366 74.4214 91.1366 74.4843 91.0917 74.5068C91.0467 74.5293 91.0108 74.5068 90.9298 74.4753L88.8705 73.2883C88.8008 73.2517 88.7418 73.1974 88.6996 73.1309Z" fill="#353039"/>
<path opacity="0.15" d="M91.5521 74.7766C91.5139 74.6999 91.4954 74.615 91.4982 74.5293V70.5996C91.4938 70.5661 91.4963 70.532 91.5056 70.4996C91.5149 70.4671 91.5307 70.4368 91.5521 70.4107C91.5836 70.3837 91.6421 70.4107 91.723 70.4377L92.7661 71.0402C93.3073 71.3428 93.754 71.7895 94.0566 72.3306C94.3726 72.9362 94.5275 73.6128 94.5062 74.2955C94.5062 75.0629 94.3563 75.544 94.0566 75.7388C93.7598 75.9322 93.3282 75.8692 92.7706 75.5455L91.7275 74.943C91.6526 74.908 91.5911 74.8496 91.5521 74.7766ZM92.8066 74.7766C93.1064 74.9475 93.3267 74.9655 93.4676 74.8306C93.6546 74.5336 93.731 74.1802 93.6834 73.8324C93.7027 73.4065 93.6291 72.9815 93.4676 72.5869C93.3232 72.2906 93.0928 72.0446 92.8066 71.881L92.3165 71.6022V74.4979L92.8066 74.7766Z" fill="#353039"/>
<path opacity="0.15" d="M94.9623 76.7416C94.9241 76.6665 94.9055 76.583 94.9083 76.4988V72.569C94.904 72.5355 94.9065 72.5015 94.9158 72.469C94.9251 72.4366 94.9409 72.4063 94.9623 72.3802C94.9938 72.3532 95.0522 72.3802 95.1332 72.4072L95.5064 72.623C95.5799 72.6605 95.6397 72.7203 95.6772 72.7939C95.7144 72.8708 95.7314 72.9559 95.7267 73.0411V76.9709C95.7267 77.0698 95.7267 77.1328 95.6772 77.1598C95.6278 77.1867 95.5873 77.1598 95.5064 77.1283L95.1332 76.9125C95.0596 76.875 94.9998 76.8152 94.9623 76.7416Z" fill="#353039"/>
<path opacity="0.15" d="M97.1105 77.987C97.0738 77.9099 97.0568 77.825 97.061 77.7397V74.327L96.2427 73.8774C96.1762 73.8396 96.1205 73.7854 96.0808 73.72C96.047 73.6438 96.0315 73.5606 96.0359 73.4772V73.2299C96.0359 73.131 96.0359 73.0681 96.0808 73.0411C96.1258 73.0141 96.1663 73.0411 96.2427 73.0681L98.6977 74.4844C98.7684 74.52 98.8265 74.5765 98.864 74.6463C98.8995 74.7237 98.9164 74.8084 98.9135 74.8936V75.1364C98.9135 75.2353 98.9135 75.2982 98.864 75.3207C98.8146 75.3432 98.7786 75.3207 98.6977 75.2937L97.9063 74.8036V78.2163C97.9063 78.3153 97.9063 78.3737 97.8524 78.4007C97.7984 78.4277 97.7624 78.4007 97.677 78.3692L97.3083 78.1579C97.2269 78.1218 97.1581 78.0623 97.1105 77.987Z" fill="#353039"/>
<path opacity="0.15" d="M101.388 80.0149C101.06 79.3932 100.896 78.6985 100.911 77.996C100.911 77.2316 101.064 76.737 101.361 76.5167C101.657 76.2964 102.116 76.3459 102.71 76.6786C102.945 76.8135 103.165 76.9733 103.366 77.1552C103.554 77.3223 103.721 77.511 103.865 77.7172C103.897 77.7549 103.915 77.8027 103.915 77.8521C103.917 77.8872 103.907 77.922 103.888 77.9511L103.712 78.2523C103.712 78.2883 103.667 78.2973 103.645 78.2838C103.611 78.2615 103.582 78.2324 103.559 78.1983C103.358 77.9246 103.102 77.695 102.809 77.5239C102.467 77.3306 102.202 77.3081 102.013 77.461C101.898 77.6 101.814 77.7614 101.765 77.9348C101.716 78.1082 101.704 78.2898 101.729 78.4681C101.715 78.9354 101.817 79.3989 102.026 79.817C102.207 80.1755 102.488 80.4738 102.835 80.6758C103.064 80.835 103.34 80.9112 103.618 80.8916C103.645 80.8817 103.676 80.8817 103.703 80.8916C103.737 80.9212 103.76 80.9605 103.771 81.004L103.969 81.5571C103.973 81.5884 103.973 81.6202 103.969 81.6515C103.969 81.6785 103.969 81.6965 103.91 81.7145C103.649 81.8134 103.249 81.7145 102.71 81.3952C102.147 81.0696 101.689 80.5909 101.388 80.0149Z" fill="#353039"/>
<path opacity="0.15" d="M104.161 82.0112C104.157 81.9799 104.157 81.9482 104.161 81.9168L105.447 78.5716C105.458 78.5261 105.485 78.4861 105.524 78.4592C105.545 78.4536 105.568 78.4531 105.59 78.4578C105.612 78.4625 105.632 78.4722 105.649 78.4861L106.009 78.6975C106.058 78.7224 106.1 78.7595 106.131 78.8054C106.164 78.8692 106.188 78.9373 106.203 79.0077L107.493 83.8367C107.496 83.8741 107.496 83.9118 107.493 83.9492C107.493 84.0256 107.461 84.0481 107.403 84.0121L106.801 83.6659C106.761 83.6444 106.727 83.6135 106.702 83.576C106.675 83.5314 106.655 83.4828 106.643 83.4321L106.414 82.5328L105.209 81.8359L104.984 82.4879C104.984 82.5328 104.948 82.5598 104.926 82.5643C104.903 82.5688 104.872 82.5643 104.822 82.5373L104.224 82.1911C104.197 82.1704 104.177 82.1424 104.166 82.1105C104.155 82.0786 104.153 82.0441 104.161 82.0112ZM106.252 81.6515L105.838 79.9789L105.425 81.1704L106.252 81.6515Z" fill="#353039"/>
<path opacity="0.15" d="M107.986 84.2639C107.949 84.1868 107.932 84.1018 107.936 84.0166V80.0868C107.931 80.0536 107.933 80.0198 107.942 79.9874C107.95 79.955 107.965 79.9246 107.986 79.898C108.022 79.871 108.08 79.898 108.156 79.9249L109.415 80.6533C109.812 80.8633 110.141 81.1812 110.365 81.5703C110.588 81.9593 110.697 82.4037 110.679 82.852C110.695 83.0985 110.642 83.3446 110.526 83.5625C110.481 83.6409 110.415 83.7054 110.336 83.749C110.256 83.7926 110.167 83.8136 110.076 83.8097L110.598 85.6352C110.602 85.6681 110.602 85.7013 110.598 85.7342C110.598 85.8151 110.566 85.8331 110.495 85.7926L109.946 85.4734C109.905 85.4535 109.869 85.4261 109.838 85.3924C109.811 85.3496 109.791 85.3025 109.78 85.2531L109.33 83.5355L108.741 83.1938V84.4707C108.75 84.5377 108.732 84.6056 108.692 84.6596C108.656 84.6865 108.602 84.6596 108.516 84.6281L108.143 84.4122C108.079 84.3763 108.025 84.3254 107.986 84.2639ZM109.294 82.7171C109.483 82.8251 109.627 82.852 109.721 82.8026C109.816 82.7531 109.861 82.6092 109.861 82.3799C109.868 82.1805 109.825 81.9824 109.735 81.8044C109.641 81.6428 109.506 81.5093 109.343 81.4177L108.754 81.0805V82.4024L109.294 82.7171Z" fill="#353039"/>
<path opacity="0.15" d="M111.136 86.0805C111.098 86.0053 111.08 85.9218 111.082 85.8377V81.9079C111.082 81.809 111.1 81.746 111.136 81.7191C111.172 81.6921 111.226 81.7191 111.307 81.746L112.35 82.3485C112.892 82.6482 113.339 83.0937 113.641 83.6345C113.956 84.2402 114.111 84.9167 114.09 85.5994C114.09 86.3682 113.942 86.8494 113.641 87.0472C113.339 87.245 112.912 87.1776 112.355 86.8538L111.307 86.2693C111.232 86.2257 111.172 86.1597 111.136 86.0805ZM112.391 86.0805C112.69 86.2513 112.911 86.2693 113.052 86.1344C113.196 86.004 113.267 85.6848 113.267 85.1407C113.287 84.7148 113.214 84.2897 113.052 83.8953C112.908 83.5981 112.678 83.3518 112.391 83.1893L111.905 82.9061V85.8017L112.391 86.0805Z" fill="#353039"/>
</g>
<path d="M67.2325 78.261L69.4402 79.538C69.5923 79.6356 69.719 79.7681 69.8097 79.9245C69.9004 80.0809 69.9525 80.2567 69.9618 80.4372V81.1117C69.9618 81.4444 69.728 81.5613 69.4402 81.4129L67.2325 80.136C67.0809 80.0378 66.9546 79.9051 66.8639 79.7489C66.7733 79.5926 66.7209 79.4171 66.7109 79.2367V78.5623C66.7109 78.2295 66.9447 78.0946 67.2325 78.261Z" fill="url(#paint12_linear_992_9004)"/>
<path d="M62.3575 75.4464L64.5652 76.7234C64.7168 76.8216 64.8431 76.9542 64.9338 77.1105C65.0244 77.2668 65.0768 77.4423 65.0868 77.6226V78.2971C65.0868 78.6298 64.853 78.7467 64.5652 78.5984L62.3575 77.3214C62.2059 77.2232 62.0796 77.0905 61.9889 76.9343C61.8983 76.778 61.8459 76.6025 61.8359 76.4221V75.7477C61.8359 75.415 62.0697 75.2801 62.3575 75.4464Z" fill="url(#paint13_linear_992_9004)"/>
<path d="M90.2635 96.2464L62.7461 80.3609C62.2695 80.0821 61.8828 80.307 61.8828 80.86V81.6738C61.899 81.9743 61.9855 82.2667 62.1355 82.5276C62.2854 82.7885 62.4946 83.0104 62.7461 83.1756L90.2635 99.0566C90.7446 99.3353 91.1313 99.1105 91.1313 98.5575V97.7436C91.1157 97.4431 91.0289 97.1507 90.878 96.8903C90.7272 96.63 90.5165 96.4093 90.2635 96.2464Z" fill="url(#paint14_linear_992_9004)"/>
<path d="M67.2325 78.261L69.4402 79.538C69.5923 79.6356 69.719 79.7681 69.8097 79.9245C69.9004 80.0809 69.9525 80.2567 69.9618 80.4372V81.1117C69.9618 81.4444 69.728 81.5613 69.4402 81.4129L67.2325 80.136C67.0809 80.0378 66.9546 79.9051 66.8639 79.7489C66.7733 79.5926 66.7209 79.4171 66.7109 79.2367V78.5623C66.7109 78.2295 66.9447 78.0946 67.2325 78.261Z" fill="#353039"/>
<path d="M62.3575 75.4464L64.5652 76.7234C64.7168 76.8216 64.8431 76.9542 64.9338 77.1105C65.0244 77.2668 65.0768 77.4423 65.0868 77.6226V78.2971C65.0868 78.6298 64.853 78.7467 64.5652 78.5984L62.3575 77.3214C62.2059 77.2232 62.0796 77.0905 61.9889 76.9343C61.8983 76.778 61.8459 76.6025 61.8359 76.4221V75.7477C61.8359 75.415 62.0697 75.2801 62.3575 75.4464Z" fill="#353039"/>
<path d="M90.2635 96.2464L62.7461 80.3609C62.2695 80.0821 61.8828 80.307 61.8828 80.86V81.6738C61.899 81.9743 61.9855 82.2667 62.1355 82.5276C62.2854 82.7885 62.4946 83.0104 62.7461 83.1756L90.2635 99.0566C90.7446 99.3353 91.1313 99.1105 91.1313 98.5575V97.7436C91.1157 97.4431 91.0289 97.1507 90.878 96.8903C90.7272 96.63 90.5165 96.4093 90.2635 96.2464Z" fill="#353039"/>
<path d="M62.3863 67.7848L62.4897 67.8432C62.6613 67.9665 62.8016 68.1284 62.8993 68.3158C62.9969 68.5032 63.0491 68.711 63.0517 68.9223V71.0896C63.0517 71.5032 62.7999 71.7011 62.4807 71.5392L62.3952 71.4942C62.2217 71.3763 62.0792 71.2183 61.9798 71.0336C61.8804 70.8488 61.827 70.6429 61.8242 70.4331V68.2209C61.8377 67.7983 62.0895 67.6049 62.3863 67.7848Z" fill="#FAFAFA"/>
<path d="M65.3087 69.4754L65.4076 69.5338C65.5795 69.6562 65.7203 69.8171 65.8187 70.0038C65.9171 70.1904 65.9704 70.3975 65.9742 70.6085V72.7802C65.9742 73.1983 65.7179 73.3962 65.4031 73.2298L65.3132 73.1804C65.1394 73.0627 64.9967 72.9048 64.8973 72.72C64.7978 72.5352 64.7446 72.3291 64.7422 72.1192V69.9025C64.7422 69.4844 64.994 69.2955 65.3087 69.4754Z" fill="#FAFAFA"/>
<path d="M68.2309 71.1614L68.3343 71.2199C68.506 71.3431 68.6463 71.505 68.7439 71.6925C68.8416 71.8799 68.8938 72.0877 68.8964 72.299V74.4662C68.8964 74.8799 68.6401 75.0777 68.3253 74.9158L68.2399 74.8709C68.0658 74.7535 67.9229 74.5956 67.8234 74.4108C67.724 74.2259 67.6709 74.0197 67.6689 73.8097V71.5976C67.6509 71.1749 67.9027 70.9816 68.2309 71.1614Z" fill="#FAFAFA"/>
<path d="M71.1167 72.8522L71.2201 72.9106C71.3912 73.0334 71.5311 73.1946 71.6287 73.3812C71.7263 73.5678 71.7789 73.7747 71.7822 73.9852V76.1525C71.7822 76.5706 71.5259 76.7685 71.2111 76.6021L71.1257 76.5526C70.9522 76.4347 70.8097 76.2767 70.7103 76.092C70.6109 75.9073 70.5575 75.7013 70.5547 75.4915V73.2748C70.5547 72.8612 70.8065 72.6723 71.1167 72.8522Z" fill="#FAFAFA"/>
<path d="M75.9918 75.6308L76.0952 75.6893C76.2669 75.8126 76.4072 75.9744 76.5048 76.1619C76.6024 76.3493 76.6546 76.5571 76.6572 76.7684V78.9356C76.6572 79.3493 76.4009 79.5471 76.0862 79.3853L76.0008 79.3403C75.8273 79.2224 75.6847 79.0644 75.5853 78.8797C75.4859 78.6949 75.4325 78.4889 75.4297 78.2792V76.067C75.4252 75.6443 75.6815 75.451 75.9918 75.6308Z" fill="#FAFAFA"/>
<path d="M78.8986 77.3214L79.002 77.3799C79.1731 77.5027 79.313 77.6638 79.4106 77.8505C79.5082 78.0371 79.5607 78.2439 79.564 78.4545V80.6217C79.564 81.0354 79.3077 81.2332 78.993 81.0713L78.9031 81.0264C78.7296 80.9085 78.587 80.7505 78.4876 80.5657C78.3882 80.381 78.3348 80.175 78.332 79.9652V77.7261C78.3365 77.3304 78.5748 77.1416 78.8986 77.3214Z" fill="#FAFAFA"/>
<path d="M81.8087 79.0075L81.9076 79.066C82.0801 79.1887 82.2213 79.3504 82.3197 79.5379C82.4182 79.7253 82.4711 79.9334 82.4742 80.1451V82.3123C82.4742 82.726 82.2179 82.9238 81.9031 82.7619L81.8132 82.7125C81.6401 82.5953 81.4977 82.438 81.3983 82.2541C81.2989 82.0701 81.2453 81.8649 81.2422 81.6558V79.4346C81.2422 79.021 81.494 78.8277 81.8087 79.0075Z" fill="#FAFAFA"/>
<path d="M84.7105 80.6981L84.8139 80.7566C84.985 80.8794 85.1249 81.0406 85.2225 81.2272C85.3201 81.4138 85.3726 81.6207 85.3759 81.8312V84.0209C85.3759 84.4346 85.1196 84.6324 84.8049 84.4706L84.7195 84.4256C84.546 84.3077 84.4034 84.1497 84.304 83.965C84.2046 83.7802 84.1512 83.5742 84.1484 83.3645V81.1523C84.1484 80.7071 84.4182 80.5183 84.7105 80.6981Z" fill="#FAFAFA"/>
<path d="M89.5855 83.4769L89.6889 83.5353C89.8606 83.6586 90.0009 83.8205 90.0985 84.0079C90.1961 84.1954 90.2483 84.4031 90.2509 84.6144V86.7817C90.2509 87.1953 89.9946 87.3932 89.6799 87.2313L89.5945 87.1818C89.4213 87.0647 89.279 86.9074 89.1795 86.7235C89.0801 86.5395 89.0266 86.3343 89.0234 86.1252V83.913C89.0234 83.4859 89.2752 83.297 89.5855 83.4769Z" fill="#FAFAFA"/>
<path d="M92.5127 85.1675L92.6161 85.226C92.7871 85.3488 92.9271 85.5099 93.0247 85.6965C93.1223 85.8832 93.1748 86.09 93.1781 86.3006V88.4678C93.1781 88.8815 92.9263 89.0793 92.6071 88.9174L92.5216 88.8725C92.3481 88.7546 92.2056 88.5966 92.1062 88.4118C92.0068 88.2271 91.9534 88.0211 91.9506 87.8113V85.5992C91.9281 85.1765 92.1799 84.9877 92.5127 85.1675Z" fill="#FAFAFA"/>
<path d="M95.3986 86.8536L95.4975 86.9121C95.67 87.0348 95.8112 87.1965 95.9096 87.384C96.008 87.5715 96.0609 87.7795 96.064 87.9912V90.1539C96.064 90.5721 95.8077 90.7699 95.493 90.6035L95.4031 90.5541C95.2293 90.4365 95.0866 90.2785 94.9871 90.0937C94.8877 89.9089 94.8345 89.7028 94.832 89.4929V87.2853C94.832 86.8626 95.0838 86.6738 95.3986 86.8536Z" fill="#FAFAFA"/>
<path d="M98.3043 88.5397L98.4077 88.6027C98.5788 88.7255 98.7187 88.8867 98.8163 89.0733C98.9139 89.2599 98.9664 89.4667 98.9697 89.6773V91.8445C98.9697 92.2582 98.7134 92.456 98.3987 92.2942L98.3133 92.2492C98.1392 92.1318 97.9963 91.974 97.8968 91.7891C97.7973 91.6042 97.7443 91.398 97.7422 91.1881V88.9669C97.7377 88.5532 97.994 88.3599 98.3043 88.5397Z" fill="#FAFAFA"/>
<path d="M103.175 91.3229L103.279 91.3814C103.45 91.5046 103.591 91.6665 103.688 91.8539C103.786 92.0414 103.838 92.2491 103.841 92.4605V94.6232C103.841 95.0413 103.584 95.2392 103.27 95.0728L103.184 95.0234C103.01 94.9066 102.866 94.7488 102.767 94.5638C102.667 94.3789 102.615 94.1723 102.613 93.9622V91.7546C102.613 91.3319 102.852 91.1431 103.175 91.3229Z" fill="#FAFAFA"/>
<path d="M106.082 93.0135L106.185 93.0764C106.356 93.1992 106.496 93.3604 106.594 93.547C106.691 93.7336 106.744 93.9405 106.747 94.151V96.3182C106.747 96.7319 106.491 96.9297 106.176 96.7679L106.091 96.7229C105.917 96.605 105.775 96.447 105.675 96.2623C105.576 96.0775 105.522 95.8716 105.52 95.6618V93.4496C105.52 93.0135 105.771 92.8291 106.082 93.0135Z" fill="#FAFAFA"/>
<path d="M108.984 94.6996L109.087 94.758C109.258 94.8808 109.398 95.042 109.496 95.2286C109.594 95.4152 109.646 95.6221 109.649 95.8326V97.9999C109.649 98.418 109.398 98.6158 109.078 98.4495L108.993 98.4C108.819 98.2824 108.676 98.1245 108.577 97.9397C108.477 97.7549 108.424 97.5487 108.422 97.3389V95.1267C108.422 94.7086 108.696 94.5197 108.984 94.6996Z" fill="#FAFAFA"/>
<path d="M111.895 96.3857L111.994 96.4442C112.166 96.567 112.307 96.7286 112.406 96.9161C112.504 97.1036 112.557 97.3116 112.56 97.5233V99.6905C112.56 100.104 112.304 100.302 111.989 100.14L111.899 100.095C111.726 99.9773 111.583 99.8193 111.484 99.6345C111.384 99.4498 111.331 99.2438 111.328 99.034V96.8219C111.328 96.3992 111.58 96.2059 111.895 96.3857Z" fill="#FAFAFA"/>
<path opacity="0.35" d="M119.684 122.316C119.684 123.553 118.807 124.056 117.737 123.44L65.0133 93.0136C64.4473 92.6433 63.9762 92.1452 63.638 91.5595C63.2998 90.9737 63.104 90.3167 63.0664 89.6414V60.24L119.684 92.9282V122.316Z" fill="white"/>
<path d="M48.9993 101.601L93.0901 147.774C93.5397 148.255 93.9894 148.399 94.2502 148.224C94.5109 148.048 94.6413 147.716 94.6413 147.145V92.6223C94.6118 91.9353 94.4595 91.2592 94.1917 90.6259C93.9383 89.9358 93.5569 89.2997 93.0676 88.751L48.9993 42.5514C47.7277 41.2576 47.0045 39.5228 46.9805 37.7089V96.7544C47.0033 98.5699 47.7266 100.306 48.9993 101.601Z" fill="#4F4C52"/>
<path d="M50.1272 49.1926C50.0675 49.1926 50.0104 49.1689 49.9682 49.1268C49.926 49.0846 49.9023 49.0274 49.9023 48.9678V48.2934C49.9029 48.2485 49.9169 48.2048 49.9426 48.1679C49.9682 48.131 50.0043 48.1027 50.0462 48.0865C50.087 48.0695 50.1319 48.0651 50.1752 48.0739C50.2185 48.0827 50.2582 48.1043 50.289 48.136L50.7387 48.6261C50.7597 48.647 50.7765 48.6719 50.7879 48.6992C50.7993 48.7266 50.8052 48.756 50.8052 48.7857C50.8052 48.8154 50.7993 48.8448 50.7879 48.8722C50.7765 48.8996 50.7597 48.9244 50.7387 48.9453C50.7181 48.9663 50.6937 48.9829 50.6666 48.9943C50.6396 49.0056 50.6106 49.0115 50.5813 49.0115C50.552 49.0115 50.523 49.0056 50.4959 48.9943C50.4689 48.9829 50.4444 48.9663 50.4239 48.9453L50.343 48.8644V48.9498C50.3454 48.9801 50.3417 49.0105 50.3321 49.0393C50.3225 49.0681 50.3071 49.0946 50.2869 49.1173C50.2668 49.14 50.2422 49.1584 50.2148 49.1713C50.1873 49.1843 50.1575 49.1915 50.1272 49.1926Z" fill="#353039"/>
<path d="M91.4947 138.876C91.4354 138.875 91.3789 138.851 91.337 138.809C91.2951 138.767 91.271 138.71 91.2699 138.651V137.325C91.2699 137.265 91.2936 137.208 91.3357 137.166C91.3779 137.124 91.4351 137.1 91.4947 137.1C91.5543 137.1 91.6115 137.124 91.6537 137.166C91.6958 137.208 91.7195 137.265 91.7195 137.325V138.651C91.7195 138.711 91.6958 138.768 91.6537 138.81C91.6115 138.852 91.5543 138.876 91.4947 138.876ZM91.4947 135.337C91.4351 135.337 91.3779 135.314 91.3357 135.271C91.2936 135.229 91.2699 135.172 91.2699 135.112V133.795C91.2699 133.735 91.2936 133.678 91.3357 133.636C91.3779 133.594 91.4351 133.57 91.4947 133.57C91.5543 133.57 91.6115 133.594 91.6537 133.636C91.6958 133.678 91.7195 133.735 91.7195 133.795V135.121C91.7195 135.181 91.6958 135.238 91.6537 135.28C91.6115 135.323 91.5543 135.346 91.4947 135.346V135.337ZM91.4947 131.799C91.4351 131.799 91.3779 131.775 91.3357 131.733C91.2936 131.691 91.2699 131.634 91.2699 131.574V130.247C91.2699 130.188 91.2936 130.131 91.3357 130.089C91.3779 130.046 91.4351 130.023 91.4947 130.023C91.5543 130.023 91.6115 130.046 91.6537 130.089C91.6958 130.131 91.7195 130.188 91.7195 130.247V131.574C91.7207 131.604 91.7158 131.634 91.7051 131.663C91.6943 131.691 91.6779 131.717 91.6569 131.739C91.6359 131.761 91.6108 131.778 91.5829 131.79C91.555 131.802 91.525 131.808 91.4947 131.808V131.799ZM91.4947 128.26C91.4351 128.26 91.3779 128.236 91.3357 128.194C91.2936 128.152 91.2699 128.095 91.2699 128.035V126.686C91.2699 126.627 91.2936 126.57 91.3357 126.527C91.3779 126.485 91.4351 126.462 91.4947 126.462C91.5543 126.462 91.6115 126.485 91.6537 126.527C91.6958 126.57 91.7195 126.627 91.7195 126.686V128.035C91.7207 128.066 91.7158 128.096 91.7051 128.124C91.6943 128.152 91.6779 128.178 91.6569 128.2C91.6359 128.222 91.6108 128.239 91.5829 128.251C91.555 128.263 91.525 128.269 91.4947 128.269V128.26ZM91.4947 124.722C91.4351 124.722 91.3779 124.698 91.3357 124.656C91.2936 124.614 91.2699 124.556 91.2699 124.497V123.148C91.2699 123.088 91.2936 123.031 91.3357 122.989C91.3779 122.947 91.4351 122.923 91.4947 122.923C91.5543 122.923 91.6115 122.947 91.6537 122.989C91.6958 123.031 91.7195 123.088 91.7195 123.148V124.497C91.7207 124.527 91.7158 124.557 91.7051 124.586C91.6943 124.614 91.6779 124.64 91.6569 124.662C91.6359 124.683 91.6108 124.701 91.5829 124.713C91.555 124.724 91.525 124.731 91.4947 124.731V124.722ZM91.4947 121.183C91.4351 121.183 91.3779 121.159 91.3357 121.117C91.2936 121.075 91.2699 121.018 91.2699 120.958V119.632C91.271 119.572 91.2951 119.516 91.337 119.474C91.3789 119.432 91.4354 119.408 91.4947 119.407C91.5543 119.407 91.6115 119.431 91.6537 119.473C91.6958 119.515 91.7195 119.572 91.7195 119.632V120.958C91.7207 120.988 91.7158 121.019 91.7051 121.047C91.6943 121.075 91.6779 121.101 91.6569 121.123C91.6359 121.145 91.6108 121.162 91.5829 121.174C91.555 121.186 91.525 121.192 91.4947 121.192V121.183ZM91.4947 117.644C91.4351 117.644 91.3779 117.621 91.3357 117.578C91.2936 117.536 91.2699 117.479 91.2699 117.42V116.093C91.271 116.034 91.2951 115.977 91.337 115.935C91.3789 115.893 91.4354 115.869 91.4947 115.868C91.5543 115.868 91.6115 115.892 91.6537 115.934C91.6958 115.976 91.7195 116.033 91.7195 116.093V117.42C91.7207 117.45 91.7158 117.48 91.7051 117.508C91.6943 117.537 91.6779 117.562 91.6569 117.584C91.6359 117.606 91.6108 117.624 91.5829 117.635C91.555 117.647 91.525 117.653 91.4947 117.653V117.644ZM91.4947 114.11C91.4354 114.109 91.3789 114.085 91.337 114.043C91.2951 114.001 91.271 113.945 91.2699 113.885V112.537C91.271 112.477 91.2951 112.421 91.337 112.379C91.3789 112.337 91.4354 112.313 91.4947 112.312C91.5543 112.312 91.6115 112.335 91.6537 112.378C91.6958 112.42 91.7195 112.477 91.7195 112.537V113.885C91.7207 113.916 91.7158 113.946 91.7051 113.974C91.6943 114.003 91.6779 114.028 91.6569 114.05C91.6359 114.072 91.6108 114.089 91.5829 114.101C91.555 114.113 91.525 114.119 91.4947 114.119V114.11ZM91.4947 110.572C91.4354 110.57 91.3789 110.546 91.337 110.505C91.2951 110.463 91.271 110.406 91.2699 110.347V109.02C91.2699 108.961 91.2936 108.904 91.3357 108.861C91.3779 108.819 91.4351 108.796 91.4947 108.796C91.5543 108.796 91.6115 108.819 91.6537 108.861C91.6958 108.904 91.7195 108.961 91.7195 109.02V110.347C91.7207 110.377 91.7158 110.407 91.7051 110.436C91.6943 110.464 91.6779 110.49 91.6569 110.512C91.6359 110.533 91.6108 110.551 91.5829 110.563C91.555 110.575 91.525 110.581 91.4947 110.581V110.572ZM91.4947 107.033C91.4354 107.032 91.3789 107.008 91.337 106.966C91.2951 106.924 91.271 106.867 91.2699 106.808V105.482C91.2699 105.422 91.2936 105.365 91.3357 105.323C91.3779 105.281 91.4351 105.257 91.4947 105.257C91.5543 105.257 91.6115 105.281 91.6537 105.323C91.6958 105.365 91.7195 105.422 91.7195 105.482V106.808C91.7207 106.838 91.7158 106.869 91.7051 106.897C91.6943 106.925 91.6779 106.951 91.6569 106.973C91.6359 106.995 91.6108 107.012 91.5829 107.024C91.555 107.036 91.525 107.042 91.4947 107.042V107.033ZM91.4947 103.494C91.4354 103.493 91.3789 103.469 91.337 103.427C91.2951 103.385 91.271 103.329 91.2699 103.27V101.943C91.2699 101.884 91.2936 101.826 91.3357 101.784C91.3779 101.742 91.4351 101.718 91.4947 101.718C91.5543 101.718 91.6115 101.742 91.6537 101.784C91.6958 101.826 91.7195 101.884 91.7195 101.943V103.27C91.7207 103.3 91.7158 103.33 91.7051 103.358C91.6943 103.387 91.6779 103.413 91.6569 103.434C91.6359 103.456 91.6108 103.474 91.5829 103.486C91.555 103.497 91.525 103.503 91.4947 103.503V103.494ZM91.4947 99.9559C91.4351 99.9559 91.3779 99.9322 91.3357 99.89C91.2936 99.8478 91.2699 99.7907 91.2699 99.731V98.4091C91.2699 98.3495 91.2936 98.2923 91.3357 98.2502C91.3779 98.208 91.4351 98.1843 91.4947 98.1843C91.5543 98.1843 91.6115 98.208 91.6537 98.2502C91.6958 98.2923 91.7195 98.3495 91.7195 98.4091V99.758C91.715 99.8145 91.6893 99.8671 91.6476 99.9055C91.606 99.9438 91.5513 99.965 91.4947 99.9648V99.9559ZM91.4947 96.4173C91.4351 96.4173 91.3779 96.3936 91.3357 96.3514C91.2936 96.3092 91.2699 96.2521 91.2699 96.1924V94.866C91.2699 94.8064 91.2936 94.7492 91.3357 94.7071C91.3779 94.6649 91.4351 94.6412 91.4947 94.6412C91.5543 94.6412 91.6115 94.6649 91.6537 94.7071C91.6958 94.7492 91.7195 94.8064 91.7195 94.866V96.1924C91.7207 96.2227 91.7158 96.2529 91.7051 96.2812C91.6943 96.3096 91.6779 96.3354 91.6569 96.3573C91.6359 96.3791 91.6108 96.3965 91.5829 96.4083C91.555 96.4202 91.525 96.4263 91.4947 96.4262V96.4173ZM91.4947 92.8607C91.4662 92.8625 91.4377 92.8585 91.4107 92.849C91.3838 92.8395 91.3591 92.8246 91.3381 92.8053C91.3171 92.786 91.3002 92.7626 91.2885 92.7365C91.2768 92.7105 91.2704 92.6824 91.2699 92.6539C91.2499 92.3734 91.1831 92.0983 91.0721 91.84C91.0181 91.7096 90.9686 91.5927 90.9192 91.4938C90.9054 91.4676 90.897 91.4389 90.8945 91.4095C90.892 91.38 90.8954 91.3503 90.9047 91.3222C90.9139 91.294 90.9287 91.2681 90.9482 91.2458C90.9677 91.2235 90.9915 91.2054 91.0181 91.1926C91.0443 91.1787 91.073 91.1703 91.1024 91.1678C91.1319 91.1653 91.1616 91.1688 91.1897 91.178C91.2179 91.1873 91.2438 91.2021 91.2661 91.2216C91.2884 91.241 91.3065 91.2648 91.3194 91.2915C91.3733 91.4039 91.4318 91.5298 91.4902 91.6781C91.6171 91.9753 91.6945 92.2912 91.7195 92.6134C91.7232 92.6771 91.7017 92.7397 91.6597 92.7876C91.6176 92.8356 91.5583 92.865 91.4947 92.8697V92.8607ZM89.6962 89.9516C89.6349 89.9497 89.5767 89.9239 89.5343 89.8796L88.6351 88.9219C88.5939 88.8784 88.5717 88.8203 88.5734 88.7604C88.5751 88.7006 88.6005 88.6438 88.6441 88.6027C88.6876 88.5615 88.7457 88.5394 88.8055 88.541C88.8654 88.5427 88.9221 88.5681 88.9633 88.6117L89.8626 89.5694C89.8836 89.5903 89.9003 89.6151 89.9118 89.6425C89.9232 89.6699 89.929 89.6993 89.929 89.729C89.929 89.7587 89.9232 89.7881 89.9118 89.8155C89.9003 89.8429 89.8836 89.8677 89.8626 89.8886C89.839 89.9133 89.8102 89.9326 89.7784 89.945C89.7465 89.9575 89.7123 89.9628 89.6782 89.9606L89.6962 89.9516ZM87.2547 87.3887C87.1939 87.3885 87.1357 87.3643 87.0928 87.3212L86.1936 86.359C86.1575 86.3153 86.1392 86.2595 86.1425 86.2028C86.1458 86.1462 86.1704 86.0929 86.2114 86.0536C86.2524 86.0144 86.3067 85.992 86.3634 85.9911C86.4201 85.9902 86.4751 86.0108 86.5173 86.0488L87.4166 87.011C87.4461 87.0429 87.4658 87.0827 87.4733 87.1255C87.4807 87.1684 87.4755 87.2125 87.4584 87.2524C87.4412 87.2924 87.4129 87.3266 87.3767 87.3507C87.3406 87.3749 87.2982 87.3881 87.2547 87.3887ZM84.8132 84.8303C84.783 84.8307 84.7531 84.8249 84.7253 84.8133C84.6974 84.8017 84.6723 84.7845 84.6513 84.7628L83.7521 83.8006C83.731 83.7797 83.7143 83.7548 83.7029 83.7275C83.6914 83.7001 83.6856 83.6707 83.6856 83.641C83.6856 83.6113 83.6914 83.5819 83.7029 83.5545C83.7143 83.5271 83.731 83.5023 83.7521 83.4814C83.7726 83.4604 83.7971 83.4438 83.8241 83.4324C83.8511 83.4211 83.8801 83.4152 83.9094 83.4152C83.9387 83.4152 83.9678 83.4211 83.9948 83.4324C84.0218 83.4438 84.0463 83.4604 84.0668 83.4814L84.9661 84.4436C84.9956 84.4755 85.0153 84.5152 85.0228 84.5581C85.0302 84.601 85.025 84.6451 85.0079 84.685C84.9908 84.725 84.9624 84.7592 84.9262 84.7833C84.8901 84.8075 84.8477 84.8207 84.8042 84.8213L84.8132 84.8303ZM82.3672 82.2719C82.3334 82.2798 82.2981 82.2794 82.2645 82.2708C82.2308 82.2622 82.1997 82.2456 82.1739 82.2224L81.2746 81.2647C81.2535 81.2438 81.2368 81.2189 81.2254 81.1915C81.214 81.1641 81.2081 81.1348 81.2081 81.1051C81.2081 81.0754 81.214 81.046 81.2254 81.0186C81.2368 80.9912 81.2535 80.9664 81.2746 80.9455C81.2955 80.9244 81.3204 80.9077 81.3478 80.8963C81.3752 80.8848 81.4045 80.879 81.4342 80.879C81.4639 80.879 81.4933 80.8848 81.5207 80.8963C81.5481 80.9077 81.5729 80.9244 81.5938 80.9455L82.4931 81.9032C82.5142 81.9241 82.5309 81.9489 82.5423 81.9763C82.5537 82.0037 82.5596 82.0331 82.5596 82.0628C82.5596 82.0925 82.5537 82.1218 82.5423 82.1492C82.5309 82.1766 82.5142 82.2015 82.4931 82.2224C82.4532 82.2577 82.4024 82.2783 82.3492 82.2809L82.3672 82.2719ZM79.9257 79.7225C79.8644 79.7206 79.8063 79.6948 79.7638 79.6505L78.8646 78.6928C78.8234 78.6493 78.8013 78.5912 78.803 78.5313C78.8046 78.4715 78.83 78.4147 78.8736 78.3736C78.9171 78.3324 78.9752 78.3103 79.035 78.3119C79.0949 78.3136 79.1517 78.339 79.1928 78.3826L80.0921 79.3403C80.1131 79.3612 80.1299 79.386 80.1413 79.4134C80.1527 79.4408 80.1586 79.4702 80.1586 79.4999C80.1586 79.5296 80.1527 79.559 80.1413 79.5864C80.1299 79.6138 80.1131 79.6386 80.0921 79.6595C80.0471 79.7016 79.9873 79.7242 79.9257 79.7225ZM77.4842 77.1596C77.4235 77.1594 77.3652 77.1352 77.3223 77.0921L76.4231 76.1299C76.387 76.0862 76.3687 76.0303 76.372 75.9737C76.3754 75.9171 76.4 75.8638 76.4409 75.8245C76.4819 75.7853 76.5362 75.7629 76.5929 75.762C76.6497 75.7611 76.7046 75.7817 76.7468 75.8197L77.6461 76.7819C77.667 76.8024 77.6837 76.8269 77.695 76.8539C77.7064 76.8809 77.7122 76.9099 77.7122 76.9392C77.7122 76.9686 77.7064 76.9976 77.695 77.0246C77.6837 77.0516 77.667 77.0761 77.6461 77.0966C77.6236 77.1211 77.5954 77.1396 77.564 77.1506C77.5327 77.1616 77.4991 77.1646 77.4662 77.1596H77.4842ZM75.0427 74.6012C75.0125 74.6019 74.9825 74.5962 74.9546 74.5846C74.9267 74.573 74.9016 74.5557 74.8808 74.5337L73.9816 73.5715C73.9586 73.5508 73.9401 73.5256 73.9273 73.4975C73.9145 73.4693 73.9076 73.4388 73.9071 73.4079C73.9066 73.377 73.9125 73.3463 73.9244 73.3177C73.9364 73.2892 73.954 73.2634 73.9764 73.242C73.9987 73.2206 74.0252 73.2041 74.0542 73.1934C74.0833 73.1827 74.1142 73.1781 74.145 73.1799C74.1759 73.1817 74.2061 73.1899 74.2337 73.2039C74.2612 73.2179 74.2856 73.2374 74.3053 73.2613L75.2046 74.2235C75.2255 74.244 75.2421 74.2685 75.2535 74.2955C75.2649 74.3225 75.2707 74.3515 75.2707 74.3808C75.2707 74.4102 75.2649 74.4392 75.2535 74.4662C75.2421 74.4932 75.2255 74.5177 75.2046 74.5382C75.1809 74.561 75.1525 74.5784 75.1215 74.5893C75.0905 74.6001 75.0575 74.6042 75.0247 74.6012H75.0427ZM72.5967 72.0428C72.5662 72.0429 72.536 72.0366 72.5081 72.0242C72.4802 72.0118 72.4552 71.9936 72.4349 71.9708L71.5356 71.0131C71.5152 70.9916 71.4993 70.9662 71.4887 70.9385C71.4781 70.9108 71.4731 70.8813 71.474 70.8516C71.4748 70.822 71.4815 70.7928 71.4936 70.7657C71.5057 70.7387 71.523 70.7142 71.5446 70.6939C71.5661 70.6735 71.5915 70.6576 71.6192 70.647C71.6469 70.6364 71.6764 70.6314 71.7061 70.6323C71.7357 70.6331 71.7649 70.6398 71.792 70.6519C71.819 70.664 71.8435 70.6813 71.8638 70.7029L72.7631 71.6606C72.7842 71.6815 72.8009 71.7063 72.8123 71.7337C72.8237 71.7611 72.8296 71.7905 72.8296 71.8202C72.8296 71.8499 72.8237 71.8793 72.8123 71.9067C72.8009 71.934 72.7842 71.9589 72.7631 71.9798C72.7387 72.0029 72.7096 72.0205 72.6778 72.0314C72.646 72.0423 72.6122 72.0461 72.5787 72.0428H72.5967ZM70.1552 69.4799C70.0945 69.4797 70.0363 69.4555 69.9934 69.4124L69.0941 68.4547C69.073 68.4338 69.0563 68.4089 69.0449 68.3815C69.0335 68.3542 69.0276 68.3248 69.0276 68.2951C69.0276 68.2654 69.0335 68.236 69.0449 68.2086C69.0563 68.1812 69.073 68.1564 69.0941 68.1355C69.1146 68.1145 69.1391 68.0979 69.1661 68.0865C69.1931 68.0752 69.2222 68.0693 69.2515 68.0693C69.2808 68.0693 69.3098 68.0752 69.3368 68.0865C69.3638 68.0979 69.3883 68.1145 69.4088 68.1355L70.3081 69.0932C70.3292 69.1141 70.3459 69.1389 70.3573 69.1663C70.3687 69.1937 70.3746 69.2231 70.3746 69.2528C70.3746 69.2825 70.3687 69.3119 70.3573 69.3393C70.3459 69.3667 70.3292 69.3915 70.3081 69.4124C70.2855 69.4344 70.2588 69.4517 70.2294 69.4633C70.2001 69.4748 70.1688 69.4805 70.1372 69.4799H70.1552ZM67.6957 66.935C67.6656 66.9354 67.6357 66.9296 67.6078 66.918C67.58 66.9064 67.5548 66.8892 67.5339 66.8675L66.6346 65.9053C66.6137 65.8848 66.597 65.8603 66.5857 65.8333C66.5743 65.8063 66.5685 65.7772 66.5685 65.7479C66.5685 65.7186 66.5743 65.6896 66.5857 65.6626C66.597 65.6356 66.6137 65.6111 66.6346 65.5906C66.6555 65.5695 66.6804 65.5528 66.7078 65.5414C66.7352 65.5299 66.7646 65.5241 66.7942 65.5241C66.8239 65.5241 66.8533 65.5299 66.8807 65.5414C66.9081 65.5528 66.933 65.5695 66.9539 65.5906L67.8531 66.5528C67.8741 66.5733 67.8907 66.5978 67.902 66.6248C67.9134 66.6518 67.9192 66.6808 67.9192 66.7101C67.9192 66.7395 67.9134 66.7685 67.902 66.7955C67.8907 66.8225 67.8741 66.847 67.8531 66.8675C67.8334 66.8896 67.8091 66.9071 67.7819 66.9187C67.7547 66.9304 67.7253 66.9359 67.6957 66.935ZM65.2497 64.3766C65.189 64.3764 65.1308 64.3522 65.0879 64.3091L64.1886 63.3379C64.1676 63.317 64.1508 63.2921 64.1394 63.2648C64.128 63.2374 64.1221 63.208 64.1221 63.1783C64.1221 63.1486 64.128 63.1192 64.1394 63.0918C64.1508 63.0644 64.1676 63.0396 64.1886 63.0187C64.2095 62.9976 64.2344 62.9809 64.2618 62.9695C64.2892 62.958 64.3186 62.9522 64.3483 62.9522C64.3779 62.9522 64.4073 62.958 64.4347 62.9695C64.4621 62.9809 64.487 62.9976 64.5079 63.0187L65.4071 63.9809C65.4281 64.0014 65.4447 64.0259 65.4561 64.0529C65.4674 64.0799 65.4733 64.1089 65.4733 64.1383C65.4733 64.1676 65.4674 64.1966 65.4561 64.2236C65.4447 64.2506 65.4281 64.2751 65.4071 64.2956C65.3651 64.3372 65.3088 64.3613 65.2497 64.3631V64.3766ZM62.8083 61.8182C62.7777 61.8183 62.7475 61.812 62.7196 61.7996C62.6917 61.7872 62.6668 61.769 62.6464 61.7462L61.7471 60.7885C61.706 60.745 61.6838 60.6869 61.6855 60.627C61.6872 60.5672 61.7126 60.5104 61.7561 60.4693C61.7996 60.4281 61.8577 60.406 61.9176 60.4076C61.9775 60.4093 62.0342 60.4347 62.0754 60.4783L62.9746 61.436C62.9957 61.4569 63.0124 61.4817 63.0238 61.5091C63.0353 61.5365 63.0411 61.5659 63.0411 61.5956C63.0411 61.6253 63.0353 61.6547 63.0238 61.682C63.0124 61.7094 62.9957 61.7343 62.9746 61.7552C62.9276 61.7924 62.868 61.8101 62.8083 61.8047V61.8182ZM60.3668 59.2598C60.3055 59.2579 60.2473 59.2321 60.2049 59.1878L59.3056 58.2301C59.2639 58.1872 59.2409 58.1294 59.2418 58.0696C59.2426 58.0097 59.2672 57.9526 59.3101 57.9109C59.3531 57.8691 59.4108 57.8461 59.4707 57.847C59.5306 57.8478 59.5876 57.8724 59.6294 57.9154L60.5286 58.8776C60.5497 58.8985 60.5664 58.9233 60.5778 58.9507C60.5893 58.9781 60.5951 59.0075 60.5951 59.0372C60.5951 59.0669 60.5893 59.0963 60.5778 59.1236C60.5664 59.151 60.5497 59.1759 60.5286 59.1968C60.5062 59.2153 60.4804 59.2292 60.4526 59.2377C60.4249 59.2462 60.3957 59.2491 60.3668 59.2463V59.2598ZM57.9253 56.6969C57.8944 56.6974 57.8638 56.6917 57.8352 56.6801C57.8066 56.6685 57.7807 56.6513 57.7589 56.6294L56.8596 55.6672C56.8387 55.6467 56.8221 55.6222 56.8107 55.5952C56.7994 55.5682 56.7935 55.5391 56.7935 55.5098C56.7935 55.4805 56.7994 55.4515 56.8107 55.4245C56.8221 55.3975 56.8387 55.373 56.8596 55.3525C56.8805 55.3314 56.9054 55.3147 56.9328 55.3033C56.9602 55.2918 56.9896 55.286 57.0193 55.286C57.0489 55.286 57.0783 55.2918 57.1057 55.3033C57.1331 55.3147 57.158 55.3314 57.1789 55.3525L58.0781 56.3147C58.0991 56.3352 58.1157 56.3597 58.1271 56.3867C58.1384 56.4137 58.1443 56.4427 58.1443 56.472C58.1443 56.5014 58.1384 56.5304 58.1271 56.5574C58.1157 56.5844 58.0991 56.6089 58.0781 56.6294C58.0575 56.648 58.0333 56.6624 58.0071 56.6716C57.9809 56.6809 57.9531 56.6849 57.9253 56.6834V56.6969ZM55.4793 54.1385C55.4487 54.1386 55.4185 54.1323 55.3906 54.1199C55.3627 54.1075 55.3378 54.0893 55.3174 54.0665L54.4182 53.1088C54.377 53.0653 54.3548 53.0072 54.3565 52.9473C54.3582 52.8875 54.3836 52.8307 54.4271 52.7896C54.4707 52.7484 54.5288 52.7263 54.5886 52.7279C54.6485 52.7296 54.7052 52.755 54.7464 52.7986L55.6456 53.7563C55.6667 53.7772 55.6834 53.802 55.6949 53.8294C55.7063 53.8568 55.7121 53.8862 55.7121 53.9159C55.7121 53.9456 55.7063 53.975 55.6949 54.0024C55.6834 54.0297 55.6667 54.0546 55.6456 54.0755C55.5986 54.1127 55.539 54.1304 55.4793 54.125V54.1385ZM53.0378 51.5801C53.0072 51.5802 52.977 51.5739 52.9491 51.5615C52.9212 51.5491 52.8963 51.5309 52.8759 51.5081L51.9767 50.5504C51.9556 50.5295 51.9389 50.5046 51.9274 50.4772C51.916 50.4499 51.9102 50.4205 51.9102 50.3908C51.9102 50.3611 51.916 50.3317 51.9274 50.3043C51.9389 50.2769 51.9556 50.2521 51.9767 50.2312C51.9972 50.2102 52.0217 50.1936 52.0487 50.1822C52.0757 50.1709 52.1047 50.165 52.134 50.165C52.1633 50.165 52.1924 50.1709 52.2194 50.1822C52.2464 50.1936 52.2709 50.2102 52.2914 50.2312L53.1907 51.1889C53.2117 51.2098 53.2285 51.2346 53.2399 51.262C53.2513 51.2894 53.2572 51.3188 53.2572 51.3485C53.2572 51.3782 53.2513 51.4076 53.2399 51.435C53.2285 51.4624 53.2117 51.4872 53.1907 51.5081C53.1491 51.5465 53.0944 51.5674 53.0378 51.5666V51.5801Z" fill="#353039"/>
<path d="M91.4935 141.771C91.4328 141.771 91.3745 141.747 91.3317 141.704L90.882 141.214C90.8617 141.192 90.8457 141.167 90.8352 141.139C90.8246 141.112 90.8196 141.082 90.8204 141.052C90.8212 141.023 90.8279 140.994 90.84 140.967C90.8521 140.939 90.8695 140.915 90.891 140.895C90.9126 140.874 90.9379 140.858 90.9656 140.848C90.9933 140.837 91.0229 140.832 91.0525 140.833C91.0821 140.834 91.1113 140.841 91.1384 140.853C91.1655 140.865 91.1899 140.882 91.2103 140.904L91.2867 140.985V140.872C91.2867 140.813 91.3104 140.755 91.3525 140.713C91.3947 140.671 91.4519 140.647 91.5115 140.647C91.5711 140.647 91.6283 140.671 91.6705 140.713C91.7126 140.755 91.7363 140.813 91.7363 140.872V141.547C91.7374 141.591 91.7245 141.635 91.6995 141.672C91.6746 141.709 91.6387 141.738 91.5969 141.753C91.5648 141.769 91.529 141.775 91.4935 141.771Z" fill="#353039"/>
<path d="M89.4519 139.631C89.4217 139.632 89.3917 139.626 89.3638 139.615C89.3359 139.603 89.3108 139.586 89.29 139.564L88.3413 138.57C88.2998 138.527 88.2766 138.47 88.2766 138.411C88.2766 138.351 88.2998 138.294 88.3413 138.251C88.3622 138.23 88.3871 138.213 88.4145 138.202C88.4418 138.19 88.4712 138.184 88.5009 138.184C88.5306 138.184 88.56 138.19 88.5874 138.202C88.6148 138.213 88.6396 138.23 88.6605 138.251L89.6093 139.245C89.6302 139.265 89.6468 139.29 89.6582 139.317C89.6695 139.344 89.6754 139.373 89.6754 139.402C89.6754 139.431 89.6695 139.46 89.6582 139.487C89.6468 139.514 89.6302 139.539 89.6093 139.559C89.5682 139.603 89.5117 139.629 89.4519 139.631ZM86.925 136.987C86.8944 136.988 86.8642 136.981 86.8363 136.969C86.8084 136.956 86.7834 136.938 86.7631 136.916L85.8144 135.926C85.7732 135.883 85.7511 135.825 85.7527 135.765C85.7544 135.705 85.7798 135.648 85.8234 135.607C85.8669 135.566 85.925 135.544 85.9848 135.545C86.0447 135.547 86.1014 135.573 86.1426 135.616L87.0868 136.605C87.1079 136.626 87.1246 136.651 87.136 136.678C87.1474 136.706 87.1533 136.735 87.1533 136.765C87.1533 136.795 87.1474 136.824 87.136 136.851C87.1246 136.879 87.1079 136.904 87.0868 136.925C87.0425 136.965 86.9848 136.987 86.925 136.987ZM84.4205 134.344C84.39 134.344 84.3598 134.337 84.3319 134.325C84.304 134.313 84.279 134.294 84.2586 134.272L83.3144 133.283C83.2934 133.262 83.2766 133.237 83.2652 133.209C83.2538 133.182 83.2479 133.153 83.2479 133.123C83.2479 133.093 83.2538 133.064 83.2652 133.036C83.2766 133.009 83.2934 132.984 83.3144 132.963C83.3353 132.942 83.3602 132.925 83.3876 132.914C83.415 132.903 83.4444 132.897 83.474 132.897C83.5037 132.897 83.5331 132.903 83.5605 132.914C83.5879 132.925 83.6128 132.942 83.6337 132.963L84.5779 133.952C84.599 133.973 84.6157 133.998 84.6271 134.026C84.6385 134.053 84.6444 134.082 84.6444 134.112C84.6444 134.142 84.6385 134.171 84.6271 134.199C84.6157 134.226 84.599 134.251 84.5779 134.272C84.5366 134.315 84.4802 134.341 84.4205 134.344ZM81.8756 131.682C81.8451 131.681 81.8151 131.675 81.7873 131.662C81.7595 131.65 81.7344 131.632 81.7137 131.61L80.765 130.616C80.7289 130.572 80.7107 130.517 80.714 130.46C80.7173 130.403 80.7419 130.35 80.7829 130.311C80.8238 130.272 80.8781 130.249 80.9349 130.248C80.9916 130.247 81.0466 130.268 81.0887 130.306L82.0375 131.3C82.0585 131.321 82.0753 131.345 82.0867 131.373C82.0981 131.4 82.104 131.43 82.104 131.459C82.104 131.489 82.0981 131.518 82.0867 131.546C82.0753 131.573 82.0585 131.598 82.0375 131.619C81.9939 131.66 81.9357 131.683 81.8756 131.682ZM79.3487 129.033C79.2879 129.033 79.2297 129.009 79.1868 128.966L78.2381 127.972C78.2171 127.952 78.2005 127.927 78.1892 127.9C78.1778 127.873 78.172 127.844 78.172 127.815C78.172 127.786 78.1778 127.757 78.1892 127.73C78.2005 127.703 78.2171 127.678 78.2381 127.658C78.259 127.637 78.2839 127.62 78.3112 127.608C78.3386 127.597 78.368 127.591 78.3977 127.591C78.4274 127.591 78.4568 127.597 78.4842 127.608C78.5116 127.62 78.5364 127.637 78.5573 127.658L79.5015 128.651C79.5226 128.672 79.5393 128.697 79.5508 128.724C79.5622 128.752 79.568 128.781 79.568 128.811C79.568 128.841 79.5622 128.87 79.5508 128.897C79.5393 128.925 79.5226 128.95 79.5015 128.971C79.4625 129.016 79.408 129.045 79.3487 129.051V129.033ZM76.8217 126.39C76.761 126.39 76.7028 126.365 76.6599 126.322L75.7157 125.329C75.6927 125.308 75.6742 125.283 75.6614 125.255C75.6486 125.226 75.6417 125.196 75.6412 125.165C75.6407 125.134 75.6466 125.103 75.6585 125.075C75.6704 125.046 75.6881 125.02 75.7104 124.999C75.7328 124.978 75.7593 124.961 75.7883 124.95C75.8173 124.94 75.8482 124.935 75.8791 124.937C75.91 124.939 75.9401 124.947 75.9677 124.961C75.9953 124.975 76.0197 124.994 76.0394 125.018L76.9881 126.012C77.009 126.032 77.0257 126.057 77.037 126.084C77.0484 126.111 77.0542 126.14 77.0542 126.169C77.0542 126.199 77.0484 126.228 77.037 126.255C77.0257 126.282 77.009 126.306 76.9881 126.327C76.9683 126.352 76.9431 126.372 76.9143 126.386C76.8854 126.4 76.8538 126.408 76.8217 126.408V126.39ZM74.2993 123.746C74.2692 123.746 74.2392 123.741 74.2114 123.729C74.1835 123.717 74.1584 123.7 74.1375 123.678L73.1797 122.689C73.1587 122.668 73.1419 122.643 73.1305 122.616C73.1191 122.589 73.1132 122.559 73.1132 122.53C73.1132 122.5 73.1191 122.471 73.1305 122.443C73.1419 122.416 73.1587 122.391 73.1797 122.37C73.2003 122.349 73.2247 122.332 73.2518 122.321C73.2788 122.31 73.3078 122.304 73.3371 122.304C73.3664 122.304 73.3954 122.31 73.4225 122.321C73.4495 122.332 73.474 122.349 73.4945 122.37L74.4432 123.359C74.4643 123.38 74.481 123.405 74.4924 123.432C74.5038 123.46 74.5097 123.489 74.5097 123.519C74.5097 123.548 74.5038 123.578 74.4924 123.605C74.481 123.633 74.4643 123.657 74.4432 123.678C74.4083 123.725 74.3566 123.755 74.2993 123.764V123.746ZM71.7724 121.102C71.7419 121.102 71.7116 121.096 71.6837 121.083C71.6558 121.071 71.6309 121.053 71.6105 121.03L70.6618 120.041C70.6207 119.997 70.5985 119.939 70.6002 119.879C70.6019 119.82 70.6273 119.763 70.6708 119.722C70.7143 119.68 70.7724 119.658 70.8323 119.66C70.8921 119.662 70.9489 119.687 70.99 119.731L71.9343 120.72C71.9553 120.741 71.9721 120.766 71.9835 120.793C71.9949 120.82 72.0008 120.85 72.0008 120.879C72.0008 120.909 71.9949 120.939 71.9835 120.966C71.9721 120.993 71.9553 121.018 71.9343 121.039C71.914 121.063 71.8893 121.082 71.8615 121.096C71.8337 121.11 71.8034 121.118 71.7724 121.12V121.102ZM69.2455 118.458C69.2149 118.458 69.1847 118.452 69.1568 118.44C69.1289 118.427 69.104 118.409 69.0836 118.386L68.1394 117.397C68.1164 117.376 68.0979 117.351 68.0851 117.323C68.0723 117.295 68.0654 117.264 68.0649 117.233C68.0644 117.203 68.0703 117.172 68.0822 117.143C68.0942 117.115 68.1118 117.089 68.1341 117.068C68.1565 117.046 68.183 117.03 68.212 117.019C68.241 117.008 68.272 117.004 68.3028 117.005C68.3337 117.007 68.3639 117.015 68.3914 117.029C68.419 117.043 68.4434 117.063 68.4631 117.087L69.4118 118.076C69.4329 118.097 69.4496 118.122 69.461 118.149C69.4724 118.177 69.4783 118.206 69.4783 118.236C69.4783 118.265 69.4724 118.295 69.461 118.322C69.4496 118.349 69.4329 118.374 69.4118 118.395C69.3911 118.419 69.3656 118.439 69.337 118.453C69.3084 118.467 69.2772 118.475 69.2455 118.476V118.458ZM66.723 115.814C66.6617 115.813 66.6036 115.787 66.5612 115.742L65.6125 114.749C65.5763 114.705 65.5581 114.649 65.5614 114.593C65.5647 114.536 65.5893 114.483 65.6303 114.443C65.6713 114.404 65.7256 114.382 65.7823 114.381C65.839 114.38 65.894 114.401 65.9362 114.438L66.8849 115.45C66.906 115.471 66.9227 115.496 66.9341 115.523C66.9455 115.551 66.9514 115.58 66.9514 115.61C66.9514 115.639 66.9455 115.669 66.9341 115.696C66.9227 115.724 66.906 115.748 66.8849 115.769C66.8636 115.79 66.8383 115.807 66.8104 115.817C66.7826 115.828 66.7529 115.833 66.723 115.832V115.814ZM64.1871 113.184C64.1264 113.184 64.0681 113.16 64.0253 113.117L63.0765 112.123C63.0556 112.102 63.039 112.078 63.0276 112.051C63.0163 112.024 63.0104 111.995 63.0104 111.966C63.0104 111.936 63.0163 111.907 63.0276 111.88C63.039 111.853 63.0556 111.829 63.0765 111.808C63.0974 111.787 63.1223 111.77 63.1497 111.759C63.1771 111.748 63.2065 111.742 63.2362 111.742C63.2658 111.742 63.2952 111.748 63.3226 111.759C63.35 111.77 63.3749 111.787 63.3958 111.808L64.34 112.802C64.3718 112.833 64.3934 112.873 64.4021 112.916C64.4107 112.96 64.406 113.005 64.3884 113.046C64.3709 113.087 64.3415 113.122 64.3039 113.145C64.2664 113.169 64.2226 113.181 64.1781 113.18L64.1871 113.184ZM61.6737 110.549C61.6428 110.55 61.6122 110.544 61.5836 110.532C61.555 110.521 61.5291 110.504 61.5073 110.482L60.5631 109.488C60.5401 109.467 60.5216 109.442 60.5088 109.414C60.496 109.386 60.4891 109.355 60.4886 109.324C60.4882 109.294 60.494 109.263 60.506 109.234C60.5179 109.206 60.5356 109.18 60.5579 109.159C60.5802 109.137 60.6067 109.121 60.6357 109.11C60.6648 109.099 60.6957 109.095 60.7265 109.096C60.7574 109.098 60.7876 109.106 60.8152 109.12C60.8428 109.134 60.8671 109.154 60.8868 109.178L61.8355 110.171C61.8565 110.192 61.8731 110.216 61.8845 110.244C61.8958 110.271 61.9017 110.3 61.9017 110.329C61.9017 110.358 61.8958 110.387 61.8845 110.414C61.8731 110.441 61.8565 110.466 61.8355 110.486C61.8146 110.508 61.7893 110.524 61.7614 110.535C61.7335 110.546 61.7036 110.551 61.6737 110.549ZM59.1468 107.905C59.086 107.905 59.0278 107.881 58.9849 107.838L58.0362 106.844C58.0151 106.823 57.9984 106.798 57.987 106.771C57.9755 106.744 57.9697 106.714 57.9697 106.685C57.9697 106.655 57.9755 106.626 57.987 106.598C57.9984 106.571 58.0151 106.546 58.0362 106.525C58.0567 106.504 58.0812 106.487 58.1082 106.476C58.1352 106.465 58.1642 106.459 58.1935 106.459C58.2228 106.459 58.2519 106.465 58.2789 106.476C58.3059 106.487 58.3304 106.504 58.3509 106.525L59.2996 107.514C59.3207 107.535 59.3374 107.56 59.3488 107.587C59.3603 107.615 59.3661 107.644 59.3661 107.674C59.3661 107.703 59.3603 107.733 59.3488 107.76C59.3374 107.788 59.3207 107.812 59.2996 107.833C59.2588 107.873 59.204 107.896 59.1468 107.896V107.905ZM56.6198 105.262C56.5893 105.262 56.5591 105.255 56.5312 105.243C56.5033 105.231 56.4783 105.212 56.458 105.19L55.5092 104.2C55.4889 104.179 55.4729 104.153 55.4624 104.126C55.4518 104.098 55.4468 104.069 55.4476 104.039C55.4485 104.009 55.4551 103.98 55.4672 103.953C55.4794 103.926 55.4967 103.902 55.5182 103.881C55.5398 103.861 55.5651 103.845 55.5928 103.834C55.6206 103.824 55.6501 103.819 55.6797 103.82C55.7094 103.82 55.7385 103.827 55.7656 103.839C55.7927 103.851 55.8171 103.869 55.8375 103.89L56.7817 104.879C56.8028 104.9 56.8195 104.925 56.8309 104.952C56.8423 104.98 56.8482 105.009 56.8482 105.039C56.8482 105.069 56.8423 105.098 56.8309 105.125C56.8195 105.153 56.8028 105.178 56.7817 105.199C56.7365 105.236 56.6787 105.256 56.6198 105.253V105.262ZM54.0974 102.618C54.0662 102.618 54.0352 102.612 54.0065 102.6C53.9778 102.587 53.9521 102.569 53.931 102.546L52.9868 101.557C52.9638 101.536 52.9453 101.511 52.9325 101.483C52.9197 101.454 52.9128 101.424 52.9124 101.393C52.9119 101.362 52.9178 101.331 52.9297 101.303C52.9416 101.274 52.9593 101.248 52.9816 101.227C53.0039 101.206 53.0304 101.189 53.0594 101.178C53.0885 101.168 53.1194 101.163 53.1503 101.165C53.1811 101.167 53.2113 101.175 53.2389 101.189C53.2665 101.203 53.2909 101.222 53.3105 101.246L54.2593 102.236C54.2803 102.256 54.2971 102.281 54.3085 102.309C54.3199 102.336 54.3258 102.365 54.3258 102.395C54.3258 102.425 54.3199 102.454 54.3085 102.482C54.2971 102.509 54.2803 102.534 54.2593 102.555C54.2143 102.593 54.1563 102.612 54.0974 102.609V102.618ZM51.5705 99.9739C51.5092 99.972 51.451 99.9462 51.4086 99.9019L51.1119 99.5917C50.8818 99.3547 50.6797 99.0922 50.5093 98.8093C50.4931 98.7848 50.4821 98.7572 50.4769 98.7282C50.4718 98.6992 50.4726 98.6695 50.4793 98.6409C50.4861 98.6123 50.4986 98.5853 50.5161 98.5617C50.5337 98.5381 50.5558 98.5183 50.5813 98.5036C50.6062 98.4872 50.6341 98.4762 50.6634 98.4709C50.6927 98.4657 50.7228 98.4665 50.7518 98.4732C50.7808 98.48 50.8081 98.4925 50.8321 98.5101C50.8561 98.5276 50.8764 98.5499 50.8915 98.5755C51.0491 98.8294 51.233 99.066 51.4401 99.2814L51.7323 99.5917C51.7534 99.6126 51.7701 99.6374 51.7816 99.6648C51.793 99.6922 51.7988 99.7216 51.7988 99.7513C51.7988 99.781 51.793 99.8103 51.7816 99.8377C51.7701 99.8651 51.7534 99.89 51.7323 99.9109C51.7103 99.9302 51.6846 99.9449 51.6568 99.9542C51.6291 99.9635 51.5997 99.9671 51.5705 99.9649V99.9739ZM50.1272 96.741C50.0675 96.741 50.0104 96.7173 49.9682 96.6752C49.926 96.633 49.9023 96.5758 49.9023 96.5162V95.1673C49.9023 95.1077 49.926 95.0505 49.9682 95.0083C50.0104 94.9662 50.0675 94.9425 50.1272 94.9425C50.1868 94.9425 50.244 94.9662 50.2861 95.0083C50.3283 95.0505 50.352 95.1077 50.352 95.1673V96.5162C50.3497 96.5742 50.3249 96.6292 50.283 96.6694C50.2411 96.7096 50.1853 96.7321 50.1272 96.732V96.741ZM50.1272 93.0855C50.0679 93.0844 50.0114 93.0603 49.9695 93.0184C49.9275 92.9765 49.9035 92.92 49.9023 92.8607V91.4893C49.9023 91.4297 49.926 91.3725 49.9682 91.3303C50.0104 91.2882 50.0675 91.2645 50.1272 91.2645C50.1868 91.2645 50.244 91.2882 50.2861 91.3303C50.3283 91.3725 50.352 91.4297 50.352 91.4893V92.8607C50.3497 92.9187 50.3249 92.9736 50.283 93.0139C50.2411 93.0541 50.1853 93.0766 50.1272 93.0765V93.0855ZM50.1272 89.4255C50.0675 89.4255 50.0104 89.4018 49.9682 89.3597C49.926 89.3175 49.9023 89.2603 49.9023 89.2007V87.8293C49.9035 87.7701 49.9275 87.7136 49.9695 87.6716C50.0114 87.6297 50.0679 87.6057 50.1272 87.6045C50.1868 87.6045 50.244 87.6282 50.2861 87.6704C50.3283 87.7125 50.352 87.7697 50.352 87.8293V89.2007C50.3497 89.2587 50.3249 89.3136 50.283 89.3539C50.2411 89.3941 50.1853 89.4166 50.1272 89.4165V89.4255ZM50.1272 85.77C50.0675 85.77 50.0104 85.7463 49.9682 85.7042C49.926 85.662 49.9023 85.6048 49.9023 85.5452V84.1738C49.9035 84.1146 49.9275 84.058 49.9695 84.0161C50.0114 83.9742 50.0679 83.9502 50.1272 83.949C50.1868 83.949 50.244 83.9727 50.2861 84.0149C50.3283 84.057 50.352 84.1142 50.352 84.1738V85.5452C50.3497 85.6033 50.3249 85.6581 50.283 85.6984C50.2411 85.7386 50.1853 85.7611 50.1272 85.761V85.77ZM50.1272 82.1145C50.0675 82.1145 50.0104 82.0908 49.9682 82.0487C49.926 82.0065 49.9023 81.9493 49.9023 81.8897V80.5183C49.9023 80.4587 49.926 80.4015 49.9682 80.3594C50.0104 80.3172 50.0675 80.2935 50.1272 80.2935C50.1868 80.2935 50.244 80.3172 50.2861 80.3594C50.3283 80.4015 50.352 80.4587 50.352 80.5183V81.8897C50.3497 81.9478 50.3249 82.0027 50.283 82.0429C50.2411 82.0831 50.1853 82.1056 50.1272 82.1055V82.1145ZM50.1272 78.459C50.0679 78.4579 50.0114 78.4338 49.9695 78.3919C49.9275 78.35 49.9035 78.2935 49.9023 78.2342V76.8628C49.9023 76.8032 49.926 76.746 49.9682 76.7039C50.0104 76.6617 50.0675 76.638 50.1272 76.638C50.1868 76.638 50.244 76.6617 50.2861 76.7039C50.3283 76.746 50.352 76.8032 50.352 76.8628V78.2342C50.3497 78.2923 50.3249 78.3472 50.283 78.3874C50.2411 78.4276 50.1853 78.4501 50.1272 78.45V78.459ZM50.1272 74.799C50.0675 74.799 50.0104 74.7753 49.9682 74.7332C49.926 74.691 49.9023 74.6338 49.9023 74.5742V73.2028C49.9035 73.1436 49.9275 73.0871 49.9695 73.0451C50.0114 73.0032 50.0679 72.9792 50.1272 72.978C50.1868 72.978 50.244 73.0017 50.2861 73.0439C50.3283 73.086 50.352 73.1432 50.352 73.2028V74.5787C50.3485 74.636 50.3233 74.6897 50.2815 74.729C50.2397 74.7683 50.1845 74.7901 50.1272 74.79V74.799ZM50.1272 71.1435C50.0675 71.1435 50.0104 71.1198 49.9682 71.0777C49.926 71.0355 49.9023 70.9783 49.9023 70.9187V69.5473C49.9035 69.4881 49.9275 69.4316 49.9695 69.3896C50.0114 69.3477 50.0679 69.3237 50.1272 69.3225C50.1868 69.3225 50.244 69.3462 50.2861 69.3884C50.3283 69.4305 50.352 69.4877 50.352 69.5473V70.9187C50.3497 70.9768 50.3249 71.0317 50.283 71.0719C50.2411 71.1121 50.1853 71.1346 50.1272 71.1345V71.1435ZM50.1272 67.488C50.0675 67.488 50.0104 67.4643 49.9682 67.4222C49.926 67.38 49.9023 67.3228 49.9023 67.2632V65.8918C49.9023 65.8322 49.926 65.775 49.9682 65.7329C50.0104 65.6907 50.0675 65.667 50.1272 65.667C50.1868 65.667 50.244 65.6907 50.2861 65.7329C50.3283 65.775 50.352 65.8322 50.352 65.8918V67.2632C50.3497 67.3213 50.3249 67.3762 50.283 67.4164C50.2411 67.4566 50.1853 67.4791 50.1272 67.479V67.488ZM50.1272 63.8325C50.0679 63.8314 50.0114 63.8073 49.9695 63.7654C49.9275 63.7235 49.9035 63.667 49.9023 63.6077V62.2363C49.9023 62.1767 49.926 62.1195 49.9682 62.0774C50.0104 62.0352 50.0675 62.0115 50.1272 62.0115C50.1868 62.0115 50.244 62.0352 50.2861 62.0774C50.3283 62.1195 50.352 62.1767 50.352 62.2363V63.6077C50.3497 63.6658 50.3249 63.7207 50.283 63.7609C50.2411 63.8011 50.1853 63.8236 50.1272 63.8235V63.8325ZM50.1272 60.1725C50.0675 60.1725 50.0104 60.1488 49.9682 60.1067C49.926 60.0645 49.9023 60.0073 49.9023 59.9477V58.5763C49.9035 58.5171 49.9275 58.4606 49.9695 58.4186C50.0114 58.3767 50.0679 58.3527 50.1272 58.3515C50.1868 58.3515 50.244 58.3752 50.2861 58.4174C50.3283 58.4595 50.352 58.5167 50.352 58.5763V59.9477C50.3497 60.0058 50.3249 60.0607 50.283 60.1009C50.2411 60.1411 50.1853 60.1636 50.1272 60.1635V60.1725ZM50.1272 56.517C50.0675 56.517 50.0104 56.4933 49.9682 56.4512C49.926 56.409 49.9023 56.3518 49.9023 56.2922V54.9208C49.9035 54.8616 49.9275 54.8051 49.9695 54.7631C50.0114 54.7212 50.0679 54.6972 50.1272 54.696C50.1868 54.696 50.244 54.7197 50.2861 54.7619C50.3283 54.804 50.352 54.8612 50.352 54.9208V56.2922C50.3497 56.3503 50.3249 56.4052 50.283 56.4454C50.2411 56.4856 50.1853 56.5081 50.1272 56.508V56.517ZM50.1272 52.8615C50.0675 52.8615 50.0104 52.8379 49.9682 52.7957C49.926 52.7535 49.9023 52.6963 49.9023 52.6367V51.2653C49.9023 51.2057 49.926 51.1485 49.9682 51.1064C50.0104 51.0642 50.0675 51.0405 50.1272 51.0405C50.1868 51.0405 50.244 51.0642 50.2861 51.1064C50.3283 51.1485 50.352 51.2057 50.352 51.2653V52.6367C50.3497 52.6948 50.3249 52.7497 50.283 52.7899C50.2411 52.8301 50.1853 52.8526 50.1272 52.8525V52.8615Z" fill="#353039"/>
<path d="M97.2678 88.8589L94.2148 90.626C94.4827 91.2593 94.635 91.9354 94.6645 92.6224V147.154C94.6645 147.725 94.5161 148.089 94.2733 148.233L97.2768 146.497C97.5241 146.358 97.6725 145.989 97.6725 145.418V90.8868C97.6656 90.1915 97.5283 89.5037 97.2678 88.8589Z" fill="#353039"/>
<path d="M86.5858 111.489C86.5376 109.889 85.9623 108.349 84.9492 107.11C84.0499 106.165 83.3125 106.588 83.3125 108.058C83.36 109.657 83.9355 111.196 84.9492 112.433C85.8529 113.382 86.5858 112.959 86.5858 111.489Z" fill="#FAFAFA"/>
<path d="M128.426 91.6422L136.002 96.0171L128.426 100.392V91.6422Z" fill="#4F4C52"/>
<path d="M134.177 97.0603L135.881 96.0756C136.116 95.9959 136.32 95.8446 136.464 95.643C136.609 95.4414 136.686 95.1996 136.686 94.9516C136.686 94.7035 136.609 94.4617 136.464 94.2601C136.32 94.0585 136.116 93.9072 135.881 93.8275L128.426 89.52V91.6648L133.628 94.6683C133.683 94.7009 133.729 94.7473 133.76 94.8029C133.792 94.8585 133.808 94.9213 133.808 94.9853C133.808 95.0492 133.792 95.1121 133.76 95.1676C133.729 95.2232 133.683 95.2696 133.628 95.3023L132.351 96.0397L134.177 97.0603Z" fill="#353039"/>
<path d="M123.456 101.152C121.307 102.393 119.562 105.289 119.562 107.618C119.562 108.742 119.972 109.529 120.633 109.902C121.294 110.275 122.481 110.967 122.481 110.967L134.054 103.468C134.277 103.371 134.469 103.215 134.61 103.018C134.752 102.821 134.838 102.59 134.859 102.348V93.9129C134.839 94.1554 134.753 94.388 134.611 94.5859C134.47 94.7838 134.277 94.9397 134.054 95.037L123.456 101.152Z" fill="#353039"/>
<path d="M125.288 102.204C123.135 103.445 121.395 106.341 121.395 108.67C121.395 110.999 123.135 111.88 125.288 110.639L135.882 104.52C136.103 104.421 136.295 104.265 136.437 104.069C136.579 103.872 136.667 103.641 136.691 103.4V94.965C136.67 95.208 136.584 95.4409 136.442 95.6388C136.299 95.8368 136.106 95.9924 135.882 96.089L125.288 102.204Z" fill="#4F4C52"/>
<path d="M125.943 103.467C127.18 102.753 128.192 103.333 128.192 104.758C128.147 105.536 127.92 106.292 127.529 106.966C127.139 107.64 126.596 108.212 125.943 108.638C124.707 109.353 123.695 108.773 123.695 107.343C123.739 106.566 123.965 105.81 124.355 105.136C124.746 104.463 125.29 103.891 125.943 103.467Z" fill="#FAFAFA"/>
<path d="M96.1123 87.0155L51.4415 40.2224C51.0253 39.7975 50.7102 39.2842 50.5198 38.7206L49 42.5515L93.0908 88.7511C93.5777 89.3015 93.9588 89.9372 94.2149 90.626L97.2679 88.859C97.007 88.1748 96.6144 87.5485 96.1123 87.0155Z" fill="#353039"/>
<defs>
<linearGradient id="paint0_linear_992_9004" x1="37.3788" y1="9.62282" x2="46.5105" y2="74.3231" gradientUnits="userSpaceOnUse">
<stop stop-color="#DB1580"/>
<stop offset="1" stop-color="#F5A41A"/>
</linearGradient>
<linearGradient id="paint1_linear_992_9004" x1="30.5101" y1="42.0962" x2="55.128" y2="93.3979" gradientUnits="userSpaceOnUse">
<stop stop-color="#DB1580"/>
<stop offset="1" stop-color="#F5A41A"/>
</linearGradient>
<linearGradient id="paint2_linear_992_9004" x1="157.122" y1="45.2859" x2="125.821" y2="112.948" gradientUnits="userSpaceOnUse">
<stop stop-color="#DB1580"/>
<stop offset="1" stop-color="#F5A41A"/>
</linearGradient>
<linearGradient id="paint3_linear_992_9004" x1="157.124" y1="71.087" x2="134.325" y2="120.37" gradientUnits="userSpaceOnUse">
<stop stop-color="#DB1580"/>
<stop offset="1" stop-color="#F5A41A"/>
</linearGradient>
<linearGradient id="paint4_linear_992_9004" x1="86.7873" y1="36.2271" x2="86.7873" y2="79.9742" gradientUnits="userSpaceOnUse">
<stop stop-color="#DB1580"/>
<stop offset="1" stop-color="#F5A41A"/>
</linearGradient>
<linearGradient id="paint5_linear_992_9004" x1="86.7921" y1="34.5573" x2="86.7921" y2="72.5194" gradientUnits="userSpaceOnUse">
<stop stop-color="#DB1580"/>
<stop offset="1" stop-color="#F5A41A"/>
</linearGradient>
<linearGradient id="paint6_linear_992_9004" x1="121.388" y1="71.5213" x2="121.388" y2="80.8287" gradientUnits="userSpaceOnUse">
<stop stop-color="#DB1580"/>
<stop offset="1" stop-color="#F5A41A"/>
</linearGradient>
<linearGradient id="paint7_linear_992_9004" x1="88.6336" y1="42.0261" x2="88.6336" y2="120.517" gradientUnits="userSpaceOnUse">
<stop stop-color="#DB1580"/>
<stop offset="1" stop-color="#F5A41A"/>
</linearGradient>
<linearGradient id="paint8_linear_992_9004" x1="87.4983" y1="43.3949" x2="87.4983" y2="120.456" gradientUnits="userSpaceOnUse">
<stop stop-color="#DB1580"/>
<stop offset="1" stop-color="#F5A41A"/>
</linearGradient>
<linearGradient id="paint9_linear_992_9004" x1="87.4983" y1="43.3949" x2="87.4983" y2="120.456" gradientUnits="userSpaceOnUse">
<stop stop-color="#DB1580"/>
<stop offset="1" stop-color="#F5A41A"/>
</linearGradient>
<linearGradient id="paint10_linear_992_9004" x1="116.946" y1="74.9429" x2="116.946" y2="120.509" gradientUnits="userSpaceOnUse">
<stop stop-color="#DB1580"/>
<stop offset="1" stop-color="#F5A41A"/>
</linearGradient>
<linearGradient id="paint11_linear_992_9004" x1="117.225" y1="80.4688" x2="117.225" y2="93.0495" gradientUnits="userSpaceOnUse">
<stop stop-color="#DB1580"/>
<stop offset="1" stop-color="#F5A41A"/>
</linearGradient>
<linearGradient id="paint12_linear_992_9004" x1="68.3364" y1="78.1898" x2="68.3364" y2="81.4763" gradientUnits="userSpaceOnUse">
<stop stop-color="#DB1580"/>
<stop offset="1" stop-color="#F5A41A"/>
</linearGradient>
<linearGradient id="paint13_linear_992_9004" x1="63.4614" y1="75.3752" x2="63.4614" y2="78.6617" gradientUnits="userSpaceOnUse">
<stop stop-color="#DB1580"/>
<stop offset="1" stop-color="#F5A41A"/>
</linearGradient>
<linearGradient id="paint14_linear_992_9004" x1="76.5071" y1="80.2411" x2="76.5071" y2="99.1763" gradientUnits="userSpaceOnUse">
<stop stop-color="#DB1580"/>
<stop offset="1" stop-color="#F5A41A"/>
</linearGradient>
</defs>
</svg>
