<svg width="74" height="74" viewBox="0 0 74 74" fill="none" xmlns="http://www.w3.org/2000/svg">
<rect width="74" height="74" rx="37" fill="url(#paint0_linear_104_433)"/>
<path d="M41.5749 26.5C43.04 26.7858 44.3865 27.5024 45.442 28.5579C46.4975 29.6134 47.2141 30.9599 47.4999 32.425L41.5749 26.5ZM41.5749 20.5C44.6188 20.8382 47.4573 22.2013 49.6243 24.3655C51.7912 26.5298 53.1579 29.3665 53.4999 32.41L41.5749 20.5ZM51.9999 44.38V48.88C52.0016 49.2978 51.916 49.7113 51.7487 50.094C51.5813 50.4768 51.3358 50.8204 51.028 51.1028C50.7202 51.3852 50.3568 51.6002 49.961 51.7341C49.5653 51.8679 49.146 51.9176 48.7299 51.88C44.1142 51.3785 39.6804 49.8012 35.7849 47.275C32.1606 44.972 29.0879 41.8993 26.7849 38.275C24.2499 34.3618 22.6723 29.9065 22.1799 25.27C22.1424 24.8552 22.1917 24.4371 22.3247 24.0424C22.4576 23.6477 22.6713 23.285 22.952 22.9774C23.2328 22.6698 23.5746 22.4241 23.9556 22.2558C24.3366 22.0875 24.7484 22.0004 25.1649 22H29.6649C30.3929 21.9928 31.0986 22.2506 31.6505 22.7253C32.2025 23.2 32.563 23.8592 32.6649 24.58C32.8548 26.0201 33.2071 27.4341 33.7149 28.795C33.9167 29.3319 33.9604 29.9154 33.8408 30.4763C33.7211 31.0373 33.4432 31.5522 33.0399 31.96L31.1349 33.865C33.2702 37.6203 36.3796 40.7297 40.1349 42.865L42.0399 40.96C42.4477 40.5567 42.9626 40.2788 43.5236 40.1591C44.0845 40.0395 44.668 40.0832 45.2049 40.285C46.5658 40.7928 47.9798 41.1451 49.4199 41.335C50.1485 41.4378 50.814 41.8048 51.2897 42.3662C51.7654 42.9277 52.0182 43.6444 51.9999 44.38Z" stroke="white" stroke-width="2" stroke-linecap="round" stroke-linejoin="round"/>
<defs>
<linearGradient id="paint0_linear_104_433" x1="74" y1="37.0001" x2="1.41144e-08" y2="37.0001" gradientUnits="userSpaceOnUse">
<stop stop-color="#EE7047"/>
<stop offset="1" stop-color="#F40990"/>
</linearGradient>
</defs>
</svg>
