<svg width="426" height="285" viewBox="0 0 426 285" fill="none" xmlns="http://www.w3.org/2000/svg">
<path d="M412.07 106.568C410.351 107.128 409.731 108.828 408.59 109.997C404.677 114.077 400.695 118.094 396.846 122.236C387.601 132.18 378.099 141.873 368.757 151.719C359.415 161.565 350.003 171.572 340.661 181.53C333.052 189.647 325.346 197.716 317.939 205.987C309.585 215.288 300.745 224.182 292.983 234.021C291.242 236.232 290.358 234.14 289.683 233.181C286.383 228.493 283.139 223.748 280.056 218.905C270.941 204.592 262.072 190.13 253.449 175.518C253.228 175.25 252.97 175.015 252.684 174.819C252.509 173.566 251.744 172.6 251.138 171.565C247.456 165.204 243.418 159.052 240 152.523L244.267 150.683C245.545 150.548 246.781 150.152 247.901 149.521C248.201 149.591 248.444 149.521 248.542 149.206V149.262C249.46 149.038 250.4 148.87 251.326 148.563C276.118 140.431 300.902 132.283 325.68 124.119C332.495 121.866 339.429 119.92 346.077 117.205C347.08 117.186 348.052 116.856 348.861 116.26C357.375 113.986 365.652 110.977 373.992 108.164L422.171 92.5233C417.087 93.005 412.035 93.7925 407.044 94.8816L373.47 101.516C372.84 98.5761 372.513 95.5791 372.495 92.5723L410.685 91.3966C415.711 91.7535 420.709 90.6618 426 91.1097C425.197 92.4509 424.219 93.6772 423.09 94.7556C419.484 98.7444 415.307 102.215 412.07 106.568Z" fill="#410176"/>
<path fill-rule="evenodd" clip-rule="evenodd" d="M411.4 91.0904L373.102 92.2581C372.716 91.7056 372.698 91.0845 372.679 90.4622C372.672 90.2182 372.664 89.9741 372.635 89.7339L369.395 62.3098C369.396 60.5088 368.91 58.7412 367.988 57.1949C367.066 55.6486 365.743 54.3812 364.16 53.5274C344.613 41.9434 325.015 30.427 305.366 18.9782C300.074 15.9015 294.504 15.9854 289.31 19.4956C283.006 23.7578 276.727 28.0656 270.451 32.3722L270.448 32.3742L270.442 32.3783C267.526 34.379 264.611 36.3794 261.693 38.375C258.098 40.8303 254.502 43.2814 250.905 45.7322L250.905 45.7324C242.334 51.573 233.765 57.4118 225.238 63.3027C221.05 66.1836 218.432 69.9874 219.43 75.4345C219.46 75.9011 219.485 76.3678 219.511 76.8343C219.57 77.9264 219.63 79.0176 219.737 80.1054C220.136 84.1428 220.552 88.2021 220.968 92.2597C221.128 93.8238 221.288 95.3877 221.448 96.95C220.942 96.95 220.436 96.9473 219.93 96.9447C218.096 96.9352 216.259 96.9258 214.432 97.0409C213.329 97.1084 212.225 97.179 211.122 97.2496H211.122C204.121 97.6973 197.121 98.1451 190.089 97.831C190.483 96.2171 191.419 94.9108 192.357 93.6024L192.357 93.6023C192.882 92.8699 193.407 92.137 193.838 91.3491C198.836 82.1961 201.517 72.4138 202.774 62.128C203.217 58.5915 203.482 55.0378 203.747 51.4846V51.4845C204.178 45.701 204.608 39.9188 205.81 34.2145C208.959 19.3278 218.551 10.2867 232.171 4.95151C240.171 1.81194 248.611 0.853986 257.141 0.518353C258.015 0.482981 258.886 0.38846 259.758 0.293951C260.782 0.182948 261.805 0.0719615 262.831 0.0568543C284.022 -0.376204 305.161 2.34313 325.555 8.12602C345.325 13.7689 363.727 22.2436 379.532 35.592C395.979 49.4858 406.946 66.8409 410.897 88.2864C411.065 89.2164 411.233 90.1534 411.4 91.0904ZM412.789 106.229C413.424 116.99 412.091 127.563 409.627 138.016C404.475 159.916 394.562 179.53 380.572 196.997C365.457 215.915 346.078 230.974 324.026 240.937C308.098 248.122 291.199 252.917 273.875 255.166C261.392 256.936 248.776 257.586 236.178 257.11C216.506 256.297 196.99 253.247 178.005 248.02C162.996 243.867 148.12 239.37 134.262 232.063C133.925 231.885 133.57 231.723 133.214 231.56C131.94 230.98 130.639 230.387 129.99 228.945C132.633 228.945 134.347 227.385 136.059 225.826L136.059 225.826C136.698 225.244 137.338 224.662 138.025 224.162C138.294 224.006 138.522 223.788 138.689 223.525C138.857 223.263 138.959 222.964 138.988 222.654C139.017 222.344 138.971 222.032 138.854 221.743C138.738 221.454 138.554 221.198 138.318 220.995C137.369 220.1 136.224 220.463 135.296 221.316C134.001 222.598 132.599 223.768 131.107 224.812C129.292 225.938 129.062 227.211 129.962 228.945C127.724 228.606 126.047 227.246 124.4 225.91C124.044 225.621 123.689 225.333 123.33 225.057C122.82 224.667 122.3 224.284 121.78 223.901C119.376 222.13 116.957 220.348 115.344 217.715C115.428 217.545 115.523 217.379 115.619 217.214C116.026 216.509 116.426 215.816 115.833 214.876C115.136 213.783 114.268 213.967 113.402 214.151C113.045 214.227 112.687 214.303 112.342 214.289C106.366 207.541 103.344 199.472 101.71 190.739C101.311 188.614 101.277 186.484 101.243 184.355C101.225 183.205 101.207 182.055 101.131 180.907L101.194 178.901C101.633 166.314 106.687 155.679 114.897 146.421C125.019 135.024 138.235 128.542 152.127 123.13C155.74 121.722 159.278 120.127 162.818 118.531L162.818 118.531L162.819 118.531C164.114 117.947 165.41 117.363 166.71 116.787C167.736 116.333 168.804 115.85 169.286 114.69C170.873 115.784 172.458 116.882 174.042 117.98L174.046 117.983L174.047 117.983C177.646 120.477 181.247 122.972 184.881 125.423C186.607 126.585 188.304 127.791 190.002 128.998L190.002 128.998C193.291 131.336 196.582 133.675 200.086 135.695C200.047 135.947 200.011 136.198 199.974 136.45C199.938 136.702 199.901 136.953 199.863 137.205L199.702 137.904C199.606 138.856 199.51 139.808 199.414 140.76L199.414 140.769C199.205 142.85 198.996 144.929 198.781 146.994C198.516 149.558 198.254 152.121 197.992 154.684L197.991 154.691C197.145 162.963 196.299 171.235 195.388 179.502C195.143 181.649 195.688 182.138 197.845 181.823C203.19 181.043 208.549 180.357 213.91 179.671L213.916 179.67C216.669 179.318 219.422 178.965 222.174 178.6C232.412 177.239 242.672 175.859 252.953 174.46C253.24 174.656 253.499 174.892 253.721 175.16C262.377 189.75 271.271 204.201 280.402 218.512C283.495 223.351 286.748 228.092 290.057 232.777C290.15 232.905 290.246 233.053 290.348 233.209L290.348 233.21C291.003 234.218 291.854 235.529 293.366 233.616C298.805 226.741 304.766 220.334 310.726 213.927L310.727 213.926L310.728 213.925C313.297 211.164 315.865 208.403 318.392 205.604C324.28 199.078 330.319 192.678 336.357 186.281L336.361 186.276C337.968 184.573 339.575 182.871 341.178 181.166C350.547 171.214 359.938 161.285 369.353 151.379C372.925 147.628 376.519 143.901 380.114 140.173L380.12 140.166L380.121 140.165C385.954 134.116 391.787 128.066 397.522 121.92C400.072 119.186 402.68 116.506 405.287 113.827L405.287 113.827L405.288 113.826C406.628 112.45 407.967 111.074 409.299 109.69C409.663 109.309 409.974 108.879 410.284 108.45C410.951 107.526 411.611 106.611 412.789 106.229ZM138.891 205.15C139.061 205.807 139.293 206.463 139.528 207.129C140.044 208.589 140.575 210.092 140.503 211.73C140.448 213.009 140.978 214.114 142.332 214.1C143.687 214.086 144.078 212.974 144.168 211.709C144.309 209.532 143.903 207.354 142.989 205.374C142.388 204.017 142.73 203.332 144.015 202.751C145.753 201.968 147.449 201.087 149.125 200.171C150.032 199.675 150.591 198.892 150.018 197.808C149.446 196.724 148.622 196.298 147.449 196.892C146.954 197.141 146.464 197.411 145.976 197.681C144.86 198.297 143.747 198.912 142.563 199.276C139.878 200.091 139.475 202.164 139.037 204.417L139.036 204.417C138.989 204.66 138.942 204.904 138.891 205.15ZM125.013 212.632C127.447 211.817 129.932 210.236 132.414 208.657L132.761 208.436C133.383 208.038 133.285 207.164 132.908 206.527C132.531 205.891 131.833 205.129 131.023 205.499C128.37 206.751 125.76 208.087 123.212 209.534C122.479 209.947 122.625 210.933 122.876 211.695C123.128 212.457 123.777 212.66 124.992 212.632H125.013ZM110.967 181.299C109.431 181.138 108.705 181.418 108.314 182.39C108.221 182.59 108.171 182.808 108.166 183.028C108.161 183.249 108.202 183.469 108.286 183.673C108.37 183.877 108.495 184.062 108.654 184.215C108.812 184.369 109.001 184.487 109.208 184.564C111.273 185.554 113.369 186.447 115.483 187.348C115.848 187.503 116.213 187.659 116.58 187.816C117.606 188.256 118.262 187.641 118.737 186.872C118.861 186.717 118.952 186.539 119.004 186.347C119.057 186.156 119.07 185.956 119.043 185.76C119.015 185.563 118.948 185.374 118.845 185.205C118.742 185.035 118.605 184.889 118.443 184.774C115.909 183.25 113.312 181.851 110.967 181.299ZM133.236 197.976C133.585 197.967 133.926 197.866 134.223 197.681C134.52 197.497 134.763 197.237 134.926 196.927C135.456 196.102 135.051 195.438 134.444 194.829C132.568 193.164 130.563 191.652 128.447 190.305C127.407 189.606 126.548 189.473 125.766 190.522C124.901 191.683 125.341 192.662 126.367 193.431C127.341 194.157 128.328 194.869 129.315 195.581L129.316 195.582C130.153 196.186 130.99 196.79 131.819 197.402C132.201 197.764 132.704 197.969 133.229 197.976H133.236ZM165.146 189.109C162.587 189.902 160.108 190.932 157.739 192.186C157.378 192.361 157.098 192.669 156.959 193.046C156.819 193.422 156.831 193.839 156.992 194.207C157.157 194.673 157.499 195.054 157.944 195.268C158.389 195.482 158.9 195.51 159.366 195.347C161.809 194.473 164.253 193.487 166.598 192.431C167.009 192.253 167.337 191.924 167.513 191.512C167.69 191.1 167.702 190.635 167.548 190.214C167.247 189.144 166.375 189.06 165.139 189.109H165.146ZM180.267 184.411L180.262 184.41C181.476 184.355 182.27 184.824 182.319 186.18C182.361 187.648 179.653 189.095 176.923 189.095C175.639 189.095 174.982 188.557 175.017 187.207C175.052 185.859 177.869 184.371 180.262 184.41L180.26 184.411H180.267ZM152.651 114.109C155.642 112.965 158.671 111.806 160.888 109.284C159.458 107.615 157.656 106.447 155.856 105.281C155.062 104.767 154.269 104.254 153.509 103.697C151.588 102.365 149.753 100.912 148.015 99.3482C152.09 99.3254 156.137 99.1057 160.173 98.8867C164.779 98.6367 169.371 98.3875 173.977 98.4322C173.735 97.5208 174.22 96.8854 174.695 96.263C174.796 96.1309 174.896 95.9994 174.989 95.866C180.734 87.5521 184.762 78.4341 187.715 68.8056C190.906 58.373 185.873 48.0872 176.323 45.2134C169.733 43.2485 164.427 46.0874 159.317 49.5416C152.929 53.8489 147.582 59.317 142.604 65.1696C135.836 73.0281 130.263 81.8451 126.066 91.335C123.972 96.1387 122.457 101.061 122.688 106.487C122.918 111.913 126.269 115.857 131.581 116.857C138.835 118.214 145.739 116.759 152.469 114.179L152.651 114.109Z" fill="#2B004F" fill-opacity="0.2"/>
<path d="M160.847 109.115C158.757 106.755 155.97 105.418 153.483 103.628C151.566 102.32 149.735 100.895 148 99.3613C156.709 99.3133 165.285 98.3805 173.91 98.4628L189.991 97.8729C198.107 98.2227 206.189 97.578 214.278 97.091C216.605 96.947 218.946 97.0224 221.28 97.0019C221.753 100.726 222.283 104.444 222.673 108.175C223.488 115.555 224.227 122.942 225 130.322C224.303 130.425 223.641 130.514 222.965 130.645L199.974 135C194.672 131.996 189.858 128.271 184.8 124.924C179.575 121.495 174.419 117.908 169.236 114.396C166.449 112.62 164.01 110.308 160.847 109.115Z" fill="#410176"/>
<path d="M101 178.773L100.956 181.337C97.2945 183.118 93.8454 180.768 90.2791 180.581C89.3783 180.536 88.8948 179.236 89.0193 177.972C89.1219 176.851 89.6419 175.925 90.5573 176.005C94.1529 176.281 97.8584 176.014 101 178.773Z" fill="#2B004F"/>
<path d="M14.9925 264.03C14.8675 264.355 14.6979 264.665 14.4874 264.952C12.8997 266.684 11.2953 268.416 9.67396 270.148C8.88735 270.979 7.9202 271.35 6.85214 270.577C5.78408 269.804 5.7265 268.823 6.64301 267.842C8.19458 266.173 9.71006 264.471 11.3194 262.841C11.9111 262.237 12.712 261.75 13.7079 262.14C14.1178 262.291 14.4635 262.555 14.6946 262.895C14.9257 263.235 15.0301 263.633 14.9925 264.03Z" fill="#2B004F"/>
<path d="M76.212 244.998C75.7048 245.018 75.2058 244.896 74.8103 244.654C74.4148 244.412 74.1509 244.068 74.0691 243.688C73.7417 242.644 74.6196 242.074 75.8101 241.91C78.3549 241.56 80.9145 241.283 83.4741 241.029C84.6646 240.911 85.7064 241.125 85.9594 242.215C86.2123 243.304 85.2525 243.908 83.9579 244.106C81.5024 244.439 79.0469 244.676 76.212 244.998Z" fill="#2B004F"/>
<path d="M70.4728 217C72.7014 218.442 75.8145 218.933 78.4039 220.35C78.7017 220.531 78.9063 220.804 78.9748 221.111C79.0434 221.418 78.9707 221.736 78.7719 221.998C78.6044 222.354 78.2927 222.647 77.8939 222.823C77.4951 222.998 77.0357 223.045 76.5998 222.955C73.8671 222.342 71.2696 221.352 68.9092 220.023C68.7106 219.934 68.5344 219.812 68.3912 219.664C68.2479 219.516 68.1404 219.345 68.0746 219.162C68.0088 218.978 67.9863 218.785 68.0081 218.594C68.0299 218.403 68.0956 218.217 68.2017 218.048C68.5908 217.4 69.2134 217.006 70.4728 217Z" fill="#2B004F"/>
<path d="M46.3273 245C47.9025 245 48.7142 245.524 48.948 246.779C49.0056 247.061 49.0155 247.354 48.9769 247.64C48.9383 247.926 48.8521 248.2 48.7235 248.445C48.5949 248.689 48.4266 248.9 48.2288 249.064C48.0309 249.228 47.8076 249.342 47.5724 249.399C45.2131 250.288 42.8193 251.061 40.4326 251.893C40.2073 251.983 39.9696 252.016 39.7333 251.993C39.497 251.969 39.2671 251.888 39.0572 251.754C38.8474 251.621 38.6617 251.438 38.5116 251.216C38.3615 250.994 38.2499 250.738 38.1833 250.463C38.0708 250.205 38.0084 249.92 38.0008 249.629C37.9932 249.339 38.0405 249.049 38.1393 248.784C38.2382 248.518 38.3858 248.284 38.5711 248.098C38.7563 247.912 38.9742 247.779 39.2082 247.711C41.7119 246.621 44.2638 245.765 46.3273 245Z" fill="#2B004F"/>
<path d="M73.2415 183.993C72.0955 184.062 71.3338 183.645 71.0962 182.384C70.9516 181.86 70.9706 181.287 71.1492 180.78C71.3278 180.272 71.653 179.867 72.0604 179.644C74.6088 178.25 77.3192 177.369 80.0898 177.034C80.3052 176.984 80.5268 176.989 80.7404 177.051C80.9541 177.112 81.155 177.229 81.3306 177.392C81.5061 177.556 81.6522 177.763 81.7598 178.001C81.8674 178.239 81.9341 178.502 81.9555 178.774C82.1232 179.974 81.8297 181.035 80.8583 181.383C78.2588 182.34 75.6803 183.175 73.2415 183.993Z" fill="#2B004F"/>
<path d="M96.55 241.989C95.0097 242.077 94.2708 241.648 94.0454 240.728C93.82 239.808 94.4649 239.04 95.2977 238.788C97.5268 238.158 99.7809 237.527 102.048 237.042C103.006 236.828 103.694 237.452 103.926 238.391C103.988 238.58 104.011 238.779 103.995 238.977C103.979 239.176 103.923 239.369 103.832 239.545C103.74 239.721 103.614 239.877 103.461 240.004C103.309 240.13 103.132 240.224 102.943 240.281C100.676 240.974 98.3408 241.522 96.55 241.989Z" fill="#2B004F"/>
<path d="M65 187.799C64.8414 188.223 64.6134 188.622 64.3239 188.982C62.7544 190.497 61.4168 192.203 60.3484 194.054C60.2606 194.257 60.1265 194.439 59.9554 194.588C59.7843 194.738 59.5805 194.851 59.3575 194.921C59.1346 194.991 58.898 195.015 58.6641 194.991C58.4302 194.968 58.2044 194.899 58.0023 194.787C57.5792 194.589 57.2558 194.246 57.1006 193.832C56.9454 193.417 56.9706 192.962 57.1707 192.564C58.2011 190.17 59.8575 188.051 61.9913 186.396C62.2397 186.18 62.5573 186.044 62.8962 186.009C63.2352 185.974 63.5772 186.042 63.8709 186.202C64.1671 186.383 64.4202 186.617 64.6144 186.892C64.8086 187.167 64.9398 187.475 65 187.799Z" fill="#2B004F"/>
<path d="M57.9868 203C58.4763 203.039 58.9407 203.211 59.3176 203.492C59.6945 203.773 59.9656 204.15 60.0949 204.573C60.8902 206.519 62.0284 208.339 63.4667 209.965C64.3489 210.951 64.0723 211.838 63.1079 212.571C62.9164 212.728 62.6893 212.847 62.4419 212.92C62.1944 212.992 61.9324 213.016 61.6736 212.99C61.4148 212.964 61.1652 212.889 60.9419 212.769C60.7185 212.65 60.5266 212.489 60.3791 212.298C58.409 210.301 56.9521 207.944 56.1102 205.393C55.6692 204.006 56.6037 203.247 57.9868 203Z" fill="#2B004F"/>
<path d="M90.4116 224.83C88.6884 224.881 86.3658 225.688 86.0361 223.276C85.6615 220.519 88.2838 221.076 90.0145 220.834C91.7452 220.592 93.3262 220.409 94.9595 220.101C96.5928 219.793 97.6716 220.152 97.9564 221.677C98.2411 223.202 97.0947 223.877 95.6337 224.119L90.4116 224.83Z" fill="#2B004F"/>
<path d="M115.12 236.997C114.034 237.034 113.381 236.746 113.129 235.829C112.876 234.913 112.948 233.864 113.775 233.435C116.111 232.238 118.481 231.13 120.886 230.11C121.752 229.734 122.392 230.369 122.786 231.3C122.984 231.662 123.048 232.098 122.964 232.514C122.881 232.929 122.656 233.29 122.34 233.517C120.039 235.142 117.44 236.081 115.12 236.997Z" fill="#2B004F"/>
<path d="M58.8823 247.969C57.5178 248.102 56.1533 247.874 56.0101 245.995C55.8668 244.116 57.279 243.692 58.5753 243.535C60.5811 243.291 62.6004 243.079 64.613 243C65.7728 243 66.9053 243.44 66.994 245.02C67.0827 246.601 66.1753 247.261 64.9473 247.379C62.9142 247.591 60.8949 247.772 58.8823 247.969Z" fill="#2B004F"/>
<path d="M113.145 214.292C114.357 214.344 115.711 213.284 116.708 214.91C117.421 216.132 116.659 216.957 116.21 217.899C114.15 218.716 112.097 219.57 110.03 220.357C108.605 220.887 106.966 221.763 106.175 219.68C105.462 217.759 107.073 217.281 108.406 216.67C110.031 215.934 111.841 215.632 113.145 214.292Z" fill="#2B004F"/>
<path d="M29 254.655C28.9263 256.214 22.1429 260.619 21.0625 259.927C19.8347 259.124 19.5831 257.885 20.774 256.978C22.6318 255.569 24.5968 254.327 26.6488 253.265C27.8643 252.632 28.8956 253.148 29 254.655Z" fill="#2B004F"/>
<path d="M0.0204843 283.057C0.154172 281.528 0.594304 280.057 1.30518 278.763C1.45517 278.432 1.70943 278.184 2.01401 278.069C2.31858 277.955 2.6494 277.983 2.93611 278.149C3.56727 278.515 4.18729 279.102 3.94712 280.035C3.59818 281.427 3.15548 282.785 2.62328 284.095C2.55068 284.282 2.44667 284.451 2.31742 284.591C2.18816 284.73 2.03638 284.838 1.87082 284.908C1.70526 284.978 1.5294 285.009 1.35359 284.998C1.17778 284.987 1.00553 284.935 0.847129 284.846C0.557785 284.699 0.319026 284.443 0.169122 284.118C0.0192182 283.794 -0.0331311 283.42 0.0204843 283.057Z" fill="#2B004F"/>
<path d="M200.77 135.771L223.959 131.329C224.662 131.196 225.365 131.105 226.011 131C227.1 136.715 227.367 142.529 228.154 148.279C228.534 151.077 228.47 154.001 229.749 156.673C230.494 158.226 231.155 158.772 232.863 157.59C235.568 155.715 238.161 153.644 241.197 152.259C244.619 158.786 248.695 164.935 252.44 171.294C253.051 172.329 253.845 173.295 254 174.547C243.694 175.946 233.366 177.326 223.018 178.688C214.852 179.766 206.672 180.731 198.528 181.913C196.357 182.228 195.808 181.738 196.054 179.591C197.256 168.755 198.345 157.905 199.47 147.069C199.786 144.04 200.088 140.997 200.397 137.975C200.446 137.751 200.502 137.527 200.559 137.275C200.622 136.778 200.692 136.275 200.77 135.771Z" fill="#2B004F"/>
<path d="M139 205.292C139.528 202.835 139.678 200.454 142.55 199.577C144.217 199.066 145.728 198.053 147.293 197.257C148.445 196.678 149.251 197.121 149.786 198.148C150.321 199.175 149.786 199.964 148.919 200.447C147.293 201.339 145.646 202.196 143.959 202.958C142.713 203.523 142.381 204.189 142.964 205.509C143.851 207.436 144.245 209.555 144.108 211.673C144.02 212.904 143.627 213.986 142.327 214C141.026 214.013 140.497 212.939 140.552 211.694C140.646 209.346 139.508 207.305 139 205.292Z" fill="#2B004F"/>
<path d="M125.219 212C124.068 212 123.433 211.832 123.194 211.213C122.956 210.594 122.817 209.767 123.512 209.425C125.928 208.228 128.403 207.111 130.917 206.087C131.685 205.775 132.32 206.359 132.704 206.938C133.088 207.516 133.154 208.187 132.565 208.517C130.103 209.894 127.635 211.283 125.219 212Z" fill="#2B004F"/>
<path d="M110.829 181.05C113.205 181.707 115.828 183.368 118.381 185.204C118.544 185.34 118.682 185.515 118.786 185.716C118.89 185.917 118.958 186.142 118.986 186.375C119.014 186.609 119 186.846 118.947 187.073C118.894 187.301 118.802 187.513 118.677 187.697C118.197 188.61 117.535 189.358 116.498 188.818C114.009 187.555 111.499 186.326 109.052 184.955C108.844 184.864 108.653 184.722 108.493 184.54C108.333 184.358 108.206 184.138 108.122 183.896C108.037 183.653 107.996 183.392 108 183.13C108.005 182.868 108.056 182.609 108.15 182.371C108.538 181.192 109.271 180.859 110.829 181.05Z" fill="#2B004F"/>
<path d="M130.489 228C129.641 226.567 129.832 225.515 131.568 224.584C132.974 223.721 134.294 222.755 135.514 221.695C136.415 220.99 137.487 220.689 138.361 221.429C138.583 221.597 138.757 221.809 138.866 222.048C138.976 222.286 139.019 222.544 138.992 222.801C138.965 223.057 138.869 223.304 138.711 223.521C138.553 223.738 138.338 223.918 138.085 224.047C135.704 225.567 133.935 228.017 130.516 228H130.489Z" fill="#2B004F"/>
<path d="M133.215 198C132.744 197.997 132.29 197.807 131.942 197.468C130.292 196.165 128.611 194.903 126.968 193.594C126.032 192.843 125.631 191.888 126.421 190.756C127.134 189.733 127.917 189.835 128.866 190.545C130.796 191.858 132.625 193.334 134.336 194.958C134.89 195.524 135.26 196.172 134.776 197.004C134.622 197.304 134.397 197.555 134.122 197.73C133.848 197.905 133.535 197.998 133.215 198Z" fill="#2B004F"/>
<path d="M164.421 190.01C165.681 189.971 166.556 190.01 166.89 190.87C167.048 191.202 167.035 191.568 166.855 191.893C166.675 192.218 166.341 192.478 165.922 192.618C163.503 193.45 161.04 194.228 158.55 194.917C158.075 195.046 157.554 195.024 157.1 194.855C156.646 194.687 156.298 194.386 156.13 194.018C155.969 193.731 155.957 193.406 156.096 193.112C156.235 192.817 156.515 192.575 156.877 192.436C159.289 191.448 161.815 190.635 164.421 190.01Z" fill="#2B004F"/>
<path d="M180.751 185.005C182.097 184.945 182.954 185.447 182.999 186.877C183.045 188.45 180.078 190 177.089 190C175.681 190 174.97 189.371 175.001 187.978C175.032 186.585 178.129 184.96 180.751 185.005Z" fill="#2B004F"/>
<path d="M239.885 152.092C236.861 153.479 234.286 155.517 231.584 157.376C229.919 158.527 229.225 158.007 228.484 156.467C227.21 153.819 227.273 150.92 226.895 148.147C226.111 142.447 225.845 136.685 224.76 131.02C223.983 123.559 223.241 116.092 222.423 108.631C222.01 104.859 221.478 101.101 221.023 97.3354C220.449 91.7884 219.861 86.1997 219.308 80.6318C219.154 79.0925 219.098 77.5462 219 76C223.703 76.8945 228.015 79.037 232.641 80.1603C244.616 84.1403 256.598 88.0788 268.553 92.1073C276.706 94.8809 284.979 97.2522 293 100.372C293 101.35 292.244 101.884 291.6 102.494C280.92 113.256 270.235 124.015 259.545 134.771C254.412 139.939 249.28 145.103 244.147 150.262L239.885 152.092Z" fill="#DA1081"/>
<path d="M346 116.42C339.314 119.122 332.348 121.011 325.501 123.231C300.616 131.296 275.715 139.323 250.798 147.311C249.895 147.6 248.951 147.766 248 148C248.084 147.021 248.93 146.587 249.518 145.994C251.896 143.616 254.413 141.417 256.903 139.1C263.799 132.696 270.332 125.906 277.382 119.674C282.166 115.441 286.39 110.65 291.37 106.631C293.335 105.045 295.426 103.398 296.601 101.012C302.259 96.9588 308.302 95.6904 314.919 98.5375C316.653 100.399 319.115 101.136 321.213 102.37C329.494 107.127 337.754 111.753 346 116.42Z" fill="#DA1081"/>
<path d="M368.822 63C369.882 72.0395 370.943 81.0744 372.004 90.1047C372.107 90.9478 371.936 91.8393 372.464 92.5995C372.481 95.5714 372.803 98.5334 373.424 101.439L374 108.004C365.77 110.768 357.628 113.754 349.24 116C344.219 112.814 339.213 109.607 334.151 106.456C329.089 103.305 324.048 100.236 319 97.1055C327.944 90.8902 336.887 84.6819 345.831 78.4805C350.968 74.9006 356.078 71.2862 361.195 67.6925C364.007 66.5453 365.879 63.8846 368.822 63Z" fill="#DA1081"/>
<path d="M297 100.248C295.823 102.7 293.727 104.394 291.758 106.024C286.755 110.157 282.522 115.083 277.743 119.435C270.679 125.815 264.133 132.825 257.224 139.41C254.757 141.763 252.206 144.025 249.823 146.498C249.235 147.108 248.387 147.555 248.303 148.561V148.504L247.658 148.823C246.53 149.463 245.286 149.863 244 150C249.139 144.717 254.278 139.438 259.417 134.165C270.116 123.164 280.814 112.165 291.513 101.169C292.123 100.545 292.858 99.9994 292.914 99C294.332 99.1985 295.711 99.6194 297 100.248Z" fill="white"/>
<path d="M374.588 109L374 101.774L407.78 94.5633C412.802 93.3795 417.884 92.5236 423 92L374.588 109Z" fill="#2B004F"/>
<path d="M318.077 96C323.406 99.2938 328.757 102.588 334.071 105.903C339.386 109.219 344.678 112.638 350 116.012C349.158 116.635 348.147 116.98 347.104 117C338.575 112.045 330.009 107.133 321.516 102.097C319.344 100.787 316.774 100.004 315 98.0275L318.077 96Z" fill="white"/>
<path d="M369 61.6843C366.009 62.5813 364.119 65.2792 361.268 66.4424C361.107 65.4053 360.898 64.3752 360.8 63.3311C360.103 55.9731 356.464 52.7426 349.045 53.2472C325.436 54.8496 301.832 56.4847 278.233 58.1525C266.868 58.9513 255.503 59.7992 244.138 60.6261C235.952 61.2148 231.51 66.4634 232.326 74.5712C232.473 76.0498 232.64 77.5214 232.8 79C228.192 77.8578 223.897 75.6924 219.211 74.7955C218.214 69.3366 220.849 65.5244 225.012 62.6373C237.102 54.2282 249.276 45.9803 261.422 37.6553C270.612 31.3485 279.781 25.0066 289.005 18.7349C294.2 15.2311 299.764 15.133 305.042 18.2163C324.676 29.6433 344.25 41.1848 363.764 52.8407C365.352 53.6988 366.679 54.9751 367.602 56.533C368.524 58.0908 369.007 59.8715 369 61.6843Z" fill="#E34CA0"/>
<path d="M232.57 79.5175C232.409 78.0553 232.242 76.6001 232.096 75.1379C231.28 67.1201 235.72 61.9296 243.904 61.3475C255.265 60.5298 266.627 59.6913 277.989 58.9013C301.582 57.2566 325.179 55.6397 348.781 54.0504C356.197 53.5515 359.85 56.7461 360.533 64.0225C360.63 65.055 360.84 66.1014 361 67.0993C355.8 70.7028 350.607 74.3271 345.386 77.9168C336.306 84.1536 327.217 90.3789 318.118 96.5926L315.079 98.5122C308.485 95.6502 302.462 96.9253 296.823 101C295.518 100.369 294.121 99.9476 292.683 99.7526C284.695 96.6342 276.455 94.2088 268.335 91.4923C256.429 87.4453 244.524 83.5091 232.57 79.5175ZM269.729 74.0846C275.501 73.5925 281.279 73.1421 287.044 72.6085C293.498 72.0056 299.939 71.2849 306.394 70.7028C313.029 70.0999 319.686 69.7603 326.294 68.9703C328.385 68.7209 330.476 68.9703 332.477 68.2774C333.522 67.9378 334.568 67.6675 334.345 66.2677C334.122 64.8679 332.951 64.9857 331.878 64.9857C331.62 64.9857 331.362 64.9857 331.097 65.0203L319.993 66.0252L307.328 67.1339C300.009 67.7946 292.692 68.4599 285.378 69.1297C280.038 69.6287 274.706 70.1692 269.346 70.6543C268.217 70.7582 267.457 71.2087 267.575 72.4006C267.578 72.6624 267.64 72.9202 267.756 73.1552C267.872 73.3903 268.039 73.5966 268.246 73.7593C268.452 73.9219 268.692 74.0368 268.949 74.0954C269.205 74.1541 269.472 74.1551 269.729 74.0984V74.0846ZM325.778 72.7679C320.697 73.1906 316.305 73.5094 311.921 73.9321C305.571 74.5489 299.221 75.228 292.871 75.9002C288.159 76.3991 283.44 76.9258 278.721 77.4386C277.466 77.5703 276.344 78.1316 276.63 79.469C276.867 80.7095 278.08 81.0421 279.313 80.9035C284.89 80.2729 290.466 79.6146 296.042 79.0186C305.996 77.9514 315.952 76.9165 325.911 75.914C327.228 75.7824 328.567 75.5745 328.539 74.0638C328.511 72.5531 326.984 72.8303 325.911 72.7679C325.604 72.7679 325.381 72.7817 325.778 72.7817V72.7679Z" fill="#FEFEFE"/>
<path d="M270.141 73.971C269.886 74.0164 269.625 74.0084 269.374 73.9477C269.123 73.8869 268.889 73.7748 268.687 73.619C268.485 73.4631 268.321 73.2672 268.204 73.0444C268.088 72.8217 268.022 72.5774 268.012 72.3281C267.892 71.1506 268.665 70.7056 269.814 70.603C275.241 70.1238 280.668 69.5898 286.13 69.0969C293.569 68.426 301.015 67.7689 308.468 67.1254L321.358 66.0301L332.658 65.0374C332.928 65.0374 333.19 65.0032 333.453 65.0032C334.524 65.0032 335.716 64.8731 335.964 66.2697C336.212 67.6662 335.127 67.9195 334.063 68.2549C332.013 68.8984 329.863 68.6725 327.771 68.9395C321.046 69.7199 314.293 70.0553 307.518 70.6509C300.949 71.2259 294.394 71.9378 287.826 72.5334C281.895 73.04 276.014 73.485 270.141 73.971Z" fill="#BFB3CA"/>
<path d="M326.278 73C325.846 73 326.104 73 326.369 73C327.443 73.0611 328.964 72.6877 328.999 74.2697C329.034 75.8517 327.688 75.9536 326.369 76.0826C316.401 77.0603 306.435 78.0743 296.471 79.1244C290.889 79.7084 285.307 80.3534 279.726 80.9713C278.491 81.1071 277.276 80.7812 277.039 79.5658C276.774 78.2078 277.897 77.7054 279.132 77.5764C283.856 77.0739 288.58 76.5579 293.296 76.069C299.653 75.39 306.009 74.745 312.365 74.1407C316.81 73.7265 321.192 73.4142 326.278 73Z" fill="#BFB3CA"/>
</svg>
