<svg width="21" height="21" viewBox="0 0 21 21" fill="none" xmlns="http://www.w3.org/2000/svg">
<path d="M15.4414 2.82178H19.4414C19.7066 2.82178 19.961 2.92713 20.1485 3.11467C20.3361 3.30221 20.4414 3.55656 20.4414 3.82178V19.8218C20.4414 20.087 20.3361 20.3413 20.1485 20.5289C19.961 20.7164 19.7066 20.8218 19.4414 20.8218H1.44141C1.17619 20.8218 0.921836 20.7164 0.734299 20.5289C0.546763 20.3413 0.441406 20.087 0.441406 19.8218V3.82178C0.441406 3.55656 0.546763 3.30221 0.734299 3.11467C0.921836 2.92713 1.17619 2.82178 1.44141 2.82178H5.44141V0.821777H7.44141V2.82178H13.4414V0.821777H15.4414V2.82178ZM18.4414 10.8218H2.44141V18.8218H18.4414V10.8218ZM13.4414 4.82178H7.44141V6.82178H5.44141V4.82178H2.44141V8.82178H18.4414V4.82178H15.4414V6.82178H13.4414V4.82178ZM4.44141 12.8218H6.44141V14.8218H4.44141V12.8218ZM9.44141 12.8218H11.4414V14.8218H9.44141V12.8218ZM14.4414 12.8218H16.4414V14.8218H14.4414V12.8218Z" fill="#747474"/>
</svg>
